<svg id="Layer_1" data-name="Layer 1" xmlns="http://www.w3.org/2000/svg" viewBox="0 0 32.24 22.74"><defs><style>.cls-1{fill:#fcd317;}</style></defs><title>bee</title><path class="cls-1" d="M12.77,19.3a1.43,1.43,0,0,0,.63,1.35.39.39,0,0,0,.45-.06,4.1,4.1,0,0,0,.59-.94c.2-.36-.31-.8-.59-.45l.22-.07.28.36c-.09-1.25-1.33-.84-1.55.15-.07.33.37.68.63.36.44-.54.9-1.28.4-1.91a.38.38,0,0,0-.36-.1c-.78.13-1.33,1.51-1.3,2.2a.37.37,0,0,0,.19.32c.72.33,1.44-.43,1.81-1a.38.38,0,0,0-.42-.55,3.09,3.09,0,0,0-1.31.73.38.38,0,0,0,.36.63l2.1-.75L14.51,19a3.75,3.75,0,0,0-.61.69.38.38,0,0,0,.45.59c.69-.32,1.36-.66,2-1l-.51-.51a4.05,4.05,0,0,0-.54,1.2.38.38,0,0,0,.26.46.62.62,0,0,0,.85-.75c-.19-.78-1.68-1-2.27-1.23l-.2.72c.76.13,1.51.24,2.28.29s2.11-.23,2.35.78l.69-.29-.3-.7a.38.38,0,0,0-.65,0,7.85,7.85,0,0,0-.44,1.09l.63-.17c-1.23-1.47-3.4-.17-4.92,0a.38.38,0,0,0,0,.75c1.83.14,3.67-.28,5.48-.11a.38.38,0,0,0,.38-.37c0-.67,0-1.72-.75-1.95a2.85,2.85,0,0,0-1.3.15,6.6,6.6,0,0,1-3,.11c-.47-.1-.67.63-.2.72a6.84,6.84,0,0,0,2.41.11c.4-.06.78-.18,1.18-.27,1-.21.88.22.91,1.12l.38-.37c-1.81-.18-3.65.24-5.48.11v.75c1.21-.11,3.49-1.27,4.39-.19a.38.38,0,0,0,.63-.17,4.32,4.32,0,0,1,.37-.91h-.65l.3.7c.17.4.78.11.69-.29-.15-.63-.13-1.15-.83-1.28a14.33,14.33,0,0,0-1.76,0,21.68,21.68,0,0,1-2.57-.3.38.38,0,0,0-.2.72c.6.23,1.24.35,1.82.54l.26.46a2.4,2.4,0,0,1,.47-1c.21-.32-.2-.69-.51-.51-.66.38-1.33.72-2,1l.45.59a3.75,3.75,0,0,1,.61-.69c.25-.25,0-.76-.36-.63l-2.1.75.36.63a1.79,1.79,0,0,1,1-.54l-.42-.55q-1.49,1.26-.37.25.48-.76-.24,0l.63.36.08-.35a.4.4,0,0,0,.28.36l.1,0a.36.36,0,0,0,.36-.1l.05-.06-.59-.45a8.24,8.24,0,0,1-.47.79l.45-.06-.26-.71a.38.38,0,0,0-.75,0Z" transform="translate(0.32 -5.43)"/><path class="cls-1" d="M13,12a4.56,4.56,0,0,1,4.21-.07l.38-.65a7.93,7.93,0,0,0-4.79-.18c-.42.08-.32.74.1.74a24.06,24.06,0,0,1,4,.26c.47.07.68-.65.2-.72a25.26,25.26,0,0,0-4.2-.29l.1.74a7,7,0,0,1,4.21.1.38.38,0,0,0,.38-.65,5.2,5.2,0,0,0-5,.07A.38.38,0,0,0,13,12Z" transform="translate(0.32 -5.43)"/><path class="cls-1" d="M13.83,25.52a5.61,5.61,0,0,0,2.59.89,1.48,1.48,0,0,0,1.38-1.19.38.38,0,0,0-.17-.42A4.15,4.15,0,0,0,16,24.6l-2.39-.13a.38.38,0,0,0-.1.74,14.56,14.56,0,0,0,3.17.13c.49,0,.47-.7,0-.75a10.4,10.4,0,0,1-2-.49.38.38,0,0,0-.47.36,1.19,1.19,0,0,0,.71,1.08c.76.36,1.43-.24,2.18-.08.33.07.67.31,1,0a.53.53,0,0,0-.18-.81c-.43-.22-.81.42-.38.65l-.09-.17.26-.26c-.18.07-.63-.18-.86-.16-.44,0-1.8.7-1.85-.2l-.47.36a11.37,11.37,0,0,0,2.24.51v-.75a13.78,13.78,0,0,1-3-.11l-.1.74,1.91.11a5.25,5.25,0,0,1,1.71.13L17.06,25c-.28,1.4-2.15.15-2.86-.15-.44-.19-.82.46-.38.65Z" transform="translate(0.32 -5.43)"/><path d="M13,11a4.67,4.67,0,0,0-1.52,4.23c-.06-.79.57,3.12.42,1.94A9.09,9.09,0,0,1,11.72,20a6.58,6.58,0,0,0,.2,2.33c.73,2.85,3.34,6,6.22,3.26s1-7.54,1.31-10.91c.41-3.95-3.44-5.32-6.69-3.7-.17.09,0,.34.15.26q4-2,6.31,2.64A19.08,19.08,0,0,1,18.9,16a6.41,6.41,0,0,0-.14,1.13c.07.42.71,1.84.57,1.33a8.32,8.32,0,0,1-.8,5.75q-1.08,3.25-5.24.56a10,10,0,0,1-1-2.16c-.47-1.56,0-2.78.1-4.31.13-2.42-1.53-5.29.81-7.12.15-.12-.06-.33-.21-.21Z" transform="translate(0.32 -5.43)"/><path d="M19.14,12.81a22.17,22.17,0,0,0,5-2.41c1.41-.91,7.67-3.82,7.32.46-.18,2.2-3.2,2.34-4.62,3.16-2.47,1.42-.84,1.92-3.34,1.87a7.17,7.17,0,0,1-4.19-1.54c-.16-.11-.31.15-.15.26,1.72,1.26,5.3,2.57,7.27.95,1.49-1.22-.53.35.65-.95.74-.82,1.32-.81,2.25-1.22a4.13,4.13,0,0,0,2.17-1.79c1.24-2.38-.31-3.25-2.42-3.19-3.82.11-6.47,2.92-10,4.12-.18.06-.1.35.08.29Z" transform="translate(0.32 -5.43)"/><path d="M11.59,12.5c-2.67-2-6.91-5-10.53-4.25C-.8,8.66-.58,10.34.53,11.58c.83.93,2.44,1.19,3,2.14.4.65-.07,1.3.69,2,2,1.74,5.67-.08,7.54-1.11.17-.09,0-.35-.15-.26a14.94,14.94,0,0,1-3,1.28,10.11,10.11,0,0,1-1.07.27q-2.63.87-3.44-2.6A.15.15,0,0,0,4,13.06a5.22,5.22,0,0,1-2-.62q-2.58-1.11-.19-3.9c1-.33,3,.51,3.93.88a25.48,25.48,0,0,1,5.62,3.34c.16.11.31-.15.15-.26Z" transform="translate(0.32 -5.43)"/><path d="M11.52,15.75a5.68,5.68,0,0,0-2.21,1.38.15.15,0,0,0,.11.26,2.51,2.51,0,0,0,1.86-.92.15.15,0,0,0-.07-.25c-1.25-.31-1.86.89-2.6,1.76A45.42,45.42,0,0,0,5.57,22c-.11.16.15.31.26.15.81-1.2,1.66-2.37,2.58-3.49Q9,18,9.55,17.36a2.38,2.38,0,0,1,.93-.76q.64-.27.08.09a1.43,1.43,0,0,1-1.13.39l.11.26A5.23,5.23,0,0,1,11.6,16c.18-.06.1-.35-.08-.29Z" transform="translate(0.32 -5.43)"/><path d="M11.57,17.71a4,4,0,0,0-2.19,2.88.15.15,0,0,0,.25.15,9.92,9.92,0,0,0,2.13-3,.15.15,0,0,0-.21-.21c-1.37.76-1.66,2.12-2.08,3.53-.59,2-2,4-1.89,6.11,0,.19.31.19.3,0A9.62,9.62,0,0,1,9,23.43c.4-1,.68-2.12,1-3.18a4.22,4.22,0,0,1,.94-1.9c.7-.58-.35.8-.37.83a8.43,8.43,0,0,1-.82,1c-.3-.71,1.52-2,1.94-2.19.17-.09,0-.35-.15-.26Z" transform="translate(0.32 -5.43)"/><path d="M18.79,17.74c1.14.88,1.81,2.7,2.5,3.93a.15.15,0,0,0,.27,0,1.38,1.38,0,0,0-.19-1.27c-.4-.65-2.28-2.82-.77-.47s2,5.37,2.39,8.17c0,.19.32.11.29-.08-.52-3.56-1.16-7.09-3.67-9.82a.15.15,0,0,0-.25.15c.15.57,1.95,2.37,1.85,2.58.24-.53-1.75-3-2.2-3.37-.15-.12-.36.09-.21.21Z" transform="translate(0.32 -5.43)"/><path d="M19.39,16.22a4.22,4.22,0,0,1,1.67,1.21,5.3,5.3,0,0,0,.5.55c.7.65,1.64,1,2,1.92l.25-.15c-1.15-1.44-2.3-3.54-4.23-4a.15.15,0,0,0-.12.27,21.93,21.93,0,0,1,6.37,6.56c.1.16.36,0,.26-.15a22.32,22.32,0,0,0-6.47-6.67l-.12.27c1.82.44,3,2.56,4.1,3.93.09.11.31,0,.25-.15a4,4,0,0,0-1.62-1.67A8.51,8.51,0,0,1,21,16.79,3.16,3.16,0,0,0,19.55,16c-.17-.08-.33.18-.15.26Z" transform="translate(0.32 -5.43)"/><path d="M19.35,10a2.87,2.87,0,0,0-.82,1.41.15.15,0,0,0,.25.15,3.11,3.11,0,0,0,.74-1,.15.15,0,0,0-.26-.15,4.5,4.5,0,0,0-.45.87c-.06.16.2.26.27.12a10.92,10.92,0,0,1,3.34-3.85c.16-.11,0-.37-.15-.26a11.24,11.24,0,0,0-3.45,4l.27.12a4,4,0,0,1,.42-.8l-.26-.15a2.94,2.94,0,0,1-.69.9l.25.15a2.56,2.56,0,0,1,.75-1.28c.14-.13-.07-.35-.21-.21Z" transform="translate(0.32 -5.43)"/><path d="M12.31,11.45A6.83,6.83,0,0,0,10.76,9.8c-.13-.09-.27.08-.21.21.37.68.78,1.78,1.57,2a.15.15,0,0,0,.17-.22A37.74,37.74,0,0,0,8.5,6.56c-.13-.15-.34.07-.21.21A37.28,37.28,0,0,1,12,12l.17-.22c-.62-.2-1.09-1.36-1.39-1.9l-.21.21a6.35,6.35,0,0,1,1.44,1.55c.11.15.37,0,.26-.15Z" transform="translate(0.32 -5.43)"/><path d="M13.39,10.84A2.72,2.72,0,0,1,14,9c.42-.51.81-1,1.54-1.1,1.58-.12,2.41,1.82,2.05,3.11a.15.15,0,0,0,.29.08c.39-1.43-.45-3.37-2.09-3.49a2.13,2.13,0,0,0-1.83,1,4.52,4.52,0,0,0-.76,1,3.61,3.61,0,0,0-.08,1.24c0,.19.29.19.3,0Z" transform="translate(0.32 -5.43)"/><path d="M14.21,8.9l1.59-.85-.15-.26A7.89,7.89,0,0,0,13.9,9c-.1.1,0,.3.15.25q1.33-.49,2.63-1.07c.15-.07,0-.33-.12-.27a12.13,12.13,0,0,0-2.83,1.5c-.11.08-.09.3.08.28a16.1,16.1,0,0,0,3.45-1l-.08-.29q-1.15.48-2.35.85a.15.15,0,0,0,0,.29,9,9,0,0,0,2.31.06l0-.29-1.89.58c-.18.06-.11.35.08.29l1.89-.58a.15.15,0,0,0,0-.29,8.8,8.8,0,0,1-2.23,0V9.6q1.19-.37,2.35-.85c.17-.07.1-.36-.08-.29a15.78,15.78,0,0,1-3.37.95l.08.28a11.83,11.83,0,0,1,2.76-1.47l-.12-.27Q15.27,8.51,14,9l.15.25A7.61,7.61,0,0,1,15.8,8.05c.17-.1,0-.35-.15-.26l-1.59.85c-.17.09,0,.35.15.26Z" transform="translate(0.32 -5.43)"/><path d="M16.79,8C17,6.4,19.12,6.12,20.41,5.73a.15.15,0,0,0-.08-.29c-1.39.42-3.55.74-3.82,2.49,0,.19.26.27.29.08Z" transform="translate(0.32 -5.43)"/><path d="M14.57,7.83C13.78,6.42,11.91,6,10.43,5.89c-.19,0-.19.28,0,.3,1.37.11,3.16.48,3.88,1.8.09.17.35,0,.26-.15Z" transform="translate(0.32 -5.43)"/><path d="M19.24,13.66Q23.63,12.45,28,11c.18-.06.1-.35-.08-.29q-4.32,1.43-8.71,2.63a.15.15,0,0,0,.08.29Z" transform="translate(0.32 -5.43)"/><path d="M25.06,9.94a3.75,3.75,0,0,0,3.83-.69c.15-.13-.07-.34-.21-.21a3.45,3.45,0,0,1-3.54.61c-.18-.07-.26.22-.08.29Z" transform="translate(0.32 -5.43)"/><path d="M25.56,10.09a9.59,9.59,0,0,1-1.18,1.68c-.13.14.08.36.21.21a10,10,0,0,0,1.23-1.74c.09-.17-.17-.32-.26-.15Z" transform="translate(0.32 -5.43)"/><path d="M26.22,10.08q-.21.79-.34,1.6c0,.19.26.27.29.08q.13-.81.34-1.6a.15.15,0,0,0-.29-.08Z" transform="translate(0.32 -5.43)"/><path d="M27.42,10.11a12.15,12.15,0,0,1,1.74,1.23c.15.12.36-.09.21-.21a12.59,12.59,0,0,0-1.8-1.27.15.15,0,0,0-.15.26Z" transform="translate(0.32 -5.43)"/><path d="M27.1,11.39a9.52,9.52,0,0,1,.15,1.55.15.15,0,0,0,.3,0,10,10,0,0,0-.16-1.63c0-.19-.32-.11-.29.08Z" transform="translate(0.32 -5.43)"/><path d="M21.86,12.89a10.88,10.88,0,0,0,2.28,1.51c.17.09.32-.17.15-.26a10.56,10.56,0,0,1-2.22-1.47c-.15-.13-.36.09-.21.21Z" transform="translate(0.32 -5.43)"/><path d="M2.58,10.88c1.29,0,1.73.5,2.64,1.21a3.1,3.1,0,0,0,1.2.6c1.52.4,3.05.32,4.55.9.18.07.26-.22.08-.29-1.64-.63-3.82-.38-5.28-1.26-.56-.34-.85-.89-1.43-1.2a3.73,3.73,0,0,0-1.78-.26.15.15,0,0,0,0,.3Z" transform="translate(0.32 -5.43)"/><path d="M11.25,14a38.71,38.71,0,0,1-5.82-.83c-.19,0-.27.26-.08.29a39.2,39.2,0,0,0,5.9.84.15.15,0,0,0,0-.3Z" transform="translate(0.32 -5.43)"/><path d="M8.26,12.29a6.09,6.09,0,0,1-.85-2.37c0-.19-.32-.11-.29.08A6.29,6.29,0,0,0,8,12.44c.1.16.36,0,.26-.15Z" transform="translate(0.32 -5.43)"/><path d="M2.45,8.5A2.46,2.46,0,0,0,4.1,10.07a8.25,8.25,0,0,0,3,0c.19,0,.11-.32-.08-.29a9.67,9.67,0,0,1-2.27.11,2.22,2.22,0,0,1-2-1.5c-.08-.17-.34,0-.26.15Z" transform="translate(0.32 -5.43)"/><path d="M5.17,10.08a2.55,2.55,0,0,1-.61,1.25c-.13.14.08.36.21.21a2.84,2.84,0,0,0,.69-1.38c0-.19-.25-.27-.29-.08Z" transform="translate(0.32 -5.43)"/><path d="M12,21.12c.68.65,1.39.48,2.21.17A3.13,3.13,0,0,1,16.39,21c.35.1.68.3,1,.38a4,4,0,0,0,1.7,0c.19,0,.11-.33-.08-.29-1.34.28-2.07-.43-3.29-.53s-2.49,1.43-3.6.38c-.14-.13-.35.08-.21.21Z" transform="translate(0.32 -5.43)"/><path d="M12.25,24.29c1.3.58,1.91.31,3.24,0,1.12-.26,2.36.81,3.32,0,.14-.13-.07-.34-.21-.21-.75.68-1.78-.22-2.62-.15a5.42,5.42,0,0,0-1.13.31A3,3,0,0,1,12.4,24c-.17-.08-.33.18-.15.26Z" transform="translate(0.32 -5.43)"/><path d="M12.77,21.49l-.36.76a.15.15,0,0,0,.17.22l2.1-.56-.08-.29a5.81,5.81,0,0,0-1.76,1.11c-.12.11,0,.33.18.24a17,17,0,0,1,2.9-1.65l-.18-.24c-.71.87-1.49,1.66-2.29,2.46-.12.12,0,.34.18.24a18.33,18.33,0,0,1,2.74-1.67l-.15-.26L13.34,24l.18.24a8.53,8.53,0,0,1,2.69-2.1L16,21.92l-1.76,2.14c-.1.12,0,.34.18.24L18,22l-.21-.21A7.59,7.59,0,0,1,16,23.44l.18.24a14.86,14.86,0,0,1,2.79-2l-.21-.21c-.45.67-.91,1.31-1.42,1.93l.25.15a2.25,2.25,0,0,1,1-1.25l-.21-.21-.66,1.4c-.08.17.16.32.26.15a5.55,5.55,0,0,1,1.25-1.48l-.25-.15c-.16.57-.34,1.13-.56,1.69l.29.08.37-1.6a.15.15,0,0,0-.25-.15,3.92,3.92,0,0,0-.91,1.17l.28.08a7.52,7.52,0,0,1,.06-1.26c0-.17-.2-.18-.28-.08l-.55.74.28.08-.1-1a.15.15,0,0,0-.26-.11l-1.11,1,.25.15.27-.93c0-.12-.11-.25-.22-.17s-.06.14.09-.25c.05-.14-.11-.22-.22-.17-.42.18-1.45,1-1.5.35a.15.15,0,0,0-.23-.13c-.42.28-1.51,1.26-1.07,1.87.19.27.64.17.9.18,1.11,0,2.22,0,3.33,0l-.08-.28a2.32,2.32,0,0,1-1,.28c-.18,0-.11.28,0,.29a9.67,9.67,0,0,0,1.2,0,.15.15,0,0,0,0-.3,9.67,9.67,0,0,1-1.2,0l0,.29a3,3,0,0,0,1-.31.15.15,0,0,0-.08-.28l-2.38,0a4.42,4.42,0,0,1-1,0q-.69.23-.45-.39a.63.63,0,0,1,.53-.77c0,.1.07.23.18.18.41-.16,1.59-1,1.3-.2a.15.15,0,0,0,.22.17q.27.06-.1.48a.15.15,0,0,0,.25.15c.17-.16.63-.7.81-.71s.12.46.14.65a.15.15,0,0,0,.28.08l.55-.74-.28-.08a7.52,7.52,0,0,0-.06,1.26.15.15,0,0,0,.28.08A3.86,3.86,0,0,1,19,22.29l-.25-.15-.37,1.6a.15.15,0,0,0,.29.08c.21-.56.4-1.11.56-1.69A.15.15,0,0,0,19,22a5.69,5.69,0,0,0-1.29,1.54l.26.15.66-1.4c.06-.12-.07-.3-.21-.21a3,3,0,0,0-1.12,1.43.15.15,0,0,0,.25.15c.52-.64,1-1.31,1.47-2,.09-.13-.08-.27-.21-.21a15.22,15.22,0,0,0-2.85,2c-.13.11,0,.34.18.24A8.14,8.14,0,0,0,18,21.92c.09-.12-.08-.28-.21-.21L14.3,24l.18.24,1.76-2.14a.15.15,0,0,0-.18-.24A8.75,8.75,0,0,0,13.31,24c-.11.12,0,.34.18.24l2.89-2.18a.15.15,0,0,0-.15-.26,18.33,18.33,0,0,0-2.74,1.67l.18.24c.79-.79,1.57-1.59,2.29-2.46a.15.15,0,0,0-.18-.24,17,17,0,0,0-2.9,1.65l.18.24a5,5,0,0,1,1.62-1c.17-.07.11-.34-.08-.29a8,8,0,0,1-1.26.33c-.42,0-.62.34-.31-.31.08-.17-.18-.33-.26-.15Z" transform="translate(0.32 -5.43)"/><path d="M11.83,13.43a4.36,4.36,0,0,1,2.86-1.59,3.92,3.92,0,0,1,3.84.93c.14.13.35-.08.21-.21a4,4,0,0,0-3.83-1.06,4.73,4.73,0,0,0-3.3,1.72c-.12.15.09.36.21.21Z" transform="translate(0.32 -5.43)"/><path d="M18.45,13.53a2.48,2.48,0,0,0-3-1,1.06,1.06,0,0,0,.26,1.9c.73.27,2.21-.61,1.73-1.52s-3.55,0-4.24.27c-.16.07,0,.26.08.28A3.9,3.9,0,0,0,15.94,13a.15.15,0,0,0-.08-.28c-1,.06-2,.17-3.05.31-.17,0-.13.31,0,.29.82-.07,1.62-.18,2.43-.31.18,0,.12-.28,0-.29a8.28,8.28,0,0,0-2.36-.1c-.61.15-.92.15.11.16a7.5,7.5,0,0,0,2.46-.58c1.07-.47.83-.45.32-.16a.15.15,0,0,0,.08.28l1.24.16c.37,0,1.36-.08,1,.25s-1.72.51-2.25.61c-.17,0-.13.3,0,.29a13.23,13.23,0,0,0,1.84-.14c.17,0,.12-.29,0-.29a44.63,44.63,0,0,0-5,0,.15.15,0,0,0,0,.3c.54,0,1.1,0,1.64,0,.33,0,.88-.26,0,.08-.15.05-.14.31,0,.29q2.36-.17,4.7-.48c.19,0,.19-.32,0-.3a64.1,64.1,0,0,0-7.8,1.29c-.19,0-.11.32.08.29a22.35,22.35,0,0,0,2.49-.35c1.39-.36.2,0-.27.21-.14.06-.07.28.08.28a19.11,19.11,0,0,0,3.77-.3c.78-.18.84-.29,0-.12s-1.54.44-2.31.63c-.19,0-.11.33.08.29q2.3-.48,4.63-.83c.17,0,.13-.31,0-.29q-3.58.36-7.1,1.05a.15.15,0,0,0,0,.29c.84-.06,2.57.09,3.29-.34.57-.34-1-.11-.53-.17a7.35,7.35,0,0,0-1.64.53.15.15,0,0,0,0,.29,9.54,9.54,0,0,0,2.88-.17c.13,0-.11-.17,0-.22.37-.28-1.51.73-1.12.52a.15.15,0,0,0,0,.27,3.89,3.89,0,0,0,1.53,0c.17,0,.13-.3,0-.29a5.52,5.52,0,0,0-2.24.51c-.14.06-.06.28.08.28a12.09,12.09,0,0,0,2.67-.22c.17,0,.12-.29,0-.29a45,45,0,0,0-6,.14c-.19,0-.2.3,0,.3a25.42,25.42,0,0,0,3-.22c.2,0,.43,0,.63-.1.61-.14.91-.42.28-.06a.15.15,0,0,0,.08.28,7.46,7.46,0,0,0,1.61,0c.19,0,.2-.3,0-.3a2.33,2.33,0,0,0-1.42.42.15.15,0,0,0,0,.27,2.24,2.24,0,0,0,1.13.08c.19,0,.19-.3,0-.3a11.23,11.23,0,0,0-2,.23.15.15,0,0,0,0,.29A19.66,19.66,0,0,0,17.45,17c.17,0,.13-.3,0-.29a8.35,8.35,0,0,0-2.47.43.15.15,0,0,0,0,.29c.13,0,1.37.19,1-.25a7.6,7.6,0,0,0-1.25.14,28.56,28.56,0,0,0-3.06.6c-.17,0-.12.28,0,.29a20.14,20.14,0,0,0,3.77,0,.15.15,0,0,0,.08-.28l-.05,0a.15.15,0,0,0-.18,0l-.05.06a.15.15,0,0,0,0,.24A2.19,2.19,0,0,0,17,18c-.12,0-.16.27,0,.29a6.5,6.5,0,0,0,1.05.11c.17-.32-.64-.25-.73-.15a.15.15,0,0,0-.07-.25c-.18-.05-1-.41-1.08-.14a6.89,6.89,0,0,0,1.53-.25.15.15,0,0,0,0-.29,4.79,4.79,0,0,0-1.16.16c-.19,0-.11.32.08.29a3.26,3.26,0,0,0,1.21-.45.15.15,0,0,0,0-.27c-.16,0-1.46,0-.82.15l.86-.14q.42.06.35-.37s-.07.24,0,.12a3.33,3.33,0,0,0-.18-3.12c-.09-.17-.34,0-.26.15a2.6,2.6,0,0,1,0,2.95.15.15,0,0,0,.12.27l.85-.17c.19,0,.11-.33-.08-.29-.75.15-1.49.27-2.25.37-.19,0-.19.32,0,.3,0,0,.79,0,.79.17s-1.46.32-1.53.33-.13.29,0,.29q.91-.36,1.15.31a.15.15,0,0,0,.15.25l1.68-.24c.17,0,.13-.3,0-.29a6.07,6.07,0,0,0-1.13.09c.15-.05.14-.31,0-.29-1.05.1-2.1.07-3.15.07-.42,0-1.61-.22-1.89,0-.06,0,1.22-.17,1.23-.17a28,28,0,0,1,3-.37.15.15,0,0,0,0-.3,5.31,5.31,0,0,0-1,.1q1.33.37,1.16-.31t-1.22,0c-.31.24,1.18.52,1.08-.6,0-.26-1.32.42-.22-.2a.15.15,0,0,0-.12-.27c-1.13.23-2.43.17-3.51.49-.4.12-1,.09-.2.25a8.37,8.37,0,0,0,1.65-.09,18.2,18.2,0,0,0,2.7-.08c.75-.15-1.46.12-1.49,0,.06.17,1.66-.81,1.88-.87s.11-.32-.08-.29-2.81.38-2.83.3,2-.47,2.22-.5.11-.32-.08-.29c-.9.13-2,.12-2.9.35s.27.14.65.07,4.71-.44,4.78-.68c.16-.52-.88-.13-1.14-.09a7.75,7.75,0,0,0-1.73.32c-.94.42-.5.25.09.23a9.45,9.45,0,0,0,2.29-.7.15.15,0,0,0-.08-.29,32.44,32.44,0,0,1-3.36.42c-1.14.08-1.17.2-.08-.31.17-.08,0-.3-.12-.27l-1.86.26s-1.68.12-1.15.4a10.3,10.3,0,0,0,1.93-.4q1-.18,1.94-.33c.45-.07,2.56-.38,2.56-.34l.07-.29-1.17.14-1.47.15c-.5,0-1.5.44-.44,0a.15.15,0,0,0,0-.29c-.36,0-2.77.05-1.69.22a16.42,16.42,0,0,0,2.81,0c1.46,0-.89.05.53,0a6.77,6.77,0,0,0,2-.72c.15-.07.05-.26-.08-.28a23,23,0,0,0-2.38-.32c.19,0,.2-.31,0-.3a3.16,3.16,0,0,0-2,.45.15.15,0,0,0,0,.21l.07.06a.15.15,0,0,0,.21,0l0,0a.15.15,0,0,0-.15-.25l-3.12.48c-.17,0-.13.31,0,.29.89-.06,1.77,0,2.66,0s-.85-.19-.9,0,1.44.1,1.51.1c.79.07-.52.14-.62.15-1.29.15.24-.16.53-.21,1.06-.18,2.67-.64,3.32.7.09.17.34,0,.26-.15Z" transform="translate(0.32 -5.43)"/><path d="M14.48,10a1.42,1.42,0,0,0-.44.08l.12.27a2.27,2.27,0,0,0,.54-.34.15.15,0,0,0-.07-.25,3.36,3.36,0,0,0-.95-.08.15.15,0,0,0,0,.3c.39,0,.79,0,1.19,0a2.38,2.38,0,0,1,1,.3c.48.21.78-.33,1.24-.19a.15.15,0,0,0,.18-.18c-.05-.3-.11-.59-.18-.88l-.27.12a3.78,3.78,0,0,0,.61.92c.11.13.33,0,.24-.18-.46-.74-.94-1.82-2-1.57-.19,0-.11.33.08.29.85-.2,1.31.89,1.64,1.44l.24-.18A3.45,3.45,0,0,1,17.08,9c-.07-.16-.31,0-.27.12s.12.59.18.88l.18-.18a.66.66,0,0,0-.46,0c-.12,0-.25.16-.37.19-.28.06-.47-.13-.7-.21a6.18,6.18,0,0,0-2-.09V10a2.89,2.89,0,0,1,.87.07l-.07-.25a1.44,1.44,0,0,1-.48.3c-.16.07,0,.32.12.27l.36-.07c.19,0,.19-.32,0-.3Z" transform="translate(0.32 -5.43)"/></svg>