<?xml version="1.0" encoding="utf-8"?>
<!-- Generator: Adobe Illustrator 20.1.0, SVG Export Plug-In . SVG Version: 6.00 Build 0)  -->
<svg version="1.1" id="Layer_1" xmlns="http://www.w3.org/2000/svg" xmlns:xlink="http://www.w3.org/1999/xlink" x="0px" y="0px"
	 viewBox="0 0 16 16" style="enable-background:new 0 0 16 16;" xml:space="preserve">
<style type="text/css">
	.st0{fill:#77C267;}
	.st1{fill:none;stroke:#485D2A;stroke-width:0.1;stroke-miterlimit:10;}
	.st2{fill:#D84E9C;}
</style>
<path class="st0" d="M7,8.3c0,0-0.1,6,0.1,6.3c0.2,0.3,1.3,0.4,1.4,0.2c0.1-0.2,0.1-5.1,0.1-5.1s0.4,0.2,1.3,0
	c0.9-0.2,1.1-0.6,1.4-1.3c0.3-0.7,0.5-2.5,0.4-3.1c-0.1-0.6-0.4-1.8-0.9-1.7c-0.5,0.1-0.7,0-0.6,1.5c0.1,1.5,0.2,3.1-0.2,3.2
	C9.8,8.2,9.1,8.6,8.9,8.4C8.6,8.2,9.1,2.5,9.1,2.5s0-1.6-0.8-1.6C7.5,0.9,7.1,1.2,7.1,2S6.9,7,6.9,7s0,0.4-0.6,0.1
	C5.6,6.7,5.7,5.1,5.8,3.8S5.7,1.9,5.3,2c-0.4,0-0.6,0-0.8,1.7C4.4,5.4,4.2,6.9,4.7,7.5S5.6,8.3,6,8.3C6.4,8.2,7,8.3,7,8.3z"/>
<line class="st1" x1="8" y1="1.3" x2="8" y2="0.6"/>
<line class="st1" x1="8.6" y1="1.4" x2="9" y2="1"/>
<line class="st1" x1="8.9" y1="2.1" x2="9.3" y2="2"/>
<line class="st1" x1="7.5" y1="1.5" x2="7.1" y2="1.2"/>
<line class="st1" x1="7.3" y1="2.2" x2="6.8" y2="2.1"/>
<line class="st1" x1="7.4" y1="2.8" x2="6.8" y2="2.9"/>
<line class="st1" x1="7.3" y1="3.5" x2="6.9" y2="3.5"/>
<line class="st1" x1="7.4" y1="4.3" x2="6.9" y2="4.2"/>
<line class="st1" x1="7.2" y1="4.9" x2="6.9" y2="4.9"/>
<line class="st1" x1="7.2" y1="5.6" x2="6.8" y2="5.6"/>
<line class="st1" x1="7.1" y1="6.3" x2="6.7" y2="6.3"/>
<line class="st1" x1="6.9" y1="6.8" x2="6.7" y2="6.7"/>
<line class="st1" x1="9" y1="2.7" x2="9.4" y2="2.8"/>
<line class="st1" x1="8.8" y1="3.4" x2="9.3" y2="3.3"/>
<line class="st1" x1="8.7" y1="4.1" x2="9.3" y2="4.2"/>
<line class="st1" x1="8.6" y1="4.7" x2="9.3" y2="4.7"/>
<line class="st1" x1="8.6" y1="5.4" x2="9.5" y2="5.5"/>
<line class="st1" x1="8.7" y1="6" x2="9.3" y2="6"/>
<line class="st1" x1="8.5" y1="6.6" x2="9.2" y2="6.6"/>
<line class="st1" x1="8.7" y1="7.4" x2="9.2" y2="7.4"/>
<line class="st1" x1="8.6" y1="8.2" x2="9" y2="8.2"/>
<line class="st1" x1="5.8" y1="2.2" x2="5.6" y2="2.4"/>
<line class="st1" x1="4.3" y1="2.4" x2="4.8" y2="2.6"/>
<line class="st1" x1="4.7" y1="3.1" x2="4.3" y2="3.1"/>
<line class="st1" x1="4.7" y1="3.6" x2="4.3" y2="3.6"/>
<line class="st1" x1="4.5" y1="4.1" x2="4.2" y2="4.1"/>
<line class="st1" x1="4.5" y1="4.7" x2="4.1" y2="4.7"/>
<line class="st1" x1="4.6" y1="5.3" x2="4.1" y2="5.5"/>
<line class="st1" x1="4.5" y1="5.9" x2="4.2" y2="6.2"/>
<line class="st1" x1="4.5" y1="6.6" x2="4.2" y2="6.7"/>
<line class="st1" x1="4.7" y1="7" x2="4.3" y2="7.4"/>
<line class="st1" x1="4.9" y1="7.4" x2="4.6" y2="7.7"/>
<line class="st1" x1="5.1" y1="7.8" x2="4.9" y2="8.2"/>
<line class="st1" x1="5.6" y1="7.9" x2="5.6" y2="8.5"/>
<line class="st1" x1="6.2" y1="8.1" x2="6.1" y2="8.5"/>
<line class="st1" x1="6.8" y1="8.1" x2="6.8" y2="8.5"/>
<line class="st1" x1="11.2" y1="4" x2="11.7" y2="3.7"/>
<line class="st1" x1="11.6" y1="4.9" x2="12.2" y2="4.6"/>
<line class="st1" x1="11.5" y1="4.3" x2="12.1" y2="4.2"/>
<line class="st1" x1="10.7" y1="4.1" x2="10.3" y2="3.8"/>
<line class="st1" x1="10.5" y1="4.5" x2="10.2" y2="4.4"/>
<line class="st1" x1="10.6" y1="5" x2="10.2" y2="5.1"/>
<line class="st1" x1="10.6" y1="5.5" x2="10.1" y2="5.5"/>
<line class="st1" x1="10.7" y1="6" x2="10.2" y2="6"/>
<line class="st1" x1="10.7" y1="6.5" x2="10.2" y2="6.5"/>
<line class="st1" x1="10.6" y1="7.1" x2="10.2" y2="7"/>
<line class="st1" x1="10.6" y1="7.7" x2="10.2" y2="7.5"/>
<line class="st1" x1="10.2" y1="8.4" x2="9.9" y2="8"/>
<line class="st1" x1="9.6" y1="8.6" x2="9.6" y2="8.2"/>
<line class="st1" x1="9.1" y1="9.5" x2="9" y2="9.9"/>
<line class="st1" x1="9.6" y1="9.5" x2="9.7" y2="10"/>
<line class="st1" x1="10.1" y1="9.4" x2="10.2" y2="9.9"/>
<line class="st1" x1="10.5" y1="9.4" x2="10.8" y2="9.7"/>
<line class="st1" x1="11" y1="8.9" x2="11.5" y2="9.2"/>
<line class="st1" x1="11.3" y1="8.5" x2="11.7" y2="8.5"/>
<line class="st1" x1="11.4" y1="8" x2="11.9" y2="8"/>
<line class="st1" x1="11.5" y1="7.2" x2="12.2" y2="7.1"/>
<line class="st1" x1="11.7" y1="6.5" x2="12.2" y2="6.4"/>
<line class="st1" x1="11.7" y1="6.1" x2="12.2" y2="6.1"/>
<line class="st1" x1="11.7" y1="5.6" x2="12.3" y2="5.6"/>
<line class="st1" x1="11.8" y1="5.1" x2="12.3" y2="5.1"/>
<line class="st1" x1="6.7" y1="9" x2="7.2" y2="8.9"/>
<line class="st1" x1="5.7" y1="2.8" x2="6.1" y2="2.5"/>
<line class="st1" x1="5.6" y1="3.2" x2="6.2" y2="3.3"/>
<line class="st1" x1="5.6" y1="3.8" x2="6" y2="3.8"/>
<line class="st1" x1="5.6" y1="4.3" x2="6" y2="4.3"/>
<line class="st1" x1="5.6" y1="4.8" x2="6" y2="4.8"/>
<line class="st1" x1="5.6" y1="5.4" x2="6.1" y2="5.4"/>
<line class="st1" x1="5.5" y1="6" x2="6" y2="5.8"/>
<line class="st1" x1="5.7" y1="6.4" x2="6.2" y2="6.2"/>
<line class="st1" x1="6" y1="6.9" x2="6.2" y2="6.6"/>
<line class="st1" x1="6.5" y1="7.3" x2="6.4" y2="6.9"/>
<line class="st1" x1="6.6" y1="9.6" x2="7.2" y2="9.5"/>
<line class="st1" x1="6.7" y1="10.1" x2="7.1" y2="10.1"/>
<line class="st1" x1="6.7" y1="10.7" x2="7.3" y2="10.8"/>
<line class="st1" x1="6.7" y1="11.3" x2="7.2" y2="11.3"/>
<line class="st1" x1="6.8" y1="11.9" x2="7.3" y2="11.9"/>
<line class="st1" x1="6.7" y1="12.5" x2="7.3" y2="12.5"/>
<line class="st1" x1="6.8" y1="12.9" x2="7.4" y2="12.9"/>
<line class="st1" x1="6.6" y1="13.6" x2="7.4" y2="13.6"/>
<line class="st1" x1="8.5" y1="10.4" x2="8.8" y2="10.4"/>
<line class="st1" x1="8.4" y1="10.9" x2="9.1" y2="10.9"/>
<line class="st1" x1="8.6" y1="11.4" x2="9.1" y2="11.5"/>
<line class="st1" x1="8.4" y1="12.1" x2="8.9" y2="12.1"/>
<line class="st1" x1="8.5" y1="12.7" x2="8.8" y2="12.7"/>
<line class="st1" x1="8.4" y1="13.1" x2="8.8" y2="13.2"/>
<line class="st1" x1="8.4" y1="13.7" x2="8.9" y2="13.7"/>
<g>
	<g>
		<path class="st2" d="M11.2,3.1c-0.2-0.3-0.6-0.2-0.6,0.2c0.1,0.4,0.5,0.3,0.6,0C11.3,3.2,11.3,3.1,11.2,3.1
			c-0.5-0.3-0.6,0.2-0.4,0.5c0.1,0.1,0.4,0.1,0.4-0.1c0.1-0.5-0.6-0.8-0.8-0.3c0.1,0,0.2-0.1,0.4-0.1c0,0-0.1,0-0.1-0.1
			c0,0.2-0.1,0.3-0.1,0.5c0.3,0,0.4,0.1,0.7-0.2C11.5,3,11.2,2.6,11,2.9C10.9,3,10.8,2.9,10.7,3c-0.3,0-0.3,0.3-0.1,0.5
			c0,0,0.1,0,0.1,0.1c0.1,0.1,0.3,0,0.4-0.1c-0.1,0-0.1,0-0.2,0c0.1,0,0.3-0.1,0.4-0.1c0,0,0,0,0,0c-0.1,0.1-0.1,0.1-0.2,0.2
			c0,0-0.1,0-0.1,0c0-0.1-0.1-0.2-0.1-0.3c0,0,0,0,0,0.1C10.9,3.2,10.9,3.1,11,3c0.1,0.1,0.1,0.2,0.2,0.3c-0.1,0-0.1,0.1-0.2,0.1
			c0,0,0,0,0,0c-0.1,0-0.1-0.1-0.2-0.1c0,0,0,0,0,0C11,3.6,11.4,3.3,11.2,3.1L11.2,3.1z"/>
	</g>
</g>
<g>
	<g>
		<path class="st2" d="M4.7,1.8C4.8,2,4.9,2.1,4.9,2.2C5,2.3,5.2,2.4,5.3,2.3C5.4,2.2,5.5,2.1,5.5,2C5.4,2,5.3,2,5.2,2
			c0.3,0.6,1-0.3,0.5-0.5c-0.1,0-0.2-0.1-0.3,0C5.2,1.5,5.2,1.7,5,1.8c0.2,0,0.3,0.1,0.5,0.1c0-0.2,0-0.3-0.1-0.5
			C5.4,1.2,4.9,1.3,4.9,1.6C5,1.7,5,1.8,5,2c0,0.3,0.3,0.3,0.5,0.1C5.5,2,5.6,1.9,5.6,1.9c-0.1,0-0.2,0-0.3,0c0,0-0.1-0.1-0.1-0.1
			c0.1,0,0.2,0,0.2-0.1c0,0,0,0,0.1,0C5.5,1.6,5.3,1.5,5.2,1.7C5.1,1.7,5.1,1.8,5,1.9c0.1,0,0.3,0,0.4,0.1C5.3,1.8,5.2,1.7,5.1,1.6
			C4.9,1.3,4.5,1.6,4.7,1.8L4.7,1.8z"/>
	</g>
</g>
<line class="st1" x1="8" y1="2.2" x2="8.3" y2="1.8"/>
<line class="st1" x1="8" y1="2.8" x2="7.6" y2="2.6"/>
<line class="st1" x1="8.3" y1="3.3" x2="8.5" y2="3.2"/>
<line class="st1" x1="7.6" y1="3.9" x2="7.9" y2="3.9"/>
<line class="st1" x1="7.8" y1="4.8" x2="8.1" y2="4.5"/>
<line class="st1" x1="7.6" y1="6" x2="8" y2="6.2"/>
<line class="st1" x1="7.7" y1="7.1" x2="7.4" y2="7.3"/>
<line class="st1" x1="5.6" y1="7.6" x2="5.9" y2="7.5"/>
<line class="st1" x1="4.9" y1="6" x2="5.1" y2="6.2"/>
<line class="st1" x1="5.1" y1="4.6" x2="5" y2="4.6"/>
<line class="st1" x1="5" y1="3.4" x2="5.3" y2="3.6"/>
<line class="st1" x1="5.4" y1="2.7" x2="5.2" y2="2.8"/>
<line class="st1" x1="5" y1="6.8" x2="5.2" y2="7"/>
<line class="st1" x1="6.9" y1="7.7" x2="7.1" y2="7.8"/>
<line class="st1" x1="8.1" y1="8" x2="8.3" y2="8.3"/>
<line class="st1" x1="8.2" y1="9.6" x2="7.9" y2="9.8"/>
<line class="st1" x1="8.5" y1="8.9" x2="8.9" y2="8.9"/>
<line class="st1" x1="7.7" y1="8.8" x2="7.5" y2="8.9"/>
<line class="st1" x1="10.1" y1="8.9" x2="10.5" y2="9"/>
<line class="st1" x1="11.3" y1="7.3" x2="11.1" y2="7.3"/>
<line class="st1" x1="11.3" y1="5.8" x2="11" y2="6.1"/>
<line class="st1" x1="10.7" y1="5.4" x2="11.1" y2="5.4"/>
<line class="st1" x1="11.3" y1="4.5" x2="11.1" y2="4.7"/>
<line class="st1" x1="7.6" y1="11" x2="7.9" y2="11.2"/>
<line class="st1" x1="8.1" y1="10.3" x2="8" y2="10.4"/>
<line class="st1" x1="7.7" y1="12.2" x2="7.9" y2="12.3"/>
<line class="st1" x1="8.2" y1="11.7" x2="8.1" y2="11.8"/>
<line class="st1" x1="8" y1="13.3" x2="7.8" y2="13.5"/>
<line class="st1" x1="7.6" y1="12.8" x2="7.7" y2="12.9"/>
<line class="st1" x1="8.2" y1="14.3" x2="8" y2="14.5"/>
</svg>
