<svg id="Layer_1" data-name="Layer 1" xmlns="http://www.w3.org/2000/svg" viewBox="0 0 688.1 379.51"><defs><style>.cls-1{fill:#202020;}.cls-2{opacity:0.65;}.cls-3{fill:#93c83d;opacity:0.14;}.cls-4,.cls-5{fill:none;stroke:#231f20;stroke-width:0.11px;}.cls-4{stroke-miterlimit:10;}.cls-5{stroke-linecap:round;stroke-linejoin:round;}</style></defs><title>practice</title><path class="cls-1" d="M199,115.55c1-.26.39-.23-2.25.8,0,0-.47.19-.91.42l-.89.48.61-.32a14.74,14.74,0,0,1,1.37-.63,13.94,13.94,0,0,1,1.41-.53Z" transform="translate(-173.71 -114.52)"/><path class="cls-1" d="M184.73,127.48c-1.75,2.85-3.16,6.44-2.26,4.48.68-1.5,1.15-2.41,1.66-3.34s1.06-1.86,2-3.34a31.09,31.09,0,0,1,4.85-5.35,25,25,0,0,1,2.52-1.9,28.06,28.06,0,0,0-8.9,9.64C184.09,128.56,184.61,127.69,184.73,127.48Z" transform="translate(-173.71 -114.52)"/><path class="cls-1" d="M282.09,359l-1.77-.27Z" transform="translate(-173.71 -114.52)"/><path class="cls-1" d="M453.71,357.14a13.21,13.21,0,0,0-1.89-.21C453,357.06,454,357.21,453.71,357.14Z" transform="translate(-173.71 -114.52)"/><path class="cls-1" d="M477.23,373l-1.32-1.12C476.41,372.34,476.91,372.78,477.23,373Z" transform="translate(-173.71 -114.52)"/><path class="cls-1" d="M282.09,359l2.28.3,2.29.25C287,359.46,284.32,359.25,282.09,359Z" transform="translate(-173.71 -114.52)"/><path class="cls-1" d="M175,164.12l.23-2.48L175,164Z" transform="translate(-173.71 -114.52)"/><path class="cls-1" d="M222.26,315l-.88-1.08-.79-.85Z" transform="translate(-173.71 -114.52)"/><path class="cls-1" d="M189.52,267a11,11,0,0,0,1.25,1.91c-.41-.62-.91-1.46-1.45-2.48C189.3,266.38,189.35,266.54,189.52,267Z" transform="translate(-173.71 -114.52)"/><path class="cls-1" d="M173.89,177.1l0-1.64Z" transform="translate(-173.71 -114.52)"/><path class="cls-1" d="M251.41,344.73a3.48,3.48,0,0,0,.37.39A2,2,0,0,0,251.41,344.73Z" transform="translate(-173.71 -114.52)"/><path class="cls-1" d="M266.4,115.87s0,0,0,0C266.05,115.86,265.95,115.87,266.4,115.87Z" transform="translate(-173.71 -114.52)"/><path class="cls-1" d="M199,115.49h0Z" transform="translate(-173.71 -114.52)"/><path class="cls-1" d="M519.26,406.52l-.19-.15C517.93,405.54,518.57,406,519.26,406.52Z" transform="translate(-173.71 -114.52)"/><path class="cls-1" d="M786.94,353.36c-2.34,5.07,3.6-8.33.11-.7.18-.35-.58,1.4-1,2.47S785.52,356.53,786.94,353.36Z" transform="translate(-173.71 -114.52)"/><path class="cls-1" d="M174.84,165.62l-.19,2.37Z" transform="translate(-173.71 -114.52)"/><path class="cls-1" d="M787.05,352.66h0l-.36.79Z" transform="translate(-173.71 -114.52)"/><path class="cls-1" d="M631.54,364.94c-.25.05-.72.2-1.21.36A9,9,0,0,0,631.54,364.94Z" transform="translate(-173.71 -114.52)"/><path class="cls-1" d="M547,400.76l2-1.07Z" transform="translate(-173.71 -114.52)"/><path class="cls-1" d="M677.68,355.27l1.46.24c.46.06,1,.16,1.78.34l-.49-.14C679.85,355.57,679.05,355.51,677.68,355.27Z" transform="translate(-173.71 -114.52)"/><path class="cls-1" d="M713.33,386.35c-.11-.24-.27-.55-.41-.82l-.78-1.37Z" transform="translate(-173.71 -114.52)"/><path class="cls-1" d="M417.78,116.16c-1.09,0-1.77-.09-2.3-.14C416.25,116.13,408.93,116.15,417.78,116.16Z" transform="translate(-173.71 -114.52)"/><path class="cls-1" d="M174.94,164.14c0,.29,0,.72-.1,1.48L175,164C175,163.82,175,163.79,174.94,164.14Z" transform="translate(-173.71 -114.52)"/><path class="cls-1" d="M679.94,354a2.16,2.16,0,0,1,.34.06l.9.21a25.91,25.91,0,0,1,2.7.71l1.43.45,1.21.48,1.18.47A37.05,37.05,0,0,0,679.94,354Z" transform="translate(-173.71 -114.52)"/><path class="cls-1" d="M775.15,116.05l-1.82,0C774,116.07,774.68,116.07,775.15,116.05Z" transform="translate(-173.71 -114.52)"/><path class="cls-1" d="M705.85,371.66l1.25,1.82,1.26,1.93c.2.26.42.57.57.74l-1.5-2.26c-.36-.57-.79-1.11-1.08-1.53Z" transform="translate(-173.71 -114.52)"/><path class="cls-1" d="M415.47,116h0Z" transform="translate(-173.71 -114.52)"/><path class="cls-1" d="M363.34,116.26c7.54,0,3.54-.17,5.14-.27,9,0,4.17.14,7.23.24,5.62,0,9.93-.2,14.12-.19.31,0,1.13,0,.17.08,5.94-.14,17.64,0,24.56-.17.51,0,.77,0,.9.05-1.12-.1-1.29-.21-1.06-.28,3.38,0,6.27-.13,7.55,0-2.07,0-2.24,0-3.21.09l3.54-.06c3.19.2-4.84.06-4.84.21,6.91-.05,15-.21,20.25-.15,1.11.2-12.38.06-5.31.24l-8.19-.08c6.26.31-5,0,.77.3,10.78.07,12.06-.08,22.81,0,2.42-.11-.8-.17,1.62-.27,15.28-.19,12,.53,23.26.26a112,112,0,0,1,12-.25l-2.73.24c10.44,0,6-.34,16.89-.17-1.94.09-8.2.07-6.62.1,7.08.2,5-.13,10.45-.13l1.13.22,35.65-.21c-.68.07-2.79.13.09.21,15.52-.1,33.13,0,48.1.18l5.72-.2c1.33,0,2.47.09,1,.13,5.83.08.3-.13,3.11-.2,3.32,0,4.38.11,2.28.17,10.29-.17,29.32-.36,40.17-.16l-2.11.06c8.45.07,9.53-.4,17.36-.23l-1.5,0c18.33.07,38.59-.11,52.57.13,2.66-.25,18.14.08,19.32-.26,10.47.15,7.47.22,22.21.29,3.94,0,5.87-.21,10.74-.25l.12.16,6.61-.18,3.52.18,4.57,0a34.68,34.68,0,0,1-3.59-.1c3.57,0,7.91,0,11.39,0l4.36.06c1.1,0,1.77,0,1.82.06l16.87-.15c-.37.05-3.2.08-5.43.12,9-.16,1.64.13,9.89,0-1.11,0,.6-.08.79-.1,4.11.07,13.48,0,20.41,0l-1.33.08,19.64-.06,5.12,0h1.4s0,0,0,0l.15.46q.4,1.22.76,2.47c1,3.32,1.75,6.72,2.41,10.16-.46-2.47-.66-3.42-.59-3.25a34.09,34.09,0,0,1,.78,3.46l.11.82.09.82c.52,2.6-.71-4.23.31,1.12a21.74,21.74,0,0,1,.47,3.32c-.06-.14-.24-1.31-.53-2.78,0,0,.29,1.56.52,3.14l.33,2.16.13,1c0,.37-.18-1.11-.28-1.48.12.64.23,1.65.38,2.85s.31,2.6.43,4c.29,2.88.46,5.91.64,7.78v.36c.36,7,.32,12.09.21,16.86-.06,2.38-.21,4.68-.32,7.1s-.37,4.95-.65,7.79c0,.23-.42,4.67-.87,8a224.22,224.22,0,0,1-5.61,27.24c-.42,1.73-.72,2.7-.87,3.26a7.24,7.24,0,0,0-.19.71s.15-.4-.28,1.14c-.1.24-.87,2.79-1.42,4.64s-1,3-.2.49L848.15,237c-.73,2.14-1.49,4-2.22,6l-1.16,3.12c-.42,1.08-.91,2.21-1.41,3.44-1,2.45-2.13,5.35-3.78,8.82a17.53,17.53,0,0,1,1.13-2.31c-1.16,2.54-2.68,5.75-2.54,5.37l.3-.67c-1.72,4-3.92,8-6,12.3-1.11,2.1-2.31,4.18-3.48,6.29l-1.76,3.15c-.59,1-1.23,2.05-1.84,3.07l-3.65,6c-1.2,2-2.47,3.8-3.64,5.61l-6.41,9.83.42-.65-1.22,1.87c-.72,1.13-1.72,2.6-2.66,4.12l-3.71,6.09c-3.46,5.58,2-3.37-.56.73-2,3.29-3.63,6.32-5.24,9.08s-2.92,5.41-4.3,7.93-2.55,5-3.83,7.6-2.46,5.25-3.74,8.15a171.23,171.23,0,0,0-8.16,21.23,173,173,0,0,0-5.79,24.66l.17-.75c-.4,3.41-.65,4.1-.88,6.62.08-.35.42-3.7.25-1.57a115.94,115.94,0,0,0,3.43,44.23c1,3.64,2.16,7.24,3.3,10.81.56,1.79,1.12,3.58,1.53,5.37a16,16,0,0,1,.37,2.66,21.49,21.49,0,0,1-.09,2.73,56,56,0,0,1-2.1,10.87,33.46,33.46,0,0,1-4.49,9.87,10.6,10.6,0,0,1-3.89,3.52,5.87,5.87,0,0,1-2.65.58,6.84,6.84,0,0,1-3.19-1,18.18,18.18,0,0,1-5.19-4.83l.4.44.91.94c.35.32.68.65.95.89l.45.38a33.83,33.83,0,0,1-5.13-6.2,77.33,77.33,0,0,1-4.15-7.11,159.09,159.09,0,0,1-6.77-15.19c-4-10.38-8-20.75-12-30.7.51,1.17.59,1.18,1.34,3.14-.75-2.14-2.27-6-3.64-9.41-.68-1.68-1.33-3.23-1.82-4.36l-.59-1.34a2.85,2.85,0,0,0-.25-.5c-1.25-3.1-.18-.76-.9-2.69-1.62-4.25-4.59-10.46-5.44-12.73-.14-.39.57,1.15.91,1.91l-3.18-7c-1.15-2.48-2.06-4.27-1.53-2.95a151.8,151.8,0,0,0-10.65-19.16c-1.25-1.7-3.29-4.52-5.3-6.92a29.43,29.43,0,0,0-4.65-4.63c.16,0-.41-.55-1.44-1.51L695,360.77c-.75-.57-1.62-1.14-2.51-1.75a34.92,34.92,0,0,0-6-3c-.5-.18-1-.39-1.46-.54l-1.38-.4a19.15,19.15,0,0,0-2.3-.55c.86.15-.24-.13-1.3-.4s-2.13-.38-1.1-.3c-5.94-.93-11.35-.12-10.3-.11a72.66,72.66,0,0,0-15.44,2.5c-4.67,1.2-8.69,2.49-11.66,3.16-8.22,2.74-16,5.82-23.44,8.93s-14.67,6.35-21.89,9c.21-.23,4.19-1.74,8-3.34s7.49-3.13,7.11-3.17c-6.78,2.86-12.07,5.31-17.46,7.16-.67.2-1.35.44-2,.57a6.38,6.38,0,0,1-1,.18l-1.09.11a21.42,21.42,0,0,0-4.5,1.25c-2.93,1.08-5.92,2.42-9.25,4s1.88-1.07,3-1.63c-6.71,3.1-13,6.37-19.17,9.58s-12,6.45-17.68,9.71a7.91,7.91,0,0,1,.77-.48l1.62-1c-2.25,1.26-5.27,2.87-4.94,2.87l2.18-1.27c3.71-1.81-8.7,5.44-9,5.8,1.22-.88.29-.43-1.21.38l-2.5,1.37-1.21.67-.41.22-.26.13a2.18,2.18,0,0,1-.44-.45s.09,0,.17,0l.29.1s.09-.11.18-.2l-.17.11-.16-.1-.08-.05-.23-.16-.81-.55c-.46-.3-.74-.46-.63-.32-2-1.54-2.59-2.08-.47-.64-7.41-5.51-4.91-3.38-11.55-8.47.07,0,1.43,1,2.17,1.41-3.45-2.46-6.93-4.92-12.47-9.32.37.22-.24-.33,1.42,1-9.58-7.46-16.58-12.41-26.73-21,3.24,2.25-3.42-3-3.73-3.69l-2.74-2.3-2.69-2.35,2,2-3.42-3c-1.11-1-2.09-2-3.24-3-2.47-1.85-5.26-2.39-7.9-3l.73.13c.44.08,1,.22,1.59.34s1.15.31,1.58.42.71.24.71.24l-.49-.18-1.31-.39c-1.09-.3-2.54-.63-4-.87s-2.94-.43-4-.56l-1.84-.19,1,.13c.62.07,1.45.18,2.28.31,1.66.24,3.3.59,3.3.59-3.17-.48-3-.3-3.1-.27s-.42,0-4.58-.45c.85.07-.72-.14-2.9-.29s-5-.49-6.63-.49h0c-3.11,0-6.31.09-11,0-1.21-.09,1-.31.18-.37-3.07.22-14.72.31-18.59.73,1.29-.11,1.35-.25.93-.27l-2.56.29c-2.91,0-3.34,0-2.87-.1-8.75.33,2.79.24-7.59.53.81-.05.42-.06,2.12-.17-10.43.38-20.12,1.1-29.69,1.51-2.84-.13,8.36-.51,5.11-.58-13.79.79-28.55,1.87-41.91,2.32l2.49-.07c-1.84.46-10,.2-16.7.52,1.65-.07,2.16-.26,1.72-.21-4.57.08-9.25.18-14.51.21s-11.12,0-18-.46l1.72,0c-5.34-.43-14.19-1.26-19.46-3.71-1.6-.62-4.59-2-2.82-1.07a113.09,113.09,0,0,1-20.89-15,165.81,165.81,0,0,1-17-17.34c1.25,1.44,3.09,3.32,2.06,2.21,0,0-.58-.62-1.42-1.57s-2-2.2-3.1-3.48l-3-3.53-1.35-1.63c.58.91,1.06,1.43,2.83,3.66-1.19-1.25-3.67-4.17-5.78-6.79,3.91,4.69.11-.15-1.45-2.28.24.37-.35-.31-.24-.11a29.63,29.63,0,0,0-2.75-3.52,42.82,42.82,0,0,1-3.9-5.08l.36.37c-1.1-1.44-2.14-2.84-3.18-4.28s-2.11-2.9-3.2-4.53c-.8-1.41,2.23,3.15,2.49,3.27-3.15-4.49-6.36-8.78-8.88-13.06,1.27,2,3.1,4.76,4.43,6.68l-5.34-8.52.2.34-2.4-4-2.33-4,1.16,2.06c-.94-1.44-1.86-2.91-2.74-4.45s-1.77-3.14-2.65-4.82c-1.77-3.36-3.58-7-5.46-11.25.91,2.06,1.46,3.14,1.72,3.65s.24.44.11.13a11.19,11.19,0,0,1-.76-1.88L183.13,252c-.36-1-.57-1.6-.37-1.13A67.73,67.73,0,0,1,179,238c0-.28-.86-4.59-.58-3.64-1-5.59.15,1.34,0,.87-1.7-8.6-2.95-20.38-3.88-32.94-.35-5.42-.49-8.64-.6-11.76s-.17-6.15-.1-11.19c.07-1.7.07-1,.06.12v2.67c.11-5.49.26-9.62.63-14.79-.05,1,0,0,.2-1.6.38-4.13.14-2.78.85-8.21l-.42,4.13a131.48,131.48,0,0,1,2.29-14.6c.32-1.3-.62,3-.88,4.76.49-2.8,1.26-6.41,2.11-9.49s1.75-5.63,2-6.46c0,0-.33.85-.63,1.71l-.59,1.73c.66-2,.36-1-.09.46-1.39,4.67-1.82,6.79-1.92,7.05l.41-1.76.44-1.75a85.76,85.76,0,0,0-2.05,9.32c-.68,4-1.2,8.5-1.53,12.12l.2-3s-.19,1.85-.32,3.71-.25,3.72-.25,3.72c-.12,1.58-.26,2.66,0-.92-.4,5.2-.26,4.61-.49,9.08,0,.49,0,.27,0-.19l-.05,2.55,0,2.55c0-1-.1.85,0-2.28-.24,9.14.2,14.74.24,18.18l0-.76c.15,3.17.27,4.83.33,5.68s.08.91.1.86,0-.58.44,4.16l.14,3.2.17,3.2.23,1.23c.13,1.3.41,3.88.31,3.4.64,4.83-.05-.83.35,2,.33,3.13.92,7.43,1.54,11.11s1.23,6.74,1.27,7.46c.54,2.2-1.13-5.92.28.66a32.76,32.76,0,0,0,1.21,5.19c.38,1.15.8,2.42,1.27,3.72s1,2.66,1.54,4c-.81-1.58-2.64-6.73-.7-1.29l3.07,6.86c1.24,2.7,2.63,5.53,3.79,7.67.11.07,1.39,2.38,3.18,5.54s4.17,7.12,6.4,10.52c-.17-.2,1.86,3.05,4.53,7.09s6.05,8.82,8.29,11.88l-.16-.16c1,1.09,5.7,7.33,9.33,11.71a19.26,19.26,0,0,1-2.88-3.24l1.66,2.1,1.69,2.07c.84.94,1.93,2.21,4.2,4.83l-1-.93c4.62,5.43,9.57,10.69,16,17.19.48.23-4.91-5.39,2.1,1.27.21.3.37.66-1.5-1.06.61.57,2.21,2,3.4,3.15l-2.92-2.54c3,2.89,1.65,1.43,4.12,3.67-.13,0,1.8,1.7,1.37,1.45l-3.12-2.8c1.36,1.3,2.93,2.66,4.25,3.89s2.51,2.17,3.06,2.69c-.2-.28.07-.09,2.29,1.56,2.82,2.19,3.36,2.49,3.51,2.69s0,.14,1.72,1.37l3.25,2a10.69,10.69,0,0,0,2.33,1.17l2.87,1.63,1.65.74c.65.3,1.45.54,2.26.85a31.83,31.83,0,0,0,5.14,1.44c3.29.65,5.63.85,3.58.48l-.93-.17.6.09h0c6,.82,12.27,1.18,18.53,1.41s12.51.24,18.5.09l0,.07c7.15-.2,15.91-.48,21-.85,2.11-.09,5-.09,4.09,0,5.46-.3,6.07-.41,14-.68a53.77,53.77,0,0,1-5.62.37c7.1-.28,8.71-.25,16.31-.84-2.58.32,5.35,0,8.72-.27l-5,.12c3.79-.23,7.1-.38,10.47-.54l-1.81.34c14.52-.43,26.15-1.8,37.22-1.57,3.83-.29-7.89.09-4.46-.21,6.68-.19,13.64.11,15.73.1,4.57.05,6.7,0,8.88-.05a81.58,81.58,0,0,1,9.19.24c-.61-.09-1.19-.21-.74-.27a35.66,35.66,0,0,1,5.52.26,30.7,30.7,0,0,1,6,1.13c.65.25,0,.18-2.08-.13a22.85,22.85,0,0,1-2.26-.39c-2.13-.25-4.94-.45-2.34-.09h.87a66.93,66.93,0,0,1,7,1.27c2.33.58,3.84,1.32,2.85,1a11.42,11.42,0,0,1,1.34.54,5.14,5.14,0,0,1,.72.36c.3.17.31.15.1,0a12.62,12.62,0,0,0-3.55-1.57,11.76,11.76,0,0,1,4.82,2.51c1.31,1.24,2.51,2.46,3.79,3.57,2.52,2.28,5.11,4.51,8.47,7.39-1-.94-2-1.86-.89-1,4.93,4.21,6.08,5.06,6.82,5.59s1.08.71,4.52,3.45c3.8,3.23-1.62-.84,5.36,4.58,4.17,3.43.74.91-1-.36,6.41,4.88,11.75,9.4,15.37,12.25l-3.4-2.54L508,398l-1.8-1.63c2,1.55,3.62,2.84,3.53,2.87,2.11,1.47-1.36-1.45,2.78,1.52,2.57,2.1,8.1,6.05,8.86,6.95-8.26-6.39.76.91-6.29-4.42,1.38,1,3,2.28,5,3.81.28.25-.31-.17-.86-.57,2.77,2.2,4.06,3.16,4.94,3.77.44.3.78.52,1.15.75l.6.38,1.23.86,2.34-1.43c.8-.48,1.81-1.07,3.12-1.82-1.07.77,2.22-1,3.67-1.81-3.63,2.06-1.85.77,1.42-1.2,5.84-3.15,6.25-3.6,9.3-5.27l-3.49,1.88c1.11-.78,4-2.37,8.05-4.63.4-.1-3.65,2.08-2.18,1.33,4.39-2.68,10.31-5.32,16.59-8.75,3-1.43.4.09,3-1.18,3.54-1.88,5.51-2.79,7.53-3.69s4.09-1.84,7.94-3.45c-1.15.34-1.81.61-1.53.44s.53-.27,1.22-.56,1.68-.72,3.05-1.22c0,0-.2.06-.55.19l-1.45.53c-1.2.47-2.79,1.13-4.36,1.84-3.15,1.41-6.24,3-6.24,3s2-1,4-2,4-1.91,4-1.91c-3.85,1.6-8,3.74-10.23,4.82,3.74-2,3.37-1.75,1.5-1,2.64-1.12,5.18-2.36,7.86-3.57,1.34-.6,2.72-1.2,4.16-1.72a15.1,15.1,0,0,1,4.53-1.09l-.17.48a15.13,15.13,0,0,0,3.79-.68c1.17-.35,2.29-.74,3.39-1.15,2.2-.83,4.33-1.71,6.54-2.66,4.42-1.88,9.14-4,15.14-6.37l-3.87,1.51c1.53-.83,7.37-3.06,11.24-4.63-.31.28,2.14-.62,3.85-1.16-.12,0,2.09-.84,4.46-1.72s4.93-1.78,5.44-2.1c0,0,1.38-.42,2.77-.8l2.78-.76c5-1.46,7.85-2.24,10.67-3,1.41-.37,2.82-.71,4.49-1,.83-.18,1.74-.33,2.75-.47l1.59-.23L667,355c-1.49.23-1.1.25-1.17.32a34,34,0,0,1-3.89.7c1.64-.23,3.2-.49,4.37-.58a12,12,0,0,0,1.94-.27c1,0,3.26-.22,5.69-.2,1.21,0,2.47.09,3.59.21a22.7,22.7,0,0,1,2.87.5,20.27,20.27,0,0,1,5.38,1.37c.37.18,0,.06,0,.06a7,7,0,0,1,.82.27,14,14,0,0,1,1.52.62c1,.43,1.56.67.12-.11a40.72,40.72,0,0,1,7.43,4.93,55.23,55.23,0,0,1,7.27,7.33,74.3,74.3,0,0,1,5.91,8.2c1.69,2.66,3.05,5.15,4.06,7.15,3.57,6.36,7.31,14.33,9.94,20.42a4.88,4.88,0,0,1-.55-1.15c1.77,4.22,2.39,5.48,3.08,6.89s1.44,3,3.34,7.81c1.8,5-2.18-5.08-1-2,.17,1.49,4.75,11.64,7.05,18.27l-.64-1.57c1.83,5,4.88,12.13,8,20.31,0,0-.19-.38-.07,0l4.61,11.05c1.83,4.27,3.93,8.75,6,12.46-1.36-2.25-1.83-3.37-1.24-1.87.88,1.68.8,1.4,1,1.55a46.09,46.09,0,0,1,2.41,4c.59,1.08,1.63,2.76,2.63,4.22s2,2.66,2.17,3a35.39,35.39,0,0,1-2.25-2.8c-1.06-1.45-2-3-2-3,1.76,3.2,5.35,7.72,8.77,9.66l-.47-.19a7.75,7.75,0,0,0,6.61,1.17,9.11,9.11,0,0,0,3.9-2.7,19.74,19.74,0,0,0,2.69-4,40,40,0,0,0,2.67-6.48l-.44,1.13c.94-3.08,1.23-4.39,1.58-5.68a36.43,36.43,0,0,0,1-5.8l.21-1,.19-1A20.16,20.16,0,0,0,782,464a40.14,40.14,0,0,0-1.49-5.56c-1.3-3.91-2.8-8.19-3.83-11.83.64,2,1.67,5.16,2.79,8.41s2.35,6.63,2.71,9.46a46.73,46.73,0,0,0-2.35-8.72l-2.35-7.06,1.68,5.2a113.8,113.8,0,0,1-5.28-19.48c.31.7-.72-4.64-1.13-11-.22-3.17-.3-6.59-.24-9.58,0-1.5.11-2.89.17-4.09s.12-2.23.23-3a127.14,127.14,0,0,1,3.44-22,195.93,195.93,0,0,1,7.18-23c-1.15,2.82-.73,1.64-.06-.12a24.82,24.82,0,0,0,1.35-3.63c1.45-3.73,2.12-5.1,2.27-5.43l2.52-5.52,2.7-5.43c1.31-2.56-1.63,3.44-1.43,3.12,1.92-3.93,2.34-4.75,2.6-5.23l1.73-3.18c-.6,1,1.32-2.75,3.73-7.11l-.55.95-1.16,2.12-1.68,3.09c1.43-2.71,2.41-4.67,3.3-6.19l2.23-3.81,2.24-3.82,3.67-6-2,3.35,3.35-5.47c1.33-2.21,3-4.62,4.56-7.07,3.19-4.87,6.33-9.78,8-12.41.63-.93,1.47-2.15,0,.19,2.05-3.18,4-6.67,6.14-10.13s4-7.15,5.87-10.67l2.65-5.28c.86-1.73,1.74-3.39,2.48-5.06l2.19-4.75c.7-1.51,1.38-2.94,1.93-4.3l-.41,1.07c1.08-2.61,1.84-4.57,3.23-7.82-.06.17-.41,1.06.1-.14.28-.69.91-2.46,1.67-4.49s1.65-4.3,2.21-6.08l-.49,1.52-.54,1.51c1.29-3.46,2.25-6.59,3.22-9.44s1.63-5.54,2.38-8.12,1.3-5.14,2-7.77,1.18-5.41,1.86-8.43a2.53,2.53,0,0,0,.14-.48l.28-1.36.88-4.54c.37-1.78.63-3.76.93-5.65s.58-3.68.73-5.13v.2a193.33,193.33,0,0,0,1.59-23,196.71,196.71,0,0,0-1-22.1,146.19,146.19,0,0,0-3.64-22.18c-.28-1.11-.57-2.23-.9-3.35-.16-.56-.33-1.12-.5-1.68l-.28-.85-.12-.36c-.06-.1,0-.31-.21-.25h-.68l-7,0-13-.07c2.43,0-.4.12-3.22.14-3.73,0-10.31.1-9.72-.06h1.33c-2.81-.16-10.48-.14-16.46-.16l-1,.22c-15.65-.38-41,.06-49.56-.29l-12.2.11.2-.15c-10.47-.06-15.69-.1-28.63-.08l2.64-.11c-7.3,0-9.21.47-15.95.47l-2-.26c-12.73,0-25.62-.27-38.2,0a14,14,0,0,1,2.64-.13c-6,0-23.18-.21-21,.18a11.72,11.72,0,0,0-2.22-.11h-5.26l-12.53.18,1.07-.19c-5.8.24-6,.3-14.09.37-1.92,0-1.68-.15.87-.1-6.4-.1-5,.18-12.75.08l2.89-.12c-6.58,0-6.06.05-9.69.19-4.14.08-12.49,0-13.46-.21-.89.1-4.49.24-8.37.19-.52-.06.89-.1,1.6-.12-11-.12-16.37.22-23.94,0a6.15,6.15,0,0,0-1.28-.11l15.13,0c0-.17-7.07-.2-1.44-.44-5.67.13-15.37.41-22.26.34l-.91-.06.71,0c-1.59,0-3,0-4.35,0l-5.7,0c-.81-.14-8.1-.07-11.62-.07.29.18-4.32.15,0,.3-.56,0,.67,0,3,0l1.5,0-.24,0,8.76,0c-2.78.09-5.69.17-9.59.07l-4.92.29c-4.82-.25-14.11-.38-15.41-.53-10.76.11-25.34.09-32.1.41a44,44,0,0,1-4.66-.14c1.77,0,3.87,0,4.82-.08-6.11.09-18.12,0-19.58.26-7.71-.09,4.33-.2-6.26-.16l1.43-.07c-20.83-.3-33.87.55-57,.15,1.6,0,2.4,0,2.73.06-26.33-.13-54.27.18-80.25,0-7.39,0-8.19.06-12.69.13l-1.6-.1-7.71.13c-10.93.08-18.93-.19-32.76,0l1.78,0c-5,0-15.74,0-14.91,0-.51,0-1.63,0-3.57,0l-.15,0-12.21.07c-9.46,0,1.48-.1-12.33-.07-5.13,0-14.62.09-12.69.09s5.29,0,5.45,0h-4.7c-.85,0-4.46.05,7.06.13h8l2.59,0-6.76,0c3.83,0,6.27,0,9,0l3.37.05,7.88-.05c1,0-3.54.05,1.76.09,3.69,0-3.54-.09,2.57-.1,3.84.05,2.72.09,7.23.06.63,0-.32,0-2.11,0,4,0,10.62,0,12.69,0,4,.08,13.55,0,13.16.14l10.76-.08c-6.74.14,13.8,0,12,.22,5-.14,18,0,26.84-.1-.49,0-1.46,0-2.24,0,5,0,6.41.09,9.61.13.64-.16,8.38-.18,12.55-.28,6.09.17-3.7.19-1.79.35-.31-.13,10.58-.11,8.51-.23,4.66.11,4,.06,6.41.21.82-.22,4.34,0,8.2-.16,6.74.12,1.74.22,9.14.16C369.92,116.2,363.34,116.26,363.34,116.26ZM539,116h0Zm15.28,0h-6.42c-.52-.06,0-.13,1.53-.13C548.58,115.9,552.07,115.94,554.28,116ZM523,114.72c2.34,0,3.13,0,3.45,0l-4.1,0-.28,0A8.55,8.55,0,0,1,523,114.72Z" transform="translate(-173.71 -114.52)"/><path class="cls-1" d="M518.76,115h-1l1.4,0L520,115Z" transform="translate(-173.71 -114.52)"/><path class="cls-1" d="M280,358.64l.31.05-.65-.13Z" transform="translate(-173.71 -114.52)"/><polygon class="cls-1" points="584.95 1.64 584.93 1.6 583.64 1.64 584.95 1.64"/><path class="cls-1" d="M217.88,308.42c-.09-.13-.26-.38-.63-.86C217.27,307.6,217.54,308,217.88,308.42Z" transform="translate(-173.71 -114.52)"/><path class="cls-1" d="M197.67,279.64l-2.55-4.27Z" transform="translate(-173.71 -114.52)"/><path class="cls-1" d="M184.8,255.89c-.17-.3-.22-.38-.27-.46l0,0Z" transform="translate(-173.71 -114.52)"/><path class="cls-1" d="M544.68,400.34l.91-.51C547.72,398.61,546.27,399.43,544.68,400.34Z" transform="translate(-173.71 -114.52)"/><path class="cls-1" d="M438.47,355.07c1.36,0,2.71,0,4.13.06A21.52,21.52,0,0,0,438.47,355.07Z" transform="translate(-173.71 -114.52)"/><path class="cls-1" d="M679.05,353.86h0l.9.13Z" transform="translate(-173.71 -114.52)"/><path class="cls-1" d="M448.56,355.55c-2.28-.25-4.19-.37-6-.42C444.47,355.23,446.67,355.42,448.56,355.55Z" transform="translate(-173.71 -114.52)"/><path class="cls-1" d="M179.31,140.44l.38-1.24a.73.73,0,0,1,0-.15Z" transform="translate(-173.71 -114.52)"/><path class="cls-1" d="M179.73,139.05l.46-1.37Z" transform="translate(-173.71 -114.52)"/><path class="cls-1" d="M181.23,134.82s-.29.71-.54,1.42-.51,1.43-.51,1.43C180.53,136.68,181,135.46,181.23,134.82Z" transform="translate(-173.71 -114.52)"/><path class="cls-1" d="M174.21,175.78v.41A2.64,2.64,0,0,0,174.21,175.78Z" transform="translate(-173.71 -114.52)"/><path class="cls-1" d="M174.08,186.66c0-2.6.06-6.51.16-10.13v-.34C174.19,177.89,174,184.2,174.08,186.66Z" transform="translate(-173.71 -114.52)"/><path class="cls-1" d="M177.43,232s-.37-2.25-.68-4.52l-.6-4.53c.17,1.59.38,3.68-.16-.44.68,5.72.66,5.12.61,4.59S176.5,226,177.43,232Z" transform="translate(-173.71 -114.52)"/><path class="cls-1" d="M185.57,259c-2.08-4.45,0,.08-.17-.14C186.78,261.65,187.13,262.32,185.57,259Z" transform="translate(-173.71 -114.52)"/><path class="cls-1" d="M343.85,359.29l-.48.21C347.14,359.3,343.39,359.43,343.85,359.29Z" transform="translate(-173.71 -114.52)"/><polygon class="cls-1" points="209.13 241.81 205.45 241.88 203.71 242.15 209.13 241.81"/><polygon class="cls-1" points="232.26 242.15 230.61 242.24 236.91 241.94 232.26 242.15"/><path class="cls-1" d="M708.73,378.83l-.43-1.07a5.84,5.84,0,0,0-1.21-1.55A26.06,26.06,0,0,0,708.73,378.83Z" transform="translate(-173.71 -114.52)"/><path class="cls-1" d="M779.12,481.85a40.89,40.89,0,0,0,2.19-8.12A59.5,59.5,0,0,1,779.12,481.85Z" transform="translate(-173.71 -114.52)"/><polygon class="cls-1" points="624.28 0.44 627.26 0.4 621.64 0.42 624.28 0.44"/><g class="cls-2"><path class="cls-3" d="M318.59,284.36a7.08,7.08,0,0,1-2.14,5.84l2.15-2.14-3.92,3.52,3.06-2.35-4.53,2.83c-.32.2-1.63,1.4-.43.87a16.08,16.08,0,0,0,6-4.18,10.76,10.76,0,0,0,1.89-2.8,11.26,11.26,0,0,0,.93-4.74c0-.72-1.12.65-1,.57C320.06,282.32,318.64,283.55,318.59,284.36Z" transform="translate(-173.71 -114.52)"/><path class="cls-3" d="M319.94,285.48l-2.32,6.14,3.87-3.91-5.25,4.87,4.77-3.73a40.07,40.07,0,0,0-7.35,5.15q-.26.33.15.25c.89,0,2.53-1.35,3.15-1.73,2.63-1.61,4.38-2.75,6.19-5.79a14.28,14.28,0,0,0,1.85-7.28,1,1,0,0,0-.72.47q-1.06,1.14-2,2.34C321.64,283,320,284.41,319.94,285.48Z" transform="translate(-173.71 -114.52)"/><path class="cls-3" d="M317.79,284l-2.29,5.72,1.3-1.37-2.72,2.31,1.57-1.16-3,1.66s-1.27.65-1.25.9.11.33.41.21a13.19,13.19,0,0,0,4.94-3,9.79,9.79,0,0,0,2.85-7c0-.54-.74.2-.74.2C318.5,282.79,317.83,283.44,317.79,284Z" transform="translate(-173.71 -114.52)"/><path class="cls-3" d="M319.33,287.52l-.16,2.48.13-.37-1,2.53.14-.36-1.35,1.82,6.8-6.8-7.8,7.43,8.13-6.61q-5.66,3.93-11,8.29-.49.5.16.24a20.66,20.66,0,0,0,2.69-1.6q2.53-1.63,5-3.32a13.41,13.41,0,0,0,5.59-6.75,18.32,18.32,0,0,0,1.54-7.68,2.66,2.66,0,0,0-1.13,1q-1.83,2.06-3.59,4.19t-3.49,4.27A2.66,2.66,0,0,0,319.33,287.52Z" transform="translate(-173.71 -114.52)"/><path class="cls-3" d="M319.5,285.93l-2.33,6.19,4.82-4.85L315.89,293l5.89-4.68a67.94,67.94,0,0,0-8.58,6.2q-.34.39.15.24l.68-.31q1.61-.92,3.18-1.93c3-1.88,4.78-3,6.75-6.55a15.51,15.51,0,0,0,1.78-7.51,1.41,1.41,0,0,0-.84.62q-1.3,1.42-2.52,2.91C321.72,282.79,319.58,284.69,319.5,285.93Z" transform="translate(-173.71 -114.52)"/><path class="cls-3" d="M319.31,284.53a7.69,7.69,0,0,1-2.18,6l2.75-2.69L315.36,292l3.83-2.95-6,3.93-.36.33c.12.5.59.08,1.06-.14s1.13-.61,1.68-.95a9.22,9.22,0,0,0,3.89-3.76,11.85,11.85,0,0,0,2.93-3.45,11.33,11.33,0,0,0,.88-4.77c.06-.83-1.42,1-1.3.86q-.95,1.08-1.85,2.2A4.8,4.8,0,0,0,319.31,284.53Z" transform="translate(-173.71 -114.52)"/><path class="cls-3" d="M319.25,286.55l-.17,2.48.09-.32-2.23,4,5.68-5.71-6.84,6.48,6.89-5.55a104.82,104.82,0,0,0-9.66,7.15q-.41.44.16.24l.78-.39q1.87-1.12,3.7-2.31c3.29-2.13,5.18-3.23,7.26-7.23a16.79,16.79,0,0,0,1.75-7.72,1.88,1.88,0,0,0-1,.77q-1.52,1.69-3,3.45t-2.87,3.53A1.88,1.88,0,0,0,319.25,286.55Z" transform="translate(-173.71 -114.52)"/><path class="cls-3" d="M320.32,287.11l-.16,2.48.11-.35a8.32,8.32,0,0,1-2.16,4l6.17-6.17L317,294l7.38-6q-5.27,3.56-10.16,7.6-.43.46.16.24l.83-.42q2-1.2,3.91-2.47c3.46-2.26,5.45-3.4,7.58-7.65a17.79,17.79,0,0,0,1.76-8,2.24,2.24,0,0,0-1,.86q-1.67,1.88-3.28,3.81t-3.18,3.9A2.24,2.24,0,0,0,320.32,287.11Z" transform="translate(-173.71 -114.52)"/><path class="cls-3" d="M319.1,285.29l-2.32,6.11,3.86-3.9-5.24,4.85,4.79-3.75a40.27,40.27,0,0,0-7.38,5.16q-.27.33.15.25c.91,0,2.56-1.37,3.19-1.75,2.61-1.59,4.36-2.73,6.15-5.74a13.86,13.86,0,0,0,1.79-7.18,1,1,0,0,0-.71.47q-1,1.12-2,2.31C320.77,282.81,319.16,284.24,319.1,285.29Z" transform="translate(-173.71 -114.52)"/></g><g class="cls-2"><path class="cls-3" d="M315.7,255.45a11.48,11.48,0,0,1,1,4.17,21.91,21.91,0,0,1,.16,4.26l.11,9.95a150.89,150.89,0,0,1-1.79,19.77c0,.3.47-.34.4-.27a2.66,2.66,0,0,0,.69-1.11,114.54,114.54,0,0,0,1.37-14.89,107.39,107.39,0,0,0,0-15l-.08-2.88a16.93,16.93,0,0,0-1.14-5.57C316.38,253.82,315.59,255.08,315.7,255.45Z" transform="translate(-173.71 -114.52)"/><path class="cls-3" d="M316.12,255.87c1.34,4.37,1.17,8.78,1.23,13.3a74.17,74.17,0,0,1-.22,9.94A113.24,113.24,0,0,1,315.65,294c0,.4.67-.65.57-.53.33-.44,1.14-1.29,1.2-1.86a153.34,153.34,0,0,0,1.48-20q-.06-5.76-.33-11.51a27,27,0,0,0-1.32-7.16s-.67,1.43-.68,1.46C316.44,254.66,316,255.47,316.12,255.87Z" transform="translate(-173.71 -114.52)"/><path class="cls-3" d="M315.49,255.41a53.21,53.21,0,0,1,1.18,13.37,123.29,123.29,0,0,1-1.8,24.72c0,.14.66-.48.69-.73,1.31-10.83,2.3-21.62,1.54-32.55a17.86,17.86,0,0,0-1.16-5.66C315.88,254.38,315.42,255.19,315.49,255.41Z" transform="translate(-173.71 -114.52)"/><path class="cls-3" d="M315.8,256.74a11.5,11.5,0,0,1,1,4.18,21.83,21.83,0,0,1,.2,4.26l.11,9.94a151,151,0,0,1-1.74,19.79,1.05,1.05,0,0,0,.41-.42q.65-.88,1.27-1.79c.36-.52,1.41-1.63,1.48-2.36a115.62,115.62,0,0,0,1.09-15.15A115,115,0,0,0,319.4,260l-.21-3a18.88,18.88,0,0,0-1.36-5.7,1.12,1.12,0,0,0-.31.53q-.43,1.05-.83,2.12C316.53,254.46,315.62,256.13,315.8,256.74Z" transform="translate(-173.71 -114.52)"/><path class="cls-3" d="M315.9,256c1.34,4.38,1.18,8.78,1.24,13.3a74.51,74.51,0,0,1-.21,9.95,113.28,113.28,0,0,1-1.47,14.85c-.05.44.77-.81.68-.68.39-.54,1.43-1.6,1.5-2.3.69-6.7,1.3-13.34,1.39-20.08.05-3.84-.18-7.69-.38-11.53a28.1,28.1,0,0,0-1.36-7.2c0,.08-.79,1.74-.81,1.8C316.34,254.53,315.76,255.58,315.9,256Z" transform="translate(-173.71 -114.52)"/><path class="cls-3" d="M315.86,255.56a11.44,11.44,0,0,1,1,4.16A21.79,21.79,0,0,1,317,264l.11,10a151,151,0,0,1-1.77,19.8c0,.35.56-.48.47-.38a4,4,0,0,0,.91-1.44A114.92,114.92,0,0,0,318.08,277a109.29,109.29,0,0,0,0-15L318,259a17.2,17.2,0,0,0-1.19-5.58c-.09-.31-.39.53-.37.48C316.26,254.27,315.75,255.2,315.86,255.56Z" transform="translate(-173.71 -114.52)"/><path class="cls-3" d="M315.78,256.3a12,12,0,0,1,1,5.54,142,142,0,0,1-1.46,32.68,13.69,13.69,0,0,1,1.4-1.83c.32-.47,1.14-1.34,1.2-2q.5-5,1-10a114.4,114.4,0,0,0,.15-15.13q-.07-4-.35-8a18.36,18.36,0,0,0-1.3-5.65,20.77,20.77,0,0,1-.94,2.14C316.34,254.48,315.62,255.78,315.78,256.3Z" transform="translate(-173.71 -114.52)"/><path class="cls-3" d="M316.17,256.57a11.53,11.53,0,0,1,1,4.18,21.87,21.87,0,0,1,.2,4.26l.12,9.95a151,151,0,0,1-1.73,19.8.9.9,0,0,0,.38-.38q.6-.81,1.17-1.64c.34-.5,1.28-1.48,1.35-2.16a115.54,115.54,0,0,0,1.13-15.15,115,115,0,0,0-.21-15.19l-.19-3a18.79,18.79,0,0,0-1.34-5.71A19.91,19.91,0,0,1,317,254C316.83,254.47,316,256,316.17,256.57Z" transform="translate(-173.71 -114.52)"/><path class="cls-3" d="M315.8,255.8c1.34,4.36,1.17,8.78,1.22,13.29a74.18,74.18,0,0,1-.22,9.94,113.3,113.3,0,0,1-1.48,14.84c0,.39.66-.63.56-.51.32-.43,1.12-1.26,1.18-1.82a153.35,153.35,0,0,0,1.47-20q-.06-5.75-.33-11.49a26.7,26.7,0,0,0-1.33-7.12s-.65,1.37-.66,1.39C316.1,254.65,315.68,255.41,315.8,255.8Z" transform="translate(-173.71 -114.52)"/></g><g class="cls-2"><path class="cls-3" d="M311.59,322.32a35.77,35.77,0,0,0,.89-8.43q-.06-4.4-.45-8.78t-.43-8.71a9.5,9.5,0,0,1,.39-4.6l-1.55,1.85a6,6,0,0,1,4.23,3.24c.11.12,1.18.88.9.51a9.87,9.87,0,0,1-2.32-4.42,2.08,2.08,0,0,0-.73-1.36h-.09l-.43.08a5,5,0,0,0-1.82,2A58.18,58.18,0,0,0,310,304.8c.17,2.87.35,5.73.4,8.6a49.59,49.59,0,0,1-1,10.26,9.71,9.71,0,0,0,1.16-.56C310.76,323,311.54,322.63,311.59,322.32Z" transform="translate(-173.71 -114.52)"/><path class="cls-3" d="M311.63,323.14a35.63,35.63,0,0,0,.91-8.42q0-3.29-.28-6.56a120.7,120.7,0,0,1-.33-15.08l-1.52,2,2-2.33-2.26,2.07,2.32-1.21-2,.85a.91.91,0,0,1,.47.37,7.08,7.08,0,0,0,4.12,2.91c.3.21.32.08.13-.15a7.66,7.66,0,0,1-1.93-3.85,1.9,1.9,0,0,0-.65-1.32l-.11,0-.43.09c-.45.1-1,1-1.25,1.25s-1,.95-1.06,1.41l-.42,4.52q0,4.3.3,8.6t.19,8.53a36.31,36.31,0,0,1-1.14,8s1.53-.79,1.52-.78C310.46,324,311.57,323.51,311.63,323.14Z" transform="translate(-173.71 -114.52)"/><path class="cls-3" d="M311.72,321.71c.2-1.23.56-2.92.69-4.15a62.34,62.34,0,0,0-.11-10.86c-.2-2.9-.43-5.8-.53-8.71-.07-2.13-.31-4.77.32-6.83l-1.3,1.59.67-.57-.53.32c2,.17,3.72,4,4.42,5,.09.13.63.2.46-.06a6.44,6.44,0,0,1-2.21-4.4,3.2,3.2,0,0,0-1-2h-.08l-.53.1a4.11,4.11,0,0,0-1.45,1.7,52.81,52.81,0,0,0-.12,11.12q.2,3.24.4,6.47a42.31,42.31,0,0,1-.91,12.42C310,322.56,311.63,322.28,311.72,321.71Z" transform="translate(-173.71 -114.52)"/><path class="cls-3" d="M311,324.27a35.58,35.58,0,0,0,.93-8.4q0-3.28-.27-6.54t-.43-6.55a40.06,40.06,0,0,1,.26-8.9l-2.27,2.58,2.13-2-2.25,1.91,5.14,2.39a.63.63,0,0,0,.42.13,3.92,3.92,0,0,1-1.75-3.45,2.49,2.49,0,0,0-.86-1.81l-.12,0-.43.14c-.53.17-1.09,1-1.42,1.39s-1.19,1.06-1.23,1.55q-.18,2.27-.43,4.53,0,4.29.25,8.58t.11,8.48a37,37,0,0,1-1.18,8l1.75-.92C309.58,325.26,310.9,324.66,311,324.27Z" transform="translate(-173.71 -114.52)"/><path class="cls-3" d="M311.31,323.45a35.55,35.55,0,0,0,.9-8.4q0-3.28-.28-6.56a120.15,120.15,0,0,1-.32-15.06l-1.52,2,2-2.34-2.38,2.11,3.09-.46-2.46.12c.4,1.76,3.16,2.33,4.32,3.11-.12-.08.5.28.28,0a8.27,8.27,0,0,1-2-3.95,1.81,1.81,0,0,0-.66-1.27l-.11,0-.43.11c-.46.11-1,.94-1.25,1.25s-1,1-1.06,1.41q-.19,2.26-.42,4.51,0,4.3.3,8.6t.18,8.52a36.31,36.31,0,0,1-1.14,8s1.54-.8,1.53-.79C310.13,324.31,311.25,323.81,311.31,323.45Z" transform="translate(-173.71 -114.52)"/><path class="cls-3" d="M311.59,322.67a35.68,35.68,0,0,0,.89-8.42q0-3.29-.29-6.57l-.45-6.57a39.41,39.41,0,0,1,.25-8.92l-1.73,2.06a5.1,5.1,0,0,1,4.72,3.06c.11.09.71.46.38.06a7.84,7.84,0,0,1-2.16-4,1.94,1.94,0,0,0-.67-1.33h-.1l-.43.08a5.84,5.84,0,0,0-2,2.24,78.46,78.46,0,0,0-.07,13.23q.29,4.28.26,8.56a36.08,36.08,0,0,1-1.07,8.08c0,.05,1.34-.67,1.31-.66C310.62,323.41,311.54,323,311.59,322.67Z" transform="translate(-173.71 -114.52)"/><path class="cls-3" d="M311.08,323.8a35.55,35.55,0,0,0,.92-8.39q0-3.28-.27-6.55a119.79,119.79,0,0,1-.31-15.05l-1.56,2.08,2-2.39-2.44,2.17,3.16-.57-2.67.18,0,.21.07.08,4.42,2.7c-.11-.07.53.31.31,0a3.47,3.47,0,0,1-1.8-3.34,2.47,2.47,0,0,0-.81-1.81l-.11,0-.43.12c-.47.13-1,1-1.28,1.28s-1.06,1-1.09,1.44q-.16,2.26-.42,4.5,0,4.3.28,8.59t.16,8.51a36.47,36.47,0,0,1-1.16,8s1.58-.82,1.57-.81C309.86,324.69,311,324.17,311.08,323.8Z" transform="translate(-173.71 -114.52)"/><path class="cls-3" d="M311.32,324.16a35.53,35.53,0,0,0,.94-8.42q0-3.28-.27-6.54t-.43-6.55a40.25,40.25,0,0,1,.26-8.91l-2.39,2.7,2.23-2.13-2.35,2,5.28,2.31a.64.64,0,0,0,.43.14,3.84,3.84,0,0,1-1.75-3.46,2.54,2.54,0,0,0-.85-1.86l-.12,0-.44.13c-.54.16-1.15,1.09-1.48,1.46s-1.26,1.12-1.3,1.62q-.18,2.27-.43,4.54,0,4.29.24,8.58t.09,8.47a37.05,37.05,0,0,1-1.2,8s1.84-1,1.84-1C309.85,325.21,311.25,324.57,311.32,324.16Z" transform="translate(-173.71 -114.52)"/><path class="cls-3" d="M311.37,323a35.65,35.65,0,0,0,.89-8.41q0-3.29-.28-6.57l-.44-6.57a39.55,39.55,0,0,1,.25-8.91L310,294.66l1.24-1.15-1.14,1,1.62-.77-1.23.44q2.18,1.8,4.41,3.54c.24.19.31.06.13-.15a7.91,7.91,0,0,1-2.05-3.93,1.83,1.83,0,0,0-.66-1.28h-.1l-.42.09a5.07,5.07,0,0,0-2.09,2.4,84.42,84.42,0,0,0-.08,13.12q.28,4.27.23,8.55a36.16,36.16,0,0,1-1.09,8.06s1.38-.7,1.36-.69C310.35,323.77,311.32,323.34,311.37,323Z" transform="translate(-173.71 -114.52)"/></g><g class="cls-2"><path class="cls-3" d="M308.91,229.06c.26,7.39.62,14.78.89,22.18.35,9.81.4,19.61.39,29.43,0,.08,1.25-.92,1.25-1.32,0-9.83-.07-19.64-.42-29.46-.26-7.36-.66-14.71-.8-22.08C310.22,227.69,308.9,228.68,308.91,229.06Z" transform="translate(-173.71 -114.52)"/><path class="cls-3" d="M309.39,229.59c.3,7.38.66,14.75.92,22.13.35,9.82.41,19.61.39,29.43,0,0,1.1-1.12,1.11-1.13.22-.26.92-.89.92-1.29,0-9.84-.09-19.66-.45-29.49-.26-7.32-.66-14.63-.78-22,0,0-1.15,1.08-1.15,1.07C310.16,228.57,309.38,229.22,309.39,229.59Z" transform="translate(-173.71 -114.52)"/><path class="cls-3" d="M308.57,228.89c.75,17.22,1.35,34.38,1.31,51.62,0,.19.81-.49.81-.73,0-17.23-.6-34.4-1.3-51.61C309.38,228,308.56,228.65,308.57,228.89Z" transform="translate(-173.71 -114.52)"/><path class="cls-3" d="M309.14,230.43c.72,17.22,1.34,34.36,1.31,51.6a21.65,21.65,0,0,1,1.89-2c.29-.34,1.7-1.61,1.7-2.2,0-9.85-.12-19.68-.48-29.52-.27-7.32-.64-14.62-.68-21.95a24.86,24.86,0,0,1-2,2C310.67,228.56,309.12,229.89,309.14,230.43Z" transform="translate(-173.71 -114.52)"/><path class="cls-3" d="M309.21,229.79c.29,7.38.64,14.76.91,22.15.35,9.82.41,19.61.39,29.43,0-.07,1.32-1.39,1.35-1.43.24-.29,1.16-1.12,1.16-1.59,0-9.84-.1-19.66-.46-29.5-.27-7.32-.65-14.62-.73-21.94,0,0-1.39,1.34-1.4,1.35C310.21,228.5,309.19,229.36,309.21,229.79Z" transform="translate(-173.71 -114.52)"/><path class="cls-3" d="M309.11,229.32c.29,7.35.65,14.7.91,22.05.35,9.81.41,19.61.39,29.43,0,.32.54-.37.52-.34.23-.25,1.07-1,1.07-1.38,0-9.83-.08-19.65-.43-29.47-.26-7.37-.66-14.72-.8-22.1a11.44,11.44,0,0,0-.92.82C309.67,228.53,309.1,229,309.11,229.32Z" transform="translate(-173.71 -114.52)"/><path class="cls-3" d="M309.11,230c.28,7.39.64,14.77.9,22.16.35,9.81.41,19.61.39,29.43a23.17,23.17,0,0,1,1.58-1.7c.26-.31,1.39-1.33,1.39-1.86,0-9.84-.11-19.67-.47-29.51-.27-7.32-.65-14.61-.69-21.93,0,.09-1.61,1.58-1.64,1.62C310.34,228.51,309.09,229.57,309.11,230Z" transform="translate(-173.71 -114.52)"/><path class="cls-3" d="M309.54,230.26c.29,7.39.65,14.78.91,22.17.35,9.81.41,19.61.39,29.43a22.35,22.35,0,0,1,1.73-1.85c.27-.32,1.54-1.46,1.54-2,0-9.85-.11-19.68-.47-29.52-.27-7.32-.64-14.62-.7-22,0,.12-1.75,1.74-1.79,1.78C310.91,228.57,309.52,229.76,309.54,230.26Z" transform="translate(-173.71 -114.52)"/><path class="cls-3" d="M309.06,229.51c.3,7.38.66,14.75.92,22.13.35,9.81.41,19.61.39,29.43l1.1-1.12c.21-.26.91-.88.91-1.28,0-9.84-.09-19.65-.45-29.49-.26-7.32-.65-14.63-.78-22,0,0-1.14,1.07-1.14,1.06C309.82,228.49,309,229.14,309.06,229.51Z" transform="translate(-173.71 -114.52)"/></g><g class="cls-2"><path class="cls-3" d="M306,269.38c.21,4.09.83,8.11,1,12.21,0,0,.42-.42.41-.58-.09-4.09-.66-8.07-.82-12.16C306.57,268.94,306,269.17,306,269.38Z" transform="translate(-173.71 -114.52)"/><path class="cls-3" d="M306.22,269.53c.2,4.09.81,8.11.93,12.2,0-.07.65-.68.65-1,0-4.05-.59-8-.74-12.07C307.07,268.9,306.21,269.23,306.22,269.53Z" transform="translate(-173.71 -114.52)"/><path class="cls-3" d="M305.92,269.25c.2,4.13.82,8.2,1,12.34,0,.08.3-.19.3-.27-.15-4.13-.74-8.2-.94-12.33C306.25,268.9,305.91,269.16,305.92,269.25Z" transform="translate(-173.71 -114.52)"/><path class="cls-3" d="M306.13,269.85c.2,4.11.82,8.15.95,12.27,0-.51,1.16-1.15,1.17-1.75,0-4-.5-7.95-.63-12C307.62,268.8,306.1,269.34,306.13,269.85Z" transform="translate(-173.71 -114.52)"/><path class="cls-3" d="M306.15,269.61c.2,4.11.81,8.14.93,12.25,0-.35.8-.83.8-1.27,0-4-.55-8-.69-12C307.21,268.85,306.13,269.24,306.15,269.61Z" transform="translate(-173.71 -114.52)"/><path class="cls-3" d="M306.11,269.43c.2,4.09.82,8.11.94,12.21,0,0,.52-.53.52-.75-.06-4.06-.63-8-.79-12.1C306.78,268.92,306.1,269.19,306.11,269.43Z" transform="translate(-173.71 -114.52)"/><path class="cls-3" d="M306.12,269.71c.19,4.11.81,8.14.93,12.26,0-.43.94-1,.95-1.49,0-4-.51-8-.65-12C307.36,268.82,306.09,269.27,306.12,269.71Z" transform="translate(-173.71 -114.52)"/><path class="cls-3" d="M306.28,269.79c.2,4.11.81,8.15.93,12.27,0-.46,1.06-1,1.06-1.6,0-4-.52-8-.65-12C307.64,268.83,306.26,269.32,306.28,269.79Z" transform="translate(-173.71 -114.52)"/><path class="cls-3" d="M306.1,269.5c.2,4.09.81,8.11.94,12.21,0-.07.64-.67.64-.94,0-4.06-.59-8-.74-12.07C306.94,268.87,306.08,269.2,306.1,269.5Z" transform="translate(-173.71 -114.52)"/></g><g class="cls-2"><path class="cls-3" d="M294.4,273.43l4.27,13.64s.34-.45.3-.58l-4.21-13.64S294.36,273.29,294.4,273.43Z" transform="translate(-173.71 -114.52)"/><path class="cls-3" d="M294.58,273.56l4.26,13.65c-.07-.23.58-.78.48-1.11l-4.19-13.6C295.2,272.71,294.49,273.26,294.58,273.56Z" transform="translate(-173.71 -114.52)"/><path class="cls-3" d="M294.32,273.36,298.6,287c0,.08.23-.23.21-.31l-4.28-13.68C294.51,273,294.3,273.28,294.32,273.36Z" transform="translate(-173.71 -114.52)"/><path class="cls-3" d="M294.47,273.89l4.27,13.66c-.14-.45,1.06-1.4.89-2L295.46,272C295.59,272.42,294.3,273.37,294.47,273.89Z" transform="translate(-173.71 -114.52)"/><path class="cls-3" d="M294.5,273.64l4.26,13.66c-.09-.3.72-1,.6-1.36l-4.17-13.6C295.27,272.6,294.39,273.26,294.5,273.64Z" transform="translate(-173.71 -114.52)"/><path class="cls-3" d="M294.49,273.48l4.25,13.62s.44-.6.38-.78l-4.21-13.64C294.95,272.81,294.41,273.24,294.49,273.48Z" transform="translate(-173.71 -114.52)"/><path class="cls-3" d="M294.46,273.73l4.26,13.66c-.11-.36.86-1.15.71-1.61l-4.16-13.6C295.37,272.52,294.32,273.3,294.46,273.73Z" transform="translate(-173.71 -114.52)"/><path class="cls-3" d="M294.61,273.83l4.27,13.66c-.13-.41,1-1.3.82-1.81l-4.17-13.61C295.64,272.46,294.45,273.34,294.61,273.83Z" transform="translate(-173.71 -114.52)"/><path class="cls-3" d="M294.46,273.54l4.26,13.65c-.07-.22.56-.76.47-1.07L295,272.52C295.05,272.71,294.37,273.24,294.46,273.54Z" transform="translate(-173.71 -114.52)"/></g><g class="cls-2"><path class="cls-3" d="M297.83,264.84a103.26,103.26,0,0,0,4.65,15.25,114.62,114.62,0,0,0,6.18,14.85c.06.14.94-1.22.8-1.54a116.58,116.58,0,0,1-6.11-14.83,95,95,0,0,1-4.52-15.17C298.8,263.28,297.73,264.5,297.83,264.84Z" transform="translate(-173.71 -114.52)"/><path class="cls-3" d="M298.29,265.31a108.81,108.81,0,0,0,4.67,15.2,114,114,0,0,0,6.16,14.83s.77-1.44.76-1.42c.11-.25.68-1.18.53-1.52a114.25,114.25,0,0,1-6-14.77,97.18,97.18,0,0,1-4.45-15s-.94,1.31-.93,1.29C298.87,264.12,298.19,265,298.29,265.31Z" transform="translate(-173.71 -114.52)"/><path class="cls-3" d="M297.55,264.75A111.65,111.65,0,0,0,302.28,280a114.09,114.09,0,0,0,6.2,14.85c.1.23.65-.63.57-.81a115.16,115.16,0,0,1-6.17-14.84,112,112,0,0,1-4.72-15.27C298.11,263.73,297.49,264.54,297.55,264.75Z" transform="translate(-173.71 -114.52)"/><path class="cls-3" d="M298,266.17a109.93,109.93,0,0,0,4.69,15.24,113.87,113.87,0,0,0,6.16,14.84c0-.09,1.29-2.52,1.3-2.55.14-.3,1.28-2.18,1.07-2.65a111.76,111.76,0,0,1-5.93-14.71,94.68,94.68,0,0,1-4.34-15c0,.12-1.55,2.32-1.58,2.37C299.18,264,297.85,265.67,298,266.17Z" transform="translate(-173.71 -114.52)"/><path class="cls-3" d="M298.09,265.5a107.48,107.48,0,0,0,4.66,15.22,113.78,113.78,0,0,0,6.16,14.83l.91-1.76c.12-.26.85-1.48.69-1.86a113.26,113.26,0,0,1-6-14.76,95.13,95.13,0,0,1-4.39-15s-1.12,1.61-1.12,1.61C298.85,264,298,265.1,298.09,265.5Z" transform="translate(-173.71 -114.52)"/><path class="cls-3" d="M298,265.07a108.09,108.09,0,0,0,4.67,15.21,114.06,114.06,0,0,0,6.17,14.84,7.93,7.93,0,0,0,.6-1.06c.1-.23.5-.87.37-1.16A144.92,144.92,0,0,1,299.29,263a8.78,8.78,0,0,0-.74,1C298.43,264.18,297.95,264.76,298,265.07Z" transform="translate(-173.71 -114.52)"/><path class="cls-3" d="M298,265.75A106.79,106.79,0,0,0,302.63,281a113.57,113.57,0,0,0,6.16,14.83s1.06-2.08,1.06-2.09c.13-.28,1-1.77.84-2.19a112.31,112.31,0,0,1-6-14.74,93.48,93.48,0,0,1-4.35-15c0,.06-1.3,1.9-1.31,1.92C298.91,264,297.85,265.31,298,265.75Z" transform="translate(-173.71 -114.52)"/><path class="cls-3" d="M298.38,266a108.84,108.84,0,0,0,4.67,15.24,113.87,113.87,0,0,0,6.16,14.84c0-.07,1.2-2.33,1.21-2.35.13-.29,1.17-2,1-2.45a111.66,111.66,0,0,1-6-14.71,94.93,94.93,0,0,1-4.36-15c0,.09-1.44,2.13-1.46,2.17C299.45,264,298.24,265.52,298.38,266Z" transform="translate(-173.71 -114.52)"/><path class="cls-3" d="M298,265.24a109.44,109.44,0,0,0,4.67,15.2,113.81,113.81,0,0,0,6.17,14.84s.75-1.39.74-1.37c.11-.24.65-1.14.51-1.47a114.7,114.7,0,0,1-6-14.79,98.08,98.08,0,0,1-4.46-15s-.92,1.27-.91,1.25C298.51,264.09,297.86,264.89,298,265.24Z" transform="translate(-173.71 -114.52)"/></g><g class="cls-2"><path class="cls-3" d="M303.63,284.66a6.81,6.81,0,0,1-2-3.84c-.12-.38-.19.92-.18.71a5.54,5.54,0,0,0,0,2.07l1.14,2.62a2.74,2.74,0,0,0,.18-1.11l-1.18-4.3-.13,2.78a7.88,7.88,0,0,0,2,3.8c.21.29.17-.78.17-.7C303.73,286.28,303.91,285,303.63,284.66Z" transform="translate(-173.71 -114.52)"/><path class="cls-3" d="M303.83,285.5l-1.9-3.75c-.13-.41-.19,1-.18.79a6.38,6.38,0,0,0,0,2.3l1.19,2.91c.09.22.16-.28.17-.3a3.75,3.75,0,0,0,0-1.32l-1.2-4.37-.14,3.09c1,2.68.41,1.55,2.08,3.85,0,0,.11-1.55.11-1.6C304,286.71,304.09,285.85,303.83,285.5Z" transform="translate(-173.71 -114.52)"/><path class="cls-3" d="M303.59,284a6.7,6.7,0,0,1-1.93-3.83l-.1,2.57,1,2.19c.16.36.28-.49.25-.62l-1.14-4.14c-.1-.37-.18.86-.17.66a5.74,5.74,0,0,0,.08,1.91,7.57,7.57,0,0,0,1.94,3.78c.2.28.17-.72.17-.64C303.69,285.47,303.85,284.35,303.59,284Z" transform="translate(-173.71 -114.52)"/><path class="cls-3" d="M303.5,286.82,301.57,283c-.14-.43-.2,1.1-.19.87a7.55,7.55,0,0,0,0,2.57l1.3,3.43c.14.37.18-.88.17-.68a6.82,6.82,0,0,0-.08-2l-1.2-4.2-.19,3.44c1.06,2.71.45,1.58,2.16,3.92,0-.07.11-1.73.11-1.8C303.64,288.21,303.78,287.2,303.5,286.82Z" transform="translate(-173.71 -114.52)"/><path class="cls-3" d="M303.58,285.86l-1.9-3.74c-.13-.41-.2,1-.18.81a6.64,6.64,0,0,0,0,2.37l1.21,3c.12.31.19-.66.17-.51a4.14,4.14,0,0,0-.07-1.48l-1.17-4.2-.15,3.17c1,2.69.41,1.56,2.09,3.87,0,0,.11-1.6.11-1.65C303.72,287.12,303.85,286.22,303.58,285.86Z" transform="translate(-173.71 -114.52)"/><path class="cls-3" d="M303.73,285.06a6.82,6.82,0,0,1-2-3.83c-.13-.4-.19,1-.18.75a6,6,0,0,0,0,2.19l1.16,2.76a4.44,4.44,0,0,0,.17-1.35l-1.19-4.34-.14,2.93a7.94,7.94,0,0,0,2,3.79c.21.3.17-.82.17-.74C303.82,286.76,304,285.46,303.73,285.06Z" transform="translate(-173.71 -114.52)"/><path class="cls-3" d="M303.45,286.24l-1.91-3.73c-.14-.42-.2,1.05-.18.82a6.87,6.87,0,0,0,0,2.42l1.23,3.12c.13.33.19-.72.17-.56a4.71,4.71,0,0,0-.07-1.63l-1.17-4.18-.15,3.24c1,2.69.42,1.56,2.09,3.88,0-.05.11-1.64.11-1.7C303.59,287.54,303.72,286.61,303.45,286.24Z" transform="translate(-173.71 -114.52)"/><path class="cls-3" d="M303.83,286.69l-1.93-3.77c-.14-.43-.2,1.1-.19.87a7.51,7.51,0,0,0,0,2.56l1.29,3.39c.14.36.18-.86.17-.67a6.63,6.63,0,0,0-.08-1.95l-1.2-4.21-.19,3.44c1.06,2.69.45,1.57,2.15,3.89,0-.06.11-1.72.11-1.78C304,288.07,304.11,287.07,303.83,286.69Z" transform="translate(-173.71 -114.52)"/><path class="cls-3" d="M303.52,285.35a6.68,6.68,0,0,1-1.9-3.75c-.13-.4-.19,1-.18.77a6.19,6.19,0,0,0,0,2.25l1.18,2.87a6,6,0,0,0,.16-1.53l-1.2-4.35-.14,3a8.22,8.22,0,0,0,2.08,3.88s.11-1.53.11-1.57C303.66,286.54,303.78,285.7,303.52,285.35Z" transform="translate(-173.71 -114.52)"/></g><path class="cls-4" d="M315,326.37s1.09-10.35.92-10.87a25.7,25.7,0,0,1,.45-3.82,33.43,33.43,0,0,1,0-4.17c.18-.35.36-2.78.45-3a20.93,20.93,0,0,0,0-3.31,27.28,27.28,0,0,1,.63-3.56l0-3.65s0-.34.1-.75.28-1.24.6-1.33c.56-.16,2.11-.43,2.89-.74A12.24,12.24,0,0,0,324,289a56.36,56.36,0,0,0,2.9-5.1,30.35,30.35,0,0,0,1.48-3.57,6.54,6.54,0,0,0,.45-2.88,3.91,3.91,0,0,0-.71-2.42,2.49,2.49,0,0,0-2.16-.51,5,5,0,0,0-2.1,1.66l-3.15,5.64s-.74,1.14-.84,1.34,0-1.57,0-1.57.07-2,0-2.23.19-2.73.15-3.06.17-3.6.14-3.85a10,10,0,0,1,.11-2.17,16.67,16.67,0,0,0,.2-2.92,11.46,11.46,0,0,1,0-3,25.48,25.48,0,0,0,.13-5.06,15.34,15.34,0,0,1,0-3.44,10.37,10.37,0,0,0-.49-4.83c-.69-1.68-1.51-2.72-2.05-2.8a3.17,3.17,0,0,0-2.92.94,12.72,12.72,0,0,0-2,6.93c-.06,3.48-.21,4.51-.5,5s.07,5.88-.08,6.35.12,4.52.07,5-.12,4.7-.17,5.46-.68,5.31-.64,5.64a18.72,18.72,0,0,1-.11,4,16.59,16.59,0,0,0,.07,4.56,5.86,5.86,0,0,0,1.78,2.41c.66.38,1.69.67,2.21.29a12.67,12.67,0,0,1,1.63-.87" transform="translate(-173.71 -114.52)"/><path class="cls-4" d="M315.52,248.76A5.62,5.62,0,0,1,315,247a14.24,14.24,0,0,0,.11-2.95c-.11-.28-.12-3.18-.19-3.78s.28-5.87.21-6-.27-3.67-.35-4.19-.25-2.19-.29-2.45a17,17,0,0,0-.95-2.89c-.35-.61-1.13-1.49-2.05-1.28s-1.89,1.57-2.2,2.09a6.23,6.23,0,0,0-1,3.19,26.6,26.6,0,0,1-.32,3.59c-.09.7-.25,5.95-.25,6.47s.51,3.15.24,3.9.19,4.86.28,5.25a7.52,7.52,0,0,1-.27,1.92,17.7,17.7,0,0,0,0,3.06c0,.66,0,3.59.16,3.9s-.16,6,0,8.1a6.8,6.8,0,0,1-.32,3.28s-.25,14.92.1,15.58-.23,2.14-.23,2.14" transform="translate(-173.71 -114.52)"/><path class="cls-4" d="M309.48,289.19s-2.89-6.62-3-7.22-1.4-5.33-1.4-5.33a29.07,29.07,0,0,0-.65-5.78c-.59-2-.95-6.16-1.32-6.83s-1.64-2.71-2.84-2.64-2.25.21-2.56,1a8.48,8.48,0,0,0-.93,5.1c.29,3,2.55,15.84,3,16.45s1.7,4.44,2.45,5.56,3.66,3.92,4.33,4,2.25-.36,2.56-1.19A3.69,3.69,0,0,0,309.48,289.19Z" transform="translate(-173.71 -114.52)"/><path class="cls-4" d="M305.45,278.08a5.85,5.85,0,0,1,.29-1,11.27,11.27,0,0,0,0-2.82,17.31,17.31,0,0,1-.08-2.2,33.05,33.05,0,0,1,.93-3.82c.24-.76,1.63-1.09,1.63-1.09a8.77,8.77,0,0,0-.79,3.15c.06,1.3,0,4.15,0,4.83s-.14,2.1-.21,2.82,0,5.51,0,5.51" transform="translate(-173.71 -114.52)"/><path class="cls-4" d="M296.89,267.94a1.61,1.61,0,0,0-1.77.18c-.77.71-1.63,1.71-1.54,2.72s.35,6.27,1.11,7.95,1.88,5.89,4,8.63,2.28,3.55,3.95,4.23a11.46,11.46,0,0,0,2.44.78" transform="translate(-173.71 -114.52)"/><path class="cls-5" d="M312.42,293.24s1.28-3.7,1.92-5,1.76-8.49,1.76-9.49.93-23.6.93-24a20.67,20.67,0,0,1,0-3.35,20.67,20.67,0,0,0,.12-3.24s-1.52,4.43-1.31,5.29-.29,16.46-.29,16.46-.5,10.6-.8,11.9-2.49,7.91-2.49,8.42a11.4,11.4,0,0,1-.36,1.81" transform="translate(-173.71 -114.52)"/><path class="cls-5" d="M317.67,248.14a30.79,30.79,0,0,1,.4,3.15c0,.59,0,8.23,0,8.32s-.59,5.82-.54,6.12-.09,7.19,0,7.49a17.6,17.6,0,0,1-.22,2.44c-.06.36-.33,5.82-.48,6.21s-.63,6.3-1.08,7.13-2,5.07-2,5.16" transform="translate(-173.71 -114.52)"/><path class="cls-4" d="M316.74,248.34a16.06,16.06,0,0,0-1.12,3.28,22.17,22.17,0,0,1-.31,2.49s0,6.64-.1,7-.6,5.7-.51,6.27-.25,8.15-.16,8.5a19.38,19.38,0,0,1-.28,2.6c0,.09-.44,4.47-.59,4.89a12.66,12.66,0,0,0-.43,2,3.7,3.7,0,0,0,.2.81" transform="translate(-173.71 -114.52)"/><path class="cls-4" d="M316.32,248.46a17.94,17.94,0,0,0-1.63,3.72c-.06.9-.21,6.21-.21,6.21s0,3.73,0,3.91-.41,4.89-.35,5.31-.08,4.54-.11,4.77.11,2.6,0,3-.38,3.73-.41,3.91-.92,4.86-1,5.25a7.29,7.29,0,0,0,.2,2.24,2.06,2.06,0,0,1,.15.84" transform="translate(-173.71 -114.52)"/><path class="cls-5" d="M318,248.22a25,25,0,0,1,.78,4.31c-.08,1-.1,5.52-.1,5.52s-.11,4.35-.11,4.4,0,5.54-.12,5.72-.12,5.24-.07,5.45-.21,4.41-.21,4.6-.31,3.8-.31,3.8-.46,6.29-.65,6.78-.91,3.76-1.4,4.16-1.75,1.59-1.75,1.59" transform="translate(-173.71 -114.52)"/><path class="cls-5" d="M318.46,248.37s1.25,4.2,1.12,4.78-.21,7.06-.21,7.11-.21,8-.23,8.16-.08,3.71,0,4,.08,3.67,0,4.1,0,2.94-.16,3.13a28.92,28.92,0,0,0-.19,3.21s-.26,3.82-.36,4.42-.77,4.62-1.33,5.26-1.2,1.23-1.2,1.23" transform="translate(-173.71 -114.52)"/><path class="cls-5" d="M318.49,291.42s.52-2.81.62-4.27.42-5.74.39-6.27.31-7.5.22-7.8a6.87,6.87,0,0,1-.11-1.88c.09-.21.06-5.86.15-6.31s.23-4.81.24-5.29-.1-4.63,0-4.81a9.87,9.87,0,0,0,.1-2.36,29.92,29.92,0,0,0-1.21-3.71" transform="translate(-173.71 -114.52)"/><path class="cls-5" d="M315.26,249.2s-1.74,6.42-1.59,7.35a63.13,63.13,0,0,1-.12,6.48c-.06.12-.38,4.54-.38,5.14s.36,6.19.24,6.82-1.14,7.88-1.06,8.39a55.69,55.69,0,0,1-.3,6.42c-.15.3-.27.6-.27.6" transform="translate(-173.71 -114.52)"/><path class="cls-5" d="M319.77,287.47a5.55,5.55,0,0,0,1.34-1c.24-.38,3-4.56,3.36-5.18s2.37-6.66,2.37-6.66.17,4.53-1.7,7.33-3.56,5.8-4.27,6l-.72.19" transform="translate(-173.71 -114.52)"/><path class="cls-5" d="M319.67,289.28s1.15-.61,1.72-.85a16.48,16.48,0,0,0,2.44-2.42s2-3.37,2.5-4.33a16.78,16.78,0,0,0,1.16-3.52,10.33,10.33,0,0,0,.06-3.19c-.14-.24-.71-.34-.71-.34" transform="translate(-173.71 -114.52)"/><path class="cls-5" d="M327.48,274.66a4,4,0,0,1,.6,3.06,21.09,21.09,0,0,1-1.76,5.44c-.45.59-2.23,4.26-3.37,5.13a17.66,17.66,0,0,1-2.95,1.89" transform="translate(-173.71 -114.52)"/><path class="cls-5" d="M319.92,291a13.63,13.63,0,0,0,2.48-1.24,14.52,14.52,0,0,0,1.85-2c.07-.28,2.9-5.11,3.14-5.62a17.38,17.38,0,0,0,1-3.63c.14-1.14-.09-3.51-.49-3.75" transform="translate(-173.71 -114.52)"/><path class="cls-5" d="M326.68,274.47l-2.48,4.85c-.15.31-.93,2-1,2.14s-1.19,2-1.35,2.27-1.37,1.86-1.61,2.14" transform="translate(-173.71 -114.52)"/><path class="cls-5" d="M326.33,274.45a9,9,0,0,0-1.57,2.07A26.88,26.88,0,0,1,323.5,279c-.26.42-1.1,1.88-1.33,2.32s-.84,1.38-.91,1.55a9.55,9.55,0,0,1-1.06,1.9" transform="translate(-173.71 -114.52)"/><path class="cls-5" d="M325.47,274.68a36.47,36.47,0,0,0-1.92,3.12c-.51,1-1.72,3.19-1.75,3.26s-1,1.79-1.08,1.92-.53.65-.57.81" transform="translate(-173.71 -114.52)"/><path class="cls-5" d="M311.84,223.41a26.7,26.7,0,0,1,.61,3.85c-.06.78.31,3.79.28,4.15a40.19,40.19,0,0,1,.13,4.24,18.28,18.28,0,0,0-.08,3.09s.17,2.76.17,3,0,3.57,0,3.84,0,2.85,0,3.48.35,2.25.26,2.55a9.91,9.91,0,0,0,.29,2" transform="translate(-173.71 -114.52)"/><path class="cls-5" d="M314.53,250.57s-.37-4.18-.37-4.48,0-2,0-2.37-.05-1.53-.14-2.85.08-3.51.08-3.63.13-2,.13-2.25-.13-3.42-.22-3.88a19.93,19.93,0,0,1-.08-2.16c0-.15-.47-2.16-.5-2.59a11.38,11.38,0,0,0-.38-1.71c-.06-.15-.66-1.11-.93-1.18,0,0,.5,1.92.77,2.92a12.75,12.75,0,0,1,.38,2.86c0,.6.14,2.43.17,2.7s-.08,4.11,0,4.6a12.59,12.59,0,0,1-.07,2.4c0,.36.22,3.27.13,3.69a15.76,15.76,0,0,0,0,2.67c.06.36.28,4,.28,4l.11,2.58" transform="translate(-173.71 -114.52)"/><path class="cls-5" d="M312.56,223.8a7,7,0,0,1,1.25,2.77,24.67,24.67,0,0,1,.61,3.7c-.06.39.4,3.37.31,3.73s-.27,6.1-.24,6.43,0,2.07,0,2.28.05,1.89.08,2.28.05,1.53.05,1.71.08,1.35.11,1.59.17,1.26.17,1.26" transform="translate(-173.71 -114.52)"/><path class="cls-5" d="M311.53,223.45s.24,3.56.33,4.16a17.43,17.43,0,0,1,.12,2.47c0,.9-.16,4.54-.06,5.24s0,3,0,3.17.27,5.24.27,5.77.14,4.51.21,5.24.15,3.1.18,4.14,0,4.74.21,5.37a5.3,5.3,0,0,1,.13,1.37" transform="translate(-173.71 -114.52)"/><path class="cls-5" d="M311.29,223.54a14.63,14.63,0,0,0-.05,2.82,37.94,37.94,0,0,1,0,4.31s0,2,0,2.78-.24,5.42-.12,5.79a32.16,32.16,0,0,1,.33,3.42,14.18,14.18,0,0,1-.14,2.49c0,.13.24,3.39.24,3.39s0,4.49,0,5.08.26,6.53.26,6.53.36,8.68.34,9.41-.16,7.06-.13,7.33,0,4.34.09,4.58" transform="translate(-173.71 -114.52)"/><path class="cls-5" d="M311,223.7a10.3,10.3,0,0,0-.27,1.85c0,.74.06,2,0,2.2a20.24,20.24,0,0,0-.16,2.26c0,.44.16,2,.12,2.9s-.29,1.31-.23,1.72.08,7.16.26,8.43.12,4.34.16,5.14-.36,5.79-.07,6.92-.23,2.15-.09,2.62.38,3.79.42,3.9-.1,4.85,0,5.07.08,7,.07,7.29a55.15,55.15,0,0,0,0,6c.22.47-.27,2.62-.16,2.88s0,2.15.13,2.41a11.35,11.35,0,0,1,.06,2.55c0,.55-.49,3.1-.49,3.24s-.12,6.22,0,6.69a33.76,33.76,0,0,1-.2,3.74,5.26,5.26,0,0,0,0,2.12c.28.68-.21,6.9-.25,7.34s-.49,4.89-.53,5.46-.18,5.89.11,6.79a11,11,0,0,1,.23,2.4" transform="translate(-173.71 -114.52)"/><path class="cls-5" d="M310.36,224.22s-.07,1.47-.12,2.18-.1,3.26-.17,3.94-.22,4-.15,4.55.15,8.89.26,10-.2,4.25-.11,4.73a17.32,17.32,0,0,1,.05,2.79,21.9,21.9,0,0,0,.15,3.63c.17,1.33-.05,3.77,0,5s.26,3.56.26,4.08a13.32,13.32,0,0,0-.29,2.89c.13,1.22.15,4,.15,4a22,22,0,0,0-.12,3.59c.17.63.09,2.72.19,3.52a13.49,13.49,0,0,1-.15,2.79c-.11,1.15-.39,1.92-.12,2.51s.06,2.62.16,3.1,0,2.13,0,2.34-.5,2.93-.47,3.69-.09,3.42-.09,3.42-.05,3.1,0,3.77a5.64,5.64,0,0,1-.22,1.92,10.57,10.57,0,0,0-.33,3.56,26.36,26.36,0,0,1,.05,4s-.45,4.49-.62,5a60.28,60.28,0,0,0-.61,7.33c.08,1.15,0,2.88,0,2.88" transform="translate(-173.71 -114.52)"/><path class="cls-5" d="M309.95,224.71s-.94,4.62-.92,5.58,0,2.61,0,2.87,0,3.58,0,4.23a12.6,12.6,0,0,0,.2,2.25,8.68,8.68,0,0,1,.17,2.17,18.43,18.43,0,0,0,.09,3.45c.23,1.38-.09,3.32.08,4.28a14.07,14.07,0,0,1-.12,3.76,13.58,13.58,0,0,0,0,3c.05.44.52,6.74.51,7s-.11.7-.19,1.38-.15,3.24-.1,4.07-.19,2-.12,2.77a12.6,12.6,0,0,1,.17,1.67,9.17,9.17,0,0,0-.25,2.77c.12,1.2.51,2.38.48,2.77s0,1.83,0,2.09a16.9,16.9,0,0,0-.41,3c0,.86.2,2.43.19,3a17,17,0,0,1-.27,2" transform="translate(-173.71 -114.52)"/><path class="cls-5" d="M308.8,287.5a10.37,10.37,0,0,0,.3-2.82,12.86,12.86,0,0,1,.07-3.47c.16-.83-.44-5.56-.47-6.27s.18-4.93.18-5.59.29-5.69.21-6.55-.08-5.09-.18-5.64-.27-3.66-.32-4.15.27-2.43.25-2.84,0-1.88,0-2.35a46.26,46.26,0,0,1-.32-4.73,6,6,0,0,0,.17-2c-.08-.65-.38-2.64-.4-2.9s.38-8.51.46-9.27a18,18,0,0,1,.88-4" transform="translate(-173.71 -114.52)"/><path class="cls-5" d="M307.86,267.18a2,2,0,0,0-.56.94,16.62,16.62,0,0,0-.37,3.69,28.83,28.83,0,0,1-.11,3.59,7.14,7.14,0,0,1-.21,2.46c-.39.78-.17,3.95-.09,4.11" transform="translate(-173.71 -114.52)"/><path class="cls-5" d="M307.41,267.44a8,8,0,0,0-1,2.68,15,15,0,0,0-.25,3.76,13.75,13.75,0,0,1,0,2.56c0,.19-.17,1.33-.2,1.49s-.1,1.29-.1,1.29" transform="translate(-173.71 -114.52)"/><path class="cls-5" d="M308.21,293.13s-.09,1-.22,1.78a23.82,23.82,0,0,0,.24,3.43,21.67,21.67,0,0,1-.1,3.77,3.72,3.72,0,0,0,.2,1.65" transform="translate(-173.71 -114.52)"/><path class="cls-5" d="M307.37,293.5s0,2.92.11,3.52.12,2.2.12,2.2a9,9,0,0,1,.16,2.8,19.49,19.49,0,0,0,.11,3.85s-.23,2.75-.32,3.81a37.89,37.89,0,0,0,.23,4.24c0,.55,0,9.57,0,10" transform="translate(-173.71 -114.52)"/><path class="cls-5" d="M311.68,290.83s-.63,3-.21,4.11.08,2.32.27,3.73.2,6.52.29,7.33a5.18,5.18,0,0,1-.2,2.46c-.29.57-.36,6-.36,6.76s-.44,3.73-.45,4-.31,5.58-.17,6.14" transform="translate(-173.71 -114.52)"/><path class="cls-5" d="M313,295.28s.79,3.69.4,4.49a10.84,10.84,0,0,0-.49,3.35c0,.66.35,5.72.3,6.67s-.44,3.54-.44,3.54,0,6.38,0,6.62a25.81,25.81,0,0,0-.49,2.83,16.44,16.44,0,0,1-.25,2.13" transform="translate(-173.71 -114.52)"/><path class="cls-5" d="M313.73,325.05s.21-5,.36-5.91-.08-3.45,0-3.73.66-8.88.57-9.5a18.41,18.41,0,0,1-.22-4.16c.19-1.13,0-2.22.16-2.93a14.16,14.16,0,0,0,.48-2.08" transform="translate(-173.71 -114.52)"/><path class="cls-5" d="M315.9,297.46c-.09-.14-.11,3-.3,3.59a28.88,28.88,0,0,0-.39,3.16,9.78,9.78,0,0,1,.32,2.32,24.82,24.82,0,0,0,0,2.74c0,.28-.3,4.2-.4,4.91a31.62,31.62,0,0,0-.3,4.25c.09.76-.13,6.43-.13,6.24" transform="translate(-173.71 -114.52)"/><path class="cls-5" d="M316.51,297.8a12.83,12.83,0,0,1-.11,2.6,6.63,6.63,0,0,0-.29,2.31,17.49,17.49,0,0,1,.13,2.6,13.1,13.1,0,0,1-.58,2.83" transform="translate(-173.71 -114.52)"/><path class="cls-5" d="M303,276.69l-.65-1.43s-1.21-8.82-1.62-10.25-1.05-3.58-1.05-3.58,0,1.61.56,6.55,2.73,13.88,2.9,14.6,1.76,5.54,1.88,5.84a30.23,30.23,0,0,0,3,3.76,1.32,1.32,0,0,0,1,.34,7.21,7.21,0,0,1,.2,2.8,16.32,16.32,0,0,0,0,3.81,23.75,23.75,0,0,1-.61,3.47,9.5,9.5,0,0,0-.22,1.14c0,.25-.08,7.88,0,8.39s0,3,.35,3" transform="translate(-173.71 -114.52)"/><path class="cls-5" d="M307.28,289.71s.52-1,.26-1.29-2.68-6.22-2.68-6.47-1-10.67-1.3-11.57-1.2-4.92-1.2-5.18-1.08-3.6-2-3.81c0,0,1.18,3.21,1.42,4.22s.9,6,.9,6.23.67,2.94.66,3.47,0,1.47,0,2.15a21.31,21.31,0,0,0,.52,3.58c.11,0,1.13,4.08,2,5.83l1.79,3.5,1.61,1.49" transform="translate(-173.71 -114.52)"/><path class="cls-5" d="M299.71,261.44a15.2,15.2,0,0,0-.52,4,117.83,117.83,0,0,0,1.49,12,29.89,29.89,0,0,1,1.08,4.08c.25,1.29,1.08,3.56,1.14,4.08a36.71,36.71,0,0,0,2.17,4.92,7.62,7.62,0,0,0,2.7,2.47" transform="translate(-173.71 -114.52)"/><path class="cls-4" d="M299.28,261.5a4.82,4.82,0,0,0-.72,2.52c0,1.49,0,4.85.1,5.23s.62,4.53.69,4.91.88,5.63,1.07,6.47,1.46,6.08,2.61,8,2.83,4.82,3.59,4.86a5.54,5.54,0,0,1,.26,2.26c-.14,1.18.83,4.67.57,5.25a6.18,6.18,0,0,0-.34,3.15c.26.85-.12,5.37,0,6.51s-.12,6.76.05,7.55-.15,3.64.07,4.3a8.42,8.42,0,0,1,.07,3.12,7.73,7.73,0,0,1-.49.79" transform="translate(-173.71 -114.52)"/><path class="cls-5" d="M298.89,261.52a9,9,0,0,0-.89,2.07c-.72,1.94-.07,7.16,0,7.36s.57,2.14.7,2.69-.14,2.37.21,2.92a18.78,18.78,0,0,1,1,4.15c.18,1.2.8,5.51,1.61,6.9s1.82,3,1.82,3" transform="translate(-173.71 -114.52)"/><path class="cls-5" d="M296.1,267.81s.68,1.65.85,2.21.42,1.63.42,1.63" transform="translate(-173.71 -114.52)"/><path class="cls-5" d="M296.48,267.83a4.84,4.84,0,0,1,.48.92" transform="translate(-173.71 -114.52)"/><path class="cls-5" d="M295.8,267.78s.82,3.48.94,4.47a28.22,28.22,0,0,1,.49,4.54c-.16.71.62,2.79,1,3.66s.73.74.73.74" transform="translate(-173.71 -114.52)"/><path class="cls-5" d="M295.54,267.83s.51,4.72.61,5.28a22.68,22.68,0,0,0,.72,3.55,4.36,4.36,0,0,1,.38.92" transform="translate(-173.71 -114.52)"/><path class="cls-5" d="M295.21,268a24.53,24.53,0,0,0,.23,4.21,11.29,11.29,0,0,1,.32,2.56c0,.28-.26.68-.08,1s1,2.54,1.05,2.82.65,2.62,1.15,2.85,1.28,2.47,1.64,2.57l.35.1" transform="translate(-173.71 -114.52)"/><path class="cls-5" d="M294.68,268.51a25.37,25.37,0,0,0-.06,2.71,14,14,0,0,0,.47,2.89,4.31,4.31,0,0,0,.6,1.09" transform="translate(-173.71 -114.52)"/><path class="cls-5" d="M294.17,269.09a27.66,27.66,0,0,0,.13,3.53c.17.71.77,3.61,1,4.19s.95,2.92,1.3,3.53a12.67,12.67,0,0,1,1,1.63,4.76,4.76,0,0,0,.9,1.83,19.66,19.66,0,0,1,1.69,2.32" transform="translate(-173.71 -114.52)"/><path class="cls-5" d="M293.85,269.78s.18,4.91.73,6.4,1.4,4.26,1.74,4.92a12.49,12.49,0,0,1,1,2.29c.14.59,1.51,1.7,1.75,2.19a18.64,18.64,0,0,0,1.55,2" transform="translate(-173.71 -114.52)"/><path class="cls-5" d="M300.67,288.92s-2.78-4-3.12-4.4-2.39-5.64-2.6-6-.85-2-.85-2" transform="translate(-173.71 -114.52)"/></svg>