<?xml version="1.0" encoding="utf-8"?>
<!-- Generator: Adobe Illustrator 20.1.0, SVG Export Plug-In . SVG Version: 6.00 Build 0)  -->
<svg version="1.1" id="Layer_1" xmlns="http://www.w3.org/2000/svg" xmlns:xlink="http://www.w3.org/1999/xlink" x="0px" y="0px"
	 viewBox="0 0 841.9 595.3" style="enable-background:new 0 0 841.9 595.3;" xml:space="preserve">
<style type="text/css">
	.st0{opacity:0.65;}
	.st1{opacity:0.1428;fill:#94C93D;}
	.st2{fill:none;stroke:#000000;stroke-width:0.5;stroke-miterlimit:10;}
	.st3{fill:none;stroke:#000000;stroke-width:0.5;stroke-linecap:round;stroke-linejoin:round;stroke-miterlimit:10;}
</style>
<g>
	<g class="st0">
		<g>
			<g>
				<path class="st1" d="M457.8,338.4c-1.6,4.2-2.8,8.5-3.6,12.9c0.3-0.6,0.5-1.1,0.8-1.7c-1,2.1-1.9,4.1-2.9,6.2
					c0.3-0.5,0.6-1.1,0.8-1.6c-2.1,2.6-4.1,5.3-6.2,7.9c2.3-2,4.5-4,6.8-6c-3.6,3.1-7.2,6.1-10.7,9.2c2.4-1.8,4.9-3.7,7.3-5.5
					c-3.9,2.7-7.8,5.4-11.7,8.1c4.2-2.6,8.3-5.1,12.5-7.7c-4.7,2.6-9.3,5.2-14,7.8c3.3-1.6,6.6-3.2,9.9-4.8
					c-4.9,2.2-9.9,4.3-14.8,6.5c3.5-1.3,6.9-2.7,10.4-4c-5.2,1.7-10.4,3.4-15.5,5.1c-1.7,0.3-3.2,0.9-4.6,1.8
					c-0.6,0.1-0.9,0.4-1.1,0.9c-0.3,0.3-0.3,0.6,0.2,0.6c0.9,1.1,5.1-0.5,6.2-0.7c1.8-0.5,3.6-1,5.4-1.5c4.5-0.9,8.5-2.8,12.1-5.7
					c4.4-2.7,8.5-5.2,12.5-8.4c2.4-1.9,4.1-4.4,5.7-7c1.8-3.1,3.2-6.5,4.2-9.9c0.7-2.3,1.2-4.6,1.5-7c0.5-4.5,2.2-8.6,4.8-12.5
					c0.2-1-0.1-1.2-1-0.9c-1.7,1.1-3.2,2.5-4.4,4.1c-2.5,2.9-5,5.8-7.4,8.8C459.7,334.9,458.6,336.5,457.8,338.4z"/>
				<path class="st1" d="M461.6,346.7c-0.1,1.9-0.1,3.8-0.2,5.7c0-0.4,0.1-0.8,0.1-1.2c-0.4,3.3-1.5,6.3-3.2,9.2
					c0.5-0.8,1.1-1.7,1.6-2.5c-1.5,2.3-3,4.5-4.4,6.8c0.6-0.8,1.1-1.6,1.7-2.4c-2.4,2.5-4.7,4.9-7.1,7.4c3.8-3,7.5-5.9,11.3-8.9
					c-5.2,3.9-10.4,7.9-15.6,11.8c6.3-4.1,12.6-8.3,18.9-12.4c-7.9,4.9-15.8,9.9-23.6,14.8c6.6-3.6,13.1-7.2,19.7-10.8
					c-8.3,4.2-16.5,8.4-24.8,12.6c6.8-3,13.6-6,20.4-9c-8.6,3.4-17.1,6.8-25.7,10.3c-0.8,0.4-1.7,0.9-2.5,1.3
					c-0.2,0.3-0.4,0.6-0.7,0.9c0.4,0.1,0.7,0.2,1.1,0.3c1.9-0.2,3.7-0.6,5.5-1.2c4.9-1.4,9.7-3,14.5-4.6c2.2-0.7,4.4-1.5,6.6-2.3
					c1.8-0.6,3.6-1.3,5.2-2.3c1.6-1.3,3.1-2.6,4.7-3.8c2.3-2,4.3-4.2,6.1-6.7c3.1-4,5.8-8.3,7.7-13c3.6-8.9,5.2-18.3,6.8-27.7
					c0-0.4,0.1-0.8,0.1-1.2c-0.4,0.1-0.8,0.2-1.2,0.3c-0.8,0.7-1.5,1.3-2.3,2c-2.4,2.6-4.7,5.2-7,7.9c-3.5,4.1-7,8.3-10.3,12.6
					C463.8,342.2,461.6,344.4,461.6,346.7z"/>
				<path class="st1" d="M456.2,333.3c-2.7,5.5-4.7,11.2-6.1,17.1c0.1-0.4,0.2-0.7,0.3-1.1c-1.6,4.3-4.3,7.9-8.2,10.7
					c2.3-1.9,4.5-3.8,6.8-5.7c-3,2.3-6,4.5-9,6.8c1.9-1.3,3.7-2.5,5.6-3.8c-3.3,2-6.6,4-9.9,6.1c2-1.2,4-2.3,6.1-3.5
					c-4,1.7-8,3.3-11.9,5c2-0.6,4.1-1.3,6.1-1.9c-3.7,0.9-7.3,1.9-11,2.8c-1.7,0.4-3.4,0.9-5,1.5c-0.9,0.2-1.7,0.6-2.4,1.3
					c-0.8,1.2,0.8,1.5,1.7,1.4c3.6-0.1,7.2-0.7,10.7-1.6c3.3-1.1,6.5-2.4,9.6-3.9c3.1-1.6,6-3.5,8.6-5.7c2.8-2.3,5.2-4.7,7.2-7.8
					c1.4-1.8,2.4-3.8,3.1-5.9c0.6-2.5,1-4.9,1.5-7.4c-0.1,0.3-0.2,0.7-0.3,1c2.2-4.7,4.5-9.4,6.7-14.1c0.5-0.7,0.6-1.4,0.2-2.1
					c-0.8-0.3-1.4-0.1-2,0.6c-1.6,1.5-3.1,3.1-4.5,4.8C458.7,329.8,457.4,331.5,456.2,333.3z"/>
				<path class="st1" d="M457.8,357.3c1.4,3.3,1.2,6.6-0.5,9.7c0.2-0.6,0.4-1.2,0.6-1.7c-1.2,3.2-2.9,6.1-5,8.8
					c1.1-1.3,2.1-2.6,3.2-4c-2.2,2.5-4.3,5.1-6.5,7.6c3.6-3.6,7.2-7.3,10.8-10.9c-3.7,3.5-7.4,7.1-11.1,10.6
					c10.1-8.3,20.2-16.7,30.4-25c-14.2,11.1-28.4,22.2-42.7,33.3c-0.3,0.5-0.7,0.9-1,1.4c0.6-0.1,1.1-0.2,1.7-0.2
					c1.5-0.7,2.9-1.4,4.4-2c5-2.7,9.9-5.6,14.7-8.5c7.5-4.4,15-8.9,22.4-13.6c2.1-1.2,4.2-2.6,6.1-4.1c1.3-0.7,2.3-1.6,3-2.8
					c-1.2,2.1-2.4,4.1-3.5,6.2c2-3,3.6-6.1,5-9.4c2.4-5.3,4.3-10.8,5.7-16.5c1-4.3,1.8-8.7,2.6-13c0.6-2.9,1.1-5.7,1.7-8.6
					c0.7-2.3,0.7-4.7,0-7.1c-2.1,1-3.9,2.5-5.3,4.5c-5.7,6.4-11.3,12.9-16.7,19.5c-5.5,6.5-11,13.2-16.3,19.9
					C459.5,353.1,458.4,355.1,457.8,357.3z"/>
				<path class="st1" d="M459,349.4c0.1,1.8,0.1,3.5,0.2,5.3c0.1-0.5,0.2-0.9,0.2-1.4c-0.3,2.5-1.1,4.9-2.3,7.1
					c-1,2.4-2.3,4.6-4,6.6c0.7-1,1.4-1.9,2.2-2.9c-1.9,2.2-3.7,4.4-5.6,6.7c2.6-2.6,5.1-5.2,7.7-7.9c-3,2.9-6.1,5.7-9.1,8.6
					c4.6-3.7,9.2-7.5,13.8-11.2c-6,4.7-12,9.5-18.1,14.2c9.8-6.5,19.6-13.1,29.4-19.6c-13,8-26,16-39,24c8.3-3.9,16.7-7.8,25-11.6
					c-10.1,4.3-20.2,8.7-30.2,13c-1,0.5-2,1.1-3.1,1.6c-0.3,0.3-0.6,0.7-0.8,1c0.4,0.1,0.9,0.2,1.3,0.3c2.3-0.4,4.6-1,6.8-1.8
					c5.9-1.9,11.8-4,17.7-6.1c2.7-0.9,5.4-2,8.1-3c2.2-0.7,4.3-1.7,6.4-2.9c3.1-2.9,5.9-6,8.4-9.5c2.5-3.4,4.6-7.1,6.3-10.9
					c1-2.4,2-4.7,2.7-7.1c1.2-3.6,2-7,2.8-10.6c0.8-3.5,1.5-6.9,2.1-10.4c0.4-2.1,0.6-4.3,0.6-6.5c-1.7,0.4-3,1.4-4,3
					c-4.1,4.5-8,9.1-11.9,13.7c-3.9,4.6-7.7,9.3-11.4,14.1C459.9,346.2,459.1,347.7,459,349.4z"/>
				<path class="st1" d="M460.1,340.6c-1.1,3.3-2,6.7-2.6,10.2c-0.3,2.4-1.2,4.7-2.6,6.8c0.4-0.7,0.8-1.3,1.2-2
					c-1.3,2.1-2.7,4.2-4,6.3c0.4-0.6,0.9-1.3,1.3-1.9c-2.4,2.4-4.8,4.8-7.2,7.1c4.9-3.6,9.7-7.3,14.6-10.9
					c-7.9,5.3-15.8,10.6-23.7,15.9c5.4-2.8,10.8-5.7,16.2-8.5c-7.1,3.4-14.2,6.7-21.3,10.1c5.6-2.4,11.3-4.8,16.9-7.1
					c-8.7,1.9-16.8,5-24.3,9.3c-0.8,0.7-0.7,1.2,0.4,1.3c2.4-0.1,4.7-0.6,7-1.4c4.4-1.3,8.7-2.6,13-4c10.5-3.1,18.5-10.1,24.1-21
					c1.8-2,3-4.4,3.6-7.1c1.2-3.5,2.2-7.1,3-10.7c0.5-4.7,1.9-9.1,4.1-13.3c0.3-1.1,0-1.4-1-0.9c-2,1.5-3.8,3.2-5.2,5.2
					c-3.1,3.5-6.1,7.1-9.1,10.8C462.5,336.3,461.1,338.3,460.1,340.6z"/>
				<path class="st1" d="M457.8,352.3c0,1.8,0.1,3.6,0.1,5.4c0.1-0.5,0.3-1,0.4-1.5c-0.4,2.6-1.2,5-2.4,7.2c-1,2.4-2.3,4.6-3.9,6.6
					c0.9-1.1,1.7-2.2,2.6-3.4c-2,2.4-4,4.7-6,7.1c3-3.1,6-6.2,9-9.2c-3.3,3.2-6.7,6.3-10,9.5c10.9-8.7,21.8-17.4,32.7-26.1
					c-16.6,11.9-33.1,23.8-49.7,35.8c10.8-5.4,21.6-10.8,32.4-16.2c-11.4,5.2-22.7,10.3-34.1,15.5c-1.2,0.6-2.4,1.2-3.6,1.8
					c-1.3,0.9-1.4,1.3-0.3,1.2c0.9,0.2,1.8,0.1,2.7-0.4c3.3-0.8,6.6-1.8,9.7-3.2c7.4-2.7,14.7-5.4,22-8.3c3.3-1.1,6.4-2.4,9.4-4
					c1.2-0.4,2.1-1,2.8-2c3-3.6,5.5-6.5,7.9-10.7c2.7-4.8,4.9-9.8,6.6-15c1.6-5.1,2.7-10.3,3.8-15.5c0.4-1.9,0.8-3.8,1.2-5.8
					c0.9-3.2,1.3-6.5,1.1-9.8c-1.9,0.7-3.4,1.9-4.5,3.6c-4.7,5.3-9.4,10.6-13.9,16.1c-4.6,5.4-9.1,10.9-13.4,16.5
					C459.1,348.7,458.2,350.4,457.8,352.3z"/>
				<path class="st1" d="M462.6,355.2c1,3.4,0.8,6.7-0.8,10c0.2-0.5,0.3-1.1,0.5-1.6c-1.2,3.2-2.8,6.1-4.9,8.8
					c0.9-1.2,1.9-2.4,2.8-3.6c-2.1,2.4-4.1,4.9-6.2,7.3c3.3-3.3,6.5-6.6,9.8-9.9c-3.5,3.3-6.9,6.7-10.4,10
					c11.6-9.4,23.3-18.7,34.9-28.1c-17.3,12.7-34.5,25.3-51.8,38c-0.3,0.4-0.7,0.8-1,1.2c0.5,0,1,0,1.6,0c1.3-0.5,2.7-0.9,4-1.4
					c4.6-2,9.1-4.1,13.6-6.3c7-3.3,13.9-6.7,20.8-10.2c2-0.9,3.9-1.9,5.7-3.1c1.2-0.5,2.1-1.3,2.8-2.4c1.3-2,2.5-4,3.8-5.9
					c1.1-2.1,2.1-4.2,3.2-6.2c2.4-5.2,4.1-10.7,5.5-16.3c1-4.2,1.8-8.5,2.7-12.7c0.4-1.9,0.8-3.7,1.1-5.6c0.7-2.4,0.8-4.8,0.2-7.3
					c-2,0.8-3.6,2.2-4.9,4c-5.2,5.8-10.3,11.8-15.3,17.8c-5,6-10,12-14.8,18.2C464,351.3,463,353.1,462.6,355.2z"/>
				<path class="st1" d="M457.7,345.7c-0.1,1.9-0.2,3.9-0.3,5.8c0-0.4,0.1-0.8,0.1-1.2c-0.4,3.3-1.5,6.4-3.2,9.2
					c0.5-0.8,1-1.6,1.6-2.5c-1.5,2.2-3,4.5-4.4,6.7c0.6-0.8,1.1-1.6,1.7-2.4c-2.4,2.4-4.8,4.9-7.1,7.3c3.8-3,7.6-6,11.3-9
					c-5.2,3.9-10.4,7.9-15.6,11.8c6.4-4.2,12.8-8.4,19.1-12.5c-7.9,5-15.9,9.9-23.8,14.9c6.7-3.6,13.4-7.3,20-10.9
					c-8.4,4.2-16.7,8.5-25.1,12.7c6.9-3.1,13.9-6.2,20.8-9.2c-8.7,3.5-17.4,6.9-26.1,10.4c-0.9,0.4-1.7,0.9-2.6,1.3
					c-0.2,0.3-0.5,0.6-0.7,0.9c0.4,0.1,0.7,0.2,1.1,0.3c1.9-0.2,3.8-0.6,5.7-1.3c5-1.5,9.9-3.1,14.8-4.8c2.3-0.7,4.5-1.5,6.7-2.4
					c1.9-0.6,3.6-1.4,5.3-2.4c1.5-1.3,3-2.5,4.5-3.8c2.2-2,4.2-4.2,5.9-6.6c3-3.9,5.6-8.1,7.4-12.7c3.4-8.8,5-18.1,6.6-27.3
					c0-0.4,0.1-0.8,0.1-1.2c-0.4,0.1-0.8,0.2-1.1,0.3c-0.7,0.6-1.5,1.3-2.2,1.9c-2.4,2.5-4.7,5.1-6.9,7.8
					c-3.5,4.1-6.9,8.2-10.2,12.4C459.9,341.3,457.8,343.4,457.7,345.7z"/>
			</g>
		</g>
	</g>
	<g class="st0">
		<g>
			<g>
				<path class="st1" d="M441.4,207.3c1.9,3.8,3,7.8,3.5,12c0.7,4.3,1,8.6,0.9,12.9c0,2.2-0.1,4.3-0.1,6.5c-0.4,7.9-0.4,15.8,0,23.7
					c0,17.2-0.5,34.4-1.6,51.6c-1.5,23-4.3,45.8-7.7,68.6c-0.2,1.4,2.3-1.3,2.1-1.1c1-1,1.9-2.1,2.8-3.1c0.5-0.5,0.9-1.1,1.2-1.8
					c3.1-23,5.8-45.9,6.9-69.1c0.8-17.3,1.2-34.6,0.9-51.9c-0.3-6.9-0.4-13.8-0.4-20.6c0-3.3-0.1-6.6-0.2-9.9
					c-0.2-4.4-0.8-8.8-1.7-13.2c-0.7-4-1.7-8-3.3-11.7c-0.4-1.2-1.5,1.7-1.5,1.6c-0.5,1.2-1,2.4-1.4,3.6
					C441.6,205.9,441.4,206.6,441.4,207.3z"/>
				<path class="st1" d="M443.5,208.9c0.8,2,1.5,3.9,2.3,5.9c0-0.2-0.1-0.3-0.1-0.5c1,4.2,1.7,8.5,2,12.8c0.1,2.2,0.2,4.3,0.3,6.5
					c0,4.3,0,8.7-0.2,13c0.3,8.6,0.4,17.2,0.2,25.9c-0.1,17.3-0.8,34.5-2.1,51.8c-1.5,20.2-4,40.2-6.9,60.2c-0.3,1.8,3.3-2.4,3-2.1
					c1.5-1.7,3.1-3.4,4.5-5.1c0.8-0.9,1.5-1.8,2.1-2.8c3-23.2,5.4-46.4,6.5-69.9c0.9-20.4,1-40.9,0.2-61.3c-0.4-9.8-0.5-19.6-2-29.3
					c-0.8-4.3-1.6-8.7-2.5-13c-0.6-2.1-1.2-4.1-1.9-6.2c-0.5,0.3-0.8,0.7-1,1.3c-0.8,1.8-1.5,3.7-2.2,5.6c-0.7,1.9-1.4,3.7-2,5.6
					C443.3,207.8,443.3,208.4,443.5,208.9z"/>
				<path class="st1" d="M440.3,207.3c1.6,2.7,2.7,5.6,3.2,8.6c2.1,7.3,2.4,14.7,1.1,22.4c-0.4,5-0.5,10-0.2,15
					c0.1,8.6,0.1,17.2-0.1,25.8c-0.5,17.2-1.3,34.4-2.9,51.5c-1.6,17.1-3.9,34.2-6.5,51.2c-0.2,1.1,1.5-0.4,1.5-0.4
					c0.7-0.7,2.3-1.9,2.5-2.9c3.2-22.7,6-45.5,7.3-68.4c1-17.2,1.5-34.4,1.4-51.7c-0.4-6.8-0.4-13.7-0.2-20.5
					c0.1-3.3,0.1-6.5,0.1-9.8c-0.1-4.4-0.3-8.8-0.8-13.2c-0.9-4-2.3-7.8-4.4-11.3c-0.4-0.8-1,0.5-1.1,0.7
					C440.8,205,440,206.6,440.3,207.3z"/>
				<path class="st1" d="M442,212.9c1.9,4,3.1,8.1,3.6,12.5c0.6,4.3,0.9,8.6,1,12.9c0,2.2,0,4.3,0,6.5c-0.3,7.9-0.2,15.8,0.2,23.7
					c0.1,17.2-0.4,34.5-1.4,51.7c-1.4,23.1-4.2,45.9-7.5,68.8c0.9-0.3,1.6-0.9,2.1-1.7c2.3-2.4,4.6-4.9,6.9-7.5
					c2.3-2.5,4.5-5,6.7-7.6c0.7-0.6,1.2-1.4,1.5-2.3c2.7-23.5,4.9-47.1,5.5-70.8c0.4-17.7,0.5-35.5-0.3-53.2
					c-0.5-10.6-1.2-21.6-2.9-32.1c-0.8-4.6-1.7-9.2-2.7-13.8c-0.5-4.2-1.5-8.3-3-12.2c-0.7,0.7-1.2,1.5-1.4,2.5
					c-1.3,3.3-2.6,6.6-3.9,9.9c-1.3,3.3-2.5,6.6-3.6,10C442.2,211,442,211.9,442,212.9z"/>
				<path class="st1" d="M442.5,209.7c1.8,4,3,8.1,3.5,12.4c0-0.2-0.1-0.4-0.1-0.5c0.6,4.3,1,8.6,1,13c0,2.2,0,4.3,0,6.5
					c-0.1,2.4-0.2,4.7-0.1,7.1c0.3,8.6,0.4,17.2,0.2,25.9c-0.1,17.3-0.8,34.5-2.1,51.8c-1.5,20.2-4,40.2-6.9,60.2
					c0.7-0.2,1.2-0.5,1.6-1.1c1.7-1.7,3.3-3.5,4.9-5.3c1.6-1.8,3.2-3.6,4.7-5.5c0.5-0.5,0.8-1.1,0.9-1.7c2.9-23.3,5.3-46.6,6.1-70.1
					c0.6-17.5,0.8-35.1,0.2-52.7c-0.3-10.2-0.7-21.2-2-31.5c-0.6-4.6-1.4-9.1-2.4-13.6c-0.5-4.1-1.5-8.1-2.9-12
					c-0.6,0.4-0.9,0.9-1.1,1.6c-0.9,2.2-1.8,4.5-2.7,6.8c-0.9,2.3-1.7,4.5-2.5,6.9C442.4,208.4,442.3,209,442.5,209.7z"/>
				<path class="st1" d="M442.4,207.1c1.5,4.1,2.6,8.3,3.3,12.7c0.7,4.3,1,8.6,1,12.9c0,2.2,0,4.3-0.1,6.5c-0.4,7.9-0.3,15.8,0,23.7
					c0.1,17.2-0.4,34.5-1.5,51.7c-1.5,23.1-4.3,45.9-7.6,68.7c-0.2,1.6,2.8-1.8,2.5-1.5c1.2-1.3,2.4-2.6,3.6-4
					c0.7-0.7,1.2-1.4,1.6-2.3c3.1-23.1,5.6-46.2,6.7-69.4c0.8-17.4,1.1-34.8,0.7-52.2c-0.3-6.9-0.5-13.9-0.6-20.8
					c0-3.4-0.2-6.7-0.4-10.1c-0.7-8.8-2.7-17.4-4.8-26c-0.4-1.5-1.9,2.7-1.8,2.3c-0.7,1.7-1.3,3.3-1.9,5
					C442.8,205.2,442.5,206.1,442.4,207.1z"/>
				<path class="st1" d="M442,210.9c1.4,3,2.4,6.1,2.8,9.4c0.7,3.2,1.1,6.4,1.3,9.6c0-0.2,0-0.4,0-0.6c0.1,2.4,0.2,4.7,0.3,7.1
					c0-0.2,0-0.4,0-0.6c0,2.4,0,4.8,0,7.1c0-0.2,0-0.4,0-0.6c-0.2,8.2,0.1,16.3,0.1,24.4c0.1,14.4-0.3,28.8-1,43.1
					c-0.6,11.5-1.4,23-2.6,34.5c-1.4,14.4-3.3,28.6-5.4,43c0.8-0.2,1.4-0.7,1.8-1.4c2-2,3.9-4.1,5.7-6.3c1.9-2.1,3.7-4.2,5.6-6.4
					c0.6-0.6,1-1.2,1.2-2c2.8-23.4,5.1-46.8,5.8-70.4c0.5-17.6,0.7-35.3-0.1-52.9c-0.4-10.4-1-21.3-2.4-31.7
					c-0.7-4.6-1.5-9.1-2.5-13.7c-0.5-4.1-1.5-8.1-2.9-12.1c-0.6,0.5-1,1.2-1.2,2c-1.1,2.6-2.2,5.3-3.2,8c-1,2.7-2,5.4-2.9,8.1
					C441.9,209.3,441.8,210.1,442,210.9z"/>
				<path class="st1" d="M443.7,212.1c1.9,4,3,8.1,3.6,12.5c0.6,4.3,1,8.6,1,12.9c0,2.2,0,4.3,0,6.5c-0.3,7.9-0.2,15.8,0.2,23.7
					c0.1,17.2-0.4,34.5-1.4,51.7c-1.4,23.1-4.2,45.9-7.5,68.8c0.8-0.3,1.5-0.8,2-1.5c2.1-2.2,4.2-4.5,6.3-6.8
					c2.1-2.3,4.1-4.6,6.1-6.9c0.7-0.6,1.1-1.3,1.3-2.1c2.8-23.5,5.1-47.1,5.7-70.8c0.5-17.7,0.6-35.5-0.2-53.2
					c-0.5-10.5-1.1-21.6-2.7-32.1c-0.7-4.7-1.6-9.3-2.6-13.9c-0.5-4.2-1.5-8.3-3-12.2c-0.7,0.6-1.1,1.4-1.4,2.3
					c-1.2,3-2.4,6.1-3.6,9.2c-1.2,3.1-2.3,6.2-3.4,9.3C443.8,210.4,443.7,211.2,443.7,212.1z"/>
				<path class="st1" d="M442,208.7c0.8,1.9,1.5,3.9,2.3,5.8c0-0.1-0.1-0.3-0.1-0.4c1,4.2,1.6,8.5,2,12.8c0.1,2.2,0.2,4.3,0.3,6.5
					c0,4.3,0,8.7-0.2,13c0.3,8.6,0.4,17.2,0.2,25.9c-0.1,17.3-0.8,34.5-2.1,51.7c-1.5,20.2-4,40.2-6.9,60.2c-0.3,1.8,3.3-2.4,3-2.1
					c1.5-1.7,3-3.4,4.5-5.1c0.8-0.9,1.5-1.8,2.1-2.8c3-23.2,5.4-46.3,6.4-69.7c0.9-20.4,0.9-40.8,0.1-61.1c-0.4-9.7-0.5-19.5-2-29.1
					c-0.8-4.3-1.6-8.6-2.5-12.9c-0.6-2-1.3-4.1-2-6.1c-0.5,0.3-0.8,0.7-1,1.3c-0.8,1.7-1.5,3.5-2.1,5.3c-0.7,1.8-1.3,3.6-1.9,5.4
					C441.8,207.7,441.7,208.2,442,208.7z"/>
			</g>
		</g>
	</g>
	<g class="st0">
		<g>
			<g>
				<path class="st1" d="M422.4,518.8c1.2-4.8,2.1-9.6,2.5-14.5c0.7-5,1.1-10.1,1.2-15.2c0.3-10.4-0.2-20.8-0.9-31.1
					c-0.7-10.3-1.7-20.7-2.4-31c-0.7-10.1-1.1-20.1-1.2-30.3c0,0.1,0,0.3,0,0.4c0.1-3.4,0.2-6.8,0.4-10.3c0,0.1,0,0.3,0,0.4
					c-0.6-3.9-0.2-7.5,1.3-10.8c-0.6,0.8-1.3,1.6-1.9,2.4c0.7-0.8,1.4-1.6,2.1-2.4c-2.4,2.2-4.8,4.4-7.2,6.6
					c2.3-1.8,4.6-3.7,6.9-5.5c-2.3,1.7-4.6,3.3-6.9,5c0.7-0.3,1.4-0.6,2.2-0.8c-0.4,0.1-0.9,0.1-1.3,0.2c7.8,2,6.6,8.9,9.4,13.9
					c2.6,4.6,7.3,10.3,9.7,13.6c0.2,0.2,1.6,2.6,2.3,2.1c0.7-0.5-1.2-2.6-1.4-2.8c-3.2-4.4-6.3-8.7-9.5-13.1
					c0.8,1.3,1.6,2.6,2.4,3.9c0-6.1,0.6-12.3-0.8-18.3c-0.2-1.3-0.6-2.4-1.2-3.5c-0.2-1-0.7-1.7-1.7-2.1c-1.3-0.8-1.1-0.6-2.7-0.5
					c-0.6,0.3-1.1,0.7-1.6,1.2c-1,0.8-2,1.7-2.9,2.6c-0.7,0.7-1.4,1.3-2.1,2c-0.8,0.6-1.4,1.4-2,2.2c-1.5,4.2-1.3,8.7-1.5,13.1
					c-0.6,13.3,0,26.7,0.8,40c0.8,13.5,2,26.9,2.4,40.4c0.2,6.7,0.2,13.4-0.1,20.1c-0.2,6.5-1,13-2.2,19.4c0-0.1,0.1-0.3,0.1-0.4
					c-0.9,3.1-1.7,6.2-2.6,9.3c0.5,0.1,0.9,0,1.3-0.3c1.4-0.8,2.8-1.6,4.2-2.4c1.4-0.8,2.7-1.7,4.1-2.6
					C422,519.7,422.3,519.3,422.4,518.8z"/>
				<path class="st1" d="M422.9,522.5c1.3-6.4,2.3-12.8,2.9-19.2c0.6-6.8,0.8-13.7,0.6-20.5c-0.2-10.4-0.9-20.8-1.7-31.1
					c-0.8-10.3-1.7-20.5-2.3-30.8c-0.4-6.7-0.5-13.4-0.5-20.1c0.1-6.5,0.4-13.1,1.2-19.5c0,0.2-0.1,0.3-0.1,0.5
					c0.1-0.3,0.2-0.6,0.4-0.9c-3.4,3.1-6.8,6.2-10.2,9.2c4.8-2,9.6-4.1,14.4-6.1c-3.8,1.2-7.6,2.5-11.4,3.7c0.5,0.1,0.9,0.2,1.4,0.3
					c-0.1-0.1-0.2-0.2-0.3-0.2c0.4,0.4,0.9,0.8,1.3,1.1c-0.1-0.1-0.2-0.2-0.3-0.3c2.1,4,4.8,7.5,8.2,10.6c3.6,4.3,7.2,8.6,10.9,12.9
					c0.3,0.5,0.6,0.8,1.1,0.9c0.1-0.5,0-1-0.4-1.4c-0.9-1.5-1.8-2.9-2.7-4.3c-0.9-1.4-1.9-2.8-2.9-4.2c-3.5-3.8-6.9-7.6-10.4-11.3
					c2.4,3.3,4.7,6.7,7.1,10c0.5-5.5,1.3-11.4,0.1-16.9c-0.1-1.1-0.4-2.2-1-3.2c-0.1-1-0.7-1.6-1.6-1.9c-1.1-0.6-1.1-0.5-2.3-0.4
					c-0.6,0-1.1,0.3-1.5,0.8c-1.6,1.3-3.2,2.7-4.7,4.2c-1.5,1.4-3,2.9-4.5,4.3c-0.5,0.4-0.8,0.9-0.9,1.5c-1.1,7.4-1.1,15.2-1.1,22.7
					c-0.1,13.4,0.8,26.8,1.5,40.2c0.7,13.4,1.5,26.8,1.2,40.3c-0.1,6.6-0.6,13.2-1.3,19.8c-0.9,6-2.2,12-3.8,17.8
					c0.6,0.1,1.2-0.1,1.7-0.5c1.9-1,3.7-2.1,5.5-3.2c1.8-1.1,3.6-2.2,5.3-3.4C422.3,523.5,422.7,523.1,422.9,522.5z"/>
				<path class="st1" d="M422.7,516.2c2-8.5,2.6-10.8,3.4-19.6c1.2-13.8,0.5-27.6-0.5-41.4c-1.2-17-3.2-33.9-3.6-50.9
					c-0.2-6.6-0.1-13.2,0.3-19.8c-0.7-3.9-0.2-7.5,1.4-10.8c-0.5,0.7-1,1.4-1.6,2.1c0.7-0.7,1.3-1.4,2-2.2c-2,1.9-4,3.8-6,5.7
					c1.4-1.1,2.8-2.2,4.2-3.3c-1.3,0.9-2.7,1.8-4,2.7c0.7-0.2,1.5-0.4,2.2-0.7c-0.4,0-0.7,0-1.1,0.1c6.1,3.6,7.8,9.7,8.6,16
					c-0.1,1.1,0,2.1,0.6,3c2.8,4.2,5.7,8.3,8.7,12.3c0.3,0.4,1,1.7,1.7,1.6c0.7-0.1,0.4-0.8,0.1-1.1c-3-4.2-6-8.5-9-12.7
					c0.3,0.5,0.5,1.1,0.8,1.6c0.5-6.5,0.7-13.2-0.9-19.6c-0.2-1.4-0.6-2.6-1.3-3.8c-0.2-1.1-0.8-1.9-1.7-2.3
					c-1.3-0.8-1.1-0.7-2.7-0.6c-1,0.1-3.4,2.8-3.8,3.2c-1.1,1.1-2.7,2.2-3.4,3.6c-0.5,0.9-0.8,1.8-1,2.8c-0.7,6.6-1,13.1-1,19.7
					c-0.1,8.5,0.3,17,0.9,25.4c0.7,11.8,1.8,23.6,2.5,35.4c1.2,19.7,1.8,39.4-4.3,58.6c-0.4,1.3,3.3-1,3.6-1.2
					c1.3-0.8,2.5-1.5,3.7-2.4C421.9,517.2,422.6,516.9,422.7,516.2z"/>
				<path class="st1" d="M419.7,527.8c1.4-6.3,2.5-12.7,3.1-19.2c0.2-3.4,0.4-6.8,0.6-10.1c0.5-12-0.3-24.1-1.1-36.1
					c-0.7-10.3-1.6-20.5-2.2-30.8c-0.7-11.7-0.8-23.3-0.5-35c-4,4.4-7.9,8.9-11.9,13.3c6.2-1.1,12.3-2.3,18.5-3.4
					c-4-3.4-8-6.7-12-10.1c7.1,6.5,14.2,13.1,21.3,19.6c0.5,0.5,0.6,0.3,0.4-0.3c-0.3-0.5-0.6-1-0.9-1.5c-1.1-1.7-2.3-3.3-3.5-4.9
					c-1.8-2.5-3.6-5-5.5-7.5c-0.8-1-1.6-2.3-2.8-3c-4.1-2.2-8.2-4.3-12.3-6.5c5.1,4.7,10.2,9.5,15.2,14.2c0.7-2.4,0.9-4.9,0.7-7.4
					c0.1-2,0.1-4-0.1-6c0-1.8-0.3-3.5-0.9-5.3c-0.3-1.8-1.3-2.9-3.1-3.1c-0.7,0-1.3,0.3-1.8,0.8c-1.9,1.4-3.9,2.9-5.7,4.4
					c-1.9,1.5-3.8,3-5.6,4.5c-0.6,0.4-1,0.9-1.2,1.5c-0.3,1.3-0.4,2.7-0.2,4.1c-0.5,6.6-0.8,13.2-0.8,19.8
					c-0.1,13.4,0.7,26.7,1.3,40.1c0.6,13.4,1.2,26.7,0.7,40.1c-0.2,6.6-0.7,13.1-1.6,19.6c-1,6-2.4,11.9-4,17.8
					c0.7,0,1.3-0.2,1.9-0.6c2.1-1.2,4.2-2.4,6.3-3.7c2.1-1.3,4.1-2.6,6.2-3.9C418.9,528.9,419.4,528.5,419.7,527.8z"/>
				<path class="st1" d="M421.4,524c1.3-6.3,2.3-12.7,2.9-19.1c0.6-6.8,0.8-13.6,0.7-20.5c-0.2-10.4-0.9-20.7-1.7-31.1
					c-0.8-10.3-1.7-20.5-2.2-30.8c-0.4-6.7-0.5-13.4-0.5-20.1c0.1-6.5,0.4-13.1,1.2-19.6c-1.6,2.1-3.3,4.2-4.9,6.3
					c2.4-2.6,4.8-5.3,7.2-7.9c-3.6,2.9-7.2,5.8-10.8,8.7c1-0.6,2.1-1.2,3.1-1.8c-1.1,0.6-2.3,1.1-3.4,1.7c3.9-0.4,7.8-0.8,11.7-1.2
					c-3.2,0.1-6.4,0.1-9.5,0.2c0.4,0.3,0.7,0.6,1.1,0.9c-0.1-0.1-0.2-0.2-0.3-0.3c0.1,0.4,0.3,0.8,0.5,1.2
					c6.4,7.4,12.8,14.7,19.4,22c0.2,0.3,0.8,1.1,1.3,1c0.4-0.1-1.1-2.5-1.1-2.6c-1.1-1.8-2.3-3.6-3.5-5.4c-1-1.5-2-3-3.2-4.3
					c-3.3-3.2-6.6-6.5-9.9-9.7c2.8,3.7,5.5,7.4,8.3,11.1c0.6-4.3,0.9-8.7,0.6-13c0-1.9-0.3-3.7-0.9-5.5c-0.3-1.9-1.3-3.1-3.1-3.6
					c-0.6,0-1.1,0.2-1.6,0.7c-1.7,1.2-3.4,2.5-5,3.8c-1.7,1.3-3.3,2.6-4.9,4c-0.6,0.3-0.9,0.8-1,1.4c-0.2,0.8-0.5,1.7-0.6,2.5
					c-0.4,3.7-0.5,7.6-0.7,11.4c-0.7,15,0.2,30.1,1,45c0.8,13.4,1.5,26.8,1.5,40.3c0,6.6-0.3,13.2-0.9,19.9
					c-0.7,7.7-2.4,15.1-4.3,22.7c0.6,0.1,1.2-0.1,1.7-0.5c1.9-1,3.7-2.1,5.5-3.2c1.8-1.1,3.6-2.2,5.4-3.4
					C420.8,525,421.2,524.5,421.4,524z"/>
				<path class="st1" d="M422.6,520.4c1.3-6.4,2.3-12.8,2.9-19.3c0.5-6.8,0.8-13.7,0.6-20.5c-0.2-10.4-0.9-20.8-1.7-31.2
					c-0.8-10.3-1.7-20.5-2.3-30.8c-0.4-6.7-0.5-13.4-0.5-20.1c0.1-6.5,0.4-13,1.2-19.5c0,0.2,0,0.3,0,0.5c0.2-0.3,0.3-0.7,0.5-1
					c-3,2.7-6,5.4-9,8.1c3-1,6-2,9-3c-1.9,0.4-3.8,0.9-5.7,1.3c2.4,1.4,3.9,3.3,4.4,5.7c0.4,1.9,1.4,3.6,2.9,5
					c3.8,5.6,8.2,10.7,12.4,16c0.8,1,1.2,0.4,0.8-0.5c-0.9-2.1-2.6-4-4-5.8c-2.8-3.4-5.5-6.9-8.3-10.3c1.2,1.9,2.5,3.7,3.7,5.6
					c0.1-5.8,0.8-11.8-0.5-17.6c-0.1-1.2-0.5-2.3-1.1-3.4c-0.2-1-0.7-1.7-1.6-2c-1.1-0.7-1-0.6-2.3-0.5c-1.7,0.1-3.1,2.1-4.3,3.2
					c-1.2,1.1-2.4,2.2-3.5,3.3c-0.9,0.7-1.6,1.6-2.3,2.5c-0.7,2.7-0.7,5.4-0.9,8.2c-1,15-0.5,30,0.4,44.9
					c0.8,13.5,1.9,26.9,2.1,40.4c0.2,8.3,0,16.7-0.7,25c-0.1,3.2-0.5,6.5-1.2,9.6c-0.7,4.5-1.6,9-2.9,13.3c0.5,0.1,1,0,1.5-0.4
					c1.6-0.9,3.2-1.8,4.7-2.7c1.6-0.9,3.1-1.9,4.6-3C422.2,521.3,422.5,520.9,422.6,520.4z"/>
				<path class="st1" d="M420.4,525.5c1.2-6.3,2.2-12.7,2.9-19.1c0.6-6.8,0.8-13.6,0.7-20.4c-0.2-10.4-0.8-20.7-1.6-31.1
					c-0.8-10.2-1.7-20.5-2.2-30.8c-0.4-6.7-0.5-13.4-0.5-20.1c0.1-6.5,0.4-13.1,1.2-19.6c0,0.2-0.1,0.3-0.1,0.5
					c0.1-0.4,0.2-0.7,0.3-1.1c-3.2,3.4-6.5,6.8-9.7,10.2c4.2-3.2,8.3-6.4,12.5-9.6c-4.3,2.4-8.5,4.8-12.8,7.1
					c4.9,0.5,9.8,1,14.7,1.5c-4-0.8-8.1-1.7-12.1-2.5c7.4,8.2,14.5,15.8,22.1,23.8c0.5,0.4,0.6,0.3,0.4-0.3
					c-0.6-1.3-1.3-2.5-2.1-3.6c-1.5-2.3-3-4.5-4.6-6.7c-0.8-1.2-1.6-2.3-2.6-3.3c-3.8-3.1-7.6-6.3-11.4-9.4
					c3.7,4.4,7.4,8.7,11.1,13.1c0.7-4.3,0.9-8.7,0.6-13.1c0-1.8-0.3-3.6-0.9-5.3c-0.3-1.9-1.3-3-3.1-3.4c-0.6,0-1.2,0.2-1.6,0.7
					c-1.8,1.3-3.5,2.6-5.2,3.9c-1.7,1.3-3.4,2.7-5,4.1c-0.6,0.3-0.9,0.8-1.1,1.4c-0.4,1.3-0.6,2.7-0.5,4c-0.5,6.6-0.8,13.2-0.8,19.8
					c-0.1,13.4,0.8,26.8,1.5,40.2c0.7,13.4,1.4,26.8,1,40.2c-0.1,6.6-0.6,13.2-1.5,19.7c-1,6-2.3,11.9-3.9,17.7
					c0.6,0.1,1.2-0.1,1.7-0.5c1.9-1.1,3.8-2.2,5.7-3.3c1.9-1.1,3.7-2.3,5.6-3.5C419.8,526.6,420.2,526.1,420.4,525.5z"/>
				<path class="st1" d="M421.3,527.4c1.5-6.4,2.6-12.8,3.2-19.3c0.2-3.4,0.4-6.8,0.6-10.1c0.5-12-0.3-24.1-1.1-36.1
					c-0.7-10.3-1.6-20.5-2.2-30.8c-0.7-11.7-0.8-23.3-0.4-35c-4.2,4.6-8.3,9.3-12.5,13.9c6.3-1.3,12.7-2.5,19-3.8
					c-4-3.4-8.1-6.7-12.1-10.1c7.2,6.5,14.3,13.1,21.5,19.6c0.5,0.5,0.6,0.3,0.4-0.3c-0.3-0.5-0.6-1-0.8-1.5
					c-1.1-1.7-2.3-3.3-3.5-4.9c-1.8-2.5-3.6-5-5.5-7.5c-0.8-1-1.6-2.3-2.8-2.9c-4.2-2.2-8.4-4.4-12.6-6.6
					c5.1,4.7,10.3,9.4,15.4,14.2c0.7-2.4,0.9-4.9,0.8-7.4c0.1-2,0.1-4,0-6c0-1.8-0.3-3.6-0.9-5.4c-0.3-1.9-1.3-3-3.2-3.3
					c-0.7,0.1-1.3,0.4-1.9,0.9c-2,1.5-4,3-6,4.6c-2,1.6-3.9,3.1-5.9,4.8c-0.6,0.4-1.1,0.9-1.3,1.6c-0.3,1.4-0.3,2.7-0.1,4.1
					c-0.5,6.6-0.8,13.2-0.8,19.8c-0.1,13.4,0.7,26.7,1.3,40.1c0.6,13.3,1.1,26.7,0.6,40.1c-0.2,6.6-0.8,13.1-1.6,19.6
					c-1,6-2.4,12-4.1,17.8c0.7,0,1.4-0.2,2-0.7c2.2-1.2,4.4-2.5,6.6-3.9c2.2-1.3,4.4-2.7,6.5-4.1C420.5,528.5,421,528,421.3,527.4z"
					/>
				<path class="st1" d="M421.7,521.8c1.2-6.3,2.2-12.7,2.9-19.2c0.6-6.8,0.8-13.7,0.6-20.5c-0.2-10.4-0.9-20.8-1.7-31.1
					c-0.8-10.3-1.7-20.5-2.3-30.8c-0.4-6.7-0.5-13.4-0.5-20.1c0.1-6.5,0.4-13,1.2-19.5c0,0.2,0,0.3-0.1,0.5c0.1-0.3,0.3-0.7,0.4-1
					c-3.1,2.8-6.2,5.5-9.2,8.3c3.4-2.1,6.8-4.3,10.2-6.4c-2.9,1.6-5.8,3.1-8.7,4.7c0.9-0.1,1.8-0.3,2.7-0.4c-0.5,0-0.9,0-1.4,0
					c0.6,0.3,1.3,0.5,1.9,0.8c-0.1-0.1-0.2-0.2-0.3-0.3c1.3,1.7,2.5,3.5,3.7,5.3c1,1.6,2.1,3.2,3.2,4.7c3.7,5.3,7.8,10.2,11.8,15.2
					c0.9,1.2,1.3,0.7,0.8-0.5c-1.2-2.6-3.2-5.1-4.9-7.3c-3.1-3.9-6.3-7.9-9.4-11.8c1.9,2.9,3.8,5.7,5.7,8.6
					c0.3-5.5,0.9-11.3-0.3-16.7c-0.1-1.1-0.5-2.2-1.1-3.2c-0.2-1-0.7-1.6-1.6-1.9c-1.1-0.6-1-0.6-2.2-0.4c-1.7,0.2-3.2,2.2-4.4,3.3
					c-1.2,1.1-2.4,2.2-3.6,3.4c-0.9,0.8-1.7,1.6-2.3,2.6c-1,4.3-1,8.8-1.2,13.2c-0.7,15,0.2,30.1,1.1,45c0.8,13.4,1.7,26.9,1.7,40.4
					c0,6.7-0.2,13.3-0.8,19.9c-0.7,7.8-2.3,15.2-4.1,22.8c0.5,0.1,1.1,0,1.5-0.4c1.7-0.9,3.3-1.9,4.9-2.9c1.6-1,3.2-2,4.8-3.1
					C421.2,522.8,421.5,522.4,421.7,521.8z"/>
			</g>
		</g>
	</g>
	<g class="st0">
		<g>
			<g>
				<path class="st1" d="M409.5,84.1c2.3,38.9,3.8,77.9,5,116.9c1.3,41,1.5,82,1,123c0,1.4,2.1-1.3,2-1.2c0.9-1.1,1.8-2.2,2.7-3.3
					c0.5-0.6,0.9-1.2,1.2-1.9c0.4-41.1,0.1-82.1-1.2-123.2c-1.2-38.8-3.3-77.5-4.6-116.3c0-1.3-2,1-2.1,1c-1,1-1.9,2-2.8,3.1
					C410.2,82.8,409.8,83.4,409.5,84.1z"/>
				<path class="st1" d="M412,86.3c2.1,38.9,3.7,77.9,5,116.9c1.3,41,1.5,82,1,123.1c0.6-0.1,1-0.4,1.3-0.9c1.3-1.5,2.6-2.9,3.8-4.5
					c1.2-1.5,2.4-3.1,3.6-4.6c0.4-0.4,0.6-0.9,0.6-1.5c0.3-41.1,0-82.2-1.3-123.4c-1.3-38.7-3.5-77.4-4-116.1
					c-0.6,0.1-1,0.3-1.4,0.8c-1.4,1.4-2.7,2.8-4,4.2c-1.3,1.4-2.6,2.9-3.9,4.4C412.2,85.3,412,85.8,412,86.3z"/>
				<path class="st1" d="M407.6,83.7c1.4,10.9,2.1,21.8,2.2,32.7c0.3,6.2,0.6,12.5,0.9,18.7c1,21.8,1.9,43.5,2.5,65.3
					c1.3,41,1.4,82,1,123c0,1,1.4-0.4,1.5-0.4c0.6-0.6,2.4-2,2.4-3c0.4-41,0.2-82-1.1-123c-0.6-18.7-1.3-37.3-2.1-56
					c-0.4-9.4-0.8-18.7-1.3-28.1c0.1-10.8-0.7-21.5-2.5-32.2c-0.1-0.9-1.2,0.1-1.4,0.3C409.1,81.5,407.5,82.8,407.6,83.7z"/>
				<path class="st1" d="M410.9,90.1c1.8,39.1,3.6,78.2,4.9,117.3c1.3,41,1.5,82,1.1,123.1c0.9-0.4,1.6-1,2.1-1.8
					c2.3-2.6,4.5-5.2,6.7-7.8c2.2-2.6,4.4-5.3,6.5-8c0.7-0.7,1.2-1.5,1.4-2.4c0.2-41.2-0.2-82.4-1.5-123.6
					c-0.6-18.7-1.4-37.4-2.2-56.1c-0.4-9.3-0.8-18.6-1.1-27.9c-0.2-10.7-0.2-21.4-0.2-32c-0.9,0.3-1.6,0.9-2.2,1.7
					c-2.4,2.5-4.7,4.9-7,7.5c-2.3,2.5-4.6,5.1-6.8,7.6C411.7,88.4,411.2,89.2,410.9,90.1z"/>
				<path class="st1" d="M411.2,87.1c1.7,39,3.6,78.1,4.8,117.2c1.3,41,1.5,82,1,123.1c0.7-0.2,1.2-0.6,1.6-1.2
					c1.6-1.8,3.2-3.7,4.7-5.6c1.5-1.9,3-3.8,4.5-5.7c0.5-0.5,0.8-1.1,0.9-1.8c0.3-41.2-0.1-82.3-1.4-123.4
					c-0.6-18.7-1.4-37.4-2.2-56c-0.4-9.3-0.8-18.6-1.1-27.9c-0.3-10.7-0.4-21.4-0.4-32c-0.7,0.1-1.2,0.5-1.6,1.1
					c-1.7,1.7-3.3,3.4-4.9,5.2c-1.6,1.8-3.2,3.6-4.7,5.4C411.6,85.9,411.3,86.4,411.2,87.1z"/>
				<path class="st1" d="M411,84.7c1.2,39,3.4,77.9,4.6,116.9c1.3,41,1.5,82,1,123.1c0,1.5,2.6-1.8,2.4-1.7c1.2-1.4,2.3-2.8,3.4-4.2
					c0.6-0.7,1.2-1.5,1.5-2.4c0.3-41.1,0-82.2-1.3-123.2c-0.6-18.7-1.4-37.4-2.2-56c-0.4-9.3-0.8-18.6-1.2-27.9
					c-0.6-11.1-0.8-22.1-0.4-33.2c-0.5,0-0.9,0.2-1.2,0.6c-1.1,1.1-2.2,2.2-3.2,3.3c-1.1,1.1-2.1,2.3-3,3.5
					C411.1,83.9,410.9,84.3,411,84.7z"/>
				<path class="st1" d="M410.8,88.3c1.6,39.1,3.5,78.2,4.7,117.3c1.3,41,1.5,82,1,123.1c0.7-0.3,1.3-0.8,1.8-1.5
					c1.9-2.2,3.7-4.3,5.5-6.6c1.8-2.2,3.6-4.4,5.3-6.7c0.6-0.6,1-1.3,1.1-2.1c0.2-41.2-0.1-82.3-1.5-123.5
					c-0.6-18.7-1.4-37.4-2.2-56c-0.4-9.3-0.8-18.6-1.1-27.9c-0.2-10.7-0.3-21.3-0.2-32c-0.8,0.2-1.4,0.7-1.9,1.4
					c-2,2-3.9,4.1-5.8,6.2c-1.9,2.1-3.8,4.2-5.6,6.3C411.3,86.9,410.9,87.5,410.8,88.3z"/>
				<path class="st1" d="M412.8,89.3c1.7,39.1,3.6,78.2,4.8,117.3c1.3,41,1.5,82,1.1,123.1c0.8-0.3,1.4-0.9,1.9-1.6
					c2.1-2.3,4.1-4.7,6.1-7.1c2-2.4,4-4.8,5.9-7.3c0.6-0.6,1.1-1.4,1.2-2.2c0.2-41.2-0.1-82.4-1.5-123.6
					c-0.6-18.7-1.4-37.4-2.2-56.1c-0.4-9.3-0.8-18.6-1.1-27.9c-0.2-10.7-0.3-21.4-0.3-32.1c-0.8,0.3-1.5,0.8-2,1.5
					c-2.2,2.2-4.3,4.5-6.4,6.8c-2.1,2.3-4.2,4.6-6.2,7C413.4,87.8,413,88.5,412.8,89.3z"/>
				<path class="st1" d="M410.4,85.9c2.1,39,3.7,78,5,117c1.3,41,1.5,82,1,123.1c0.6-0.1,1-0.4,1.3-0.9c1.3-1.4,2.5-2.9,3.8-4.4
					c1.2-1.5,2.4-3,3.6-4.6c0.4-0.4,0.6-0.9,0.6-1.5c0.3-41.1,0-82.2-1.4-123.3c-1.3-38.7-3.6-77.4-4-116.1c-0.6,0.1-1,0.3-1.4,0.8
					c-1.4,1.4-2.7,2.8-4,4.2c-1.3,1.4-2.6,2.9-3.8,4.4C410.7,84.9,410.4,85.4,410.4,85.9z"/>
			</g>
		</g>
	</g>
	<g class="st0">
		<g>
			<g>
				<path class="st1" d="M396.4,271.6c0,5.5,0.3,10.9,1,16.3c0.5,4.1,1.1,8.3,1.6,12.4c0.6,4.1,1.1,8.2,1.5,12.4
					c0.5,5.4,0.7,10.8,0.6,16.3c0,0.5,0.8-0.5,0.7-0.5c0.3-0.4,1.4-1.4,1.4-2c0.1-5.4-0.1-10.9-0.6-16.3c-0.4-4.1-0.9-8.2-1.4-12.4
					c-0.5-4.1-1.1-8.2-1.5-12.4c-0.7-5.3-0.9-10.6-0.8-16c0-0.5-0.8,0.3-0.8,0.3C397.7,270.2,396.4,271.2,396.4,271.6z"/>
				<path class="st1" d="M397.3,272.5c0,5.5,0.3,10.9,1,16.3c0.5,4.1,1.1,8.3,1.6,12.4c0.6,4.1,1.1,8.2,1.5,12.4
					c0.5,5.4,0.7,10.9,0.6,16.3c0.2,0,0.4-0.2,0.5-0.4c0.5-0.6,0.9-1.1,1.4-1.7c0.4-0.5,1.5-1.6,1.5-2.3c-0.2-9.6-0.8-19.1-2-28.7
					c-0.5-4.1-1-8.2-1.5-12.3c-0.6-5.2-0.8-10.5-0.5-15.8c0-0.1-2.1,1.8-2.1,1.7C398.8,270.8,397.3,271.9,397.3,272.5z"/>
				<path class="st1" d="M395.8,271.3c0.1,5.5,0.5,10.9,1.2,16.4c0.5,4.2,1.1,8.3,1.6,12.5c0.6,4.1,1.1,8.2,1.5,12.4
					c0.5,5.4,0.6,10.8,0.5,16.3c0,0.3,1.4-0.9,1.4-1.3c0.1-5.4-0.1-10.8-0.6-16.2c-0.4-4.1-0.9-8.3-1.4-12.4
					c-1.3-9.6-2.3-19.1-2.7-28.7C397.2,269.8,395.7,271,395.8,271.3z"/>
				<path class="st1" d="M396.9,274c0,5.5,0.3,11,1,16.4c0.5,4.1,1.1,8.3,1.6,12.4c0.6,4.1,1.1,8.2,1.4,12.4
					c0.5,5.4,0.7,10.8,0.6,16.3c0.3-0.2,0.6-0.4,0.8-0.7c0.8-1,1.6-2,2.4-3c0.8-1,1.6-2,2.3-3.1c0.3-0.3,0.4-0.6,0.5-0.9
					c-0.2-9.6-0.9-19.1-2-28.6c-0.5-4.1-1-8.1-1.4-12.2c-0.5-5.2-0.6-10.4-0.3-15.7c-0.3,0.1-0.6,0.3-0.8,0.6
					c-0.9,0.9-1.9,1.7-2.8,2.6c-0.9,0.9-1.8,1.8-2.7,2.7C397.3,273.4,397.1,273.6,396.9,274z"/>
				<path class="st1" d="M397,272.9c-0.1,5.5,0.3,10.9,0.9,16.3c0.5,4.1,1.1,8.3,1.6,12.4c0.6,4.1,1.1,8.2,1.5,12.4
					c0.5,5.4,0.7,10.9,0.6,16.3c0.2-0.1,0.4-0.2,0.6-0.5c0.6-0.7,1.1-1.4,1.7-2.1c0.4-0.5,1.9-2,1.9-2.9c-0.2-9.6-0.9-19.1-2-28.7
					c-0.5-4.1-1-8.2-1.5-12.3c-0.6-5.2-0.7-10.5-0.4-15.7c0,0-2.6,2.2-2.6,2.2C399,270.7,397,272.1,397,272.9z"/>
				<path class="st1" d="M396.9,272c-0.1,4.1,0.1,8.2,0.6,12.2c0.3,4.2,0.8,8.3,1.5,12.4c0.4,2.8,0.7,5.5,1.1,8.3
					c1.1,8.1,1.6,16.2,1.5,24.4c0,0.6,0.9-0.7,0.9-0.6c0.4-0.5,1.8-1.8,1.8-2.5c-0.1-6.9-0.4-13.7-1.1-20.6
					c-0.4-4.1-0.9-8.2-1.5-12.3c-1.2-8-1.7-16.1-1.6-24.2c0-0.1-1.7,1.4-1.7,1.4C398,270.7,396.9,271.5,396.9,272z"/>
				<path class="st1" d="M396.9,273.3c-0.1,5.5,0.2,10.9,0.9,16.4c0.5,4.1,1.1,8.3,1.6,12.4c0.6,4.1,1.1,8.2,1.5,12.4
					c0.5,5.4,0.7,10.9,0.6,16.3c0.3-0.1,0.5-0.3,0.7-0.6c0.7-0.8,1.3-1.7,2-2.5c0.5-0.6,2.3-2.4,2.3-3.4c-0.2-9.6-0.9-19.1-2-28.6
					c-0.5-4.1-1-8.2-1.4-12.2c-0.5-5.2-0.6-10.4-0.3-15.7c-0.3,0.1-0.5,0.2-0.7,0.5c-0.8,0.7-1.5,1.4-2.3,2.2
					C399.2,270.7,396.9,272.5,396.9,273.3z"/>
				<path class="st1" d="M397.6,273.7c-0.1,5.5,0.2,10.9,0.9,16.4c0.5,4.1,1.1,8.3,1.6,12.4c0.6,4.1,1.1,8.2,1.4,12.4
					c0.5,5.4,0.7,10.8,0.6,16.3c0.3-0.1,0.5-0.3,0.7-0.6c0.7-0.9,1.5-1.8,2.2-2.7c0.5-0.6,2.6-2.7,2.6-3.6c-0.2-9.6-0.8-19.1-2-28.6
					c-0.5-4.1-1-8.1-1.4-12.2c-0.5-5.2-0.6-10.5-0.3-15.7c-0.3,0.1-0.6,0.3-0.8,0.5c-0.9,0.8-1.7,1.6-2.5,2.4
					C400.2,270.9,397.6,272.8,397.6,273.7z"/>
				<path class="st1" d="M396.8,272.4c0,5.5,0.3,10.9,1,16.3c0.5,4.1,1.1,8.3,1.6,12.4c0.6,4.1,1.1,8.2,1.5,12.4
					c0.5,5.4,0.7,10.8,0.6,16.3c0.2,0,0.4-0.2,0.5-0.4c0.5-0.6,0.9-1.1,1.4-1.7c0.4-0.5,1.5-1.6,1.5-2.3c-0.2-9.6-0.8-19.1-2-28.7
					c-0.5-4.1-1-8.2-1.5-12.3c-0.6-5.3-0.8-10.5-0.5-15.8c0-0.1-2.1,1.8-2.1,1.7C398.2,270.7,396.7,271.8,396.8,272.4z"/>
			</g>
		</g>
	</g>
	<g class="st0">
		<g>
			<g>
				<path class="st1" d="M342.2,290.7c6.6,21.2,13.3,42.4,19.9,63.6c0.1,0.5,0.6-0.6,0.6-0.6c0.2-0.4,0.9-1.6,0.8-2.1
					c-6.6-21.1-13.3-42.2-19.7-63.4c-0.1-0.4-0.6,0.5-0.6,0.5C342.9,289,342.1,290.2,342.2,290.7z"/>
				<path class="st1" d="M343,291.4c6.6,21.2,13.3,42.4,19.9,63.6c0,0,1.3-2.5,1.3-2.5c0.2-0.5,1.1-2,0.9-2.7
					c-6.6-21.1-13.3-42.2-19.5-63.4c0,0-1.5,2.4-1.5,2.4C343.9,289.2,342.8,290.7,343,291.4z"/>
				<path class="st1" d="M341.7,290.7c6.9,21.1,13.5,42.3,20.1,63.5c0.1,0.4,1.1-1.1,1-1.4c-6.6-21.1-13.1-42.3-20.2-63.3
					C342.4,289,341.6,290.3,341.7,290.7z"/>
				<path class="st1" d="M342.5,292.8c6.6,21.3,13.3,42.5,19.9,63.7c0.3-0.2,0.5-0.5,0.6-0.9c0.6-1.2,1.1-2.4,1.6-3.6
					c0.5-1.2,1.1-2.4,1.5-3.6c0.2-0.3,0.3-0.7,0.3-1c-6.6-21.1-13.3-42.2-19.3-63.4c-0.3,0.2-0.5,0.5-0.6,0.8
					c-0.6,1.2-1.3,2.3-1.9,3.5c-0.6,1.2-1.2,2.3-1.8,3.5C342.6,292.1,342.5,292.5,342.5,292.8z"/>
				<path class="st1" d="M342.7,291.7c6.6,21.2,13.2,42.5,19.9,63.7c0.2-0.1,0.4-0.3,0.4-0.6c0.4-0.8,0.8-1.7,1.1-2.5
					c0.3-0.6,1.4-2.5,1.2-3.3c-6.6-21.1-13.3-42.1-19.4-63.4c-0.2,0.1-0.4,0.3-0.5,0.6c-0.5,0.8-0.9,1.6-1.3,2.4
					C343.8,289,342.5,290.9,342.7,291.7z"/>
				<path class="st1" d="M342.6,290.9c6.5,21.2,13.2,42.4,19.8,63.5c0.2,0.5,0.7-0.9,0.7-0.8c0.2-0.5,1.3-2.2,1.1-2.8
					c-6.6-21.2-13.4-42.3-19.6-63.7c0-0.1-1.2,1.8-1.2,1.8C343.2,289.3,342.5,290.4,342.6,290.9z"/>
				<path class="st1" d="M342.5,292.1c6.5,21.3,13.2,42.5,19.9,63.7c0.2-0.2,0.4-0.4,0.5-0.7c0.5-1,0.9-2,1.3-3
					c0.3-0.6,1.7-3,1.4-3.9c-6.6-21.1-13.3-42.1-19.3-63.4c-0.3,0.2-0.4,0.4-0.5,0.7c-0.5,0.9-1,1.9-1.5,2.8
					C343.9,288.9,342.2,291.3,342.5,292.1z"/>
				<path class="st1" d="M343.2,292.5c6.6,21.3,13.2,42.5,19.9,63.7c0.3-0.2,0.4-0.5,0.5-0.8c0.5-1.1,1-2.2,1.5-3.3
					c0.5-1.1,1-2.2,1.4-3.4c0.2-0.3,0.3-0.6,0.2-1c-6.6-21.1-13.3-42.2-19.3-63.4c-0.3,0.2-0.5,0.5-0.6,0.8
					c-0.6,1.1-1.2,2.1-1.7,3.2c-0.6,1.1-1.1,2.2-1.6,3.3C343.3,291.9,343.2,292.2,343.2,292.5z"/>
				<path class="st1" d="M342.5,291.2c6.6,21.2,13.3,42.4,19.9,63.6c0,0,1.3-2.4,1.3-2.4c0.2-0.5,1.1-1.9,0.9-2.6
					c-6.6-21.1-13.3-42.2-19.5-63.4c0,0-1.4,2.3-1.4,2.3C343.3,289.2,342.3,290.6,342.5,291.2z"/>
			</g>
		</g>
	</g>
	<g class="st0">
		<g>
			<g>
				<path class="st1" d="M357.9,251.1c3.1,11.8,6.3,23.6,9.8,35.3c3.7,12,7.7,23.9,12,35.7c4.4,11.8,9,23.5,14,35.1
					c5,11.6,10.3,23.1,15.9,34.4c0.5,1.1,1.4-1.7,1.4-1.7c0.5-1.2,0.9-2.5,1.3-3.7c0.3-0.7,0.4-1.3,0.4-2
					c-10.7-22.8-20.8-45.7-29.3-69.4c-4.2-11.8-8.2-23.6-11.8-35.6c-3.5-11.5-6.5-23.1-9.1-34.8c-0.3-1.2-1.8,1.3-1.8,1.4
					c-0.7,1.1-1.4,2.3-2.1,3.4C358.3,249.8,358,250.4,357.9,251.1z"/>
				<path class="st1" d="M360.2,253.1c3,11.8,6.3,23.6,9.8,35.3c3.7,12,7.7,23.9,12,35.6c4.3,11.8,9,23.5,14,35.1
					c5,11.6,10.3,23.1,15.9,34.4c0.5-0.3,0.8-0.7,1-1.3c0.7-1.8,1.4-3.7,2.1-5.6c0.7-1.9,1.3-3.8,1.8-5.7c0.3-0.6,0.3-1.1,0.1-1.6
					c-10.5-22.6-20.4-45.4-28.8-69c-4.2-11.7-8.1-23.5-11.6-35.4c-3.3-11.4-6.1-22.9-8.4-34.5c-0.5,0.2-1,0.5-1.2,1.1
					c-1.1,1.6-2.2,3.3-3.2,5c-1,1.7-2,3.4-3,5.1C360.2,252,360.1,252.5,360.2,253.1z"/>
				<path class="st1" d="M356.4,251c3.7,11.7,7.2,23.4,10.5,35.2c3.7,12,7.8,23.9,12.1,35.7c4.4,11.8,9.1,23.5,14.1,35.1
					c5,11.6,10.4,23.1,16,34.4c0.4,0.8,1.1-0.5,1.2-0.7c0.3-0.6,1.6-2.4,1.2-3.2c-5.6-11.3-10.9-22.8-15.8-34.4
					c-5-11.6-9.6-23.3-14-35.1c-4.3-11.8-8.3-23.6-12-35.6c-3.1-11.8-6.6-23.4-10.7-34.8c-0.3-0.8-1.1,0.3-1.3,0.5
					C357.4,248.7,356.2,250.2,356.4,251z"/>
				<path class="st1" d="M358.9,256.9c3,12,6.2,23.9,9.8,35.7c3.7,12,7.7,23.9,12,35.6c4.3,11.8,9,23.5,14,35.1
					c5,11.6,10.3,23.1,15.9,34.4c0.7-0.7,1.2-1.5,1.4-2.5c1.3-3.3,2.6-6.6,3.8-9.9c1.2-3.3,2.4-6.6,3.6-10c0.4-0.9,0.6-1.8,0.5-2.8
					c-10.2-22.5-19.8-45.2-28-68.6c-4.1-11.6-7.9-23.4-11.3-35.3c-3-11.4-5.6-22.9-7.9-34.4c-0.8,0.5-1.4,1.2-1.8,2.1
					c-1.9,2.9-3.7,5.9-5.5,8.9c-1.8,3-3.6,6-5.3,9C359.4,255.1,359,255.9,358.9,256.9z"/>
				<path class="st1" d="M359.3,253.8c2.9,11.9,6.1,23.8,9.6,35.5c3.7,12,7.7,23.9,12,35.6c4.3,11.8,9,23.5,14,35.1
					c5,11.6,10.3,23,15.9,34.4c0.6-0.4,0.9-1,1.1-1.7c0.9-2.3,1.7-4.6,2.5-6.9c0.8-2.3,1.6-4.6,2.3-7c0.3-0.7,0.4-1.3,0.2-2
					c-10.4-22.6-20.2-45.4-28.5-68.9c-4.2-11.7-8-23.5-11.5-35.4c-3.2-11.4-5.9-22.8-8.1-34.4c-0.6,0.3-1.1,0.7-1.4,1.4
					c-1.3,2-2.6,4.1-3.9,6.1c-1.3,2.1-2.5,4.1-3.7,6.2C359.5,252.5,359.3,253.1,359.3,253.8z"/>
				<path class="st1" d="M359.3,251.5c2.2,8.9,4.3,17.8,6.9,26.6c3.1,10.7,4.2,14.9,8.4,27c4.1,11.9,8.4,23.7,13,35.4
					c7,17.6,15,34.8,23.1,51.9c0.4-0.2,0.7-0.5,0.8-1c0.6-1.4,1.1-2.8,1.6-4.2c0.5-1.4,1-2.8,1.4-4.3c0.2-0.5,0.2-0.9,0-1.3
					c-6.6-14.2-13.1-28.4-19-43c-5.9-14.5-11.1-29.2-16.2-43.9c0,0.1,0.1,0.3,0.1,0.4c-1.9-6.1-3.8-12.1-5.8-18.2
					c0,0.1,0.1,0.3,0.1,0.4c-1.7-6-3.3-12.1-5-18.1c0,0.1,0.1,0.3,0.1,0.4c-1.2-6-2.4-12-3.6-18c-0.5,0.1-0.8,0.3-1,0.8
					c-0.9,1.3-1.7,2.5-2.5,3.9c-0.8,1.3-1.6,2.6-2.3,4C359.2,250.6,359.1,251,359.3,251.5z"/>
				<path class="st1" d="M358.8,254.9c2.9,12,6.1,23.9,9.6,35.6c3.7,12,7.7,23.9,12,35.6c4.3,11.8,9,23.5,14,35.1
					c5,11.6,10.3,23,15.9,34.4c0.6-0.5,1-1.2,1.2-2c1.1-2.7,2.1-5.4,3-8.1c1-2.7,1.9-5.5,2.8-8.2c0.4-0.8,0.5-1.5,0.3-2.3
					c-10.3-22.6-20-45.3-28.2-68.8c-4.1-11.7-7.9-23.5-11.4-35.3c-3.1-11.4-5.7-22.8-7.9-34.4c-0.7,0.4-1.2,0.9-1.6,1.7
					c-1.6,2.4-3.1,4.8-4.5,7.3c-1.5,2.4-2.9,4.9-4.3,7.4C359.1,253.4,358.8,254.2,358.8,254.9z"/>
				<path class="st1" d="M360.7,256.1c2.9,12,6.2,23.9,9.7,35.7c3.7,12,7.7,23.9,12,35.6c8.7,23.7,18.9,46.7,29.8,69.5
					c0.7-0.6,1.1-1.4,1.3-2.3c1.2-3,2.4-6.1,3.5-9.2c1.1-3.1,2.2-6.1,3.3-9.2c0.4-0.8,0.6-1.7,0.5-2.6
					c-10.3-22.5-19.9-45.2-28.1-68.5c-4.1-11.6-7.9-23.4-11.4-35.3c-3.1-11.4-5.7-22.9-7.9-34.5c-0.8,0.5-1.3,1.1-1.7,1.9
					c-1.7,2.7-3.4,5.4-5.1,8.2c-1.7,2.7-3.3,5.5-4.9,8.3C361.1,254.4,360.8,255.2,360.7,256.1z"/>
				<path class="st1" d="M358.7,252.7c3.1,11.8,6.3,23.6,9.8,35.3c3.7,12,7.7,23.9,12,35.6c4.3,11.8,9,23.5,14,35.1
					c5,11.6,10.3,23.1,15.9,34.4c0.5-0.3,0.8-0.7,0.9-1.3c0.7-1.8,1.4-3.6,2-5.4c0.6-1.8,1.2-3.6,1.8-5.4c0.3-0.5,0.3-1.1,0.1-1.6
					c-10.5-22.7-20.4-45.5-28.8-69.1c-4.2-11.7-8.1-23.6-11.6-35.5c-3.3-11.4-6.1-22.9-8.4-34.5c-0.5,0.2-0.9,0.5-1.2,1.1
					c-1.1,1.6-2.1,3.2-3.1,4.9c-1,1.6-2,3.3-2.9,5C358.7,251.6,358.6,252.2,358.7,252.7z"/>
			</g>
		</g>
	</g>
	<g class="st0">
		<g>
			<g>
				<path class="st1" d="M385,342.5c-0.9-1-1.8-2-2.7-3c0.1,0.1,0.2,0.2,0.3,0.4c-1.2-1.5-2.1-3.2-2.7-5.1c-1.3-2.9-1.9-6-1.8-9.2
					c-0.8,4.2-1.5,8.5-2.3,12.7c2.2,5.5,3.4,11.1,3.7,17c0.1,0.5,0.7,0.3,0.9,0.1c0.4-0.4,0.3-1.6,0.2-2.1
					c-0.8-9.2-1.6-18.5-2.6-27.7c-0.1-0.5-0.3-0.5-0.5-0.1c-0.4,1-0.6,2.1-0.7,3.2c-0.3,2.1-0.6,4.2-0.9,6.3
					c-0.2,1.1-0.3,2.2-0.2,3.3c1.1,3.9,2.3,7.7,4.4,11.3c1.5,2.5,3.1,4.4,4.9,6.6c0.4-0.4,0.5-0.9,0.4-1.4c0.1-1.8,0.1-3.6,0.1-5.4
					c0-1.8-0.1-3.6-0.2-5.4C385.5,343.4,385.4,342.9,385,342.5z"/>
				<path class="st1" d="M386.2,346.8c-0.9-1-1.8-2-2.7-3c0.1,0.1,0.2,0.3,0.3,0.4c-1.5-2.1-2.7-4.4-3.4-6.8
					c-0.7-2.4-1.1-4.9-1.2-7.4c-0.1-0.6-0.3-0.6-0.5-0.1c-0.4,1.2-0.7,2.4-0.8,3.6c-0.4,2.3-0.7,4.7-0.9,7c-0.2,1.2-0.3,2.5-0.2,3.7
					c1.3,2.8,2.1,5.8,2.4,8.8c0.2,2.4,0.8,4.7,1.5,6.9c0.2,0.7,1.2,0.4,1.2-0.3c-1-9.9-1.6-19.8-2.6-29.7c-0.8,4.8-1.6,9.5-2.4,14.3
					c1.3,3.8,2.6,7.5,4.7,11c1.5,2.4,3.1,4.4,4.9,6.6c0.4-0.4,0.5-1,0.4-1.6c0.1-2,0.1-4,0.1-5.9c0-2-0.1-4-0.2-5.9
					C386.8,347.8,386.6,347.2,386.2,346.8z"/>
				<path class="st1" d="M384.8,339.6c-0.9-1-1.8-2-2.7-3c0.1,0.1,0.2,0.2,0.3,0.3c-1.2-1.6-2.1-3.2-2.7-5.1
					c-1.3-2.9-1.8-5.9-1.7-9.2c-0.7,3.9-1.4,7.8-2.1,11.7c2.4,6.8,3.7,13.8,3.9,21c0,0.3,0.3,0.9,0.2,0.3c0.2-5.2,0.1-10.4-0.5-15.6
					c-0.4-5.8-0.9-11.5-1.6-17.3c-0.1-0.5-0.3-0.5-0.5-0.1c-0.4,0.9-0.6,1.9-0.7,3c-0.3,1.9-0.6,3.8-0.8,5.8c-0.2,1-0.2,2-0.1,3
					c0.9,3.2,1.8,6.4,3.3,9.4c1.5,3,3.3,5.5,5.4,8.2c0.3,0.4,0.3,0.3,0.5,0c0.1-0.3,0.1-0.7,0.2-1c0.1-1.2,0.1-2.3,0.1-3.5
					c0-1.8,0-3.6-0.1-5.4C385.3,341.1,385.4,340.2,384.8,339.6z"/>
				<path class="st1" d="M384.7,353c-0.9-1-1.8-2.1-2.7-3.1c0.1,0.1,0.2,0.3,0.3,0.4c-0.8-1.3-1.6-2.5-2.3-3.8
					c0.1,0.1,0.2,0.3,0.3,0.4c-0.9-1.7-1.6-3.6-1.9-5.5c-0.5-1.8-0.8-3.7-0.9-5.6c-0.1-0.6-0.3-0.6-0.5-0.1c-0.4,1.3-0.7,2.6-0.8,4
					c-0.4,2.6-0.7,5.2-1.1,7.8c-0.2,1.4-0.3,2.7-0.3,4.1c1.1,4.1,1.9,8.3,2.2,12.6c0.5,4,0.9,8,1.4,12.1c0.1,1.2,0.6,1.2,0.9,0.1
					c0.2-1.2,0.3-2.5,0.4-3.7c0.1-1.2,0.1-2.5,0.1-3.7c-0.2-5.3-0.4-10.5-0.8-15.8c-0.3-5.8-0.8-11.6-1.6-17.3
					c-0.9,5.3-1.8,10.6-2.7,15.8c1.4,3.9,2.9,7.6,5,11.2c1.5,2.5,3.2,4.5,5.1,6.8c0.4-0.5,0.5-1.1,0.4-1.8c0.1-2.2,0.1-4.4,0.1-6.6
					c0-2.2-0.1-4.4-0.2-6.6C385.2,354.1,385.1,353.5,384.7,353z"/>
				<path class="st1" d="M385.1,348.4c-0.9-1-1.8-2-2.7-3c0.1,0.1,0.2,0.3,0.3,0.4c-1.6-2.1-2.7-4.3-3.5-6.8
					c-0.7-2.4-1.2-4.9-1.3-7.4c-0.1-0.6-0.3-0.6-0.5-0.1c-0.4,1.2-0.7,2.4-0.8,3.7c-0.4,2.4-0.7,4.8-1,7.2c-0.2,1.3-0.3,2.5-0.2,3.8
					c1.6,4.2,2.5,8.5,2.8,13c0.3,1.2,0.6,2.3,1.1,3.4c0.1,0.3,1.2,0.2,1.1-0.2c-0.8-10.3-1.5-20.6-2.6-30.8
					c-0.8,4.9-1.7,9.7-2.5,14.6c1.3,3.9,2.6,7.6,4.8,11.1c1.5,2.4,3.1,4.4,5,6.6c0.4-0.5,0.5-1,0.4-1.6c0.1-2,0.1-4.1,0.1-6.1
					c0-2.1-0.1-4.1-0.2-6.1C385.6,349.4,385.4,348.9,385.1,348.4z"/>
				<path class="st1" d="M385.5,344.3c-0.9-1-1.8-2-2.7-3c0.1,0.1,0.2,0.2,0.3,0.4c-1.2-1.5-2.1-3.2-2.7-5c-1.3-2.9-1.9-5.9-1.9-9.2
					c-0.1-0.5-0.3-0.5-0.5-0.1c-0.4,1.1-0.6,2.2-0.7,3.4c-0.3,2.2-0.6,4.4-0.9,6.6c-0.2,1.2-0.3,2.3-0.2,3.5c1.3,2.5,2.1,5.2,2.4,8
					c0.5,2.8,1,5.5,1.4,8.3c0.1,0.5,0.7,0.3,0.9,0.1c0.4-0.3,0.3-1.5,0.2-1.9c-1.2-9.3-1.7-18.6-2.6-27.9c-0.8,4.5-1.6,9-2.4,13.5
					c1.2,3.9,2.4,7.6,4.6,11.1c1.5,2.4,3.1,4.4,4.9,6.6c0.4-0.4,0.5-0.9,0.4-1.5c0.1-1.9,0.1-3.8,0.1-5.7c0-1.9-0.1-3.8-0.2-5.7
					C386,345.2,385.8,344.7,385.5,344.3z"/>
				<path class="st1" d="M384.4,350.2c-0.9-1-1.8-2-2.7-3c0.1,0.1,0.2,0.3,0.3,0.4c-1.6-2.1-2.7-4.3-3.5-6.8
					c-0.8-2.4-1.2-4.9-1.3-7.4c-0.1-0.6-0.3-0.6-0.5-0.1c-0.4,1.2-0.7,2.5-0.8,3.8c-0.4,2.4-0.7,4.9-1,7.3c-0.2,1.3-0.3,2.6-0.2,3.8
					c1.5,4.5,2.4,9.2,2.8,13.9c0.3,1.5,0.6,3,1.2,4.5c0.1,0.4,0.6,0.3,0.8,0.1c0.4-0.3,0.3-1.3,0.2-1.7c-0.7-10.6-1.4-21.1-2.5-31.7
					c-0.8,5-1.7,9.9-2.5,14.9c1.4,4,2.8,7.8,5,11.4c1.6,2.6,2.8,4.1,4.8,6.4c0.4-0.5,0.5-1,0.4-1.7c0.1-2.1,0.1-4.2,0.1-6.3
					c0-2.1-0.1-4.2-0.2-6.3C385,351.2,384.8,350.7,384.4,350.2z"/>
				<path class="st1" d="M386.2,352.4c-0.9-1-1.8-2.1-2.7-3.1c0.1,0.1,0.2,0.3,0.3,0.4c-1.5-2.1-2.7-4.4-3.5-6.9
					c-0.8-2.4-1.2-4.9-1.4-7.4c-0.1-0.6-0.3-0.6-0.5-0.1c-0.4,1.3-0.7,2.7-0.8,4c-0.4,2.6-0.7,5.2-1.1,7.9c-0.2,1.4-0.3,2.7-0.3,4.1
					c1.2,4,1.9,8.1,2.2,12.3c0.4,3.8,0.9,7.7,1.4,11.5c0.1,1.1,0.6,1.1,0.9,0.1c0.6-2.1,0.6-4.7,0.5-6.8c-0.2-5.2-0.4-10.4-0.8-15.6
					c-0.3-5.8-0.8-11.6-1.5-17.4c-0.9,5.3-1.8,10.6-2.7,15.9c1.4,3.8,2.9,7.5,5,11c1.6,2.5,3.2,4.5,5.1,6.8c0.4-0.5,0.5-1.1,0.4-1.8
					c0.1-2.2,0.1-4.4,0.1-6.6c0-2.2-0.1-4.4-0.2-6.6C386.8,353.5,386.6,352.9,386.2,352.4z"/>
				<path class="st1" d="M384.8,346c-0.9-1-1.8-2-2.7-3c0.1,0.1,0.2,0.3,0.3,0.4c-1.6-2.1-2.7-4.3-3.4-6.8c-0.7-2.4-1.1-4.9-1.2-7.4
					c-0.1-0.5-0.3-0.6-0.5-0.1c-0.4,1.1-0.6,2.3-0.8,3.5c-0.3,2.3-0.6,4.5-0.9,6.8c-0.2,1.2-0.3,2.4-0.2,3.6
					c1.3,2.7,2.1,5.6,2.4,8.6c0.3,2.6,0.9,5.1,1.5,7.6c0.1,0.3,0.6,0.3,0.8,0.2c0.3-0.2,0.4-0.8,0.3-1.1c-1.1-9.6-1.7-19.3-2.7-29
					c-0.8,4.6-1.6,9.2-2.4,13.8c1.2,3.9,2.5,7.7,4.6,11.2c1.5,2.4,3.1,4.4,4.9,6.6c0.4-0.4,0.5-1,0.4-1.6c0.1-2,0.1-3.9,0.1-5.9
					c0-2-0.1-3.9-0.2-5.9C385.3,347,385.2,346.4,384.8,346z"/>
			</g>
		</g>
	</g>
	<path class="st2" d="M438.5,537.7c0,0,5.1-48.3,4.3-50.7s2.1-16.2,2.1-17.8c0-1.6-0.7-17.9,0.1-19.5c0.8-1.6,1.7-13,2.1-14.2
		c0.4-1.2,0.5-13.4,0.1-15.4c-0.4-2,2.9-16.6,2.9-16.6l0.1-17c0,0,0.1-1.6,0.4-3.5c0.5-2.6,1.3-5.8,2.8-6.2c2.6-0.8,9.9-2,13.5-3.4
		c3.6-1.4,11.1-7.3,13.6-9.9c2.5-2.7,10.8-18.9,13.5-23.8c2.7-4.9,5.9-13.9,6.9-16.6c1-2.8,2.5-6.9,2.1-13.4
		c-0.4-6.6-2.1-10.2-3.3-11.3c-1.2-1.1-5.2-3.6-10.1-2.4c-4.9,1.2-9.8,7.8-9.8,7.8l-14.7,26.3c0,0-3.4,5.3-3.9,6.3s-0.1-7.3-0.1-7.3
		s0.3-9.5,0.1-10.4c-0.3-0.9,0.9-12.7,0.7-14.3s0.8-16.8,0.7-18s-0.1-9.2,0.5-10.1c0.6-1,1-11.4,0.9-13.6
		c-0.1-2.2-0.9-11.3,0.2-13.9c1.1-2.5,1.1-21,0.6-23.6c-0.5-2.7-0.5-12.4,0.2-16s0.9-14.7-2.3-22.6c-3.2-7.9-7.1-12.7-9.6-13.1
		s-10.1-0.7-13.6,4.4s-9,16.1-9.3,32.3s-1,21.1-2.3,23.5c-1.3,2.4,0.3,27.4-0.4,29.6s0.6,21.1,0.3,23.3s-0.5,21.9-0.8,25.5
		c-0.2,3.5-3.2,24.8-3,26.3c0.2,1.5,0.6,16.2-0.5,18.4c-1.1,2.2-0.5,18.4,0.3,21.3c0.9,2.9,5.2,9.5,8.3,11.2
		c3.1,1.8,7.9,3.1,10.3,1.4s7.6-4.1,7.6-4.1"/>
	<path class="st2" d="M440.8,175.6c0,0-2.7-6.4-2.2-8.5c0.4-2.1,1-12.4,0.5-13.7c-0.5-1.3-0.6-14.8-0.9-17.6
		c-0.3-2.8,1.3-27.4,1-27.8c-0.3-0.4-1.2-17.1-1.6-19.6c-0.4-2.5-1.2-10.2-1.4-11.4c-0.2-1.2-2.8-10.6-4.4-13.5
		c-1.6-2.9-5.3-7-9.6-6c-4.3,1-8.8,7.3-10.3,9.8c-1.4,2.4-4.5,7.7-4.6,14.9c0,7.1-1.1,13.5-1.5,16.7s-1.2,27.8-1.2,30.2
		c0,2.5,2.4,14.7,1.1,18.2c-1.2,3.5,0.9,22.7,1.3,24.5c0.4,1.8-0.6,5.3-1.3,9c-0.6,3.7-0.1,11.2,0.1,14.3c0.2,3.1,0.1,16.7,0.7,18.2
		c0.6,1.4-0.7,27.8,0.2,37.8c1,10-1.5,15.3-1.5,15.3s-1.2,69.6,0.5,72.7c1.6,3.1-1.1,10-1.1,10"/>
	<path class="st2" d="M412.6,364.2c0,0-13.5-30.9-13.8-33.7c-0.3-2.8-6.5-24.9-6.5-24.9s-0.3-17.5-3-27c-2.8-9.5-4.4-28.7-6.1-31.9
		c-1.7-3.2-7.6-12.6-13.2-12.3c-5.6,0.3-10.5,1-11.9,4.5c-1.4,3.5-5.6,9.8-4.3,23.8c1.3,14,11.9,73.9,14,76.7
		c2.1,2.8,8,20.7,11.4,26c3.5,5.3,17.1,18.3,20.2,18.7c3.1,0.4,10.5-1.7,11.9-5.5C412.5,374.7,415,371.3,412.6,364.2z"/>
	<path class="st2" d="M393.8,312.4c0,0,0.7-3.3,1.4-4.7c0.7-1.3,0.3-10.9-0.2-13.2c-0.4-2.2-0.4-8.3-0.4-10.3c0-2,3.2-14.3,4.3-17.8
		c1.1-3.6,7.6-5.1,7.6-5.1s-4,8.7-3.7,14.7s0.2,19.3,0.2,22.5c0,3.2-0.7,9.8-1,13.1c-0.3,3.3,0,25.7,0,25.7"/>
	<path class="st2" d="M353.8,265.1c0,0-4.7-2.5-8.3,0.9c-3.6,3.3-7.6,8-7.2,12.7c0.4,4.7,1.6,29.3,5.2,37.1s8.8,27.5,18.6,40.3
		c9.8,12.8,10.6,16.6,18.4,19.7c7.8,3.2,11.4,3.6,11.4,3.6"/>
	<path class="st3" d="M426.3,383.1c0,0,6-17.3,9-23.2c3-5.9,8.2-39.6,8.2-44.3c0-4.6,4.3-110.1,4.3-111.8s-0.8-13.9,0.1-15.6
		c0.9-1.7,0.6-15.1,0.6-15.1s-7.1,20.7-6.1,24.7c1,4-1.4,76.8-1.4,76.8s-2.3,49.5-3.7,55.5c-1.4,6-11.6,36.9-11.6,39.3
		c0,2.4-1.7,8.5-1.7,8.5"/>
	<path class="st3" d="M450.8,172.7c0,0,2,11.9,1.9,14.7s0.1,38.4-0.2,38.8c-0.3,0.4-2.8,27.2-2.5,28.6c0.3,1.4-0.4,33.6-0.2,35
		c0.3,1.4-0.7,9.7-1,11.4c-0.3,1.7-1.5,27.2-2.2,29s-2.9,29.4-5,33.3c-2.1,3.9-9.1,23.7-9.4,24.1"/>
	<path class="st2" d="M446.5,173.6c0,0-5.2,11.5-5.2,15.3c-0.1,3.8-1.4,11.4-1.4,11.6c-0.1,0.2-0.1,31-0.5,32.7
		c-0.4,1.7-2.8,26.6-2.4,29.3s-1.2,38-0.8,39.7c0.4,1.7-1.3,11.7-1.3,12.1c0,0.4-2.1,20.9-2.8,22.8c-0.7,1.9-2,8.2-2,9.3
		s1,3.8,1,3.8"/>
	<path class="st2" d="M444.5,174.2c0,0-7.3,13.2-7.6,17.4c-0.3,4.2-1,29-1,29s0.1,17.4-0.1,18.2c-0.1,0.8-1.9,22.8-1.7,24.8
		c0.3,2-0.4,21.2-0.5,22.3s0.5,12.1,0.2,14.2s-1.8,17.4-1.9,18.2c-0.1,0.8-4.3,22.7-4.6,24.5c-0.3,1.8,0.1,8.4,0.9,10.4
		s0.7,3.9,0.7,3.9"/>
	<path class="st3" d="M452.4,173c0,0,4,15.7,3.6,20.1s-0.5,25.8-0.5,25.8s-0.5,20.3-0.5,20.5c0,0.2-0.1,25.8-0.6,26.7
		c-0.5,0.9-0.6,24.5-0.3,25.4c0.2,0.9-1,20.6-1,21.5s-1.5,17.7-1.5,17.7s-2.2,29.3-3,31.6c-0.9,2.3-4.2,17.6-6.6,19.4
		s-8.1,7.4-8.1,7.4"/>
	<path class="st3" d="M454.5,173.7c0,0,5.8,19.6,5.2,22.3c-0.6,2.7-1,32.9-1,33.2c0,0.2-1,37.3-1.1,38.1s-0.4,17.3-0.2,18.6
		c0.2,1.3,0.4,17.1,0,19.1c-0.4,2,0,13.7-0.7,14.6s-0.7,14.8-0.9,15c-0.1,0.2-1.2,17.8-1.7,20.6c-0.5,2.8-3.6,21.6-6.2,24.5
		s-5.6,5.8-5.6,5.8"/>
	<path class="st3" d="M454.6,374.6c0,0,2.4-13.1,2.9-19.9s1.9-26.8,1.8-29.3c-0.1-2.5,1.4-35,1-36.4c-0.4-1.4-0.9-7.8-0.5-8.8
		c0.4-1,0.3-27.3,0.7-29.4c0.4-2.1,1.1-22.4,1.1-24.7s-0.5-21.6-0.2-22.5c0.3-0.8,1-9.1,0.5-11c-0.5-2-4.5-16.2-5.6-17.3"/>
	<path class="st3" d="M439.6,177.6c0,0-8.1,30-7.4,34.3c0.7,4.3-0.3,29.7-0.6,30.3c-0.3,0.6-1.8,21.2-1.8,24
		c0,2.8,1.7,28.9,1.1,31.8c-0.6,2.9-5.3,36.8-4.9,39.2s-0.7,28.6-1.4,30c-0.7,1.4-1.3,2.8-1.3,2.8"/>
	<path class="st3" d="M460.6,356.2c0,0,5.1-2.9,6.3-4.6c1.1-1.8,14.1-21.3,15.7-24.2s11.1-31.1,11.1-31.1s0.8,21.1-8,34.2
		c-8.7,13.1-16.6,27.1-19.9,27.9c-3.3,0.9-3.3,0.9-3.3,0.9"/>
	<path class="st3" d="M460.1,364.7c0,0,5.4-2.9,8-4c2.7-1.1,11.4-11.3,11.4-11.3s9.2-15.7,11.7-20.2s4.5-12.7,5.4-16.4
		c0.9-3.8,1-13.8,0.3-14.9c-0.7-1.1-3.3-1.6-3.3-1.6"/>
	<path class="st3" d="M496.6,296.4c-0.1-0.2,4.4,5.5,2.8,14.3c-1.6,8.8-6.1,22.7-8.2,25.4c-2.1,2.7-10.4,19.9-15.7,23.9
		s-12.7,8.7-13.7,8.8"/>
	<path class="st3" d="M461.3,372.9c0,0,9.6-3.8,11.6-5.8c2-1.9,8.3-8.1,8.6-9.5c0.3-1.3,13.5-23.9,14.6-26.2
		c1.1-2.3,3.9-11.6,4.6-17c0.6-5.3-0.4-16.4-2.3-17.5"/>
	<path class="st3" d="M492.9,295.5c0,0-10.8,21.2-11.6,22.6c-0.7,1.4-4.3,9.4-4.8,10c-0.4,0.6-5.6,9.2-6.3,10.6
		c-0.7,1.4-6.4,8.7-7.5,10"/>
	<path class="st3" d="M491.2,295.4c0,0-5.3,5.3-7.3,9.7s-4.6,9.8-5.9,11.7c-1.2,1.9-5.2,8.8-6.2,10.8c-1,2-3.9,6.4-4.2,7.2
		c-0.3,0.8-3.9,8.4-5,8.9"/>
	<path class="st3" d="M487.2,296.5c0,0-6.6,9.7-9,14.6c-2.4,4.9-8,14.9-8.2,15.2s-4.7,8.4-5.1,9c-0.3,0.6-2.5,3.1-2.7,3.8"/>
	<path class="st3" d="M423.6,57.2c0,0,3.2,14.3,2.9,18c-0.3,3.6,1.5,17.7,1.3,19.3s1.5,18.2,0.6,19.8c-0.8,1.5-0.4,14.4-0.4,14.4
		s0.8,12.9,0.8,13.9c0,1,0.1,16.7,0.2,17.9c0.1,1.3-0.2,13.3-0.1,16.3c0.1,2.9,1.6,10.5,1.2,11.9c-0.4,1.4,1.4,9.3,1.4,9.3"/>
	<path class="st3" d="M436.2,184c0,0-1.7-19.5-1.7-20.9c0-1.4-0.1-9.5-0.1-11.1c0-1.5-0.2-7.1-0.6-13.3s0.4-16.4,0.4-17
		c0-0.6,0.6-9.5,0.6-10.5c0-1-0.6-16-1-18.1c-0.4-2.1-0.4-9.4-0.4-10.1c0-0.7-2.2-10.1-2.3-12.1c-0.1-2-1.5-7.3-1.8-8
		s-3.1-5.2-4.3-5.5c0,0,2.3,9,3.6,13.6c1.2,4.6,1.8,10.5,1.8,13.3c0,2.8,0.6,11.4,0.8,12.6s-0.4,19.2,0.2,21.4s-0.2,9.5-0.3,11.2
		c-0.1,1.7,1,15.3,0.6,17.2c-0.4,2-0.1,10.8,0.2,12.5c0.3,1.7,1.3,18.5,1.3,18.5l0.5,12.1"/>
	<path class="st3" d="M427,59.1c0,0,4.3,5.3,5.8,12.9c1.5,7.6,3.1,15.4,2.9,17.3s1.9,15.7,1.5,17.4s-1.3,28.4-1.1,30
		c0.1,1.5,0.2,9.7,0.2,10.7c0,1,0.2,8.8,0.4,10.7s0.2,7.1,0.2,8c0,0.8,0.4,6.3,0.5,7.4c0.1,1.1,0.8,5.9,0.8,5.9"/>
	<path class="st3" d="M422.2,57.4c0,0,1.1,16.6,1.6,19.4s0.6,7.3,0.6,11.5c0,4.2-0.7,21.2-0.3,24.4c0.5,3.3,0.1,13.9,0.1,14.8
		c0,0.9,1.3,24.5,1.3,26.9c0,2.5,0.7,21,1,24.5c0.3,3.4,0.7,14.5,0.8,19.3c0.1,4.8,0.2,22.1,1,25.1c0.8,3,0.6,6.4,0.6,6.4"/>
	<path class="st3" d="M421.1,57.9c0,0-1,9.5-0.2,13.2c0.7,3.7,0,20.1,0,20.1s0.1,9.4,0.2,13c0.1,3.6-1.1,25.3-0.6,27
		s1.2,11.2,1.5,16c0.3,4.8-0.6,11-0.7,11.6c-0.1,0.6,1.1,15.8,1.1,15.8s-0.2,21,0,23.7c0.2,2.7,1.2,30.5,1.2,30.5s1.7,40.5,1.6,43.9
		s-0.8,32.9-0.6,34.2c0.2,1.3,0,20.2,0.4,21.4"/>
	<path class="st3" d="M419.7,58.6c0,0-1.2,5.2-1.3,8.6c0,3.5,0.3,9.6-0.1,10.3s-0.8,8.5-0.8,10.6s0.8,9.2,0.5,13.5s-1.4,6.1-1.1,8
		s0.4,33.4,1.2,39.4s0.6,20.2,0.7,24c0.2,3.7-1.7,27-0.3,32.3c1.3,5.3-1.1,10-0.4,12.2c0.7,2.2,1.8,17.7,2,18.2
		c0.2,0.5-0.5,22.6,0.1,23.6c0.5,1,0.4,32.5,0.3,34c0,1.5-1.1,25.8-0.1,28.1c1,2.2-1.3,12.2-0.7,13.4s0,10,0.6,11.2
		s0.5,9.4,0.3,11.9c-0.2,2.6-2.3,14.4-2.3,15.1s-0.6,29,0.1,31.2s-0.9,14.8-0.9,17.5c0,2.7-1.4,6.7,0,9.9c1.3,3.2-1,32.2-1.2,34.2
		c-0.2,2-2.3,22.8-2.5,25.5c-0.2,2.7-0.9,27.5,0.5,31.7c1.4,4.2,0.8,10.4,1.1,11.2"/>
	<path class="st3" d="M416.7,61c0,0-0.3,6.9-0.6,10.2c-0.2,3.3-0.5,15.2-0.8,18.4s-1,18.5-0.7,21.2c0.3,2.8,0.7,41.5,1.2,46.7
		c0.5,5.2-0.9,19.8-0.5,22.1s0.6,11.5,0.2,13c-0.3,1.5-0.1,10.8,0.7,17c0.8,6.2-0.2,17.6,0,23.1s1.2,16.6,1.2,19s-2,7.8-1.4,13.5
		c0.6,5.7,0.7,18.9,0.7,18.9s-1.4,13.8-0.6,16.8c0.8,2.9,0.4,12.7,0.9,16.4c0.5,3.7-0.2,7.6-0.7,13c-0.5,5.4-1.8,8.9-0.5,11.7
		c1.3,2.8,0.3,12.2,0.7,14.5c0.5,2.3,0,9.9,0.1,10.9c0.2,1-2.3,13.7-2.2,17.2s-0.4,15.9-0.4,15.9s-0.2,14.5-0.1,17.6s0,4.9-1,8.9
		c-1,4.1-2.5,13.2-1.5,16.6c1,3.4,0.2,18.6,0.2,18.6s-2.1,21-2.9,23.3c-0.8,2.3-3.2,28.8-2.9,34.2s-0.1,13.5-0.1,13.5"/>
	<path class="st3" d="M414.8,63.3c0,0-4.4,21.5-4.3,26.1c0.1,4.5-0.2,12.2-0.1,13.4s-0.1,16.7-0.2,19.7c-0.1,3,0.4,7.7,0.9,10.5
		s0.7,2.7,0.8,10.1c0.1,7.4-0.7,9.6,0.4,16.1s-0.4,15.5,0.4,20c0.8,4.5,0.2,12.6-0.6,17.5c-0.8,5-0.3,11.7-0.1,13.8
		s2.4,31.4,2.4,32.8s-0.5,3.3-0.9,6.5c-0.4,3.2-0.7,15.1-0.5,19c0.2,3.9-0.9,9.3-0.6,12.9c0.3,3.7,1.1,6.7,0.8,7.8
		c-0.2,1.1-1.7,7.3-1.2,12.9c0.6,5.6,2.4,11.1,2.3,12.9s0.2,8.5,0,9.7c-0.2,1.2-2.1,10.1-1.9,14.1c0.2,4,0.9,11.3,0.9,14
		s-1.3,9.3-1.3,9.3"/>
	<path class="st3" d="M409.4,356.4c0,0,2.1-9,1.4-13.2c-0.7-4.1-0.4-12.3,0.3-16.2c0.8-3.9-2.1-26-2.2-29.3
		c-0.1-3.3,0.8-23,0.9-26.1c0-3,1.3-26.6,1-30.6s-0.4-23.8-0.8-26.3c-0.5-2.6-1.3-17.1-1.5-19.4c-0.2-2.3,1.3-11.3,1.2-13.3
		s0.2-8.8,0.1-11s-2.1-19.5-1.5-22.1c0.6-2.6,1.1-6.1,0.8-9.1c-0.4-3-1.8-12.3-1.9-13.5s1.8-39.7,2.2-43.2
		c0.4-3.5,2.8-17.2,4.1-18.5"/>
	<path class="st3" d="M405,261.5c0,0-1.7,1.4-2.6,4.4s-2,13.3-1.7,17.2c0.3,3.9-0.2,15.9-0.5,16.8c-0.3,0.9,0.9,7.9-1,11.5
		c-1.8,3.6-0.8,18.4-0.4,19.2"/>
	<path class="st3" d="M402.9,262.7c0,0-3.5,5.6-4.6,12.5s-1.7,14.3-1.1,17.5c0.6,3.2,0.2,11,0.1,11.9c-0.2,0.9-0.8,6.2-0.9,6.9
		c-0.2,0.8-0.5,6-0.5,6"/>
	<path class="st3" d="M406.7,382.6c0,0-0.4,4.5-1,8.3c-0.6,3.8,0.9,12.1,1.1,16c0.2,4,0.3,15-0.5,17.6c-0.8,2.6,1,7.7,1,7.7"/>
	<path class="st3" d="M402.7,384.4c0,0,0.1,13.6,0.5,16.4c0.4,2.8,0.5,10.3,0.5,10.3s1.7,8.3,0.7,13c-1,4.7,0.5,18,0.5,18
		s-1.1,12.8-1.5,17.8c-0.4,4.9,0.9,17.2,1.1,19.8c0.2,2.6-0.2,44.7-0.2,46.8"/>
	<path class="st3" d="M422.8,371.9c0,0-2.9,13.9-1,19.2c2,5.3,0.4,10.8,1.2,17.4c0.8,6.6,1,30.4,1.4,34.2c0.4,3.8,0.4,8.8-0.9,11.5
		c-1.3,2.6-1.7,28-1.7,31.5s-2.1,17.4-2.1,18.7c0,1.3-1.5,26-0.8,28.7"/>
	<path class="st3" d="M429.1,392.6c0,0,3.7,17.2,1.9,21c-1.8,3.7-2.3,12.6-2.3,15.6c0,3.1,1.6,26.7,1.4,31.1
		c-0.2,4.4-2.1,16.5-2.1,16.5s0.1,29.8,0.1,30.9c0,1.1-2,7.9-2.3,13.2c-0.2,5.3-1.2,9.9-1.2,9.9"/>
	<path class="st3" d="M432.4,531.6c0,0,1-23.2,1.7-27.6c0.7-4.4-0.4-16.1-0.1-17.4s3.1-41.4,2.6-44.3c-0.4-2.9-1.9-14.1-1-19.4
		c0.9-5.3,0.1-10.4,0.7-13.7s2.2-7,2.3-9.7"/>
	<path class="st3" d="M442.5,402.8c-0.4-0.7-0.5,13.9-1.4,16.8s-1.8,14.8-1.8,14.8s1.9,7.9,1.5,10.8c-0.5,2.9,0.2,11.5,0.2,12.8
		c0,1.3-1.4,19.6-1.9,22.9c-0.5,3.3-1.8,16.3-1.4,19.8s-0.6,30-0.6,29.1"/>
	<path class="st3" d="M445.4,404.4c0,0,0.4,10.1-0.5,12.1c-0.9,2-1.8,9-1.4,10.8c0.4,1.8,0.8,11.5,0.6,12.1s-1.4,12.1-2.7,13.2"/>
	<path class="st3" d="M382.5,305.9l-3-6.7c0,0-5.6-41.1-7.5-47.8c-1.9-6.7-4.9-16.7-4.9-16.7s0,7.5,2.6,30.6
		c2.7,23.1,12.7,64.8,13.6,68.1s8.2,25.9,8.8,27.3c0.5,1.4,11.3,15.6,13.8,17.6c2.5,2,4.5,1.6,4.5,1.6s2.1,7.9,0.9,13
		c-1.2,5.1-0.3,14.2-0.1,17.8s-2.8,16.2-2.8,16.2s-1,4.1-1,5.3c0,1.2-0.4,36.8,0,39.1c0.4,2.4,0.2,14.1,1.7,14.2"/>
	<path class="st3" d="M402.3,366.7c0,0,2.4-4.5,1.2-6c-1.2-1.5-12.5-29-12.5-30.2c0-1.2-4.6-49.8-6.1-54c-1.5-4.2-5.6-22.9-5.6-24.1
		c0-1.2-5-16.8-9.6-17.8c0,0,5.5,15,6.6,19.7s4.2,28.2,4.2,29.1s3.1,13.7,3.1,16.2s0.1,6.8,0.1,10c0,3.2,1.9,16.5,2.4,16.7
		s5.3,19.1,9.5,27.2c4.2,8.2,8.4,16.3,8.4,16.3l7.5,7"/>
	<path class="st3" d="M367,234.7c0,0-2.7,9.3-2.4,18.7s5.5,52.5,7,56.1c1.5,3.6,3.9,13,5,19c1.2,6,5,16.6,5.3,19
		c0.3,2.4,7.4,18.1,10.1,23c2.7,4.8,10.6,11,12.6,11.5"/>
	<path class="st2" d="M365,235c0,0-3.3,4.8-3.4,11.7c0,6.9,0.2,22.6,0.5,24.4c0.3,1.8,2.9,21.1,3.2,22.9s4.1,26.3,5,30.2
		s6.8,28.4,12.2,37.1s13.2,22.5,16.7,22.7c0,0,1.8,5,1.2,10.5s3.9,21.8,2.6,24.5c-1.2,2.8-2.8,10.7-1.6,14.7
		c1.2,4-0.6,25.1-0.2,30.4c0.4,5.3-0.6,31.6,0.2,35.3c0.8,3.7-0.7,17,0.3,20.1c1,3.1,1.2,12.9,0.3,14.6c-0.8,1.6-2.3,3.7-2.3,3.7"/>
	<path class="st3" d="M363.1,235.1c0,0-0.8,0.6-4.1,9.7c-3.4,9.1-0.3,33.4,0.1,34.3c0.4,0.9,2.7,10,3.3,12.6c0.6,2.6-0.7,11,1,13.6
		c1.7,2.6,3.9,13.7,4.8,19.4c0.9,5.6,3.7,25.7,7.5,32.2c3.8,6.5,8.5,14.2,8.5,14.2"/>
	<path class="st3" d="M350.1,264.4c0,0,3.2,7.7,4,10.3s2,7.6,2,7.6"/>
	<path class="st3" d="M351.9,264.6c0,0,2.1,3.3,2.2,4.3"/>
	<path class="st3" d="M348.7,264.3c0,0,3.8,16.2,4.4,20.9c0.6,4.6,3,17.9,2.3,21.2s2.9,13,4.7,17.1c1.8,4,3.4,3.4,3.4,3.4"/>
	<path class="st3" d="M347.5,264.5c0,0,2.4,22,2.8,24.6s1.9,13.9,3.4,16.6s1.8,4.3,1.8,4.3"/>
	<path class="st3" d="M346,265.1c0,0-0.3,14,1.1,19.7c1.4,5.7,1.5,10.7,1.5,12s-1.2,3.2-0.4,4.9s4.7,11.9,4.9,13.2s3,12.2,5.4,13.3
		s6,11.5,7.6,12s1.7,0.5,1.7,0.5"/>
	<path class="st3" d="M343.5,267.7c0,0-0.6,8.8-0.3,12.7s1,10.4,2.2,13.5s2.8,5.1,2.8,5.1"/>
	<path class="st3" d="M341.1,270.4c0,0-0.2,13.1,0.6,16.5c0.8,3.3,3.6,16.8,4.8,19.6s4.4,13.6,6.1,16.5c1.6,2.8,3.9,5.7,4.5,7.6
		s2.2,6.9,4.2,8.5s7.9,10.8,7.9,10.8"/>
	<path class="st3" d="M339.6,273.6c0,0,0.9,22.9,3.4,29.9c2.5,6.9,6.5,19.9,8.1,22.9c1.6,3.1,3.8,7.9,4.5,10.7
		c0.6,2.7,7.1,7.9,8.2,10.2c1.1,2.3,7.2,9.2,7.2,9.2"/>
	<path class="st3" d="M371.5,363c0,0-13-18.4-14.6-20.6c-1.6-2.1-11.2-26.3-12.1-28c-1-1.6-4-9.5-4-9.5"/>
</g>
</svg>
