<svg xmlns="http://www.w3.org/2000/svg" viewBox="0 0 531.58 97.82"><defs><style>.cls-1,.cls-2,.cls-3{fill:none;stroke:#000;stroke-miterlimit:10;}.cls-1{stroke-width:0.75px;}.cls-3{stroke-width:0.25px;}.cls-4{opacity:0.37;}.cls-10,.cls-5,.cls-6,.cls-8,.cls-9{opacity:0.11;}.cls-6{fill:#007ce7;}.cls-7{opacity:0.3;}.cls-8{fill:#00095c;}.cls-9{fill:#00a0e7;}.cls-10{fill:#006ae7;}</style></defs><title>sanj</title><g id="orca"><path class="cls-1" d="M387,344.66s5-.51,4.81-3.34" transform="translate(-122.33 -276.01)"/><path class="cls-1" d="M388.2,377.73" transform="translate(-122.33 -276.01)"/><path class="cls-2" d="M341.75,344.72s-58.54-15.61-65.79-14.5-24-30.67-28.44-37.91S232.47,275,229.68,276.69s1.67,14.5,2.79,16.73,4.46,29.55-1.67,32.9S201.25,338,194,340.26" transform="translate(-122.33 -276.01)"/><path class="cls-2" d="M600.37,341.33s-13.16-12.39-37.16-10.84-115.74,6.19-122.32,6.19-20.52-24.39-31.74-30.19-17.42-9.29-15.87-4.26,13.94,18.19,13.94,25.94-2.32,13.94-4.26,14.71" transform="translate(-122.33 -276.01)"/><path class="cls-2" d="M513.66,331.26s-13.16-22.84-15.48-31.74-13.94-24.77-17.42-21.68,3.87,6.58,2.32,16.26-5.81,24.77-11.61,27.87-36,5.42-39.1,7.35" transform="translate(-122.33 -276.01)"/><line class="cls-2" x1="106.97" y1="6.8" x2="110.25" y2="1.94"/><line class="cls-2" x1="107.34" y1="10.44" x2="112.44" y2="2.67"/><line class="cls-2" x1="108.31" y1="13.84" x2="114.14" y2="4.73"/><line class="cls-2" x1="110.14" y1="17.41" x2="116.93" y2="6.92"/><line class="cls-2" x1="111.1" y1="21.37" x2="119" y2="9.23"/><line class="cls-2" x1="111.1" y1="25.01" x2="120.82" y2="11.41"/><line class="cls-2" x1="111.59" y1="29.63" x2="123.12" y2="14.33"/><line class="cls-2" x1="111.95" y1="35.33" x2="125.8" y2="18.58"/><line class="cls-2" x1="112.44" y1="41.28" x2="128.71" y2="22.58"/><line class="cls-2" x1="110.74" y1="47.84" x2="130.41" y2="25.98"/><line class="cls-2" x1="107.09" y1="56.71" x2="133.45" y2="31.21"/><line class="cls-2" x1="111.83" y1="56.71" x2="135.39" y2="34.36"/><line class="cls-2" x1="116.81" y1="58.89" x2="137.09" y2="37.88"/><line class="cls-2" x1="120.33" y1="60.83" x2="139.64" y2="40.43"/><line class="cls-2" x1="123.73" y1="63.26" x2="141.58" y2="44.2"/><line class="cls-2" x1="127.13" y1="65.33" x2="136.72" y2="56.34"/><line class="cls-2" x1="137.94" y1="53.06" x2="142.92" y2="46.38"/><line class="cls-2" x1="140.73" y1="52.82" x2="144.13" y2="48.21"/><line class="cls-2" x1="142.8" y1="54.4" x2="146.56" y2="50.39"/><line class="cls-2" x1="139.69" y1="58.53" x2="129.64" y2="68.01"/><line class="cls-2" x1="149.17" y1="52.85" x2="132.26" y2="69.47"/><line class="cls-2" x1="135.47" y1="70.92" x2="152.52" y2="54.6"/><line class="cls-2" x1="158.06" y1="55.03" x2="141.59" y2="71.65"/><line class="cls-2" x1="163.02" y1="55.18" x2="149.02" y2="71.8"/><line class="cls-2" x1="166.66" y1="55.91" x2="156.02" y2="70.92"/><line class="cls-2" x1="171.91" y1="57.22" x2="161.85" y2="71.07"/><line class="cls-2" x1="177.01" y1="57.51" x2="168.27" y2="70.78"/><line class="cls-2" x1="180.66" y1="59.55" x2="173.81" y2="70.78"/><line class="cls-2" x1="184.45" y1="60.14" x2="178.47" y2="71.36"/><line class="cls-2" x1="190.13" y1="61.3" x2="182.26" y2="71.8"/><line class="cls-2" x1="194.51" y1="62.03" x2="188.24" y2="70.49"/><line class="cls-2" x1="197.71" y1="62.61" x2="192.32" y2="70.34"/><line class="cls-2" x1="200.46" y1="64.06" x2="196.32" y2="70.73"/><line class="cls-2" x1="204.2" y1="65.08" x2="201.07" y2="71.14"/><line class="cls-2" x1="208.95" y1="66.39" x2="205.01" y2="71.44"/><line class="cls-2" x1="212.08" y1="66.79" x2="209.66" y2="70.43"/><line class="cls-2" x1="215.11" y1="67.6" x2="212.99" y2="70.53"/><line class="cls-2" x1="217.74" y1="68.11" x2="215.82" y2="70.63"/><path class="cls-2" d="M214.81,333.77s6.58-7.06,22.66,2.44,18.76,11.94,18.76,11.94" transform="translate(-122.33 -276.01)"/><path class="cls-2" d="M166.35,342.31s25.39-4.76,36.77-2.12,19.84,4.5,26.19,5,30.88,2.81,37.13,3.5,66.64-.3,72.8-2.09" transform="translate(-122.33 -276.01)"/><path class="cls-2" d="M406.2,342.52s36.41-.79,43.66-.4,69.65,2.77,76,2.64S598.53,346,600.91,343" transform="translate(-122.33 -276.01)"/><line class="cls-3" x1="260.59" y1="69.78" x2="304.03" y2="68.29"/><line class="cls-3" x1="261.85" y1="71.27" x2="300.38" y2="69.67"/><line class="cls-3" x1="272.36" y1="72.29" x2="290.09" y2="71.61"/><line class="cls-3" x1="308.9" y1="71.74" x2="324.76" y2="70.83"/><line class="cls-3" x1="315.58" y1="73.05" x2="328.56" y2="72.4"/><line class="cls-3" x1="324.76" y1="74.23" x2="329.47" y2="73.71"/><line class="cls-3" x1="327.11" y1="69.38" x2="353.46" y2="69.38"/><line class="cls-3" x1="329.34" y1="70.96" x2="352.41" y2="70.96"/><line class="cls-3" x1="335.37" y1="72.4" x2="348.87" y2="72.66"/><line class="cls-3" x1="227.55" y1="67.93" x2="265.79" y2="67.26"/><line class="cls-3" x1="232.23" y1="69.49" x2="261.89" y2="68.83"/><line class="cls-3" x1="237.25" y1="70.83" x2="258.54" y2="70.72"/><line class="cls-3" x1="226.76" y1="73.95" x2="247.28" y2="73.84"/><line class="cls-3" x1="236.47" y1="72.73" x2="245.72" y2="72.62"/><line class="cls-3" x1="255.09" y1="73.29" x2="266.01" y2="73.29"/><line class="cls-3" x1="188.71" y1="58.33" x2="221.23" y2="57.28"/><line class="cls-3" x1="187.77" y1="56.87" x2="221.86" y2="55.92"/><line class="cls-3" x1="194.17" y1="55.4" x2="208.96" y2="54.77"/><line class="cls-3" x1="215.98" y1="58.65" x2="264.86" y2="58.65"/><line class="cls-3" x1="223.22" y1="56.87" x2="259.93" y2="57.39"/><line class="cls-3" x1="224.17" y1="55.5" x2="242.1" y2="55.5"/><line class="cls-3" x1="246.45" y1="65.09" x2="266.59" y2="64.37"/><line class="cls-3" x1="269.11" y1="58.26" x2="282.54" y2="58.49"/><line class="cls-3" x1="265.64" y1="57.42" x2="280.26" y2="56.94"/><line class="cls-3" x1="97.52" y1="75.6" x2="136.76" y2="75.6"/><line class="cls-3" x1="102" y1="73.7" x2="134.35" y2="73.19"/><line class="cls-3" x1="93.05" y1="72.5" x2="125.4" y2="72.33"/><line class="cls-3" x1="98.56" y1="70.95" x2="116.97" y2="71.29"/><line class="cls-3" x1="69.13" y1="68.71" x2="83.58" y2="68.71"/><line class="cls-3" x1="61.04" y1="67.16" x2="86.34" y2="66.99"/><line class="cls-3" x1="64.48" y1="65.62" x2="79.97" y2="65.27"/><line class="cls-3" x1="64.45" y1="78.65" x2="82.49" y2="79.06"/><line class="cls-3" x1="67.94" y1="77.21" x2="78.8" y2="76.8"/><line class="cls-3" x1="82.29" y1="74.75" x2="88.44" y2="74.75"/><line class="cls-3" x1="81.73" y1="73.26" x2="87.47" y2="73.26"/><line class="cls-3" x1="77.52" y1="72.02" x2="88.62" y2="72.02"/><line class="cls-3" x1="10.26" y1="67.14" x2="41.44" y2="67.14"/><line class="cls-3" x1="13.57" y1="69.63" x2="32.61" y2="69.63"/><line class="cls-3" x1="5.3" y1="63.56" x2="49.99" y2="63.28"/><line class="cls-3" x1="13.97" y1="65.62" x2="43.26" y2="65.85"/><line class="cls-3" x1="3.16" y1="66.53" x2="8.79" y2="66.41"/><line class="cls-3" y1="64.84" x2="9.92" y2="64.61"/><line class="cls-3" x1="478.44" y1="63.11" x2="502.97" y2="62.69"/><line class="cls-3" x1="475.9" y1="59.73" x2="507.21" y2="60.15"/><line class="cls-3" x1="471.46" y1="57.4" x2="506.15" y2="57.19"/><line class="cls-3" x1="481.4" y1="65.65" x2="493.03" y2="65.44"/><line class="cls-3" x1="484.99" y1="67.56" x2="497.05" y2="67.56"/><line class="cls-3" x1="484.15" y1="70.31" x2="501.92" y2="70.73"/><line class="cls-3" x1="508.47" y1="62.9" x2="521.17" y2="63.33"/><line class="cls-3" x1="509.03" y1="60.93" x2="531.58" y2="60.93"/><line class="cls-3" x1="391.6" y1="46.95" x2="415.45" y2="47.21"/><line class="cls-3" x1="433.26" y1="45.12" x2="440.93" y2="44.74"/><line class="cls-3" x1="387.11" y1="42.6" x2="397.3" y2="42.35"/><line class="cls-3" x1="385.35" y1="39.71" x2="392.27" y2="39.83"/><line class="cls-3" x1="383.97" y1="37.7" x2="389.63" y2="37.57"/><line class="cls-3" x1="387.61" y1="44.74" x2="402.58" y2="44.11"/><line class="cls-3" x1="398.55" y1="45.62" x2="402.58" y2="45.62"/><line class="cls-3" x1="307.1" y1="47.5" x2="321.87" y2="47.5"/><line class="cls-3" x1="311.4" y1="42.19" x2="324.45" y2="42.19"/><line class="cls-3" x1="269.04" y1="44.76" x2="274.6" y2="44.55"/><line class="cls-3" x1="274.6" y1="49.25" x2="280.38" y2="49.25"/><line class="cls-3" x1="271.82" y1="51.18" x2="278.88" y2="51.18"/><line class="cls-3" x1="191.6" y1="49.04" x2="201.87" y2="49.04"/><line class="cls-3" x1="144.11" y1="41.77" x2="150.52" y2="41.98"/><line class="cls-3" x1="134.48" y1="26.79" x2="141.33" y2="26.79"/><line class="cls-3" x1="137.05" y1="28.72" x2="143.47" y2="28.29"/><line class="cls-3" x1="102.61" y1="22.94" x2="108.81" y2="22.73"/><line class="cls-3" x1="99.4" y1="19.52" x2="110.73" y2="19.52"/><line class="cls-3" x1="178.85" y1="85.1" x2="196.56" y2="84.23"/><line class="cls-3" x1="189.3" y1="88.87" x2="206.44" y2="88.29"/><line class="cls-3" x1="199.47" y1="85.39" x2="207.89" y2="85.39"/><line class="cls-3" x1="209.6" y1="87.9" x2="217.12" y2="87.39"/><line class="cls-3" x1="182.46" y1="86.7" x2="196.46" y2="86.7"/><line class="cls-3" x1="167.43" y1="87.39" x2="180.24" y2="87.73"/><line class="cls-2" x1="272.2" y1="27.12" x2="274.99" y2="24.79"/><line class="cls-2" x1="273.36" y1="31.55" x2="278.72" y2="26.66"/><line class="cls-2" x1="275.22" y1="33.75" x2="281.86" y2="27.92"/><line class="cls-2" x1="276.5" y1="35.73" x2="284.66" y2="29.2"/><line class="cls-2" x1="278.13" y1="38.06" x2="286.81" y2="30.48"/><line class="cls-2" x1="279.53" y1="40.62" x2="289.32" y2="32.35"/><line class="cls-2" x1="281.16" y1="42.6" x2="291.77" y2="34.21"/><line class="cls-2" x1="283.03" y1="45.63" x2="294.21" y2="37.01"/><line class="cls-2" x1="283.73" y1="47.85" x2="296.08" y2="38.87"/><line class="cls-2" x1="284.66" y1="51.57" x2="298.99" y2="41.09"/><line class="cls-2" x1="284.54" y1="55.07" x2="300.97" y2="43.53"/><line class="cls-2" x1="284.31" y1="59.96" x2="303.07" y2="46.33"/><line class="cls-2" x1="282.68" y1="64.86" x2="305.4" y2="48.89"/><line class="cls-2" x1="285.01" y1="66.6" x2="307.5" y2="51.57"/><line class="cls-2" x1="293.52" y1="66.72" x2="310.18" y2="55.07"/><line class="cls-2" x1="301.55" y1="66.37" x2="312.74" y2="57.63"/><line class="cls-2" x1="308.43" y1="66.02" x2="315.3" y2="59.38"/><line class="cls-2" x1="316.35" y1="65.09" x2="319.96" y2="61.01"/><line class="cls-2" x1="318.68" y1="65.67" x2="322.3" y2="61.59"/><line class="cls-2" x1="321.36" y1="66.02" x2="326.49" y2="60.9"/><line class="cls-2" x1="326.02" y1="66.37" x2="331.73" y2="60.66"/><line class="cls-2" x1="330.57" y1="66.6" x2="337.21" y2="59.96"/><line class="cls-2" x1="335.46" y1="66.6" x2="342.45" y2="60.08"/><line class="cls-2" x1="341.17" y1="67.07" x2="348.86" y2="59.85"/><line class="cls-2" x1="346.76" y1="67.3" x2="353.99" y2="59.26"/><line class="cls-2" x1="352.24" y1="67.3" x2="359" y2="59.15"/><line class="cls-2" x1="357.48" y1="67.42" x2="364.24" y2="58.45"/><line class="cls-2" x1="362.14" y1="67.3" x2="368.67" y2="58.33"/><line class="cls-2" x1="367.15" y1="67.65" x2="373.45" y2="58.45"/><line class="cls-2" x1="371.23" y1="68" x2="377.87" y2="57.87"/><line class="cls-2" x1="375.54" y1="67.77" x2="381.84" y2="58.1"/><line class="cls-2" x1="378.69" y1="67.89" x2="385.68" y2="57.17"/><line class="cls-2" x1="383.23" y1="65.44" x2="387.89" y2="57.63"/><line class="cls-2" x1="385.8" y1="65.67" x2="390.46" y2="58.1"/><line class="cls-2" x1="389.41" y1="65.91" x2="394.19" y2="57.75"/><line class="cls-2" x1="392.9" y1="65.21" x2="397.68" y2="57.05"/><line class="cls-2" x1="396.98" y1="65.09" x2="401.99" y2="57.28"/><line class="cls-2" x1="397.8" y1="68.35" x2="406.3" y2="56.35"/><line class="cls-2" x1="405.49" y1="65.09" x2="411.66" y2="56.35"/><line class="cls-2" x1="410.38" y1="64.51" x2="416.09" y2="56.58"/><line class="cls-2" x1="415.98" y1="64.51" x2="421.45" y2="55.89"/><line class="cls-2" x1="420.64" y1="64.39" x2="425.41" y2="55.65"/><line class="cls-2" x1="423.78" y1="64.86" x2="429.38" y2="55.42"/><line class="cls-2" x1="428.56" y1="64.74" x2="434.15" y2="54.95"/><line class="cls-2" x1="433.57" y1="64.27" x2="439.98" y2="54.72"/><line class="cls-2" x1="439.4" y1="63.58" x2="445.11" y2="54.84"/><line class="cls-2" x1="445.22" y1="60.55" x2="448.72" y2="54.95"/><line class="cls-2" x1="448.25" y1="62.06" x2="452.68" y2="55.07"/><line class="cls-2" x1="442.31" y1="65.79" x2="439.75" y2="68.7"/><line class="cls-2" x1="446.27" y1="66.84" x2="445.34" y2="68.47"/><line class="cls-2" x1="455.94" y1="56.12" x2="448.37" y2="68.94"/><line class="cls-2" x1="459.44" y1="57.05" x2="453.26" y2="68.82"/><line class="cls-2" x1="463.75" y1="57.4" x2="458.5" y2="68.35"/><line class="cls-2" x1="467.71" y1="58.33" x2="462.58" y2="67.89"/><line class="cls-2" x1="471.21" y1="60.43" x2="467.48" y2="67.65"/><line class="cls-2" x1="474.35" y1="61.94" x2="471.09" y2="68"/><line class="cls-2" x1="477.5" y1="64.16" x2="475.4" y2="67.54"/><line class="cls-2" x1="311.42" y1="53.73" x2="321.13" y2="60.3"/><line class="cls-2" x1="317.58" y1="54.15" x2="325.92" y2="60.16"/><line class="cls-2" x1="323.73" y1="53.73" x2="330.43" y2="59.62"/><line class="cls-2" x1="329.2" y1="53.46" x2="335.36" y2="59.34"/><line class="cls-2" x1="334.67" y1="54.69" x2="339.46" y2="59.62"/><line class="cls-2" x1="347.8" y1="46.62" x2="355.19" y2="53.32"/><line class="cls-2" x1="351.2" y1="45.3" x2="363.1" y2="56.53"/><line class="cls-2" x1="353.47" y1="41.82" x2="367.24" y2="55.72"/><line class="cls-2" x1="354.81" y1="38.34" x2="371.92" y2="55.19"/><line class="cls-2" x1="356.55" y1="33.8" x2="377.8" y2="55.19"/><line class="cls-2" x1="358.42" y1="30.32" x2="379.94" y2="52.52"/><line class="cls-2" x1="358.82" y1="25.24" x2="387.16" y2="55.19"/><line class="cls-2" x1="360.82" y1="22.57" x2="387.16" y2="49.71"/><line class="cls-2" x1="360.75" y1="18.09" x2="382.48" y2="39.95"/><line class="cls-2" x1="360.82" y1="14.28" x2="378.07" y2="30.06"/><line class="cls-2" x1="360.02" y1="10.54" x2="375.53" y2="21.63"/><line class="cls-2" x1="358.55" y1="6.26" x2="371.39" y2="13.48"/><line class="cls-2" x1="357.75" y1="2.65" x2="367.24" y2="7.73"/><path class="cls-2" d="M452.66,326.23s5.21,8.37,15.62,8.74,17.29-1.86,11.53-3.9-23.05-6.51-23.05-6.51" transform="translate(-122.33 -276.01)"/><g class="cls-4"><path class="cls-5" d="M232.16,287.65a26.71,26.71,0,0,1,8.62,7.42l2,3.38a88.34,88.34,0,0,1,2.92,13.21l.71,3.43c1.68,7.15,5.64,13.06,12.67,15.91,4.17,1.69,8.57,2.43,12.87,3.69,4.07,1.19,7.69,3.24,11.44,5.18,10.46,5.42,23.15,4.58,34.53,4.23.32,0-2.13-4.36-2.06-4.24-.25-.43-1.81-3.86-2.71-3.85-6.84.07-13.79.26-20.54-1l-5.29-1.17a21.34,21.34,0,0,1-8.2-3.58,67.42,67.42,0,0,0-11.4-4.85c-4.29-1.41-8.51-2.56-12-5.57-7-6-7.85-15.43-10.83-23.61a35.52,35.52,0,0,0-5.37-9.76c-2.52-3.24-5.89-5.67-9.21-8a1.18,1.18,0,0,0-.09,1q.28,1.83.67,3.65C231,284,231.23,287,232.16,287.65Z" transform="translate(-122.33 -276.01)"/><path class="cls-5" d="M233.54,291.1a25.46,25.46,0,0,1,4.93,3.67,20.19,20.19,0,0,1,4.07,4.35l-.22-.33a19.33,19.33,0,0,1,3.06,6.46l.78,3.27c.79,3.53,1.21,7.11,2.13,10.62a26.72,26.72,0,0,0,4.43,9.77A21,21,0,0,0,263,335.69c4.16,1.32,8.62,1.79,12.68,3.4,3.84,1.53,7.24,4,11,5.53,10.34,4.22,21.63,3.72,32.56,3.44a2.21,2.21,0,0,0-.52-1.37q-1.38-2.33-2.86-4.6t-3-4.51a2.21,2.21,0,0,0-1-1c-6.39-.25-12.87-.44-19.14-1.81l-5-1.22a20.72,20.72,0,0,1-7.84-3.64A67.33,67.33,0,0,0,269.66,325c-3.61-1.37-7.09-2.33-10.09-4.85-6-5.07-7.79-13.75-10.75-20.7a57.62,57.62,0,0,0-5.55-10.29c-3.19-4.63-7.35-8.14-11.87-11.41a2.16,2.16,0,0,0-.07,1.45q.33,2.66.77,5.29t.93,5.27A2.16,2.16,0,0,0,233.54,291.1Z" transform="translate(-122.33 -276.01)"/><path class="cls-5" d="M232.32,287.05a29.55,29.55,0,0,1,6.09,4.1,19.42,19.42,0,0,1,5.13,9.2c.85,3.25.95,6.7,1.46,10,1,6.29,2.86,12.3,8,16.51,3.69,3,8.08,4.22,12.6,5.36A53.88,53.88,0,0,1,278,336q3.64,1.94,7.36,3.73c10.48,4.42,22.26,3.52,33.33,3,.46,0-.86-2.56-.83-2.5-.19-.37-.83-2.19-1.5-2.16a135.61,135.61,0,0,1-19,0,36.73,36.73,0,0,1-8-1.36A65.25,65.25,0,0,1,279,332.39a50.59,50.59,0,0,0-9.93-3.87c-6.75-1.81-13.78-3.08-18.36-9.47-4.08-5.69-4.61-12.72-6-19.34a29.31,29.31,0,0,0-2.17-6.78c-2.4-4.86-6.3-8-10.71-10.84-.66-.43-.31,1.28-.3,1.34q.18,1.21.43,2.41A3,3,0,0,0,232.32,287.05Z" transform="translate(-122.33 -276.01)"/><path class="cls-5" d="M232,292.77a33.16,33.16,0,0,1,6.49,5.06l-.28-.32,2.83,3.35-.27-.33a21.78,21.78,0,0,1,3.78,9.75l.62,3.35c.45,2.43.89,4.87,1.51,7.26a26.21,26.21,0,0,0,4.48,9.76,21,21,0,0,0,10.33,6.74c4.17,1.29,8.62,1.73,12.67,3.36,3.85,1.55,7.24,4,11.07,5.58,10.31,4.2,21.59,3.64,32.49,3.36a2.41,2.41,0,0,0-.77-1.33q-1.8-2.21-3.68-4.34t-3.8-4.24a2.41,2.41,0,0,0-1.22-.94A117.8,117.8,0,0,1,289,336.06l-5-1.36a22.08,22.08,0,0,1-7.82-3.85c-3.13-1.94-6.42-3.67-9.71-5.35q-2.78-1.36-5.55-2.76a19.08,19.08,0,0,1-3.64-2.89c-3-2.76-4.72-6.4-6.43-10s-3.15-7.09-5-10.54a62.2,62.2,0,0,0-6.14-9.64,57,57,0,0,0-12.13-11.14,2.56,2.56,0,0,0,.16,1.58q.76,2.84,1.62,5.66t1.77,5.61A2.56,2.56,0,0,0,232,292.77Z" transform="translate(-122.33 -276.01)"/><path class="cls-5" d="M232.55,288.67a33.68,33.68,0,0,1,6.41,5l-.23-.26,2.79,3.28-.23-.27a19.26,19.26,0,0,1,3.07,6.49l.78,3.29c.74,3.4,1.15,6.86,2,10.25a33.53,33.53,0,0,0,2.54,7,18.94,18.94,0,0,0,10.12,9c4.12,1.67,8.47,2.4,12.71,3.66,4,1.2,7.62,3.28,11.35,5.2,10.47,5.39,23,4.63,34.37,4.33a1.7,1.7,0,0,0-.4-1.2q-1.14-2-2.38-4t-2.51-3.91a1.7,1.7,0,0,0-.9-.89c-7.56-.1-15.06-.32-22.45-2a30.62,30.62,0,0,1-9.11-3.29,61.35,61.35,0,0,0-9-4.54c-4.33-1.74-9.22-2.76-13.06-5.52-4.9-3.53-7.07-9.2-9.11-14.63l.12.32c-1.92-5.8-3.73-11.91-7.23-17a47.37,47.37,0,0,0-11.87-11.57,1.65,1.65,0,0,0-.06,1.25q.34,2.26.8,4.5t1,4.47A1.65,1.65,0,0,0,232.55,288.67Z" transform="translate(-122.33 -276.01)"/><path class="cls-5" d="M232.06,297.55l3.47,2.38-.32-.25a21.23,21.23,0,0,1,4.33,4.24,15.66,15.66,0,0,1,3.17,4.89l-1.28-3.11,2.28,6.2-.92-3.2q1.48,5.68,2.46,11.47.42,2.58,1,5.12a34.38,34.38,0,0,0,1.84,5.42,21.37,21.37,0,0,0,5.5,7.54c3.32,2.94,8.08,4.13,12.26,5.12a53.57,53.57,0,0,1,10.34,3.09c3.13,1.44,6,3.28,9.17,4.72,4.82,2.2,10.72,3.08,16,3.36,5.56.3,11.12.13,16.68,0a2,2,0,0,0-1-1q-1.46-1-3-2-1.87-1.24-3.76-2.42a16.78,16.78,0,0,0-2.7-1.53l-5.39-.78.38.07a118.36,118.36,0,0,1-12.73-2.72q-2.46-.69-4.88-1.48a35.72,35.72,0,0,1-7.22-2.87l.34.2c-2.15-1.47-4.28-3-6.45-4.45-2.74-1.81-5.43-3.73-8.21-5.49a15.68,15.68,0,0,1-4.51-3.13l-2.36-2.12q-2-2.71-3.82-5.58-1.23-2.59-2.63-5.08-1.51-2.68-2.8-5.46-1.55-2.63-3.21-5.19a52.84,52.84,0,0,0-4.35-6,55.75,55.75,0,0,0-5.49-5.88,97.64,97.64,0,0,0-8.21-6.53,2.24,2.24,0,0,0,.36,1.43q1.1,2.5,2.29,5t2.43,4.89A2.24,2.24,0,0,0,232.06,297.55Z" transform="translate(-122.33 -276.01)"/><path class="cls-5" d="M231.29,294.74a32.94,32.94,0,0,1,6.52,5.1l-.31-.28a14.17,14.17,0,0,1,4.7,9.58,37.14,37.14,0,0,1,2.74,10,43.24,43.24,0,0,0,2.62,8.85,21.4,21.4,0,0,0,5.48,7.5c3.27,2.91,8,4.12,12.11,5.09a53.43,53.43,0,0,1,10.27,3.07c3.13,1.43,6,3.28,9.17,4.72,4.78,2.19,10.69,3,15.89,3.33,5.53.29,11.06.11,16.59,0a2.13,2.13,0,0,0-.85-1.16q-1.92-1.83-3.92-3.58t-4-3.46a2.13,2.13,0,0,0-1.25-.71,127.49,127.49,0,0,1-19.67-3.33,48.08,48.08,0,0,1-9.79-3.44q-3.18-2.09-6.42-4.08c-3-1.77-6-3.51-9-5.25a18.82,18.82,0,0,1-4.94-3.42,16.52,16.52,0,0,1-4.22-5c-2.76-4.18-4.56-8.82-6.87-13.25-1.19-2.27-2.46-4.55-3.81-6.72a53.6,53.6,0,0,0-6.67-8.69,66.83,66.83,0,0,0-9.87-8.11,2.41,2.41,0,0,0,.31,1.51q1,2.66,2.12,5.28t2.26,5.22A2.41,2.41,0,0,0,231.29,294.74Z" transform="translate(-122.33 -276.01)"/><path class="cls-5" d="M234,288.21a26.87,26.87,0,0,1,8.67,7.41,18,18,0,0,1,3,6.52c.86,3.34,1.21,6.77,1.82,10.16a35.32,35.32,0,0,0,3.07,10.09,19,19,0,0,0,6.51,7.27c4.44,3,9.61,3.7,14.69,5l4.12,1.17a63.2,63.2,0,0,1,7.62,3.64,30.74,30.74,0,0,0,8.64,3.51l5.45,1.11c7.28,1.22,14.86.69,22.19.44.37,0-1.76-4.46-1.71-4.34-.17-.35-1.55-4-2.38-4-6.76.18-13.68.52-20.38-.66l-5.3-1.11a21,21,0,0,1-8.17-3.46,56.13,56.13,0,0,0-11.38-4.63c-4.32-1.23-8.66-2.09-12.25-4.94-7.42-5.87-8-15.54-10.74-23.88a35.07,35.07,0,0,0-5.27-10.18c-2.49-3.31-5.8-5.73-9.16-8.07a1.1,1.1,0,0,0-.19,1q.1,1.77.31,3.53C233.18,284.48,233.12,287.67,234,288.21Z" transform="translate(-122.33 -276.01)"/><path class="cls-5" d="M232.8,296.21a32.66,32.66,0,0,1,6.5,5.06L239,301l2.82,3.36-.27-.33c3.29,5.82,3.63,10.51,4.83,16.49a42.65,42.65,0,0,0,2.57,8.88,21.42,21.42,0,0,0,5.48,7.53c3.31,2.95,8.05,4.16,12.23,5.15a54,54,0,0,1,10.34,3c3.12,1.43,6,3.26,9.15,4.69,4.81,2.2,10.72,3.07,15.95,3.35,5.56.29,11.12.1,16.68-.05a2.4,2.4,0,0,0-.91-1.24q-2-2-4.14-3.89t-4.25-3.77a2.4,2.4,0,0,0-1.31-.8,134.07,134.07,0,0,1-18.92-3.57l-4.86-1.44a21.39,21.39,0,0,1-7.59-4q-4.29-2.92-8.78-5.5a36.1,36.1,0,0,0-5-2.51,21.77,21.77,0,0,1-3.47-2.59c-3.09-2.63-4.86-6.28-6.65-9.85s-3.55-7.43-5.61-11a70,70,0,0,0-6.78-9.85,63.34,63.34,0,0,0-12.35-11.16,2.61,2.61,0,0,0,.2,1.59q.83,2.86,1.76,5.68T232,294.8A2.61,2.61,0,0,0,232.8,296.21Z" transform="translate(-122.33 -276.01)"/><path class="cls-5" d="M231.8,290.57a33.38,33.38,0,0,1,6.46,5l-.26-.3,2.82,3.32-.25-.3a19.51,19.51,0,0,1,3.07,6.48l.78,3.28c.75,3.4,1.16,6.85,2,10.23A27.32,27.32,0,0,0,251,328.41a21,21,0,0,0,10.23,6.73c4.15,1.31,8.58,1.8,12.62,3.42,3.85,1.54,7.25,4,11.08,5.56,10.31,4.21,21.61,3.69,32.51,3.43a2.09,2.09,0,0,0-.61-1.29q-1.51-2.15-3.11-4.23t-3.24-4.13a2.09,2.09,0,0,0-1.08-.93,116.72,116.72,0,0,1-19.55-2.18,48.07,48.07,0,0,1-10-3.14,64.52,64.52,0,0,0-6.6-3.86q-3.34-1.69-6.75-3.22-3.08-1.25-6.06-2.73a22.86,22.86,0,0,1-8.86-9.81c-3.36-6.5-5.22-13.69-9.09-20-3.67-5.95-8.58-10.46-14.24-14.51a2.14,2.14,0,0,0,.08,1.44q.6,2.59,1.3,5.16t1.46,5.12A2.14,2.14,0,0,0,231.8,290.57Z" transform="translate(-122.33 -276.01)"/><path class="cls-5" d="M233.55,293.72a25.32,25.32,0,0,1,5,3.72,20.54,20.54,0,0,1,4.06,4.37l-.24-.35a18.86,18.86,0,0,1,3,6.44l.75,3.25c.51,2.37.86,4.79,1.35,7.16a40.25,40.25,0,0,0,3.22,10.12,19.08,19.08,0,0,0,10.29,9.1c4.16,1.65,8.55,2.33,12.82,3.6,4,1.19,7.54,3.35,11.27,5.24,10.57,5.36,22.92,4.58,34.4,4.27a2.5,2.5,0,0,0-.71-1.4q-1.7-2.36-3.49-4.65T311.63,340a2.5,2.5,0,0,0-1.18-1,120.5,120.5,0,0,1-18.71-2.53l-4.92-1.29a20.42,20.42,0,0,1-7.66-3.75,72.51,72.51,0,0,0-9.46-5q-2.74-1.18-5.54-2.2a14.34,14.34,0,0,1-3.74-2.5c-3.12-2.59-4.89-6.15-6.53-9.79s-3.09-7.43-4.86-11.06a63.7,63.7,0,0,0-6.2-10.33,55.2,55.2,0,0,0-12.11-11.45,2.57,2.57,0,0,0,0,1.59q.47,2.91,1,5.8t1.2,5.77A2.57,2.57,0,0,0,233.55,293.72Z" transform="translate(-122.33 -276.01)"/><path class="cls-5" d="M233.87,286.85a20.24,20.24,0,0,1,7.36,6.12q6.47,7.26,5.69,18.23c.7,3.44,1.24,6.95,3,10.07a20.27,20.27,0,0,0,3.46,4.65,15.9,15.9,0,0,0,4.92,3.77,31.28,31.28,0,0,0,6.51,2.25c3.63,1,7.37,1.57,11,2.73,4,1.29,7.29,3.88,11.13,5.41,10.48,4.19,22,3.48,33,3,.45,0-1-3.31-1-3.23-.14-.32-1-3-1.69-2.93a131,131,0,0,1-18.49,0,40.27,40.27,0,0,1-8.07-1.31,85.43,85.43,0,0,1-10.25-4.32,62,62,0,0,0-5.84-2.59q-4-1.17-8.12-2.08c-4-1.12-7.79-2.34-10.89-5.23-6.41-6-6.88-14.72-8.81-22.66a28.8,28.8,0,0,0-4.54-10.12c-2.42-3.41-5.67-5.75-9-8.14-.25-.18,0,3.32,0,3.2C233.24,284.38,233.16,286.38,233.87,286.85Z" transform="translate(-122.33 -276.01)"/></g><g class="cls-4"><path class="cls-5" d="M406.35,312.63a26.21,26.21,0,0,1,10,5.95,18.52,18.52,0,0,1,5.16,9.41l-.67-5.64.79,9-.06-7.14c.09-1.06-2.46,8.87.09,10.94a9.16,9.16,0,0,0,3.75.7q5.48.86,11,1.18c.36,0-1.29-4.42-1.24-4.3-.17-.45-1.08-3.9-1.95-4a70.29,70.29,0,0,1-9.66-1.76,7,7,0,0,1-1.4-2.42l-.77,8.51a5.62,5.62,0,0,0,.71-1,9.67,9.67,0,0,0,.16-3.23,27.66,27.66,0,0,0-.94-8c-1-3.65-3.58-6.86-6.27-9.44a39,39,0,0,0-12.2-7.66,1.22,1.22,0,0,0,.09,1q.6,1.79,1.3,3.55C404.54,309,405.34,312.26,406.35,312.63Z" transform="translate(-122.33 -276.01)"/><path class="cls-5" d="M407.52,316.18a21.89,21.89,0,0,1,4.92,2.26,20,20,0,0,1,4.36,3l-.29-.27a18,18,0,0,1,3.42,3.78,14.58,14.58,0,0,1,3.26,7.42l-.4-3.15.53,6.48.44-11.26q-.89,6.53-1.39,13.1a2.32,2.32,0,0,0,.85,1.36,10.55,10.55,0,0,0,4.15.92,105.4,105.4,0,0,0,10.69,1c.31,0-1.7-6.46-1.65-6.31q-.78-2.45-1.66-4.87a2,2,0,0,0-.7-1.21,33.74,33.74,0,0,1-5.72-1.13q-1.15-.26-2.27-.6l-.27-.44a3.91,3.91,0,0,1-1.26-2l-1.81,12.64.78-.88a2,2,0,0,0,.37-1.34q.22-2.55.34-5.12t.18-5.12a2,2,0,0,0-.23-1.37,29.21,29.21,0,0,0-6.4-9.56,54.88,54.88,0,0,0-15.41-10.12,2.23,2.23,0,0,0,.27,1.45q.94,2.56,2,5.07t2.12,5A2.23,2.23,0,0,0,407.52,316.18Z" transform="translate(-122.33 -276.01)"/><path class="cls-5" d="M407.14,311.94a13,13,0,0,1,7.14,3.27,18.05,18.05,0,0,1,7.28,12.24l-.38-3.05c.1,3.27-.29,4.37-.63,7.54a2.13,2.13,0,0,0,.28,1.67c.53.89.81.95,2.14,1.22,4.55.91,9.38,1,14,1.22.48,0-.36-2.42-.35-2.39-.11-.36-.43-2.12-1.07-2.16a75.89,75.89,0,0,1-8.75-.74,5.27,5.27,0,0,1-5.13-2.15l-.8,4.61a9.76,9.76,0,0,0,1.16-2.38,18,18,0,0,0,.12-3.43,22.18,22.18,0,0,0-.82-5.46,18.47,18.47,0,0,0-3.26-6.42,25,25,0,0,0-5.11-5,27.12,27.12,0,0,0-7.49-3.71c-.36-.13.52,2.81.48,2.69C406.12,310,406.42,311.72,407.14,311.94Z" transform="translate(-122.33 -276.01)"/><path class="cls-5" d="M406,317.83a28.53,28.53,0,0,1,6.52,3.19l-.35-.24A24.86,24.86,0,0,1,420.8,331l-2.3-6.63,3.08,9.74L419,321.68l2.43,14.65-.81-11.54q-.2,7.27,0,14.54a2.58,2.58,0,0,0,.91,1.36,10.74,10.74,0,0,0,4.35.66q5.29.79,10.64,1.08a2.36,2.36,0,0,0-.36-1.48q-1.09-2.59-2.29-5.13t-2.43-5.07a2.36,2.36,0,0,0-.9-1.23,30.57,30.57,0,0,1-5.24-1.85,4.59,4.59,0,0,1-2.15-1.06l-.3-.62a4.52,4.52,0,0,1-1.5-1.75l-.34,14.5.83-.91a2.48,2.48,0,0,0,.19-1.55q-.11-2.89-.32-5.78t-.48-5.77a2.48,2.48,0,0,0-.4-1.51,30.31,30.31,0,0,0-6.64-8.41,62.68,62.68,0,0,0-15.75-9.65,2.5,2.5,0,0,0,.53,1.48q1.4,2.55,2.9,5t3,5A2.5,2.5,0,0,0,406,317.83Z" transform="translate(-122.33 -276.01)"/><path class="cls-5" d="M406.55,313.73a21.89,21.89,0,0,1,4.88,2.23,19.53,19.53,0,0,1,4.35,3l-.28-.22a17.91,17.91,0,0,1,3.44,3.8,14.62,14.62,0,0,1,3.27,7.47l-.73-5.33.73,7.82.07-8.93a98.91,98.91,0,0,0-.87,11.72,2.82,2.82,0,0,0,.85,1.26,10,10,0,0,0,3.93.76q5.34.82,10.73,1.12c.31,0-1.64-5.54-1.59-5.4q-.75-2.09-1.61-4.14a1.57,1.57,0,0,0-.69-1,41.34,41.34,0,0,1-6.37-1.28,4,4,0,0,1-2.46-.77l.17.3a4.35,4.35,0,0,0-1.07-1.66l.13.32-.39-1-1.27,10.85a4,4,0,0,0,1-1.68,17.59,17.59,0,0,0,.16-3.59c0-1.92.12-3.86,0-5.78a14.31,14.31,0,0,0-2.29-5.89c-4-7-11.26-11.65-18.45-14.84a1.7,1.7,0,0,0,.19,1.25q.78,2.19,1.67,4.33t1.81,4.27A1.7,1.7,0,0,0,406.55,313.73Z" transform="translate(-122.33 -276.01)"/><path class="cls-5" d="M405.81,322.5c5.77,2.38,8.65,4.27,13,9.68l-5.95-9,7.37,11.86-5.38-10.59,6.63,17.87-2.13-11.51q.25,6.68.92,13.32a3.72,3.72,0,0,0,1,1.35,10.31,10.31,0,0,0,4.62.63q5.38.83,10.82,1.12a2,2,0,0,0-.52-1.28q-1.37-2.15-2.82-4.24t-3-4.15a2,2,0,0,0-1-.94,37,37,0,0,1-6.89-3.83,11.83,11.83,0,0,1-3.81-4.35,33.35,33.35,0,0,0-6-6.4,71.17,71.17,0,0,0-15.57-8.75q-.62-.37-.25.25A18.17,18.17,0,0,0,399,316q2.17,2.22,4.39,4.39A18.17,18.17,0,0,0,405.81,322.5Z" transform="translate(-122.33 -276.01)"/><path class="cls-5" d="M405.31,319.76l3.4,1.41-.36-.18a21.65,21.65,0,0,1,4.57,2.87,19.44,19.44,0,0,1,5.81,6.25l-3.38-5.82,4.22,7.83-4.46-10.39,5.32,13.46-3.14-10.78,3.3,14-1.71-11.15q.19,7.08.89,14.12a3.33,3.33,0,0,0,.94,1.34,10.32,10.32,0,0,0,4.47.51q5.32.8,10.68,1.11a2.17,2.17,0,0,0-.47-1.37q-1.29-2.35-2.67-4.65t-2.81-4.57a2.17,2.17,0,0,0-1-1.07c-2.38-1-5.43-2-7.47-3.71l.21.36a44,44,0,0,0-14.84-15.5,66,66,0,0,0-10-5.08,2.27,2.27,0,0,0,.66,1.33q1.61,2.23,3.31,4.39t3.44,4.29A2.27,2.27,0,0,0,405.31,319.76Z" transform="translate(-122.33 -276.01)"/><path class="cls-5" d="M408,312.66a28,28,0,0,1,11.42,7.63,17.4,17.4,0,0,1,4.14,8.94l-.22-2,.2,4.79.56-6.56c-.47,2.8-1.13,5.64-1.4,8.47a1.62,1.62,0,0,0,.42,1.4c.65.93,2,1.07,3.05,1.2,4.06.49,8.07.85,12.16,1.11.43,0-.83-4.3-.8-4.2-.09-.31-.76-3.93-1.52-4a74.63,74.63,0,0,1-9.92-1.18,2.55,2.55,0,0,1-1.41-2.25l-1.45,7.65a2.49,2.49,0,0,0,.9-1.6q.23-1.63.36-3.27a16.3,16.3,0,0,0-.72-7.56c-2.8-8.44-10.8-13.8-18.39-17.51a1.17,1.17,0,0,0,0,1q.43,1.8,1,3.56C406.52,309,407,312.25,408,312.66Z" transform="translate(-122.33 -276.01)"/><path class="cls-5" d="M406.93,321.24l3.4,1.4-.37-.21,3.51,2-.37-.21a23,23,0,0,1,7.16,7.33l-1.72-3.15,3.08,6.13-3.77-9.81,4.48,12.93-2.8-12.4,2.8,15.68-.93-12.63q-.22,7.22-.22,14.45a2.55,2.55,0,0,0,.91,1.4,10.71,10.71,0,0,0,4.6.77,103.15,103.15,0,0,0,10.83,1,2.36,2.36,0,0,0-.38-1.47q-1.13-2.57-2.37-5.1t-2.51-5a2.36,2.36,0,0,0-.92-1.21,27.56,27.56,0,0,1-4.83-1.86l-2.18-1-.45-.56a4.4,4.4,0,0,1-1.73-1.82l-.56,14.34.92-.87a2.46,2.46,0,0,0,.2-1.54q-.09-2.88-.29-5.75t-.45-5.74a2.46,2.46,0,0,0-.39-1.51A29.16,29.16,0,0,0,417,321a35.32,35.32,0,0,0-6-4.72l.35.25a69.62,69.62,0,0,0-13.13-7.28,2.54,2.54,0,0,0,.67,1.43q1.65,2.42,3.38,4.78t3.51,4.69A2.54,2.54,0,0,0,406.93,321.24Z" transform="translate(-122.33 -276.01)"/><path class="cls-5" d="M405.75,315.64a28.88,28.88,0,0,1,6.49,3.17l-.32-.23,3.14,2.36-.31-.24a21.67,21.67,0,0,1,5.9,8.12l-1-3.08,1.84,6.2-1.72-9.25,1.66,11.56-.55-10.52q-.39,6.73-.24,13.46a2.61,2.61,0,0,0,.89,1.3,10.5,10.5,0,0,0,4.14.66q5.27.83,10.6,1.16a2,2,0,0,0-.27-1.37q-.94-2.39-2-4.74t-2.13-4.68a2,2,0,0,0-.82-1.13,34.65,34.65,0,0,1-5.71-1.68,3.35,3.35,0,0,1-2.26-1l.18.34c-.48-1-1.18-1.71-1.74-2.72L421,336.56l.78-.94a2.11,2.11,0,0,0,.23-1.41q0-1.86-.12-3.72-.1-2.32-.25-4.64a18.08,18.08,0,0,0-.35-3.2,31.3,31.3,0,0,0-3.9-6.52,27.7,27.7,0,0,0-5-4.82,54.94,54.94,0,0,0-12.72-7.6,2.13,2.13,0,0,0,.38,1.39q1.13,2.4,2.36,4.75t2.5,4.68A2.13,2.13,0,0,0,405.75,315.64Z" transform="translate(-122.33 -276.01)"/><path class="cls-5" d="M407.59,318.76a21.73,21.73,0,0,1,5,2.32,20.76,20.76,0,0,1,4.37,3l-.32-.28a17.48,17.48,0,0,1,3.39,3.8,14.31,14.31,0,0,1,3.15,7.4l-.88-6.76,1,10.05,0-6.75-.29,9.55.1.4c4.79,1.6,10.14,1.57,15.14,1.88.26,0-2-7-2-6.8q-.91-2.65-1.92-5.25a2.34,2.34,0,0,0-.77-1.3,38.31,38.31,0,0,1-6.91-1.81.79.79,0,0,1-.79-.57,5.3,5.3,0,0,1-2-3.19q-.88-1.63-1.83-3.22a35.28,35.28,0,0,0-8.44-8.46,63,63,0,0,0-12.66-7.46,2.59,2.59,0,0,0,.43,1.54q1.23,2.7,2.56,5.34t2.7,5.27A2.59,2.59,0,0,0,407.59,318.76Z" transform="translate(-122.33 -276.01)"/><path class="cls-5" d="M408.22,311.7l3.26,1.24a19,19,0,0,1,6.79,4.91c3.68,3.81,4.81,7.23,4.9,13.27l.33-4.64-.66,3.29-.57,3.25a1.78,1.78,0,0,0,.7,1.52,5.55,5.55,0,0,0,2.66.73c4.27.42,8.47.83,12.76,1.08.48,0-.37-3.05-.36-3-.07-.3-.43-2.79-1.09-2.83a100.87,100.87,0,0,1-11.57-1,2.08,2.08,0,0,1-1.48-2.34l-1,5.44a5.78,5.78,0,0,0,1.14-3.74,20.4,20.4,0,0,0-6.88-17,35.6,35.6,0,0,0-10.62-6.68c-.29-.13.52,3.49.49,3.37C407.15,309.09,407.44,311.4,408.22,311.7Z" transform="translate(-122.33 -276.01)"/></g><g class="cls-4"><path class="cls-5" d="M476.85,341.28c18.21-2.26,36.43-4.46,54.77-5.49s36.68-1.19,55.07-1a1,1,0,0,0-.39-.72q-1-1.12-2-2.18c-.45-.47-1.95-2.51-2.81-2.51-18.48-.1-36.92,0-55.37,1.21-18.19,1.23-36.3,3.22-54.42,5.16-.14,0,2.44,3,2.38,3C474.38,339,476.09,341.38,476.85,341.28Z" transform="translate(-122.33 -276.01)"/><path class="cls-5" d="M477.83,344.51c18.22-2.34,36.43-4.54,54.79-5.56s36.68-1.2,55.07-1A1.75,1.75,0,0,0,587,337q-1.59-1.37-3.23-2.68t-3.3-2.59a1.75,1.75,0,0,0-1-.53c-18.51,0-37,.18-55.46,1.51-18.17,1.31-36.28,3.23-54.4,5.09a1.75,1.75,0,0,0,.73.87q1.59,1.37,3.23,2.68t3.3,2.59A1.75,1.75,0,0,0,477.83,344.51Z" transform="translate(-122.33 -276.01)"/><path class="cls-5" d="M477.86,340.07q13.46-2.19,27-3.42,13.72-1.54,27.51-2.29c18.36-1,36.68-1.15,55.06-1,.27,0-1.21-2-1.15-1.92-.3-.38-1-1.57-1.6-1.57-18.44-.18-36.84-.2-55.26,1-18.18,1.17-36.23,3.19-54.3,5.44-.31,0,1.17,2.1,1.12,2C476.48,338.65,477.31,340.14,477.86,340.07Z" transform="translate(-122.33 -276.01)"/><path class="cls-5" d="M476.64,345.74c18.23-2.34,36.46-4.54,54.82-5.56s36.69-1.2,55.08-1a1.78,1.78,0,0,0-.85-.77q-1.78-1.14-3.61-2.22T578.41,334a1.78,1.78,0,0,0-1.08-.38c-18.47,0-36.89.24-55.32,1.59-18.22,1.33-36.38,3.29-54.54,5.2a1.75,1.75,0,0,0,.85.75q1.78,1.11,3.59,2.14t3.65,2A1.75,1.75,0,0,0,476.64,345.74Z" transform="translate(-122.33 -276.01)"/><path class="cls-5" d="M477,342.57c18.22-2.28,36.43-4.48,54.78-5.51s36.68-1.2,55.07-1a1.38,1.38,0,0,0-.56-.82q-1.29-1.3-2.63-2.53c-.57-.53-2.54-2.94-3.57-2.94-18.5-.05-37,.06-55.43,1.35-18.16,1.27-36.26,3.22-54.36,5.15a1.38,1.38,0,0,0,.55.83q1.27,1.31,2.6,2.56C473.91,340,476.14,342.68,477,342.57Z" transform="translate(-122.33 -276.01)"/><path class="cls-5" d="M476.78,349.46c18.25-2.35,36.49-4.57,54.87-5.6s36.66-1.21,55-1.06c1.09,0-2.64-1-2.05-.87-2-.49-4.24-1.29-6.29-1.28-18.37,0-36.69.24-55,1.58s-36.48,3.38-54.69,5.51c-1.07.13,2.57.88,2,.76q2,.39,4,.72A10.45,10.45,0,0,0,476.78,349.46Z" transform="translate(-122.33 -276.01)"/><path class="cls-5" d="M476.19,347.17c18.15-2.32,36.3-4.51,54.58-5.54s36.68-1.21,55.07-1.05c1.11,0-2.43-1.5-2-1.29q-2-.92-4.12-1.78a12.67,12.67,0,0,0-2.19-.8c-18.42,0-36.79.22-55.18,1.56s-36.63,3.36-54.92,5.39a1.43,1.43,0,0,0,.83.58q1.7.76,3.43,1.45C472.81,346.11,474.88,347.34,476.19,347.17Z" transform="translate(-122.33 -276.01)"/><path class="cls-5" d="M478.21,341.67c18.21-2.32,36.4-4.52,54.74-5.54s36.69-1.19,55.08-1a1,1,0,0,0-.35-.75q-.93-1.19-1.93-2.33c-.38-.44-1.88-2.71-2.71-2.72-18.5-.11-37-.06-55.43,1.19-18.16,1.23-36.23,3.19-54.32,5.21a35,35,0,0,0,2.24,3.16C475.79,339.18,477.49,341.76,478.21,341.67Z" transform="translate(-122.33 -276.01)"/><path class="cls-5" d="M477.19,348.25c18.26-2.34,36.51-4.55,54.9-5.58s36.68-1.2,55.07-1c1.19,0-2.76-1.48-2.22-1.27q-2.27-.89-4.55-1.72a14.87,14.87,0,0,0-2.41-.77c-18.42.07-36.8.3-55.18,1.66s-36.5,3.35-54.73,5.37c-1.12.12,2.65,1.32,2.22,1.17q2.25.79,4.51,1.52A14.24,14.24,0,0,0,477.19,348.25Z" transform="translate(-122.33 -276.01)"/><path class="cls-5" d="M476.46,344.12c18.23-2.31,36.45-4.51,54.8-5.53s36.68-1.2,55.07-1a1.6,1.6,0,0,0-.72-.81q-1.56-1.24-3.18-2.41T579.19,332a1.6,1.6,0,0,0-1-.45c-18.49,0-36.93.16-55.38,1.48-18.19,1.3-36.31,3.26-54.45,5.16a1.58,1.58,0,0,0,.71.8q1.55,1.23,3.15,2.39t3.22,2.29A1.58,1.58,0,0,0,476.46,344.12Z" transform="translate(-122.33 -276.01)"/><path class="cls-5" d="M477.94,346.37c18.25-2.33,36.49-4.54,54.87-5.56s36.68-1.19,55.07-1a1.9,1.9,0,0,0-.88-.8q-1.83-1.2-3.71-2.34t-3.77-2.24a1.9,1.9,0,0,0-1.11-.42c-18.49.06-36.93.28-55.38,1.64-18.22,1.34-36.4,3.28-54.58,5.13a1.87,1.87,0,0,0,.88.78q1.84,1.17,3.72,2.26t3.78,2.16A1.87,1.87,0,0,0,477.94,346.37Z" transform="translate(-122.33 -276.01)"/><path class="cls-5" d="M478.61,340.58q13.46-2.27,27-3.49,13.71-1.55,27.5-2.3c18.36-1,36.69-1.17,55.08-1a16,16,0,0,0-1.49-2.5c-.28-.38-1.27-2.16-1.95-2.17-18.48-.17-36.9-.17-55.36,1-18.17,1.19-36.22,3.18-54.29,5.42-.27,0,1.56,2.74,1.5,2.66C476.83,338.51,478,340.67,478.61,340.58Z" transform="translate(-122.33 -276.01)"/></g><g class="cls-4"><path class="cls-5" d="M486.12,291.23a48.94,48.94,0,0,1,6.56,14.6,32.43,32.43,0,0,1,1.38,16.48l3.67-6.2-3.41.82,2-.28-4.11-2a7.93,7.93,0,0,0-4.58-1.09c-2.17-.48-4.35-1-6.54-1.4a1.49,1.49,0,0,0-1-.07,3,3,0,0,0-.87,2.42,9.32,9.32,0,0,0,.28,3.78,18.11,18.11,0,0,0,2.74,5.76,16.09,16.09,0,0,0,6,5.69l3.9,1.92a30.45,30.45,0,0,0,8.82,1c.31,0-.85-3.12-.82-3-.11-.3-.74-2.77-1.35-2.84a21.83,21.83,0,0,1-7.41-1.43,18.94,18.94,0,0,1-5.21-4.61l.05.73a7,7,0,0,0,.14-2.5q-.87-1.13.64-2.16a2.38,2.38,0,0,1,2-2,.81.81,0,0,0,.68-.4l-8.92-2.17a5.37,5.37,0,0,0,.75,1l2.33,1.48q1.89,1.56,3.9,3c1.48,1.05,3.51,1.7,4.61,3.13a4.13,4.13,0,0,0,1.11,1.2,1.16,1.16,0,0,0,1.46.47c.59,0,1.08-2,1.26-2.48q.47-1.16.9-2.35a7.11,7.11,0,0,0,.5-1.67,99.47,99.47,0,0,0-3.73-16.76,108.7,108.7,0,0,0-6.66-15.11.91.91,0,0,0-.34.7q-.3,1.38-.51,2.78C486.29,288.41,485.66,290.43,486.12,291.23Z" transform="translate(-122.33 -276.01)"/><path class="cls-5" d="M487.55,293.73a61.27,61.27,0,0,1,5.66,12,62.59,62.59,0,0,1,3.63,19.41l4-8.7-9.93,4.76,7.35-1.19-8.15-.26,4.76.35-8.64-1.8,6,1.64c-1.52-.65-7-3.57-10.47-4.28h-.26a5.29,5.29,0,0,0-1.23,5.76,17.75,17.75,0,0,0,3.28,6,18.7,18.7,0,0,0,6.29,5.19l3.86,1.71a27.79,27.79,0,0,0,8.59,1.1c.29,0-.87-4.46-.84-4.35,0-.18-.77-4.17-1.39-4.21-2.66-.18-6-.44-8.19-2.28l-1.93-2a2.06,2.06,0,0,1-1.48-.62c-.48-.47-1-1.28-.23-1.91a6.2,6.2,0,0,1,1.17-.19l-7.18-4c1.57,3,5.94,4.34,8.53,5.55a4.24,4.24,0,0,1,3.73,2.66,1.88,1.88,0,0,0,1.92,1.33c.63.11,2.5-3.83,2.6-4q.94-1.63,1.81-3.3a1.45,1.45,0,0,0,.3-1,9.69,9.69,0,0,1-.77-4.07,54.11,54.11,0,0,0-2.23-10.16,139.42,139.42,0,0,0-7.52-18.37,1.51,1.51,0,0,0-.53.9q-.67,1.8-1.25,3.63C488.58,289.68,487.08,292.85,487.55,293.73Z" transform="translate(-122.33 -276.01)"/><path class="cls-5" d="M485.6,289.85a81.8,81.8,0,0,1,5.61,12.1,59.83,59.83,0,0,1,3,12.76l.45-3.4-3,7.87,4.32-1a34.79,34.79,0,0,1-5.84-5.43c-2-2.33-.9-1.34-5.15-2.2-1.38-.28-2.78-.49-4.17-.67-.15,0-1.3-.27-1.46,0a3.38,3.38,0,0,0-.76,3.4l.23,2.86a18.39,18.39,0,0,0,2.79,7.15c1.7,2.67,1.72,2.39,4.18,4a29.94,29.94,0,0,0,6.93,3.79,27.33,27.33,0,0,0,8.63.85c.2,0-.2-3.11-.89-3.13A24.77,24.77,0,0,1,493,328l-4.75-2.6q-5.27-2.17-5.54-6.63a3.92,3.92,0,0,1,0-1.62,3.78,3.78,0,0,1,2-3.39s1.86-2.12,2.38-2.95l-7.08-.73a5.63,5.63,0,0,0,.72,1l2.29,1.52q2,1.85,4.16,3.55c1.33,1.08,2.08,1.71,3.44,2.88q1.23,1,2.36,2.09a1.06,1.06,0,0,0,1.31.49c.64,0,1.52-3.26,1.47-3.68-.53-4.65-.83-8.74-2.07-13.28-1.77-6.45-4.58-12.4-7.46-18.42-.28-.59-.53,1-.51.89C485.67,287.76,485.26,289.2,485.6,289.85Z" transform="translate(-122.33 -276.01)"/><path class="cls-5" d="M486.34,295a61,61,0,0,1,5.7,12.06,62.81,62.81,0,0,1,3.08,12.84l0-.32.55,6.86,4.13-10.36-10.12,6,7.95-1.67-9.8.35,6.43.54-9.59-1.82,7,2.44a26.45,26.45,0,0,0-11-4.92q-.95-.2-1.41,1c-1.46,2.3-.48,5,.69,7.26a19.53,19.53,0,0,0,5.52,6.38,23.9,23.9,0,0,0,7.22,3.74,26,26,0,0,0,8.39,1.07c.22,0-1.49-4.74-1.44-4.63-.15-.4-1.17-4.26-2-4.43l-2.31-.48-2.26-1.13-1.46-.78a2.09,2.09,0,0,0-2.45-1.5c-.7-.07-1.84,0-1.86-1,0-.57.33-.46.91-.54l-7-4.62a2.26,2.26,0,0,0,1,1.19,43.38,43.38,0,0,0,4.66,2.67c1.16.62,4.85,1.82,5.17,2.22l1,1.63a2.06,2.06,0,0,0,2.06,1.54c.6.12,2.67-4.75,2.72-4.85q1-2,1.89-4a1.9,1.9,0,0,0,.32-1.14,7.76,7.76,0,0,1-.92-4,56.55,56.55,0,0,0-2.49-10.14A168.57,168.57,0,0,0,489,284.09a1.94,1.94,0,0,0-.5,1.09q-.6,2.14-1.12,4.3t-1,4.33A1.94,1.94,0,0,0,486.34,295Z" transform="translate(-122.33 -276.01)"/><path class="cls-5" d="M486.75,291.9A64.09,64.09,0,0,1,494.23,310a22.44,22.44,0,0,1,.44,13.27l4.59-7.23-8.76,3.24,6.9-1.72c-5.63-.53-10.85-2.85-16.36-4l-.29,0a3.21,3.21,0,0,0-1.06,2.35,5.85,5.85,0,0,0,.23,3.72,20.14,20.14,0,0,0,9,11l3.77,1.79a29.59,29.59,0,0,0,8.67,1.17c.27,0-1-3.89-1-3.79-.1-.28-.86-3.53-1.51-3.61a17.91,17.91,0,0,1-6.64-1.46,13.42,13.42,0,0,1-4.22-4l-.44,2.1.81-2.49,0-.24c-1.07-.63-1-1.45-.13-2.27.62-.56,1.29-.5,2-.91l-8.8-3.2a5.23,5.23,0,0,0,.68,1l2.62,1.58q1.78,1.33,3.66,2.52c1.47,1,3.49,1.51,4.55,2.9a5,5,0,0,0,1.11,1.24,1.22,1.22,0,0,0,1.48.56c.64,0,1.93-3.64,2-3.86.2-.45,1.92-3.37,1.51-4.09a102.78,102.78,0,0,0-2.84-13.58q-.53-1.69-1.17-3.35a138.18,138.18,0,0,0-6.52-15.2,1.21,1.21,0,0,0-.41.83q-.43,1.64-.78,3.29C487.22,288.45,486.26,291,486.75,291.9Z" transform="translate(-122.33 -276.01)"/><path class="cls-5" d="M486.16,298.59l3.19,5.92a49,49,0,0,1,3.42,9.33,31.41,31.41,0,0,1,1.51,6.41,46.94,46.94,0,0,1,1.07,9.76l5-8.9-10.92,4.39,5.1.07L480,321.24l2.1,2.61c-1-1.41-1.65-3.06-3.25-3.72l-.18,0a2.13,2.13,0,0,0-1.22,1.69,4.17,4.17,0,0,0,.14,3.75,19,19,0,0,0,4,6.88,20.87,20.87,0,0,0,7,5.28l4,1.52a23.7,23.7,0,0,0,8.5,1,33.73,33.73,0,0,0-1.66-3.76c-.29-.55-1.31-3.28-2.16-3.5a493.78,493.78,0,0,1-8.3-3.46,7.88,7.88,0,0,1-4.84-2,22,22,0,0,0-3.11-3.9l.23.5a23.94,23.94,0,0,0,4.82,3.19,5.5,5.5,0,0,0,2.26-.27,3.73,3.73,0,0,1,4.6,1.31,2.17,2.17,0,0,0,1.85,1.84c.55.21,3-3.92,3.08-4q1.13-1.64,2.2-3.33a1.61,1.61,0,0,0,.41-1,27.13,27.13,0,0,1-.85-4.25,59.19,59.19,0,0,0-2.61-10.41c-2.1-6.26-4.55-12.39-7.25-18.41a1.72,1.72,0,0,0-.59,1q-.79,1.92-1.5,3.87t-1.39,3.91A1.72,1.72,0,0,0,486.16,298.59Z" transform="translate(-122.33 -276.01)"/><path class="cls-5" d="M485.7,296.49a45.4,45.4,0,0,1,4.46,9,49.36,49.36,0,0,1,3.12,9.44l-.07-.31,1.24,6.79,0-.32.53,6.85,4-10.28-10,5.68,7.14-1.12-9.71,0,6,1.08-8.6-2.21,1.62.75-4.54-2.42,5,3.85c1.83,1.6-4.52-5.12-6.43-4.87a3.75,3.75,0,0,0-2,2.69,8.66,8.66,0,0,0,1,4.2,19.28,19.28,0,0,0,6.47,8,23,23,0,0,0,7.35,3.68,24.69,24.69,0,0,0,8.36,1.06,44.39,44.39,0,0,0-1.73-4.19c-.3-.62-1.33-3.65-2.24-3.94a6.71,6.71,0,0,1-3.15-1.34,9.67,9.67,0,0,0-2.46-1.31,5.41,5.41,0,0,0-3.67-2.32,3.08,3.08,0,0,1-2.65-1.27c1.4-.15,7.78,2.41,6.82,1l.9,1.74a1.93,1.93,0,0,0,2.62,1.54c.67,0,2.18-4.86,2.25-5q.8-2,1.52-4.08a1.87,1.87,0,0,0,.21-1.16l-1.31-6.87a66,66,0,0,0-3.14-10c-1.95-5.2-4.06-10.2-6.44-15.22a1.9,1.9,0,0,0-.46,1.09q-.53,2.13-1,4.29t-.86,4.31A1.9,1.9,0,0,0,485.7,296.49Z" transform="translate(-122.33 -276.01)"/><path class="cls-5" d="M487.42,291.67a58.72,58.72,0,0,1,7.52,17.85,23.16,23.16,0,0,1,.44,13.23l3.74-5A9.21,9.21,0,0,1,492.8,316a8.79,8.79,0,0,0-4-1.7,66,66,0,0,0-7.4-2l-.24.06a3,3,0,0,0-.92,2.33,8.93,8.93,0,0,0,.17,3.77,18.9,18.9,0,0,0,2.75,6,25.15,25.15,0,0,0,1.62,2.26,8.62,8.62,0,0,0,4.68,3.61l4.07,1.82a30,30,0,0,0,8.87,1c.35,0-.48-2.94-.46-2.88-.05-.2-.48-2.72-1-2.74-3.46-.14-7.94-.19-10.72-2.72l-3.3-4.28a2.22,2.22,0,0,1-.69-1.5,3.55,3.55,0,0,1,1.17-3.38c.58-.38,1.26-.5,1.82-.89l-7.32-2.18c1.1,1.83.53.71,3.26,2.66,1.36,1,2.65,2,4,3,0,0,5.17,3.54,4.17,2.43l1,1.39a1.69,1.69,0,0,0,1.91,1c.57,0,1.13-1.63,1.33-2q.51-1,1-2a5.44,5.44,0,0,0,.56-1.42c-.95-7-2-13.58-4.55-20.22a116.77,116.77,0,0,0-5.52-11.91.77.77,0,0,0-.39.59q-.39,1.2-.71,2.43C487.81,289.11,487,291,487.42,291.67Z" transform="translate(-122.33 -276.01)"/><path class="cls-5" d="M486.73,297.6l3.22,5.89a49.12,49.12,0,0,1,3.44,9.33,31.34,31.34,0,0,1,1.52,6.42A46.89,46.89,0,0,1,496,329l5.42-9.39-11.13,4.88,5.89-.24-8.84-.82,2.79.75-8.8-3.74,3.08,2.82c-.36-.38-2.78-3.78-4.26-3.85q-.8-.19-1.28.82a4.17,4.17,0,0,0-.28,4.5,19.33,19.33,0,0,0,7.15,9.71,25.44,25.44,0,0,0,16.17,4.65c.28,0-1.12-4.63-1.09-4.52-.06-.2-1-4.32-1.63-4.35l-2.07-.11-2-.75-2.22-.35a6.23,6.23,0,0,0-3.41-1.17,6.09,6.09,0,0,1-4.29-2.47c-.75-.89-1.09-1.35-1.86-2.13l.37.55a23,23,0,0,0,3.37,1.53,2.84,2.84,0,0,0,2.12.78l4.56,1.19a2,2,0,0,0,1.76,1.86c.56.21,3.22-4.16,3.28-4.25q1.21-1.74,2.36-3.52a1.78,1.78,0,0,0,.46-1.05,38.41,38.41,0,0,1-.8-4.26,57.66,57.66,0,0,0-2.52-10.42,170.49,170.49,0,0,0-7.41-18.46,1.92,1.92,0,0,0-.64,1q-.88,2-1.68,4.08T487,296.43A1.92,1.92,0,0,0,486.73,297.6Z" transform="translate(-122.33 -276.01)"/><path class="cls-5" d="M486.27,293.35a39.86,39.86,0,0,1,6,15.24,20.18,20.18,0,0,1,1.94,16.08l5.22-8.58-9.95,4.71,8.06-2.21-13-.84,8.51,1.74a46.06,46.06,0,0,0-12.29-4.21h-.29a5.51,5.51,0,0,0-1.24,6,17.4,17.4,0,0,0,3.34,5.89,20.28,20.28,0,0,0,6.16,5l3.69,1.68a27.71,27.71,0,0,0,8.48,1.15c.22,0-1.41-4.4-1.37-4.29-.15-.39-1.13-3.94-1.89-4.09-2.47-.48-5.44-1-7.19-3.08l-1.34-1.95a2.1,2.1,0,0,1-.81-.34c-1.13-1,.7-1.28,1.36-1.56l-8.48-4.27a2.32,2.32,0,0,0,.51.93,17.85,17.85,0,0,0,10.22,5.9l1.09,1.53a1.93,1.93,0,0,0,2.11,1.27c.64.06,2.25-4.44,2.32-4.6q.83-1.86,1.58-3.75a1.66,1.66,0,0,0,.23-1.08,10.27,10.27,0,0,1-1.41-7,25.58,25.58,0,0,0-.94-3.61,120.91,120.91,0,0,0-8.54-21.66,1.64,1.64,0,0,0-.43,1q-.48,2-.87,3.94t-.75,4A1.64,1.64,0,0,0,486.27,293.35Z" transform="translate(-122.33 -276.01)"/><path class="cls-5" d="M487.47,295.69l3.19,5.88a50.71,50.71,0,0,1,3.45,9.32,31.44,31.44,0,0,1,1.55,6.42,47,47,0,0,1,1.12,9.77l5-9.15-10.78,4.93,7-.66-9.33-.61,5.41,1-8.85-2.36,4.62,2-6.72-3.41,3.75,2.36L482,318a.91.91,0,0,0-.72-.29c-1.81,1.62-2.25,2.94-1.46,5.48a18.58,18.58,0,0,0,3.59,6.29,19.12,19.12,0,0,0,6.58,5.18l3.92,1.6a26,26,0,0,0,8.53,1c.3,0-.86-4.75-.83-4.64,0-.14-.79-4.49-1.38-4.51a17,17,0,0,1-7.29-1.55l-2-1.35a3.91,3.91,0,0,1-2.59-.7c-.57-.33-2-1.33-1.6-2.23l-.13-.16.7,0L482,318.05a3.94,3.94,0,0,0,1.77,1.81,33.34,33.34,0,0,0,3.75,2.36l.52.22a25.32,25.32,0,0,1,5.59,1.65l.84,1.55a2,2,0,0,0,1.8,1.61c.59.18,3-4,3-4.15q1.12-1.7,2.17-3.43a1.66,1.66,0,0,0,.4-1,18.7,18.7,0,0,1-.76-4.2,55.68,55.68,0,0,0-2.35-10.32,153,153,0,0,0-7.44-18.43,1.79,1.79,0,0,0-.62,1q-.84,2-1.6,3.93t-1.49,4A1.79,1.79,0,0,0,487.47,295.69Z" transform="translate(-122.33 -276.01)"/><path class="cls-5" d="M486.92,290.53a53.6,53.6,0,0,1,5.68,11.77,59.82,59.82,0,0,1,3,12.81l.91-3.81-3.62,8.39,4.8-1L492.76,315l-2.39-2.42a7.64,7.64,0,0,0-2.48-1,53.57,53.57,0,0,0-6.47-1.07,1,1,0,0,0-.82.05,2.72,2.72,0,0,0-.8,2.35,15.79,15.79,0,0,0,.2,3.85,19.28,19.28,0,0,0,3.14,7.3,13.64,13.64,0,0,0,5.91,5.12l4.28,2a30.28,30.28,0,0,0,9,1c.11,0-.27-3.95-1.06-4a24.44,24.44,0,0,1-8-.91,10.65,10.65,0,0,1-6-4.62q-5.53-4.12.54-10.44a.76.76,0,0,0,.52-.41l-7-1.08a6.16,6.16,0,0,0,.72,1l2.3,1.52q2,1.81,4.17,3.45c1.24,1,2.23,1.76,3.47,2.77q1.25.94,2.41,2a1.13,1.13,0,0,0,1.35.49c.66,0,2.06-3.53,2-4a88.39,88.39,0,0,0-3.13-16.69,91.76,91.76,0,0,0-6.53-15c-.31-.59-.64,1-.62,1C487.31,288,486.57,289.91,486.92,290.53Z" transform="translate(-122.33 -276.01)"/></g><g class="cls-4"><path class="cls-6" d="M611.88,342.23a167.91,167.91,0,0,1,22.29-3.13,1,1,0,0,0-.45-.7q-1.09-1.07-2.23-2.07c-.45-.4-2.21-2.45-3.06-2.36q-11.13.94-22.13,2.91c-.12,0,2.65,2.93,2.59,2.88C609.25,340.09,611.12,342.36,611.88,342.23Z" transform="translate(-122.33 -276.01)"/><path class="cls-6" d="M612.82,345.43a165.7,165.7,0,0,1,22.35-3.14,1.76,1.76,0,0,0-.81-.8q-1.72-1.21-3.49-2.34t-3.56-2.24a1.76,1.76,0,0,0-1.06-.42q-11.14,1-22.17,2.88a1.76,1.76,0,0,0,.79.82q1.69,1.26,3.42,2.44t3.49,2.35A1.76,1.76,0,0,0,612.82,345.43Z" transform="translate(-122.33 -276.01)"/><path class="cls-6" d="M612.83,340.82A138.71,138.71,0,0,1,635,337.58c.28,0-1.39-2-1.33-1.94-.29-.33-1.15-1.63-1.75-1.56a183.9,183.9,0,0,0-22.07,3c-.3.05,1.32,2.11,1.27,2C611.33,339.41,612.27,340.93,612.83,340.82Z" transform="translate(-122.33 -276.01)"/><path class="cls-6" d="M611.63,346.66A167.05,167.05,0,0,1,634,343.52a1.74,1.74,0,0,0-.91-.67q-1.86-.94-3.77-1.81t-3.81-1.7a1.74,1.74,0,0,0-1.1-.26q-11.17,1.06-22.23,3a1.72,1.72,0,0,0,.89.68q1.84,1,3.71,1.87t3.76,1.76A1.72,1.72,0,0,0,611.63,346.66Z" transform="translate(-122.33 -276.01)"/><path class="cls-6" d="M612,343.5a174.89,174.89,0,0,1,22.35-3.1,1.41,1.41,0,0,0-.63-.78q-1.41-1.2-2.88-2.33t-2.95-2.23a1.41,1.41,0,0,0-.91-.43q-11.12,1-22.12,2.89a1.4,1.4,0,0,0,.6.8q1.36,1.24,2.78,2.41C608.72,341.11,611.11,343.65,612,343.5Z" transform="translate(-122.33 -276.01)"/><path class="cls-6" d="M611.81,350.41a168.62,168.62,0,0,1,22.41-3.17c1.05-.11-2.63-.69-2-.61a26.41,26.41,0,0,0-6.12-.5q-11.21,1.08-22.26,3.2c-1,.18,2.58.68,2,.61q2,.23,3.95.4A9.93,9.93,0,0,0,611.81,350.41Z" transform="translate(-122.33 -276.01)"/><path class="cls-6" d="M610.9,348.14a171,171,0,0,1,22.4-3.15c1.08-.12-2.5-1.21-2-1.06q-2.07-.68-4.16-1.3a11.94,11.94,0,0,0-2.2-.54q-11.2,1.07-22.27,3.09c-1,.17,2.37,1.2,2,1.07q2,.69,4.09,1.33A11.64,11.64,0,0,0,610.9,348.14Z" transform="translate(-122.33 -276.01)"/><path class="cls-6" d="M613.21,342.59a164,164,0,0,1,22.29-3.15c.09,0-2.65-3-2.6-3-.39-.39-2.18-2.66-3-2.57a214.41,214.41,0,0,0-22.08,2.92c-.16,0,2.55,3.15,2.49,3.08C610.6,340.21,612.48,342.71,613.21,342.59Z" transform="translate(-122.33 -276.01)"/><path class="cls-6" d="M612.19,349.19A168.34,168.34,0,0,1,634.62,346c1.16-.12-2.84-1.12-2.29-1q-2.28-.59-4.58-1.12a14,14,0,0,0-2.41-.45q-11.23,1.09-22.33,3.12c-1.12.18,2.74,1.11,2.26,1q2.26.6,4.53,1.14A13.73,13.73,0,0,0,612.19,349.19Z" transform="translate(-122.33 -276.01)"/><path class="cls-6" d="M611.44,345a171.25,171.25,0,0,1,22.36-3.12,1.6,1.6,0,0,0-.79-.73q-1.67-1.08-3.38-2.1t-3.44-2a1.6,1.6,0,0,0-1-.35q-11.15,1-22.17,2.93a1.58,1.58,0,0,0,.76.75q1.63,1.12,3.3,2.17t3.37,2.07A1.58,1.58,0,0,0,611.44,345Z" transform="translate(-122.33 -276.01)"/><path class="cls-6" d="M612.93,347.29a168.34,168.34,0,0,1,22.41-3.14,1.86,1.86,0,0,0-1-.68q-1.94-1-3.91-1.87t-4-1.76a1.86,1.86,0,0,0-1.14-.28q-11.19,1.07-22.28,2.94a1.85,1.85,0,0,0,.93.7q1.91,1,3.86,1.94T611.8,347A1.85,1.85,0,0,0,612.93,347.29Z" transform="translate(-122.33 -276.01)"/><path class="cls-6" d="M613.61,341.44a122.27,122.27,0,0,1,22.1-3.38c.23,0-1.81-2.58-1.75-2.51-.28-.33-1.51-2.21-2.18-2.14a161.28,161.28,0,0,0-22,3.08c-.27,0,1.76,2.73,1.7,2.65C611.66,339.39,613,341.56,613.61,341.44Z" transform="translate(-122.33 -276.01)"/></g><g class="cls-4"><path class="cls-6" d="M330.27,332.33q14,.86,28,1.26c.11,0-2.09-3.12-2-3.07-.35-.44-1.68-2.69-2.49-2.72q-13.81-.34-27.58-1.46c-.14,0,1.87,3.22,1.82,3.15C328.26,329.91,329.5,332.29,330.27,332.33Z" transform="translate(-122.33 -276.01)"/><path class="cls-6" d="M331.33,335.62q14,.56,27.92,1.06a1.74,1.74,0,0,0-.6-1q-1.39-1.56-2.83-3.06t-2.92-3A1.74,1.74,0,0,0,352,329q-13.71-.49-27.39-1.51a1.73,1.73,0,0,0,.54,1q1.28,1.64,2.62,3.23t2.71,3.16A1.73,1.73,0,0,0,331.33,335.62Z" transform="translate(-122.33 -276.01)"/><path class="cls-6" d="M331.24,331.47q13.89.36,27.77.9c.3,0-1-2-.91-1.93-.23-.36-.81-1.61-1.39-1.63q-13.78-.41-27.54-1.09c-.31,0,.83,2.09.79,2C330.14,330.06,330.69,331.45,331.24,331.47Z" transform="translate(-122.33 -276.01)"/><path class="cls-6" d="M330.17,336.85q14,.56,27.95,1.06a1.81,1.81,0,0,0-.76-.87q-1.64-1.37-3.34-2.67t-3.41-2.58a1.81,1.81,0,0,0-1-.52q-13.79-.49-27.55-1.51a1.81,1.81,0,0,0,.71.91q1.56,1.46,3.17,2.85t3.25,2.76A1.81,1.81,0,0,0,330.17,336.85Z" transform="translate(-122.33 -276.01)"/><path class="cls-6" d="M330.55,333.68q14,.64,27.92,1.11a1.35,1.35,0,0,0-.45-.87q-1.12-1.41-2.3-2.77c-.43-.5-2.23-3.24-3.18-3.28q-13.72-.45-27.41-1.41a1.32,1.32,0,0,0,.39.89q1,1.47,2.1,2.89C328,330.7,329.67,333.64,330.55,333.68Z" transform="translate(-122.33 -276.01)"/><path class="cls-6" d="M330.19,340.5q14,.56,28,1.05c1.12,0-2.53-1.37-2-1.16q-2-.78-4.1-1.5a12,12,0,0,0-2.17-.65q-13.92-.5-27.82-1.36c-1.11-.06,2.44,1.45,1.93,1.23q2,.86,4,1.66A11.83,11.83,0,0,0,330.19,340.5Z" transform="translate(-122.33 -276.01)"/><path class="cls-6" d="M329.7,338.29q14,.55,28,1.05a1.55,1.55,0,0,0-.78-.72q-1.65-1.05-3.34-2c-1.09-.64-3-2.2-4.41-2.26q-13.86-.48-27.7-1.42a1.54,1.54,0,0,0,.74.75q1.59,1.12,3.23,2.18C326.41,336.48,328.38,338.24,329.7,338.29Z" transform="translate(-122.33 -276.01)"/><path class="cls-6" d="M331.78,332.93l27.84,1c.15,0-1.91-3.3-1.86-3.23-.28-.4-1.56-2.88-2.33-2.91q-13.71-.45-27.4-1.26a30.34,30.34,0,0,0,1.63,3.34C329.87,330.23,331.06,332.9,331.78,332.93Z" transform="translate(-122.33 -276.01)"/><path class="cls-6" d="M331,339.35q14,.56,28,1.06a1.77,1.77,0,0,0-.87-.73q-1.82-1.08-3.67-2.08c-1.23-.67-3.3-2.25-4.82-2.32q-13.9-.5-27.77-1.51a1.77,1.77,0,0,0,.84.78q1.76,1.16,3.57,2.26t3.63,2.16A1.77,1.77,0,0,0,331,339.35Z" transform="translate(-122.33 -276.01)"/><path class="cls-6" d="M330,335.22q14,.59,27.93,1.09a1.6,1.6,0,0,0-.62-.88q-1.41-1.41-2.87-2.77t-3-2.68a1.6,1.6,0,0,0-.92-.56Q336.79,329,323.07,328a1.59,1.59,0,0,0,.56.92q1.31,1.48,2.69,2.91t2.77,2.83A1.59,1.59,0,0,0,330,335.22Z" transform="translate(-122.33 -276.01)"/><path class="cls-6" d="M331.44,337.52q14,.58,28,1.07a1.92,1.92,0,0,0-.76-.92q-1.66-1.46-3.37-2.86t-3.44-2.77a1.92,1.92,0,0,0-1-.57q-13.78-.5-27.53-1.6a1.92,1.92,0,0,0,.7,1q1.56,1.56,3.18,3.06t3.26,3A1.92,1.92,0,0,0,331.44,337.52Z" transform="translate(-122.33 -276.01)"/><path class="cls-6" d="M332.06,331.88q13.89.26,27.77.83c.26,0-1.22-2.61-1.17-2.52-.21-.35-1-2.21-1.65-2.24q-13.74-.45-27.48-1.09c-.28,0,1.06,2.72,1,2.64C330.7,329.81,331.46,331.87,332.06,331.88Z" transform="translate(-122.33 -276.01)"/></g><g class="cls-4"><path class="cls-6" d="M186,349.73q15.46-.49,30.91.27a299.33,299.33,0,0,1,30.7,3.25,1,1,0,0,0-.31-.74q-.86-1.18-1.79-2.31c-.43-.53-1.66-2.58-2.54-2.69a308.46,308.46,0,0,0-31-3.1q-15.29-.62-30.6-.49c-.12,0,2.13,3.14,2.09,3.08C183.75,347.4,185.18,349.74,186,349.73Z" transform="translate(-122.33 -276.01)"/><path class="cls-6" d="M187,353q15.44-.71,30.87.13a300.34,300.34,0,0,1,30.69,3.23,1.74,1.74,0,0,0-.62-.94q-1.42-1.53-2.9-3t-3-2.92a1.74,1.74,0,0,0-.94-.63Q225.62,346.7,210,346q-15.24-.66-30.5-.5a1.74,1.74,0,0,0,.63.94q1.43,1.52,2.92,3t3,2.9A1.74,1.74,0,0,0,187,353Z" transform="translate(-122.33 -276.01)"/><path class="cls-6" d="M187,348.72a191.61,191.61,0,0,1,22.92-.25A243.44,243.44,0,0,1,248.14,352c.6.08-.21-1-.24-1.08-.27-.44-1.19-2.36-1.79-2.44-7.78-1-15.46-2.06-23.28-2.69a145.84,145.84,0,0,0-15.51-.84q-11.35-.48-22.7,0c-.31,0,1,2.1.94,2C185.76,347.31,186.42,348.73,187,348.72Z" transform="translate(-122.33 -276.01)"/><path class="cls-6" d="M185.82,354.23q15.45-.71,30.9.13a300.27,300.27,0,0,1,30.7,3.24,1.81,1.81,0,0,0-.77-.86q-1.67-1.33-3.38-2.6t-3.45-2.51a1.81,1.81,0,0,0-1-.5q-15.44-2.11-31-2.74-15.31-.61-30.63-.43a1.78,1.78,0,0,0,.78.84q1.67,1.29,3.4,2.52t3.46,2.42A1.78,1.78,0,0,0,185.82,354.23Z" transform="translate(-122.33 -276.01)"/><path class="cls-6" d="M186.2,351.05q15.44-.63,30.87.18a300.06,300.06,0,0,1,30.7,3.23,1.35,1.35,0,0,0-.47-.86q-1.14-1.4-2.35-2.74c-.54-.6-2.2-3.1-3.24-3.23q-15.46-2.26-31.06-3-15.23-.67-30.48-.44a1.35,1.35,0,0,0,.47.86q1.14,1.4,2.34,2.74C183.37,348.28,185.29,351.07,186.2,351.05Z" transform="translate(-122.33 -276.01)"/><path class="cls-6" d="M185.89,357.91q15.48-.72,31,.1a300.53,300.53,0,0,1,30.67,3.22c1.1.14-2.58-1.33-2-1.11-2-.72-4.17-1.79-6.27-2q-15.3-2.08-30.74-2.69t-30.8-.18c-1.1,0,2.54,1.18,2,1q2,.62,4,1.19A11.19,11.19,0,0,0,185.89,357.91Z" transform="translate(-122.33 -276.01)"/><path class="cls-6" d="M185.36,355.66q15.33-.7,30.65.13A300.72,300.72,0,0,1,246.7,359c1.12.15-2.33-1.78-1.88-1.51q-2-1.15-4-2.24a13.15,13.15,0,0,0-2.14-1q-15.37-2.11-30.87-2.74t-31-.3a1.49,1.49,0,0,0,.79.67q1.65.95,3.35,1.83C182,354.23,184,355.69,185.36,355.66Z" transform="translate(-122.33 -276.01)"/><path class="cls-6" d="M187.37,350.16q15.43-.63,30.85.18a299.29,299.29,0,0,1,30.7,3.25,1,1,0,0,0-.27-.77q-.79-1.24-1.66-2.44c-.35-.5-1.55-2.78-2.39-2.88a308,308,0,0,0-31-3.13q-15.23-.7-30.47-.4a34.59,34.59,0,0,0,1.91,3.25C185.24,347.59,186.63,350.17,187.37,350.16Z" transform="translate(-122.33 -276.01)"/><path class="cls-6" d="M186.65,356.72q15.34-.7,30.67.13A300.49,300.49,0,0,1,248,360.08c1.19.16-2.61-1.81-2.1-1.54q-2.18-1.16-4.39-2.27a15.34,15.34,0,0,0-2.34-1.06q-15.38-2.05-30.89-2.65t-30.82-.33c-.38,0-.26,0-.11.24l.71.44q1.3.67,2.63,1.3c1.36.65,2.72,1.29,4.1,1.9A4.78,4.78,0,0,0,186.65,356.72Z" transform="translate(-122.33 -276.01)"/><path class="cls-6" d="M185.63,352.6q15.44-.67,30.88.15a300.31,300.31,0,0,1,30.7,3.23,1.6,1.6,0,0,0-.64-.87q-1.43-1.39-2.92-2.71c-.77-.7-2.69-3-3.94-3.16q-15.45-2.18-31-2.84-15.27-.64-30.55-.44a1.58,1.58,0,0,0,.64.86q1.43,1.37,2.92,2.67t3,2.58A1.58,1.58,0,0,0,185.63,352.6Z" transform="translate(-122.33 -276.01)"/><path class="cls-6" d="M187.1,354.88q15.48-.69,30.94.14a300,300,0,0,1,30.69,3.25,1.91,1.91,0,0,0-.78-.9q-1.69-1.42-3.43-2.77t-3.5-2.68a1.91,1.91,0,0,0-1.06-.55q-15.47-2.08-31.07-2.7-15.32-.61-30.65-.5a1.9,1.9,0,0,0,.79.88q1.71,1.38,3.46,2.69t3.54,2.6A1.9,1.9,0,0,0,187.1,354.88Z" transform="translate(-122.33 -276.01)"/><path class="cls-6" d="M187.75,349.17a242.11,242.11,0,0,1,30.67-.1,297.78,297.78,0,0,1,30.69,3.29,15.76,15.76,0,0,0-1.22-2.52c-.26-.43-1-2.14-1.7-2.23a302.87,302.87,0,0,0-30.95-3.26q-15.23-.79-30.46-.19c-.27,0,1.29,2.74,1.24,2.66C186.21,347.1,187.14,349.19,187.75,349.17Z" transform="translate(-122.33 -276.01)"/></g><g class="cls-4"><path class="cls-6" d="M264.84,306.51l1.08.13a1,1,0,0,0-.32-.75q-.87-1.2-1.81-2.35c-.54-.67-1.6-2.49-2.57-2.75l-.7-.19a.94.94,0,0,0,.27.75q.8,1.21,1.66,2.38C262.81,304.21,264,306.41,264.84,306.51Z" transform="translate(-122.33 -276.01)"/><path class="cls-6" d="M265.9,309.8l1-.06a1.76,1.76,0,0,0-.61-1q-1.41-1.56-2.88-3.07t-3-3a1.76,1.76,0,0,0-.94-.65l-.65-.1a1.73,1.73,0,0,0,.57,1q1.34,1.6,2.75,3.14t2.84,3.06A1.73,1.73,0,0,0,265.9,309.8Z" transform="translate(-122.33 -276.01)"/><path class="cls-6" d="M265.84,305.59l.88-.08c.32,0-1-2-1-2-.28-.42-.85-1.58-1.46-1.65l-.61-.07c-.28,0,.9,2.1.85,2C264.66,304.13,265.31,305.64,265.84,305.59Z" transform="translate(-122.33 -276.01)"/><path class="cls-6" d="M264.73,311l1-.06a1.83,1.83,0,0,0-.77-.87q-1.67-1.36-3.38-2.65t-3.45-2.56a1.83,1.83,0,0,0-1-.51l-.68-.1a1.79,1.79,0,0,0,.74.88q1.61,1.39,3.27,2.72t3.34,2.62A1.79,1.79,0,0,0,264.73,311Z" transform="translate(-122.33 -276.01)"/><path class="cls-6" d="M265.11,307.86h1a1.37,1.37,0,0,0-.47-.88q-1.14-1.42-2.35-2.79c-.58-.67-2.15-3.1-3.24-3.29l-.65-.12a1.33,1.33,0,0,0,.42.88q1.07,1.44,2.2,2.83C262.41,305,264.22,307.85,265.11,307.86Z" transform="translate(-122.33 -276.01)"/><path class="cls-6" d="M264.77,314.7l.94,0c1.11,0-2.54-1.3-2-1.11-2-.71-4.24-1.83-6.35-2l-.7-.06c-1.11-.1,2.53,1.35,2,1.13q2,.76,4,1.46A11.57,11.57,0,0,0,264.77,314.7Z" transform="translate(-122.33 -276.01)"/><path class="cls-6" d="M264.26,312.47l1,0a1.56,1.56,0,0,0-.79-.71q-1.18-.73-2.38-1.41-1.5-.87-3-1.69a13.35,13.35,0,0,0-2.15-1.06l-.71-.09c-.36,0-.24,0-.13.23l.61.47q1.14.75,2.31,1.44c1.2.73,2.4,1.45,3.62,2.13A3.84,3.84,0,0,0,264.26,312.47Z" transform="translate(-122.33 -276.01)"/><path class="cls-6" d="M266.26,307l1,0c.13,0-2-3.33-1.94-3.27-.38-.55-1.53-2.78-2.4-2.94l-.64-.12a1,1,0,0,0,.22.78q.72,1.28,1.51,2.51C264.29,304.37,265.52,306.93,266.26,307Z" transform="translate(-122.33 -276.01)"/><path class="cls-6" d="M265.54,313.52l1,0a1.79,1.79,0,0,0-.89-.72q-1.3-.74-2.63-1.44-1.65-.89-3.32-1.73a15.67,15.67,0,0,0-2.36-1.08l-.75-.1c-.39-.05-.25,0-.13.23l.69.48q1.27.76,2.57,1.48c1.33.74,2.66,1.48,4,2.18A4.43,4.43,0,0,0,265.54,313.52Z" transform="translate(-122.33 -276.01)"/><path class="cls-6" d="M264.54,309.4l1,0a1.62,1.62,0,0,0-.63-.88q-1.43-1.41-2.92-2.76t-3-2.67a1.62,1.62,0,0,0-.94-.56l-.67-.11a1.59,1.59,0,0,0,.59.89q1.36,1.44,2.79,2.81t2.87,2.73A1.59,1.59,0,0,0,264.54,309.4Z" transform="translate(-122.33 -276.01)"/><path class="cls-6" d="M266,311.69l1,0a2,2,0,0,0-.78-.92q-1.68-1.46-3.42-2.85t-3.5-2.75a2,2,0,0,0-1.06-.57l-.69-.12a1.91,1.91,0,0,0,.74.93q1.62,1.49,3.3,2.91T265,311.1A1.91,1.91,0,0,0,266,311.69Z" transform="translate(-122.33 -276.01)"/><path class="cls-6" d="M266.64,306l.87-.2c.33-.07-1.3-2.62-1.26-2.56-.22-.35-1.1-2.25-1.74-2.26h-.58c-.28,0,1.15,2.73,1.11,2.65C265.12,303.81,266.13,306.14,266.64,306Z" transform="translate(-122.33 -276.01)"/></g><g class="cls-4"><path class="cls-6" d="M147.51,352.65c39.57.67,79.16.56,118.73.69l128.77.44,247.63.85c.09,0-2.25-3-2.22-3-.38-.44-1.82-2.61-2.64-2.62l-247.63-.85-118.86-.41-59.43-.2-29.72-.1q-19.47.13-38.93-.75c-.14,0,2,3.19,1.92,3.13C145.42,350.25,146.74,352.64,147.51,352.65Z" transform="translate(-122.33 -276.01)"/><path class="cls-6" d="M148.57,355.94c82.48.58,165,.66,247.44.94l247.63.85a1.75,1.75,0,0,0-.66-.92q-1.48-1.48-3-2.9t-3.1-2.81a1.75,1.75,0,0,0-1-.59l-247.63-.85-118.86-.41c-42.62-.15-85.27.22-127.87-1.17a1.73,1.73,0,0,0,.57,1q1.34,1.6,2.74,3.15t2.82,3.07A1.73,1.73,0,0,0,148.57,355.94Z" transform="translate(-122.33 -276.01)"/><path class="cls-6" d="M148.5,351.74c82.41,0,164.83.49,247.24.77l247.63.85c.29,0-1.09-2-1-1.92-.26-.36-.9-1.59-1.49-1.59L393.22,349l-118.86-.41c-42.68-.15-85.36,0-128-.61-.31,0,.89,2.09.85,2C147.36,350.32,147.95,351.74,148.5,351.74Z" transform="translate(-122.33 -276.01)"/><path class="cls-6" d="M147.4,357.17c82.49.57,165,.65,247.47.94L642.5,359a1.81,1.81,0,0,0-.8-.83q-1.71-1.28-3.47-2.48t-3.54-2.39a1.81,1.81,0,0,0-1.06-.46L386,351.94l-118.86-.41c-42.69-.15-85.42.21-128.09-1.15a1.8,1.8,0,0,0,.73.88q1.6,1.4,3.26,2.73t3.34,2.64A1.8,1.8,0,0,0,147.4,357.17Z" transform="translate(-122.33 -276.01)"/><path class="cls-6" d="M147.78,354c39.55.4,79.11.42,118.66.56l128.77.44,247.63.85a1.36,1.36,0,0,0-.5-.85q-1.2-1.36-2.46-2.66c-.47-.5-2.4-3.12-3.37-3.12l-247.63-.85L270,348c-42.62-.15-85.28.19-127.89-1a1.33,1.33,0,0,0,.42.88q1.06,1.44,2.19,2.83C145.09,351.08,146.89,354,147.78,354Z" transform="translate(-122.33 -276.01)"/><path class="cls-6" d="M147.44,360.83c82.51.52,165,.64,247.55.92l247.63.85c1.12,0-2.6-1.23-2-1q-2.06-.67-4.14-1.28a11.82,11.82,0,0,0-2.19-.53l-247.63-.85-118.86-.41c-42.81-.15-85.64,0-128.44-.91-1.11,0,2.48,1.35,2,1.14q2,.77,4,1.48A11.59,11.59,0,0,0,147.44,360.83Z" transform="translate(-122.33 -276.01)"/><path class="cls-6" d="M146.93,358.61c82.5.54,165,.64,247.51.93l247.63.85a1.54,1.54,0,0,0-.81-.67q-1.69-1-3.42-1.85c-1.14-.59-3.09-2-4.49-2l-227.82-.78-109-.37-59.43-.2c-32.86-.11-65.73,0-98.58-.92a1.52,1.52,0,0,0,.76.72q1.62,1.06,3.28,2C143.6,356.93,145.61,358.6,146.93,358.61Z" transform="translate(-122.33 -276.01)"/><path class="cls-6" d="M148.93,353.11c39.55.42,79.1.43,118.65.56l128.77.44L644,355c.13,0-2.1-3.21-2.06-3.15-.31-.41-1.72-2.81-2.51-2.81l-247.63-.85-118.86-.41c-42.63-.15-85.29.15-127.91-.92a30.18,30.18,0,0,0,1.72,3.29C147,350.47,148.22,353.1,148.93,353.11Z" transform="translate(-122.33 -276.01)"/><path class="cls-6" d="M148.21,359.66c79.22.51,158.44.62,237.67.89l257.53.88a1.76,1.76,0,0,0-.91-.68q-1.87-1-3.77-1.86c-1.29-.61-3.39-2-4.93-2L406,356.08l-109-.37-59.43-.2c-32.88-.11-65.78,0-98.65-1a1.75,1.75,0,0,0,.86.74q1.8,1.08,3.63,2.1C144.57,358,146.75,359.66,148.21,359.66Z" transform="translate(-122.33 -276.01)"/><path class="cls-6" d="M147.21,355.54c82.48.7,165,.69,247.45,1l247.63.85a1.61,1.61,0,0,0-.67-.85q-1.48-1.34-3-2.61t-3.1-2.52a1.61,1.61,0,0,0-1-.51L386.92,350l-118.86-.41c-42.65-.15-85.35.21-128-1.11a1.59,1.59,0,0,0,.59.9q1.36,1.44,2.78,2.82T146.3,355A1.59,1.59,0,0,0,147.21,355.54Z" transform="translate(-122.33 -276.01)"/><path class="cls-6" d="M148.67,357.83c82.51.61,165,.66,247.53.95l247.63.85a1.92,1.92,0,0,0-.82-.87q-1.74-1.36-3.54-2.64t-3.61-2.55a1.92,1.92,0,0,0-1.08-.51l-247.63-.85-118.86-.41c-42.68-.15-85.4.25-128.06-1.26a1.91,1.91,0,0,0,.74.93q1.62,1.49,3.29,2.93t3.37,2.84A1.91,1.91,0,0,0,148.67,357.83Z" transform="translate(-122.33 -276.01)"/><path class="cls-6" d="M149.31,352.16c39.49-.15,79,.12,118.48.26l128.77.44,247.63.85c.25,0-1.37-2.58-1.32-2.5-.24-.35-1.15-2.18-1.79-2.19l-247.63-.85-118.86-.41c-42.65-.15-85.32-.08-128-.63-.28,0,1.14,2.73,1.1,2.65C147.87,350.09,148.7,352.17,149.31,352.16Z" transform="translate(-122.33 -276.01)"/></g><g class="cls-4"><path class="cls-6" d="M137.37,326.4c32.24.44,64.49.28,96.74.28.1,0-2.26-3-2.22-3-.38-.43-1.83-2.62-2.65-2.62H180.81q-9.67,0-19.34,0-14.22.08-28.42-.57c-.14,0,2,3.19,1.93,3.13C135.28,324,136.61,326.39,137.37,326.4Z" transform="translate(-122.33 -276.01)"/><path class="cls-6" d="M138.43,329.69c32.23.11,64.45.09,96.68.09a1.75,1.75,0,0,0-.66-.92q-1.48-1.48-3-2.89t-3.11-2.8a1.75,1.75,0,0,0-1-.59c-32,0-64,.22-96-.72a1.73,1.73,0,0,0,.57,1q1.34,1.6,2.75,3.14t2.84,3.06A1.73,1.73,0,0,0,138.43,329.69Z" transform="translate(-122.33 -276.01)"/><path class="cls-6" d="M138.37,325.48c32.16-.13,64.32-.08,96.48-.08.29,0-1.09-2-1-1.92-.26-.36-.91-1.59-1.49-1.59-32,0-64.1.15-96.14-.17-.31,0,.89,2.09.85,2C137.22,324.07,137.82,325.48,138.37,325.48Z" transform="translate(-122.33 -276.01)"/><path class="cls-6" d="M137.26,330.92c32.24.11,64.47.09,96.71.09a1.81,1.81,0,0,0-.8-.83q-1.71-1.27-3.48-2.48t-3.54-2.38a1.81,1.81,0,0,0-1.06-.46c-32.07,0-64.14.22-96.2-.7a1.79,1.79,0,0,0,.74.88q1.61,1.39,3.27,2.72t3.34,2.62A1.79,1.79,0,0,0,137.26,330.92Z" transform="translate(-122.33 -276.01)"/><path class="cls-6" d="M137.65,327.75c32.22.21,64.44.15,96.67.15a1.36,1.36,0,0,0-.5-.85q-1.2-1.36-2.46-2.66c-.47-.49-2.4-3.12-3.37-3.12-32,0-64,.23-96-.58a1.33,1.33,0,0,0,.42.88q1.07,1.44,2.2,2.83C134.95,324.84,136.76,327.74,137.65,327.75Z" transform="translate(-122.33 -276.01)"/><path class="cls-6" d="M137.31,334.59q48.39.14,96.78.07c1.12,0-2.6-1.22-2-1q-2.06-.66-4.14-1.27a11.79,11.79,0,0,0-2.19-.53c-32.19,0-64.37.14-96.55-.46-1.1,0,2.49,1.34,2,1.13q2,.76,4,1.46A11.57,11.57,0,0,0,137.31,334.59Z" transform="translate(-122.33 -276.01)"/><path class="cls-6" d="M136.8,332.36q48.37.15,96.75.08a1.53,1.53,0,0,0-.81-.67q-1.69-1-3.42-1.84c-1.14-.59-3.09-2-4.5-2-32.13,0-64.28.18-96.4-.57a1.52,1.52,0,0,0,.76.72q1.62,1.05,3.28,2C133.47,330.69,135.48,332.35,136.8,332.36Z" transform="translate(-122.33 -276.01)"/><path class="cls-6" d="M138.8,326.86c32.22.23,64.44.15,96.65.15.13,0-2.11-3.22-2.06-3.15-.31-.4-1.73-2.81-2.51-2.81-32,0-64,.22-96-.47a30.27,30.27,0,0,0,1.73,3.29C136.81,324.22,138.08,326.85,138.8,326.86Z" transform="translate(-122.33 -276.01)"/><path class="cls-6" d="M138.07,333.41q48.4.14,96.81.07a1.76,1.76,0,0,0-.91-.68q-1.87-1-3.78-1.85c-1.29-.61-3.39-2-4.93-2-32.15,0-64.33.17-96.48-.66a1.75,1.75,0,0,0,.87.73q1.8,1.08,3.64,2.08C134.44,331.73,136.62,333.41,138.07,333.41Z" transform="translate(-122.33 -276.01)"/><path class="cls-6" d="M137.07,329.29c32.23.16,64.46.12,96.69.12a1.61,1.61,0,0,0-.67-.85q-1.48-1.33-3-2.61t-3.1-2.52a1.61,1.61,0,0,0-1-.51c-32,0-64.07.23-96.1-.65a1.59,1.59,0,0,0,.59.89q1.36,1.44,2.79,2.81t2.87,2.73A1.59,1.59,0,0,0,137.07,329.29Z" transform="translate(-122.33 -276.01)"/><path class="cls-6" d="M138.54,331.58c32.26.13,64.51.09,96.77.09a1.92,1.92,0,0,0-.82-.87q-1.75-1.35-3.54-2.63t-3.61-2.54a1.92,1.92,0,0,0-1.08-.51H177.83c-15.93,0-31.82-.3-47.74-.81a1.91,1.91,0,0,0,.74.93q1.62,1.49,3.3,2.91t3.38,2.82A1.91,1.91,0,0,0,138.54,331.58Z" transform="translate(-122.33 -276.01)"/><path class="cls-6" d="M139.17,325.91c32.16-.24,64.32-.15,96.49-.15.25,0-1.38-2.58-1.32-2.5-.23-.35-1.15-2.19-1.79-2.19-32,0-64.05.11-96.08-.18-.28,0,1.15,2.73,1.11,2.65C137.73,323.83,138.57,325.91,139.17,325.91Z" transform="translate(-122.33 -276.01)"/></g><g class="cls-4"><path class="cls-6" d="M296.73,328c41.62.59,83.26.27,124.88.27.1,0-2.24-3-2.2-3-.37-.43-1.82-2.63-2.63-2.63H327.49q-17.55.18-35.09-.57c-.14,0,2,3.19,1.93,3.13C294.63,325.57,296,328,296.73,328Z" transform="translate(-122.33 -276.01)"/><path class="cls-6" d="M297.79,331.25c41.6.14,83.21.08,124.82.08a1.74,1.74,0,0,0-.65-.92q-1.47-1.48-3-2.91t-3.09-2.82a1.74,1.74,0,0,0-1-.6c-41.38,0-82.81.54-124.17-.66a1.73,1.73,0,0,0,.57,1q1.34,1.6,2.75,3.14t2.84,3.06A1.73,1.73,0,0,0,297.79,331.25Z" transform="translate(-122.33 -276.01)"/><path class="cls-6" d="M297.73,327c41.54-.2,83.08-.09,124.62-.09.29,0-1.07-2-1-1.92-.25-.36-.89-1.6-1.48-1.6-41.44,0-82.88.24-124.32-.15-.31,0,.89,2.09.85,2C296.58,325.63,297.17,327,297.73,327Z" transform="translate(-122.33 -276.01)"/><path class="cls-6" d="M296.62,332.48c41.61.14,83.23.08,124.84.08a1.81,1.81,0,0,0-.8-.83q-1.71-1.28-3.46-2.49t-3.53-2.4a1.81,1.81,0,0,0-1.05-.47c-41.45,0-82.94.53-124.37-.65a1.79,1.79,0,0,0,.74.88q1.61,1.39,3.27,2.72t3.34,2.62A1.79,1.79,0,0,0,296.62,332.48Z" transform="translate(-122.33 -276.01)"/><path class="cls-6" d="M297,329.31c41.6.28,83.2.14,124.8.14a1.36,1.36,0,0,0-.5-.85q-1.19-1.36-2.44-2.67c-.46-.49-2.39-3.14-3.35-3.14-41.39,0-82.82.51-124.19-.54a1.33,1.33,0,0,0,.42.88q1.07,1.44,2.2,2.83C294.3,326.4,296.12,329.3,297,329.31Z" transform="translate(-122.33 -276.01)"/><path class="cls-6" d="M296.66,336.15c41.64.12,83.27.07,124.91.07,1.12,0-2.59-1.23-2-1q-2.06-.67-4.13-1.28a11.77,11.77,0,0,0-2.19-.53c-41.56,0-83.14.35-124.69-.43-1.1,0,2.49,1.34,2,1.13q2,.76,4,1.46A11.57,11.57,0,0,0,296.66,336.15Z" transform="translate(-122.33 -276.01)"/><path class="cls-6" d="M296.16,333.92c41.63.13,83.25.07,124.88.07a1.53,1.53,0,0,0-.81-.67q-1.69-1-3.41-1.85c-1.13-.59-3.09-2-4.48-2-41.51,0-83.05.45-124.55-.53a1.52,1.52,0,0,0,.76.72q1.62,1.05,3.28,2C292.83,332.25,294.83,333.91,296.16,333.92Z" transform="translate(-122.33 -276.01)"/><path class="cls-6" d="M298.16,328.42c41.6.31,83.2.15,124.79.15.14,0-2.09-3.23-2-3.17-.3-.4-1.71-2.82-2.49-2.82-41.39,0-82.82.46-124.21-.43a30.27,30.27,0,0,0,1.73,3.29C296.17,325.78,297.44,328.41,298.16,328.42Z" transform="translate(-122.33 -276.01)"/><path class="cls-6" d="M297.43,335c41.64.13,83.29.07,124.93.07a1.76,1.76,0,0,0-.91-.68q-1.86-1-3.77-1.86c-1.28-.61-3.38-2-4.92-2-41.52,0-83.12.47-124.63-.62a1.75,1.75,0,0,0,.87.73q1.8,1.08,3.64,2.08C293.79,333.29,296,335,297.43,335Z" transform="translate(-122.33 -276.01)"/><path class="cls-6" d="M296.43,330.85c41.61.21,83.22.11,124.82.11a1.61,1.61,0,0,0-.66-.85q-1.48-1.34-3-2.62T414.5,325a1.61,1.61,0,0,0-1-.51c-41.41,0-82.87.53-124.27-.6a1.59,1.59,0,0,0,.59.89q1.36,1.44,2.79,2.81t2.87,2.73A1.59,1.59,0,0,0,296.43,330.85Z" transform="translate(-122.33 -276.01)"/><path class="cls-6" d="M297.9,333.14c41.63.17,83.26.09,124.9.09a1.92,1.92,0,0,0-.81-.87q-1.74-1.36-3.52-2.65t-3.59-2.56a1.92,1.92,0,0,0-1.08-.51c-41.44,0-82.93.59-124.35-.75a1.91,1.91,0,0,0,.74.93q1.62,1.49,3.3,2.91t3.38,2.82A1.91,1.91,0,0,0,297.9,333.14Z" transform="translate(-122.33 -276.01)"/><path class="cls-6" d="M298.53,327.47c41.54-.36,83.09-.16,124.63-.16.25,0-1.36-2.59-1.31-2.51-.23-.35-1.14-2.2-1.78-2.2-41.42,0-82.84.2-124.25-.16-.28,0,1.15,2.73,1.11,2.65C297.09,325.4,297.93,327.48,298.53,327.47Z" transform="translate(-122.33 -276.01)"/></g><g class="cls-4"><path class="cls-6" d="M432.36,318.7q11.06,1.29,22.18,1.74,11.2.71,22.43.74c.14,0-2-3.16-1.95-3.1-.31-.41-1.63-2.75-2.4-2.77q-11.17,0-22.32-.8a192.66,192.66,0,0,1-21.8-2.07c-.13,0,1.73,3.34,1.69,3.28C430.46,316.14,431.6,318.64,432.36,318.7Z" transform="translate(-122.33 -276.01)"/><path class="cls-6" d="M433.34,321.84q11.07,1.19,22.19,1.67,11.2.72,22.43.75a1.73,1.73,0,0,0-.56-1q-1.33-1.6-2.72-3.15t-2.8-3.08a1.73,1.73,0,0,0-.9-.68q-11.13-.05-22.21-.92-10.84-.55-21.6-2.1a1.72,1.72,0,0,0,.47,1q1.16,1.72,2.39,3.39t2.49,3.32A1.72,1.72,0,0,0,433.34,321.84Z" transform="translate(-122.33 -276.01)"/><path class="cls-6" d="M433.18,317.77q11,1.05,22,1.52,11.22.69,22.46.71c.31,0-.9-2-.86-1.93-.21-.35-.78-1.62-1.34-1.63q-11.21,0-22.41-.72-10.92-.4-21.78-1.72c-.31,0,.72,2.09.69,2C432.16,316.36,432.63,317.73,433.18,317.77Z" transform="translate(-122.33 -276.01)"/><path class="cls-6" d="M432.18,323.07q11.09,1.19,22.22,1.67,11.2.72,22.43.75a1.82,1.82,0,0,0-.73-.9q-1.6-1.43-3.25-2.8t-3.32-2.71a1.82,1.82,0,0,0-1-.56q-11.15-.08-22.26-1-10.92-.57-21.76-2.14a1.82,1.82,0,0,0,.65,1q1.47,1.57,3,3.07t3.08,3A1.82,1.82,0,0,0,432.18,323.07Z" transform="translate(-122.33 -276.01)"/><path class="cls-6" d="M432.57,319.89q11.06,1.26,22.19,1.73,11.2.72,22.43.75a1.34,1.34,0,0,0-.42-.88q-1.07-1.44-2.2-2.83c-.38-.47-2.16-3.33-3.07-3.36q-11.15,0-22.26-.86-10.86-.5-21.63-2a1.31,1.31,0,0,0,.34.9q.92,1.51,1.92,3C430.16,316.79,431.7,319.82,432.57,319.89Z" transform="translate(-122.33 -276.01)"/><path class="cls-6" d="M432.17,326.69q11.12,1.19,22.28,1.67,11.21.72,22.44.75c1.11,0-2.45-1.46-2-1.25q-2-.87-4.08-1.69a12.25,12.25,0,0,0-2.17-.75q-11.2-.13-22.37-1-11.06-.59-22.05-2.05c-1.11-.12,2.34,1.65,1.86,1.4q2,1,3.94,2A12.27,12.27,0,0,0,432.17,326.69Z" transform="translate(-122.33 -276.01)"/><path class="cls-6" d="M431.72,324.51q11.1,1.18,22.24,1.66,11.2.71,22.43.74a1.57,1.57,0,0,0-.76-.75Q474,325,472.34,324c-1-.64-3-2.4-4.35-2.45q-11.18-.1-22.32-1-11-.57-21.92-2.08a1.58,1.58,0,0,0,.7.81q1.53,1.25,3.11,2.43C428.47,322.42,430.41,324.4,431.72,324.51Z" transform="translate(-122.33 -276.01)"/><path class="cls-6" d="M433.75,319.12q11,1.2,22.14,1.67,11.2.71,22.43.74a30.59,30.59,0,0,0-1.75-3.25c-.24-.37-1.49-2.92-2.22-2.94q-11.16,0-22.29-.79-10.87-.45-21.65-1.9a28.14,28.14,0,0,0,1.42,3.37C432,316.37,433,319.06,433.75,319.12Z" transform="translate(-122.33 -276.01)"/><path class="cls-6" d="M433,325.58q11.12,1.19,22.29,1.66,11.21.71,22.44.74a1.79,1.79,0,0,0-.85-.78q-1.78-1.16-3.6-2.26t-3.66-2.15a1.79,1.79,0,0,0-1.08-.39q-11.17-.11-22.29-1-11-.61-22-2.17a1.81,1.81,0,0,0,.78.85q1.68,1.32,3.41,2.57t3.48,2.47A1.81,1.81,0,0,0,433,325.58Z" transform="translate(-122.33 -276.01)"/><path class="cls-6" d="M432,321.43q11.07,1.22,22.2,1.69,11.2.72,22.43.75a1.6,1.6,0,0,0-.59-.9q-1.36-1.46-2.78-2.86t-2.86-2.77a1.6,1.6,0,0,0-.91-.59q-11.15-.06-22.26-.92-10.89-.54-21.68-2.08a1.59,1.59,0,0,0,.51.95q1.22,1.56,2.51,3.07t2.6,3A1.59,1.59,0,0,0,432,321.43Z" transform="translate(-122.33 -276.01)"/><path class="cls-6" d="M433.44,323.75q11.11,1.21,22.26,1.68,11.2.71,22.43.74a1.93,1.93,0,0,0-.72-.95q-1.6-1.53-3.25-3t-3.33-2.91a1.93,1.93,0,0,0-1-.62q-11.13-.07-22.21-1-10.91-.59-21.72-2.22a1.93,1.93,0,0,0,.63,1q1.44,1.68,2.95,3.3t3,3.22A1.93,1.93,0,0,0,433.44,323.75Z" transform="translate(-122.33 -276.01)"/><path class="cls-6" d="M434,318.16q11,1,22,1.45,11.21.69,22.44.72c.28,0-1.13-2.6-1.09-2.51-.19-.33-1-2.22-1.58-2.24q-11.19,0-22.36-.73-10.88-.44-21.71-1.69c-.28,0,.9,2.7.86,2.62C432.8,316.09,433.44,318.12,434,318.16Z" transform="translate(-122.33 -276.01)"/></g><g class="cls-4"><path class="cls-6" d="M514.78,325.45c42.73-.24,85.43-2,128.1-4.11.11,0-2.35-3-2.31-2.95-.37-.41-1.92-2.61-2.73-2.57-21.34,1-42.69,2-64,2.7q-13.73.48-27.46.84-18,.65-36,.2c-.14,0,2,3.18,2,3.11C512.64,323.06,514,325.45,514.78,325.45Z" transform="translate(-122.33 -276.01)"/><path class="cls-6" d="M515.83,328.73c42.72-.67,85.38-2.19,128.05-4.28a1.75,1.75,0,0,0-.69-.9q-1.53-1.43-3.12-2.8t-3.2-2.71a1.75,1.75,0,0,0-1-.56c-21.34,1-42.67,1.93-64,2.63q-13.73.47-27.46.82-17.89.47-35.79.07a1.74,1.74,0,0,0,.59,1q1.37,1.57,2.81,3.09t2.89,3A1.74,1.74,0,0,0,515.83,328.73Z" transform="translate(-122.33 -276.01)"/><path class="cls-6" d="M515.78,324.5c42.65-1,85.25-2.39,127.85-4.49.3,0-1.14-2-1.09-1.92-.25-.34-1-1.61-1.54-1.58-42.47,2.09-85,3.8-127.48,4.23-.31,0,.92,2.09.88,2C514.61,323.08,515.23,324.51,515.78,324.5Z" transform="translate(-122.33 -276.01)"/><path class="cls-6" d="M514.66,330c42.73-.67,85.4-2.2,128.08-4.29a1.8,1.8,0,0,0-.83-.8q-1.75-1.21-3.54-2.35t-3.61-2.25a1.8,1.8,0,0,0-1.07-.42c-21.34,1-42.69,1.91-64,2.61q-13.73.47-27.46.82-18,.48-36,.09a1.79,1.79,0,0,0,.75.87q1.63,1.36,3.31,2.65t3.39,2.56A1.79,1.79,0,0,0,514.66,330Z" transform="translate(-122.33 -276.01)"/><path class="cls-6" d="M515,326.79c42.71-.53,85.38-2.14,128-4.22a1.37,1.37,0,0,0-.53-.84q-1.24-1.33-2.54-2.6c-.47-.46-2.52-3.08-3.47-3-42.4,2-84.84,4-127.3,3.71a1.34,1.34,0,0,0,.44.88q1.09,1.43,2.24,2.8C512.29,323.91,514.16,326.8,515,326.79Z" transform="translate(-122.33 -276.01)"/><path class="cls-6" d="M514.71,333.63c42.75-.69,85.45-2.21,128.16-4.3,1.11-.05-2.61-1.11-2-1q-2.06-.58-4.14-1.09a11.54,11.54,0,0,0-2.18-.44c-42.62,2-85.26,3.72-127.93,3.74-1.1,0,2.5,1.28,2,1.09q2,.71,4,1.37A11.45,11.45,0,0,0,514.71,333.63Z" transform="translate(-122.33 -276.01)"/><path class="cls-6" d="M514.2,331.39c42.74-.68,85.42-2.21,128.11-4.3a1.51,1.51,0,0,0-.83-.64q-1.71-.89-3.46-1.71c-1.13-.54-3.15-1.9-4.52-1.84-42.55,2-85.14,3.84-127.74,3.64a1.51,1.51,0,0,0,.77.7q1.63,1,3.31,2C510.85,329.8,512.88,331.41,514.2,331.39Z" transform="translate(-122.33 -276.01)"/><path class="cls-6" d="M516.2,325.89c42.71-.51,85.37-2.14,128-4.23.15,0-2.22-3.19-2.16-3.12-.3-.38-1.84-2.81-2.6-2.77-42.4,2.06-84.85,4-127.31,3.87a30.24,30.24,0,0,0,1.79,3.28C514.16,323.27,515.48,325.9,516.2,325.89Z" transform="translate(-122.33 -276.01)"/><path class="cls-6" d="M515.48,332.45c42.76-.69,85.46-2.21,128.17-4.31a1.74,1.74,0,0,0-.93-.64q-1.89-.88-3.82-1.69c-1.29-.55-3.45-1.88-5-1.81-42.57,2-85.19,3.82-127.81,3.52a1.74,1.74,0,0,0,.88.71q1.82,1,3.67,2C511.82,330.85,514,332.47,515.48,332.45Z" transform="translate(-122.33 -276.01)"/><path class="cls-6" d="M514.47,328.33c42.72-.6,85.39-2.16,128.06-4.25a1.61,1.61,0,0,0-.69-.83q-1.52-1.29-3.1-2.51t-3.17-2.42a1.61,1.61,0,0,0-1-.48c-42.43,2-84.91,4-127.39,3.6a1.59,1.59,0,0,0,.61.88q1.39,1.41,2.83,2.77t2.91,2.68A1.59,1.59,0,0,0,514.47,328.33Z" transform="translate(-122.33 -276.01)"/><path class="cls-6" d="M515.94,330.62c42.74-.64,85.44-2.19,128.13-4.28a1.91,1.91,0,0,0-.85-.83q-1.79-1.28-3.62-2.5t-3.69-2.4a1.91,1.91,0,0,0-1.09-.46c-21.34,1-42.68,1.91-64,2.6q-13.73.47-27.46.81-18,.46-36,0a1.91,1.91,0,0,0,.76.91q1.65,1.45,3.36,2.84T514.9,330A1.91,1.91,0,0,0,515.94,330.62Z" transform="translate(-122.33 -276.01)"/><path class="cls-6" d="M516.58,324.93c21.25-.59,42.5-1.07,63.74-1.8s42.75-1.69,64.11-2.74c.26,0-1.46-2.58-1.4-2.5-.23-.33-1.23-2.21-1.86-2.18-42.44,2.08-84.89,3.75-127.38,4.2-.28,0,1.2,2.73,1.15,2.65C515.1,322.85,516,324.95,516.58,324.93Z" transform="translate(-122.33 -276.01)"/></g><g class="cls-4"><path class="cls-6" d="M353.85,341.6q14.43.13,28.83-.74,14.49-.59,28.95-1.85c.12,0-2.37-3-2.33-2.94-.36-.39-1.95-2.61-2.74-2.55q-14.4,1.26-28.85,1.79-14.13.86-28.28.4c-.15,0,2,3.18,2,3.11C351.7,339.21,353.1,341.61,353.85,341.6Z" transform="translate(-122.33 -276.01)"/><path class="cls-6" d="M354.9,344.88q14.41-.1,28.79-.92,14.49-.59,28.94-1.85a1.75,1.75,0,0,0-.7-.89q-1.54-1.42-3.14-2.78t-3.21-2.69a1.75,1.75,0,0,0-1-.56q-14.36,1.27-28.77,1.66-14.05.72-28.13.3a1.74,1.74,0,0,0,.59,1q1.37,1.57,2.8,3.09t2.89,3A1.74,1.74,0,0,0,354.9,344.88Z" transform="translate(-122.33 -276.01)"/><path class="cls-6" d="M354.86,340.65q14.29-.28,28.56-1.09,14.5-.62,29-1.88c.3,0-1.15-2-1.1-1.91-.25-.33-1-1.61-1.55-1.57q-14.44,1.25-28.92,1.87-14.09.87-28.2.82c-.32,0,.92,2.09.88,2C353.68,339.23,354.3,340.67,354.86,340.65Z" transform="translate(-122.33 -276.01)"/><path class="cls-6" d="M353.73,346.12q14.42-.1,28.81-.92,14.49-.59,28.94-1.85a1.8,1.8,0,0,0-.83-.79q-1.75-1.2-3.55-2.33T403.48,338a1.8,1.8,0,0,0-1.07-.42q-14.39,1.25-28.82,1.64-14.15.72-28.33.31a1.79,1.79,0,0,0,.75.87q1.63,1.36,3.31,2.66t3.38,2.56A1.79,1.79,0,0,0,353.73,346.12Z" transform="translate(-122.33 -276.01)"/><path class="cls-6" d="M354.12,342.94q14.4,0,28.77-.85,14.49-.58,28.94-1.85a1.37,1.37,0,0,0-.53-.83q-1.25-1.32-2.56-2.59c-.45-.44-2.55-3.08-3.48-3q-14.38,1.27-28.8,1.73-14.05.77-28.13.42a1.34,1.34,0,0,0,.43.88q1.09,1.43,2.24,2.8C351.36,340.05,353.24,343,354.12,342.94Z" transform="translate(-122.33 -276.01)"/><path class="cls-6" d="M353.78,349.79q14.45-.11,28.88-.93,14.5-.59,29-1.85c1.1-.08-2.6-1.1-2.05-.95q-2.07-.57-4.15-1.08a11.55,11.55,0,0,0-2.19-.43q-14.44,1.2-28.93,1.65-14.32.73-28.67.52c-1.1,0,2.49,1.28,2,1.09q2,.72,4,1.38A11.45,11.45,0,0,0,353.78,349.79Z" transform="translate(-122.33 -276.01)"/><path class="cls-6" d="M353.27,347.55q14.44-.11,28.85-.93,14.49-.59,28.94-1.85a1.51,1.51,0,0,0-.83-.64q-1.71-.88-3.46-1.69c-1.11-.52-3.18-1.91-4.53-1.82q-28.64,2.34-57.4,2.07a1.51,1.51,0,0,0,.77.7q1.63,1,3.3,2C349.91,345.94,352,347.58,353.27,347.55Z" transform="translate(-122.33 -276.01)"/><path class="cls-6" d="M355.27,342.05q14.39,0,28.75-.85,14.49-.59,28.95-1.85a37.69,37.69,0,0,0-2.18-3.11c-.3-.36-1.86-2.81-2.62-2.75q-14.39,1.27-28.82,1.79-14,.82-28.13.53a29.27,29.27,0,0,0,1.79,3.28C353.23,339.42,354.56,342.07,355.27,342.05Z" transform="translate(-122.33 -276.01)"/><path class="cls-6" d="M354.55,348.61q14.47-.11,28.9-.93,14.5-.6,29-1.86a1.74,1.74,0,0,0-.93-.63q-1.9-.87-3.83-1.67c-1.27-.53-3.48-1.88-5-1.79q-28.68,2.33-57.47,2a1.74,1.74,0,0,0,.88.71q1.82,1,3.67,2C350.88,347,353.11,348.64,354.55,348.61Z" transform="translate(-122.33 -276.01)"/><path class="cls-6" d="M353.54,344.48q14.41-.07,28.79-.88,14.49-.58,28.94-1.85a1.61,1.61,0,0,0-.7-.83q-1.53-1.28-3.11-2.5T404.28,336a1.61,1.61,0,0,0-1-.47q-14.38,1.26-28.81,1.68-14.1.74-28.22.35a1.59,1.59,0,0,0,.61.89q1.39,1.41,2.83,2.77t2.91,2.68A1.59,1.59,0,0,0,353.54,344.48Z" transform="translate(-122.33 -276.01)"/><path class="cls-6" d="M355,346.77q14.45-.09,28.87-.91,14.49-.59,28.95-1.85a1.91,1.91,0,0,0-.85-.83q-1.8-1.27-3.64-2.48t-3.7-2.38a1.91,1.91,0,0,0-1.1-.46q-14.37,1.25-28.79,1.61-14.15.69-28.32.22a1.91,1.91,0,0,0,.76.91q1.65,1.45,3.35,2.85T354,346.2A1.91,1.91,0,0,0,355,346.77Z" transform="translate(-122.33 -276.01)"/><path class="cls-6" d="M355.65,341.09q14.3-.36,28.58-1.15,14.49-.62,29-1.87c.27,0-1.47-2.57-1.42-2.49-.22-.32-1.25-2.21-1.88-2.17q-14.42,1.26-28.88,1.85-14.06.83-28.15.81c-.29,0,1.19,2.73,1.15,2.65C354.17,339,355.05,341.11,355.65,341.09Z" transform="translate(-122.33 -276.01)"/></g><g class="cls-7"><path class="cls-8" d="M427.55,348.14c55.19.64,110.41-.29,165.59-1.57.07,0-1.53-2-1.5-2-.25-.28-1.24-1.75-1.78-1.74q-41.4.95-82.8,1.44c-27.46.29-54.92.51-82.37-.09-.1,0,1.31,2.13,1.28,2.08C426.16,346.54,427,348.13,427.55,348.14Z" transform="translate(-122.33 -276.01)"/><path class="cls-8" d="M428.26,350.33c55.19.27,110.37-.42,165.55-1.69a1.16,1.16,0,0,0-.45-.61q-1-1-2-1.91c-.4-.36-2-2.25-2.74-2.24q-41.39.93-82.78,1.4c-27.42.27-54.83.45-82.24-.19a1.16,1.16,0,0,0,.38.65q.89,1.07,1.82,2.1C426.08,348.17,427.58,350.33,428.26,350.33Z" transform="translate(-122.33 -276.01)"/><path class="cls-8" d="M428.17,347.44c55.17.23,110.32-.46,165.47-1.74.2,0-.73-1.33-.7-1.28-.17-.23-.62-1.07-1-1.06-55.05,1.28-110.16,2.31-165.22,1.58-.21,0,.59,1.39.56,1.34C427.41,346.51,427.8,347.44,428.17,347.44Z" transform="translate(-122.33 -276.01)"/><path class="cls-8" d="M427.48,351.15c55.2.26,110.39-.42,165.57-1.7a1.2,1.2,0,0,0-.54-.55q-1.15-.83-2.33-1.62c-.6-.41-2.21-1.88-3.08-1.86q-41.4.92-82.8,1.38c-27.47.27-54.92.44-82.39-.19a1.2,1.2,0,0,0,.49.59q1.07.93,2.18,1.82C425.08,349.44,426.66,351.15,427.48,351.15Z" transform="translate(-122.33 -276.01)"/><path class="cls-8" d="M427.73,349c55.19.4,110.37-.37,165.54-1.65,0,0-2-2.33-2-2.33-.31-.32-1.63-2.08-2.27-2.06-55,1.25-110.05,2.44-165,1.32,0,0,1.75,2.5,1.74,2.48C425.94,347.08,427.14,349,427.73,349Z" transform="translate(-122.33 -276.01)"/><path class="cls-8" d="M427.51,353.59q82.82.35,165.62-1.7c.74,0-1.73-.79-1.36-.67-1.24-.39-2.89-1.16-4.22-1.13-55.14,1.22-110.32,2.2-165.47,1.33-.74,0,1.65.9,1.31.76C424.55,352.63,426.23,353.59,427.51,353.59Z" transform="translate(-122.33 -276.01)"/><path class="cls-8" d="M427.17,352.11c55.21.25,110.4-.43,165.59-1.7a1,1,0,0,0-.54-.44q-1.13-.62-2.29-1.2c-.75-.38-2.08-1.32-3-1.3-55.09,1.22-110.24,2.33-165.34,1.27a1,1,0,0,0,.51.48q1.08.71,2.19,1.37C424.95,351,426.29,352.1,427.17,352.11Z" transform="translate(-122.33 -276.01)"/><path class="cls-8" d="M428.5,348.44c55.18.42,110.37-.37,165.54-1.65.1,0-1.43-2.14-1.39-2.1-.2-.26-1.18-1.88-1.69-1.87-55,1.26-110.05,2.38-165.06,1.43a19.51,19.51,0,0,0,1.15,2.19C427.18,346.68,428,348.43,428.5,348.44Z" transform="translate(-122.33 -276.01)"/><path class="cls-8" d="M428,352.82q82.83.34,165.63-1.71a1.17,1.17,0,0,0-.61-.44q-1.25-.62-2.53-1.2c-.85-.39-2.28-1.32-3.29-1.3-55.1,1.21-110.27,2.35-165.37,1.19a1.17,1.17,0,0,0,.58.49q1.2.72,2.42,1.4C425.6,351.68,427.06,352.81,428,352.82Z" transform="translate(-122.33 -276.01)"/><path class="cls-8" d="M427.35,350.06c55.19.33,110.38-.39,165.56-1.67a1.07,1.07,0,0,0-.45-.56q-1-.88-2-1.72c-.45-.37-2-2-2.72-2q-41.39.93-82.79,1.4c-27.44.28-54.88.45-82.32-.15a1.06,1.06,0,0,0,.39.6q.91,1,1.85,1.88C425.2,348.2,426.64,350.06,427.35,350.06Z" transform="translate(-122.33 -276.01)"/><path class="cls-8" d="M428.34,351.6c55.21.26,110.4-.42,165.6-1.7a1.28,1.28,0,0,0-.55-.57q-1.17-.89-2.38-1.73c-.58-.41-2.27-2-3.15-2q-41.39.91-82.79,1.38c-27.46.27-54.9.43-82.36-.26a1.28,1.28,0,0,0,.49.62q1.08,1,2.2,2C425.87,349.71,427.53,351.59,428.34,351.6Z" transform="translate(-122.33 -276.01)"/><path class="cls-8" d="M428.77,347.85c27.52-.13,55-.14,82.57-.44s55.23-.82,82.84-1.46c.17,0-.93-1.72-.9-1.67-.15-.23-.78-1.47-1.21-1.46C537,344.1,482,345,426.95,344.44c-.19,0,.78,1.85.75,1.79C427.8,346.44,428.37,347.85,428.77,347.85Z" transform="translate(-122.33 -276.01)"/></g><g class="cls-4"><path class="cls-9" d="M208.71,365.54c31.65.43,63.31.28,95,.28h95.09c.1,0-2.25-3-2.22-3-.38-.43-1.83-2.62-2.64-2.62H298.81c-31.48,0-63,.32-94.43-.59-.14,0,2,3.19,1.93,3.13C206.61,363.14,207.94,365.53,208.71,365.54Z" transform="translate(-122.33 -276.01)"/><path class="cls-9" d="M209.77,368.82c63.33.22,126.67.09,190,.09a1.75,1.75,0,0,0-.66-.92q-1.48-1.48-3-2.9t-3.1-2.81a1.75,1.75,0,0,0-1-.59H296.93c-31.42,0-62.82.21-94.23-.7a1.73,1.73,0,0,0,.57,1q1.34,1.6,2.75,3.14t2.84,3.06A1.73,1.73,0,0,0,209.77,368.82Z" transform="translate(-122.33 -276.01)"/><path class="cls-9" d="M209.7,364.62c63.27-.26,126.53-.08,189.8-.08.29,0-1.08-2-1-1.92-.26-.36-.9-1.59-1.49-1.59H301.9c-31.46,0-62.92.14-94.38-.16-.31,0,.89,2.09.85,2C208.55,363.2,209.15,364.62,209.7,364.62Z" transform="translate(-122.33 -276.01)"/><path class="cls-9" d="M208.6,370.06c63.34.22,126.69.08,190,.08a1.81,1.81,0,0,0-.8-.83q-1.71-1.27-3.47-2.48t-3.54-2.38a1.81,1.81,0,0,0-1.06-.46H294.67c-31.49,0-63,.21-94.44-.69a1.79,1.79,0,0,0,.74.88q1.61,1.39,3.27,2.72t3.34,2.62A1.79,1.79,0,0,0,208.6,370.06Z" transform="translate(-122.33 -276.01)"/><path class="cls-9" d="M209,366.88c63.33.42,126.66.15,190,.15a1.36,1.36,0,0,0-.5-.85q-1.2-1.36-2.46-2.66c-.47-.49-2.4-3.12-3.37-3.12H297.55c-31.42,0-62.84.22-94.25-.57a1.33,1.33,0,0,0,.42.88q1.07,1.44,2.2,2.83C206.28,364,208.09,366.88,209,366.88Z" transform="translate(-122.33 -276.01)"/><path class="cls-9" d="M208.64,373.72c63.37.18,126.74.07,190.1.07,1.12,0-2.6-1.23-2-1q-2.06-.66-4.14-1.27a11.79,11.79,0,0,0-2.19-.53H295.29c-31.6,0-63.19.13-94.78-.46-1.1,0,2.49,1.34,2,1.13q2,.76,4,1.46A11.57,11.57,0,0,0,208.64,373.72Z" transform="translate(-122.33 -276.01)"/><path class="cls-9" d="M208.13,371.49c63.36.2,126.71.07,190.07.07a1.53,1.53,0,0,0-.81-.67q-1.69-1-3.42-1.84c-1.14-.59-3.09-2-4.49-2H313.4c-37.87,0-75.79.33-113.65-.56a1.52,1.52,0,0,0,.76.72q1.62,1.05,3.28,2C204.8,369.83,206.81,371.49,208.13,371.49Z" transform="translate(-122.33 -276.01)"/><path class="cls-9" d="M210.13,366c63.32.46,126.65.15,190,.15.13,0-2.11-3.22-2.06-3.16-.31-.4-1.73-2.81-2.51-2.81H300.45c-31.42,0-62.85.22-94.27-.46a30.27,30.27,0,0,0,1.73,3.29C208.14,363.36,209.41,366,210.13,366Z" transform="translate(-122.33 -276.01)"/><path class="cls-9" d="M209.41,372.55c63.37.19,126.75.07,190.13.07a1.76,1.76,0,0,0-.91-.68q-1.87-1-3.77-1.85c-1.29-.61-3.39-2-4.93-2H313.85c-37.9,0-75.84.33-113.73-.65a1.75,1.75,0,0,0,.87.73q1.8,1.08,3.64,2.08C205.77,370.86,208,372.55,209.41,372.55Z" transform="translate(-122.33 -276.01)"/><path class="cls-9" d="M208.41,368.42c63.33.32,126.67.12,190,.12a1.61,1.61,0,0,0-.67-.85q-1.48-1.34-3-2.61t-3.1-2.52a1.61,1.61,0,0,0-1-.51H295.59c-31.45,0-62.9.22-94.34-.64a1.59,1.59,0,0,0,.59.89q1.36,1.44,2.79,2.81t2.87,2.73A1.59,1.59,0,0,0,208.41,368.42Z" transform="translate(-122.33 -276.01)"/><path class="cls-9" d="M209.87,370.72c63.36.25,126.72.09,190.09.09a1.92,1.92,0,0,0-.82-.87q-1.74-1.35-3.54-2.64T392,364.76a1.92,1.92,0,0,0-1.08-.51H257.79c-18.82,0-37.56-.19-56.38-.79a1.91,1.91,0,0,0,.74.93q1.62,1.49,3.3,2.91t3.38,2.82A1.91,1.91,0,0,0,209.87,370.72Z" transform="translate(-122.33 -276.01)"/><path class="cls-9" d="M210.51,365c63.26-.49,126.54-.15,189.81-.15.25,0-1.37-2.58-1.32-2.5-.23-.35-1.15-2.19-1.79-2.19-63.13,0-126.28.4-189.41-.18-.28,0,1.15,2.73,1.11,2.65C209.07,363,209.9,365.05,210.51,365Z" transform="translate(-122.33 -276.01)"/></g><g class="cls-4"><path class="cls-9" d="M415,358.91c49.47.69,99,.27,148.43.27.1,0-2.25-3-2.21-3-.37-.43-1.82-2.62-2.64-2.62H447.14q-18.25.18-36.49-.58c-.14,0,2,3.19,1.93,3.13C412.87,356.52,414.21,358.9,415,358.91Z" transform="translate(-122.33 -276.01)"/><path class="cls-9" d="M416,362.2c49.46.17,98.92.08,148.37.08a1.75,1.75,0,0,0-.66-.92q-1.48-1.48-3-2.9t-3.1-2.81a1.75,1.75,0,0,0-1-.59H482.4c-24.49,0-48.95,0-73.43-.69a1.73,1.73,0,0,0,.57,1q1.34,1.6,2.75,3.14t2.84,3.06A1.73,1.73,0,0,0,416,362.2Z" transform="translate(-122.33 -276.01)"/><path class="cls-9" d="M416,358c49.39-.22,98.78-.09,148.17-.09.29,0-1.08-2-1-1.92-.26-.36-.9-1.59-1.48-1.59-49.28,0-98.58.32-147.86-.16-.31,0,.89,2.09.85,2C414.82,356.58,415.42,358,416,358Z" transform="translate(-122.33 -276.01)"/><path class="cls-9" d="M414.86,363.43c49.47.17,98.94.08,148.4.08a1.81,1.81,0,0,0-.8-.83q-1.71-1.28-3.47-2.48t-3.54-2.39a1.81,1.81,0,0,0-1.06-.46H480.13c-24.56,0-49.09,0-73.64-.67a1.79,1.79,0,0,0,.74.88q1.61,1.39,3.27,2.72t3.34,2.62A1.79,1.79,0,0,0,414.86,363.43Z" transform="translate(-122.33 -276.01)"/><path class="cls-9" d="M415.25,360.26c49.45.33,98.91.14,148.36.14a1.36,1.36,0,0,0-.5-.85q-1.2-1.36-2.45-2.67c-.47-.49-2.4-3.13-3.36-3.13H483c-24.49,0-49,.06-73.45-.56a1.33,1.33,0,0,0,.42.88q1.07,1.44,2.2,2.83C412.55,357.35,414.36,360.25,415.25,360.26Z" transform="translate(-122.33 -276.01)"/><path class="cls-9" d="M414.9,367.1c49.49.14,99,.07,148.47.07,1.12,0-2.59-1.23-2-1q-2.06-.66-4.14-1.27a11.78,11.78,0,0,0-2.19-.53c-49.41,0-98.84.48-148.25-.45-1.1,0,2.49,1.34,2,1.13q2,.76,4,1.46A11.57,11.57,0,0,0,414.9,367.1Z" transform="translate(-122.33 -276.01)"/><path class="cls-9" d="M414.4,364.87c49.48.16,99,.07,148.44.07a1.53,1.53,0,0,0-.81-.67q-1.69-1-3.42-1.85c-1.13-.59-3.09-2-4.49-2h-65c-27.71,0-55.4.1-83.11-.55a1.52,1.52,0,0,0,.76.72q1.62,1.05,3.28,2C411.07,363.2,413.08,364.86,414.4,364.87Z" transform="translate(-122.33 -276.01)"/><path class="cls-9" d="M416.4,359.37c49.45.36,98.9.15,148.35.15.14,0-2.1-3.22-2.05-3.16-.31-.4-1.72-2.82-2.5-2.82H485.92c-24.5,0-49,.08-73.47-.45a30.27,30.27,0,0,0,1.73,3.29C414.41,356.73,415.68,359.36,416.4,359.37Z" transform="translate(-122.33 -276.01)"/><path class="cls-9" d="M415.67,365.93c49.5.15,99,.07,148.5.07a1.76,1.76,0,0,0-.91-.68q-1.87-1-3.77-1.86c-1.29-.61-3.39-2-4.92-2H498.86c-30.82,0-61.65.17-92.47-.64a1.75,1.75,0,0,0,.87.73q1.8,1.08,3.64,2.08C412,364.24,414.22,365.92,415.67,365.93Z" transform="translate(-122.33 -276.01)"/><path class="cls-9" d="M414.67,361.8c49.46.25,98.92.11,148.38.11a1.61,1.61,0,0,0-.67-.85q-1.48-1.34-3-2.62t-3.09-2.52a1.61,1.61,0,0,0-1-.51H481.05c-24.52,0-49,0-73.54-.63a1.59,1.59,0,0,0,.59.89q1.36,1.44,2.79,2.81t2.87,2.73A1.59,1.59,0,0,0,414.67,361.8Z" transform="translate(-122.33 -276.01)"/><path class="cls-9" d="M416.14,364.09c49.48.2,99,.09,148.46.09a1.92,1.92,0,0,0-.81-.87q-1.74-1.36-3.53-2.65t-3.6-2.55a1.92,1.92,0,0,0-1.08-.51H444.16q-18.24,0-36.47-.78a1.91,1.91,0,0,0,.74.93q1.62,1.49,3.3,2.91t3.38,2.82A1.91,1.91,0,0,0,416.14,364.09Z" transform="translate(-122.33 -276.01)"/><path class="cls-9" d="M416.77,358.42c49.39-.4,98.79-.16,148.18-.16.25,0-1.37-2.59-1.31-2.5-.23-.35-1.14-2.19-1.79-2.19-49.26,0-98.53.27-147.79-.17-.28,0,1.15,2.73,1.11,2.65C415.33,356.35,416.17,358.43,416.77,358.42Z" transform="translate(-122.33 -276.01)"/></g><g class="cls-4"><path class="cls-10" d="M142.36,321.07c14.65.4,29.28.58,43.93.47s29.38-.47,44.08-.88c.12,0-2.25-3-2.21-3-.35-.41-1.84-2.65-2.64-2.63-14.67.39-29.33.73-44,.84q-8.78.12-17.57,0-12.92.08-25.82-.77c-.14,0,1.92,3.2,1.88,3.14C140.31,318.66,141.6,321,142.36,321.07Z" transform="translate(-122.33 -276.01)"/><path class="cls-10" d="M143.43,324.36c29.34.47,58.62.21,87.94-.6a1.74,1.74,0,0,0-.66-.92q-1.48-1.48-3-2.9t-3.09-2.82a1.74,1.74,0,0,0-1-.6c-14.65.37-29.3.67-44,.76-14.42.09-28.75-.28-43.16-.88a1.73,1.73,0,0,0,.56,1q1.31,1.62,2.68,3.18t2.77,3.11A1.73,1.73,0,0,0,143.43,324.36Z" transform="translate(-122.33 -276.01)"/><path class="cls-10" d="M143.35,320.18c29.28.23,58.5,0,87.77-.8.3,0-1.07-2-1-1.92-.24-.34-.91-1.61-1.48-1.59-29.14.82-58.25,1.2-87.4.56-.31,0,.86,2.09.82,2C142.22,318.76,142.8,320.17,143.35,320.18Z" transform="translate(-122.33 -276.01)"/><path class="cls-10" d="M142.26,325.59c29.35.47,58.63.21,88-.61a1.8,1.8,0,0,0-.8-.83q-1.71-1.27-3.47-2.48t-3.53-2.39a1.8,1.8,0,0,0-1.06-.46c-14.66.35-29.32.65-44,.73-14.49.08-28.89-.29-43.37-.89a1.8,1.8,0,0,0,.72.9q1.58,1.42,3.22,2.78t3.3,2.69A1.8,1.8,0,0,0,142.26,325.59Z" transform="translate(-122.33 -276.01)"/><path class="cls-10" d="M142.65,322.42c29.33.56,58.61.27,87.93-.54a1.36,1.36,0,0,0-.5-.85q-1.19-1.36-2.45-2.67c-.44-.46-2.42-3.16-3.36-3.13-14.66.38-29.32.7-44,.8-14.43.1-28.78-.2-43.2-.75a1.33,1.33,0,0,0,.41.89q1,1.45,2.15,2.86C140,319.47,141.76,322.4,142.65,322.42Z" transform="translate(-122.33 -276.01)"/><path class="cls-10" d="M142.29,329.25q44.06.68,88-.61c1.11,0-2.57-1.21-2-1q-2.06-.66-4.13-1.26a11.75,11.75,0,0,0-2.19-.52c-14.69.35-29.37.64-44.07.71s-29.14-.23-43.73-.7c-1.11,0,2.46,1.39,1.94,1.18q2,.81,4,1.56A11.7,11.7,0,0,0,142.29,329.25Z" transform="translate(-122.33 -276.01)"/><path class="cls-10" d="M141.8,327c29.36.46,58.66.2,88-.62a1.53,1.53,0,0,0-.81-.67q-1.69-1-3.42-1.84c-1.1-.57-3.12-2-4.49-2-14.68.35-29.35.65-44,.73s-29-.25-43.57-.78a1.53,1.53,0,0,0,.75.73q1.61,1.09,3.26,2.1C138.47,325.28,140.48,327,141.8,327Z" transform="translate(-122.33 -276.01)"/><path class="cls-10" d="M143.88,321.67q44,.55,87.84-.68a37.54,37.54,0,0,0-2-3.16c-.29-.38-1.74-2.84-2.5-2.82-14.66.4-29.32.73-44,.84-14.41.11-28.77-.12-43.18-.55a30.06,30.06,0,0,0,1.69,3.33C141.92,319,143.17,321.67,143.88,321.67Z" transform="translate(-122.33 -276.01)"/><path class="cls-10" d="M143.07,328.09c29.38.46,58.7.2,88.07-.62a1.76,1.76,0,0,0-.91-.68q-1.87-1-3.77-1.85c-1.25-.59-3.42-2.05-4.92-2-14.67.34-29.34.63-44,.7s-29.08-.3-43.64-.88a1.76,1.76,0,0,0,.85.75q1.78,1.12,3.61,2.17t3.67,2.07A1.76,1.76,0,0,0,143.07,328.09Z" transform="translate(-122.33 -276.01)"/><path class="cls-10" d="M142.07,324c29.34.51,58.62.24,87.95-.57a1.61,1.61,0,0,0-.67-.85q-1.48-1.34-3-2.61t-3.09-2.52a1.61,1.61,0,0,0-1-.51c-14.66.37-29.32.67-44,.77-14.45.09-28.83-.25-43.28-.83a1.59,1.59,0,0,0,.58.9q1.34,1.46,2.74,2.86t2.82,2.78A1.59,1.59,0,0,0,142.07,324Z" transform="translate(-122.33 -276.01)"/><path class="cls-10" d="M143.54,326.25c29.36.48,58.67.22,88-.6a1.92,1.92,0,0,0-.81-.87q-1.74-1.36-3.53-2.64t-3.6-2.55a1.92,1.92,0,0,0-1.08-.51c-14.66.35-29.31.64-44,.72-14.48.08-28.87-.34-43.34-1a1.91,1.91,0,0,0,.72.95q1.59,1.52,3.24,3t3.32,2.9A1.91,1.91,0,0,0,143.54,326.25Z" transform="translate(-122.33 -276.01)"/><path class="cls-10" d="M144.16,320.6c29.27.11,58.5,0,87.76-.86.26,0-1.36-2.59-1.31-2.51-.22-.33-1.15-2.21-1.78-2.2-29.11.82-58.18,1.15-87.3.54-.28,0,1.1,2.73,1.06,2.64C142.76,318.52,143.56,320.6,144.16,320.6Z" transform="translate(-122.33 -276.01)"/></g><g class="cls-4"><path class="cls-10" d="M269.26,319.17c37.8.52,75.61.28,113.42.28.1,0-2.25-3-2.22-3-.38-.43-1.83-2.62-2.64-2.62-37.62,0-75.28.5-112.88-.59-.14,0,2,3.19,1.93,3.13C267.16,316.78,268.5,319.16,269.26,319.17Z" transform="translate(-122.33 -276.01)"/><path class="cls-10" d="M270.32,322.46c37.79.13,75.57.09,113.36.09a1.75,1.75,0,0,0-.66-.92q-1.48-1.48-3-2.9t-3.1-2.81a1.75,1.75,0,0,0-1-.59c-37.56,0-75.13.39-112.68-.7a1.73,1.73,0,0,0,.57,1q1.34,1.6,2.75,3.14t2.84,3.06A1.73,1.73,0,0,0,270.32,322.46Z" transform="translate(-122.33 -276.01)"/><path class="cls-10" d="M270.26,318.26c37.72-.16,75.44-.09,113.16-.09.29,0-1.08-2-1-1.92-.26-.36-.9-1.59-1.49-1.59-37.61,0-75.23.2-112.84-.16-.31,0,.89,2.09.85,2C269.11,316.84,269.7,318.26,270.26,318.26Z" transform="translate(-122.33 -276.01)"/><path class="cls-10" d="M269.15,323.69c37.8.13,75.6.08,113.39.08a1.81,1.81,0,0,0-.8-.83q-1.71-1.27-3.47-2.48t-3.54-2.38a1.81,1.81,0,0,0-1.06-.46c-37.63,0-75.27.39-112.89-.68a1.79,1.79,0,0,0,.74.88q1.61,1.39,3.27,2.72t3.34,2.62A1.79,1.79,0,0,0,269.15,323.69Z" transform="translate(-122.33 -276.01)"/><path class="cls-10" d="M269.54,320.52c37.78.25,75.57.15,113.35.15a1.36,1.36,0,0,0-.5-.85q-1.2-1.36-2.46-2.66c-.47-.49-2.4-3.12-3.37-3.12-37.57,0-75.15.38-112.7-.57a1.33,1.33,0,0,0,.42.88q1.07,1.44,2.2,2.83C266.83,317.61,268.65,320.51,269.54,320.52Z" transform="translate(-122.33 -276.01)"/><path class="cls-10" d="M269.19,327.36c37.82.11,75.64.07,113.46.07,1.12,0-2.59-1.23-2-1q-2.06-.66-4.14-1.27a11.79,11.79,0,0,0-2.19-.53c-37.74,0-75.49.25-113.23-.45-1.1,0,2.49,1.34,2,1.13q2,.76,4,1.46A11.57,11.57,0,0,0,269.19,327.36Z" transform="translate(-122.33 -276.01)"/><path class="cls-10" d="M268.69,325.13c37.81.12,75.62.07,113.43.07a1.53,1.53,0,0,0-.81-.67q-1.69-1-3.42-1.84c-1.14-.59-3.09-2-4.49-2-37.69,0-75.4.33-113.09-.56a1.52,1.52,0,0,0,.76.72q1.62,1.05,3.28,2C265.36,323.47,267.36,325.12,268.69,325.13Z" transform="translate(-122.33 -276.01)"/><path class="cls-10" d="M270.69,319.63c37.78.28,75.56.15,113.34.15.14,0-2.1-3.22-2.06-3.16-.31-.4-1.73-2.81-2.5-2.81-37.57,0-75.16.35-112.72-.46a30.27,30.27,0,0,0,1.73,3.29C268.7,317,270,319.63,270.69,319.63Z" transform="translate(-122.33 -276.01)"/><path class="cls-10" d="M270,326.19c37.83.11,75.66.07,113.49.07a1.76,1.76,0,0,0-.91-.68q-1.87-1-3.77-1.85c-1.29-.61-3.39-2-4.93-2-37.71,0-75.46.33-113.16-.65a1.75,1.75,0,0,0,.87.73q1.8,1.08,3.64,2.08C266.32,324.5,268.51,326.18,270,326.19Z" transform="translate(-122.33 -276.01)"/><path class="cls-10" d="M269,322.06c37.79.19,75.58.12,113.37.12a1.61,1.61,0,0,0-.67-.85q-1.48-1.34-3-2.61t-3.1-2.52a1.61,1.61,0,0,0-1-.51c-37.6,0-75.21.39-112.79-.64a1.59,1.59,0,0,0,.59.89q1.36,1.44,2.79,2.81t2.87,2.73A1.59,1.59,0,0,0,269,322.06Z" transform="translate(-122.33 -276.01)"/><path class="cls-10" d="M270.43,324.35c37.81.15,75.63.09,113.45.09a1.92,1.92,0,0,0-.82-.87q-1.74-1.35-3.54-2.64t-3.61-2.54a1.92,1.92,0,0,0-1.08-.51c-37.62,0-75.26.42-112.87-.79a1.91,1.91,0,0,0,.74.93q1.62,1.49,3.3,2.91t3.38,2.82A1.91,1.91,0,0,0,270.43,324.35Z" transform="translate(-122.33 -276.01)"/><path class="cls-10" d="M271.06,318.68c37.72-.29,75.45-.15,113.17-.15.25,0-1.37-2.58-1.32-2.5-.23-.35-1.15-2.19-1.79-2.19-37.59,0-75.18.16-112.77-.18-.28,0,1.15,2.73,1.11,2.65C269.62,316.61,270.46,318.69,271.06,318.68Z" transform="translate(-122.33 -276.01)"/></g><g class="cls-4"><path class="cls-10" d="M511.93,314.63q16.92-1,33.86-1.4t33.94.37a1,1,0,0,0-.36-.73q-.94-1.14-1.94-2.23c-.42-.46-1.86-2.56-2.71-2.58q-17.05-.63-34.11-.27-16.73.48-33.46,1.1c-.13,0,2.22,3.11,2.17,3.05C509.65,312.31,511.16,314.66,511.93,314.63Z" transform="translate(-122.33 -276.01)"/><path class="cls-10" d="M513,317.88q16.9-1.22,33.84-1.52t33.94.36a1.75,1.75,0,0,0-.69-.9q-1.53-1.43-3.11-2.81t-3.19-2.72a1.75,1.75,0,0,0-1-.56q-17.08-.53-34.17-.12-16.68.4-33.36,1a1.75,1.75,0,0,0,.66.92q1.48,1.48,3,2.91t3.09,2.82A1.75,1.75,0,0,0,513,317.88Z" transform="translate(-122.33 -276.01)"/><path class="cls-10" d="M513,313.56q16.78-1.46,33.62-1.7t33.93.41c.27,0-1.13-2-1.08-1.93-.28-.38-.93-1.58-1.53-1.59q-17-.69-34-.39-16.7.37-33.36,1.46c-.31,0,1,2.1,1,2C511.69,312.15,512.4,313.6,513,313.56Z" transform="translate(-122.33 -276.01)"/><path class="cls-10" d="M511.78,319.11q16.91-1.22,33.87-1.52t33.95.36a1.79,1.79,0,0,0-.82-.8q-1.74-1.21-3.53-2.36t-3.6-2.26a1.79,1.79,0,0,0-1.07-.43q-17-.5-34.1-.07-16.76.43-33.52,1.08a1.77,1.77,0,0,0,.8.81q1.7,1.24,3.45,2.42t3.52,2.32A1.77,1.77,0,0,0,511.78,319.11Z" transform="translate(-122.33 -276.01)"/><path class="cls-10" d="M512.16,315.94q16.9-1.14,33.83-1.47t33.95.36a1.37,1.37,0,0,0-.52-.84q-1.24-1.34-2.53-2.61c-.53-.53-2.44-3-3.45-3.05q-17.07-.58-34.15-.2-16.67.41-33.34,1.1a1.36,1.36,0,0,0,.49.85q1.18,1.37,2.41,2.69C509.24,313.21,511.26,316,512.16,315.94Z" transform="translate(-122.33 -276.01)"/><path class="cls-10" d="M511.86,322.81q16.94-1.23,33.93-1.55t33.93.36c1.11,0-2.63-1.13-2-1-1.94-.56-4.25-1.52-6.3-1.55q-17-.49-33.94-.05t-33.75,1.35c-1.09.05,2.55,1.09,2,.93q2,.56,4,1.06A11,11,0,0,0,511.86,322.81Z" transform="translate(-122.33 -276.01)"/><path class="cls-10" d="M511.32,320.54q16.79-1.21,33.62-1.51t33.94.36c1.1,0-2.37-1.59-1.95-1.37q-2-1-4.08-2a12.86,12.86,0,0,0-2.18-.89q-17-.5-34-.07t-33.94,1.23a1.47,1.47,0,0,0,.8.64q1.67.9,3.38,1.72C508,319.21,510,320.62,511.32,320.54Z" transform="translate(-122.33 -276.01)"/><path class="cls-10" d="M513.33,315q16.88-1.15,33.8-1.48t33.94.37c.1,0-2.19-3.18-2.15-3.14-.35-.44-1.77-2.77-2.59-2.78q-17.06-.63-34.14-.29-16.67.4-33.33,1.19a33.49,33.49,0,0,0,2,3.23C511.12,312.48,512.6,315.08,513.33,315Z" transform="translate(-122.33 -276.01)"/><path class="cls-10" d="M512.62,321.6q16.8-1.21,33.64-1.52t33.93.36c1.18,0-2.68-1.59-2.18-1.37q-2.24-1-4.51-1.93a15.07,15.07,0,0,0-2.39-.88q-17-.47-34,0t-34,1.2a1.7,1.7,0,0,0,.92.64q1.86.88,3.76,1.69C509,320.32,511.14,321.69,512.62,321.6Z" transform="translate(-122.33 -276.01)"/><path class="cls-10" d="M511.59,317.49q16.9-1.18,33.85-1.49t33.95.36a1.6,1.6,0,0,0-.69-.83q-1.52-1.29-3.09-2.53t-3.16-2.43a1.6,1.6,0,0,0-1-.48q-17.06-.54-34.12-.13-16.72.43-33.43,1.08a1.58,1.58,0,0,0,.66.85q1.47,1.33,3,2.6t3.06,2.5A1.58,1.58,0,0,0,511.59,317.49Z" transform="translate(-122.33 -276.01)"/><path class="cls-10" d="M513.06,319.76Q530,318.55,547,318.24t33.94.37a1.91,1.91,0,0,0-.84-.84q-1.78-1.29-3.62-2.5t-3.68-2.41a1.91,1.91,0,0,0-1.09-.47q-17.07-.48-34.13,0-16.77.42-33.54,1a1.89,1.89,0,0,0,.82.85q1.75,1.32,3.54,2.58t3.61,2.48A1.89,1.89,0,0,0,513.06,319.76Z" transform="translate(-122.33 -276.01)"/><path class="cls-10" d="M513.72,314q16.78-1.55,33.62-1.76t33.94.39c.23,0-1.44-2.59-1.39-2.51-.26-.38-1.19-2.18-1.85-2.19q-17-.68-34.09-.37-16.68.34-33.33,1.43c-.28,0,1.36,2.74,1.31,2.66C512.11,311.95,513.11,314.07,513.72,314Z" transform="translate(-122.33 -276.01)"/></g></g></svg>