<svg id="Layer_1" data-name="Layer 1" xmlns="http://www.w3.org/2000/svg" viewBox="0 0 152.78 131.46"><defs><style>.cls-1{opacity:0.49;}.cls-2,.cls-5{fill:#ff2b00;}.cls-2,.cls-3,.cls-8{opacity:0.11;}.cls-3{fill:#ffe000;}.cls-4{opacity:0.27;}.cls-6{fill:none;stroke:#000;stroke-miterlimit:10;stroke-width:0.5px;}.cls-7{opacity:0.33;}.cls-8{fill:#432700;}</style></defs><title>smoky</title><g class="cls-1"><path class="cls-2" d="M446.2,270.73a33.18,33.18,0,0,1,6.07,7.74l-.18-.3a35.46,35.46,0,0,1,3.68,8.9,35.91,35.91,0,0,1,1.3,9.45c.1,1.41,1.41-3.24,1.21-2.54q.71-2.56,1.34-5.15a13.36,13.36,0,0,0,.52-2.72,55.08,55.08,0,0,0-14.3-26.74,1.6,1.6,0,0,0-.26,1.2q0,2.25.06,4.49t.22,4.48A1.6,1.6,0,0,0,446.2,270.73Z" transform="translate(-406.22 -214.3)"/><path class="cls-2" d="M446.81,273a33,33,0,0,1,6.07,7.76l-.2-.31a35.06,35.06,0,0,1,3.61,8.87,35.73,35.73,0,0,1,1.18,9.38q.06.65.34.07a14.76,14.76,0,0,0,.72-2.82q.56-2.74,1-5.5a14.76,14.76,0,0,0,.36-2.89,59.52,59.52,0,0,0-5.24-14.77,61.68,61.68,0,0,0-8.8-12.08,1.84,1.84,0,0,0-.2,1.31q.09,2.44.28,4.87t.44,4.85A1.84,1.84,0,0,0,446.81,273Z" transform="translate(-406.22 -214.3)"/><path class="cls-2" d="M446,274l3.32,3.12a13.94,13.94,0,0,1,3.65,5.61c2.37,5.31,2.93,9.93,3,16,0,.3.4.28.57.18s.39-.9.38-1.17c-.13-4.87-.43-9.47-2.28-14.06l-2-4.39a27.26,27.26,0,0,0-6-6.06C446,272.79,445.58,273.61,446,274Z" transform="translate(-406.22 -214.3)"/><path class="cls-2" d="M445.88,278.46a30.86,30.86,0,0,1,6,7.55,33.64,33.64,0,0,1,4,17.88c0,.67.31.57.58.12a7.81,7.81,0,0,0,.73-3.49,44.25,44.25,0,0,0-2.15-12.34,29.57,29.57,0,0,0-3-6.68,33.74,33.74,0,0,0-5.84-7.35c-.52-.57-.52,1.11-.52,1.1C445.64,275.94,445.36,277.9,445.88,278.46Z" transform="translate(-406.22 -214.3)"/><path class="cls-2" d="M446.24,273.76a24.67,24.67,0,0,1,4.72,5.72,26.17,26.17,0,0,1,3.45,6.37l-.17-.4a28.66,28.66,0,0,1,1.93,6.88,26.64,26.64,0,0,1,.72,7.07c0,.47.11.43.34.07l.37-1.11q.51-2,1-4c.47-2.08.92-4.16,1.33-6.25a6.72,6.72,0,0,0,.27-2.77,68.83,68.83,0,0,0-4.37-12.16,36,36,0,0,0-3.81-6.68,43.06,43.06,0,0,0-6.16-7.7,2.59,2.59,0,0,0-.25,1.58q0,3,.09,5.93t.24,5.92A2.59,2.59,0,0,0,446.24,273.76Z" transform="translate(-406.22 -214.3)"/><path class="cls-2" d="M446.4,271.53a33.09,33.09,0,0,1,6.07,7.74l-.19-.33a35.31,35.31,0,0,1,3.66,8.89,35.85,35.85,0,0,1,1.27,9.43c0,.49.1.28.34.08l.34-.95q.47-1.71.86-3.44c.42-1.77.82-3.55,1.18-5.33a5.46,5.46,0,0,0,.21-2.38,67.85,67.85,0,0,0-4.29-12,34.36,34.36,0,0,0-2.54-4.65,38.58,38.58,0,0,0-2.79-4.19,32.21,32.21,0,0,0-4.73-5.66,2,2,0,0,0-.23,1.35q0,2.52.16,5t.32,5A2,2,0,0,0,446.4,271.53Z" transform="translate(-406.22 -214.3)"/><path class="cls-2" d="M445.93,275.9l5.84,7.45a25.87,25.87,0,0,1,2.78,6.61,42.07,42.07,0,0,1,1.68,11.66c0,1.21,1.18-2.58,1-2q.52-2,1-4a8.1,8.1,0,0,0,.32-2.13,42.58,42.58,0,0,0-2.15-9.74,32.15,32.15,0,0,0-3.12-6.8,40.07,40.07,0,0,0-4-6.19,37.52,37.52,0,0,0-3.4-3.86,1.1,1.1,0,0,0-.29.94q-.09,1.77-.07,3.55C445.54,272.34,445.16,275.05,445.93,275.9Z" transform="translate(-406.22 -214.3)"/><path class="cls-2" d="M446.92,274.53a27.38,27.38,0,0,1,7.83,11.63,33.41,33.41,0,0,1,2,13.89c0,.44.4.26.58.13s.41-1.4.4-1.77a38,38,0,0,0-.95-9.52,38.48,38.48,0,0,0-3.49-9.06c-1.85-3.15-3.7-4.82-6.22-7.42-.37-.38-.47.5-.48.58A2.26,2.26,0,0,0,446.92,274.53Z" transform="translate(-406.22 -214.3)"/><path class="cls-2" d="M446.5,275.88a32.16,32.16,0,0,1,6,7.72l-.19-.33a34.47,34.47,0,0,1,3.53,8.87,35.27,35.27,0,0,1,1,9.35q0,.68.34.07a16,16,0,0,0,.75-2.94q.58-2.85,1.09-5.72a16,16,0,0,0,.39-3,56.87,56.87,0,0,0-4.81-14.63A58.57,58.57,0,0,0,446,263a2,2,0,0,0-.24,1.36q0,2.54.13,5.07t.28,5.07A2,2,0,0,0,446.5,275.88Z" transform="translate(-406.22 -214.3)"/><path class="cls-2" d="M446.19,272.58a32.89,32.89,0,0,1,6.08,7.75l-.18-.36,2.29,4.7-.17-.37a29.25,29.25,0,0,1,2,6.9,26.78,26.78,0,0,1,.76,7.09c0,.48.09.35.34.08l.37-1q.51-1.86.95-3.74c.46-1.93.92-3.86,1.32-5.8a6,6,0,0,0,.27-2.58,68.79,68.79,0,0,0-4.38-12.15,35.93,35.93,0,0,0-3.81-6.68,43,43,0,0,0-6.16-7.68,2.25,2.25,0,0,0-.26,1.46q0,2.74.06,5.48t.22,5.48A2.25,2.25,0,0,0,446.19,272.58Z" transform="translate(-406.22 -214.3)"/><path class="cls-2" d="M446.9,274.87l3.35,3.67-.2-.28a34.65,34.65,0,0,1,4.77,8.35,35.84,35.84,0,0,1,2.51,13.9q.07.59.35.06a11.89,11.89,0,0,0,.63-2.53q.47-2.46.87-4.94a11.89,11.89,0,0,0,.27-2.6,44.67,44.67,0,0,0-2.56-9.83,33.67,33.67,0,0,0-3.29-6.83,45.6,45.6,0,0,0-4.05-6.21,23.86,23.86,0,0,0-3.44-3.92,1.56,1.56,0,0,0-.21,1.19q.06,2.21.23,4.41t.39,4.4A1.56,1.56,0,0,0,446.9,274.87Z" transform="translate(-406.22 -214.3)"/><path class="cls-2" d="M446.5,279.11l3.32,3.63a20.88,20.88,0,0,1,4.25,8.25,16.16,16.16,0,0,1,2,6.62,26.75,26.75,0,0,1,.4,7.09c0,.64.35.45.59.1a6.63,6.63,0,0,0,.55-3.09c-.29-5.12-.81-9.72-2.75-14.48a29.32,29.32,0,0,0-2.3-4.75,34,34,0,0,0-5.85-7.45c-.51-.56-.49,1.08-.49,1.06C446.18,276.78,446,278.55,446.5,279.11Z" transform="translate(-406.22 -214.3)"/></g><g class="cls-1"><path class="cls-2" d="M457.83,273c3.67.67,7.15,1.2,10.47-.93a15.74,15.74,0,0,0,3.89-3.57,11.39,11.39,0,0,0,2.46-5.54c.11-.37-6.29-.27-6.14-.27q-2.43,0-4.85.16a1.82,1.82,0,0,0-1.28.32,13.84,13.84,0,0,1-1.84,1.35,3.35,3.35,0,0,1-1.87.28,28.63,28.63,0,0,0-3.07,0,27,27,0,0,1-4.82-1.05,1.67,1.67,0,0,0,.5,1.15q1.32,1.88,2.72,3.7t2.85,3.61A1.67,1.67,0,0,0,457.83,273Z" transform="translate(-406.22 -214.3)"/><path class="cls-2" d="M458.91,275.15c3.75.68,7.25,1.18,10.59-1.08a16.14,16.14,0,0,0,3.92-3.77,11.46,11.46,0,0,0,2.34-5.73c.12-.45-6.2-.8-6.08-.79q-2.41-.18-4.83-.25a1.82,1.82,0,0,0-1.3.21,9.79,9.79,0,0,1-2,1.63,3.67,3.67,0,0,1-2,.4l-3.13.07a26.6,26.6,0,0,1-4.86-1,1.93,1.93,0,0,0,.52,1.26q1.37,2.1,2.83,4.14t3,4A1.93,1.93,0,0,0,458.91,275.15Z" transform="translate(-406.22 -214.3)"/><path class="cls-2" d="M460.24,275.37c3.43.09,6.58-.08,9.57-1.9a18.42,18.42,0,0,0,4.55-3.91,9.09,9.09,0,0,0,1.92-2.75,11.81,11.81,0,0,0,1.92-5.1c.14-.49-1.77-.67-2-.08a14.31,14.31,0,0,1-2.55,5.71,14,14,0,0,1-3,3.18,13.83,13.83,0,0,1-5.76,3.26,20.22,20.22,0,0,1-4.76.57C459.48,274.4,459.74,275.36,460.24,275.37Z" transform="translate(-406.22 -214.3)"/><path class="cls-2" d="M459.41,280.21c3.5.53,6.83,1,10.06-.89a18.29,18.29,0,0,0,5.83-5.16,19.87,19.87,0,0,0,2.87-6.62c.17-.58-1.59-1.51-1.81-1a12.11,12.11,0,0,1-3.16,5.34,15.75,15.75,0,0,1-3.47,2.88,16.41,16.41,0,0,1-3.75,2.09,19.92,19.92,0,0,1-8-.1C457.28,276.66,458.73,280.11,459.41,280.21Z" transform="translate(-406.22 -214.3)"/><path class="cls-2" d="M458.28,275.7c2.65.47,5.88,1.12,8.5,0a15.21,15.21,0,0,0,5.84-5.07c.66-1,3.14-5,2.07-5.85a1.87,1.87,0,0,0-1.18-.41q-1.84-.38-3.69-.68c-2.25-.38-4.52-.84-6.8-1-1.38-.13-1.12-.11-2.08.69a4.28,4.28,0,0,1-3.3.81l-2.36,0a26.71,26.71,0,0,1-4.76-1.07,2.51,2.51,0,0,0,.56,1.47q1.45,2.53,3,5t3.13,4.92A2.51,2.51,0,0,0,458.28,275.7Z" transform="translate(-406.22 -214.3)"/><path class="cls-2" d="M458.15,273.75c2.67.48,5.82,1.13,8.47.13a14.86,14.86,0,0,0,5.91-4.77c.64-.91,3.35-5,2.25-5.7a1.81,1.81,0,0,0-1.2-.27q-1.83-.16-3.67-.24c-2.24-.12-4.5-.31-6.74-.24-1.31,0-1.16.11-2.17.84a4.68,4.68,0,0,1-3.38.78l-2.38,0a27.13,27.13,0,0,1-4.8-1.07,2,2,0,0,0,.57,1.28q1.45,2.13,3,4.21t3.11,4.11A2,2,0,0,0,458.15,273.75Z" transform="translate(-406.22 -214.3)"/><path class="cls-2" d="M458.69,277.69c3.82.63,7.27,1,10.66-1.28a16,16,0,0,0,4.07-3.89,13.06,13.06,0,0,0,2.41-5.76c.08-.28-5.87-.6-6.32-.18-1.81,1.67-3,3.46-5.55,4.18-3.16.91-6.24.32-9.35-.41a1,1,0,0,0,.17.91q.72,1.49,1.54,2.94C456.66,274.8,457.74,277.54,458.69,277.69Z" transform="translate(-406.22 -214.3)"/><path class="cls-2" d="M460.63,276c3.39.41,6.84.69,9.88-1.13a17.81,17.81,0,0,0,4.49-3.85,8.85,8.85,0,0,0,1.89-2.72,12,12,0,0,0,1.9-5c.12-.42-2.74-.79-3-.1a17.89,17.89,0,0,1-5.38,8.14,10.27,10.27,0,0,1-5.76,2.73,24.7,24.7,0,0,1-5.3-.14C458.64,273.88,460.08,276,460.63,276Z" transform="translate(-406.22 -214.3)"/><path class="cls-2" d="M459,277.68c3.8.66,7.28,1.09,10.61-1.27a16,16,0,0,0,3.9-4,12.18,12.18,0,0,0,2.19-5.83c.13-.53-8.93-1.32-9.31-1.31s-1.17-.13-1.52.08l-.84,1.09a3.78,3.78,0,0,1-1.86,1c-3,1-6.48.14-9.42-.63a1.88,1.88,0,0,0,.4,1.28q1.15,2.18,2.4,4.31t2.54,4.23A1.88,1.88,0,0,0,459,277.68Z" transform="translate(-406.22 -214.3)"/><path class="cls-2" d="M458,274.64c2.66.47,5.84,1.13,8.48.09a15,15,0,0,0,5.86-4.9c.65-1,3.23-5,2.15-5.75a1.8,1.8,0,0,0-1.18-.34q-1.82-.27-3.65-.46c-2.22-.26-4.47-.58-6.71-.66-1.33,0-1.12,0-2.09.76a4.4,4.4,0,0,1-3.31.79l-2.36,0a26.85,26.85,0,0,1-4.77-1.07,2.23,2.23,0,0,0,.55,1.37q1.42,2.33,2.93,4.6T457,273.6A2.23,2.23,0,0,0,458,274.64Z" transform="translate(-406.22 -214.3)"/><path class="cls-2" d="M459.38,276.79c3.78.66,7.27,1.09,10.62-1.19a15.8,15.8,0,0,0,4-3.88,12.18,12.18,0,0,0,2.28-5.8c.11-.41-9.35-.63-9.9-.51a2.68,2.68,0,0,0-.75.17l-.89,1.15a4.1,4.1,0,0,1-1.93,1.09c-3.06,1.06-6.55.26-9.57-.51a1.59,1.59,0,0,0,.4,1.16q1.14,1.92,2.38,3.79t2.51,3.7A1.59,1.59,0,0,0,459.38,276.79Z" transform="translate(-406.22 -214.3)"/><path class="cls-2" d="M460.07,280.85c3.51.51,6.9,1,10.13-.93a18,18,0,0,0,5.74-5.19,20.11,20.11,0,0,0,2.79-6.67c.16-.58-1.59-1.53-1.81-1a9.49,9.49,0,0,1-2.14,4.17,13.48,13.48,0,0,1-3.1,3.3l-2.38,1.68a11.91,11.91,0,0,1-10.65,1.33C457.93,277.43,459.41,280.75,460.07,280.85Z" transform="translate(-406.22 -214.3)"/></g><g class="cls-1"><path class="cls-2" d="M474.27,229.48a29.37,29.37,0,0,0,1.67,9.42,37.77,37.77,0,0,0,4.75,9.22c.15.25,3.66-4.82,3.58-4.69q1.3-1.93,2.52-3.92a1.7,1.7,0,0,0,.44-1.19,32.89,32.89,0,0,1-3.79-16.61,1.76,1.76,0,0,0-1.15.59q-1.87,1.46-3.67,3T475,228.44A1.76,1.76,0,0,0,474.27,229.48Z" transform="translate(-406.22 -214.3)"/><path class="cls-2" d="M474.5,231.3a29.94,29.94,0,0,0,1.66,9.51,38.25,38.25,0,0,0,4.79,9.33,1.72,1.72,0,0,0,.84-1q1.16-2,2.23-4.12t2.09-4.2a1.72,1.72,0,0,0,.31-1.24,31.16,31.16,0,0,1-3.17-8.32,30.68,30.68,0,0,1-.82-8.67,1.7,1.7,0,0,0-1.05.71q-1.64,1.65-3.19,3.37t-3.07,3.48A1.7,1.7,0,0,0,474.5,231.3Z" transform="translate(-406.22 -214.3)"/><path class="cls-2" d="M470.63,230.85c1.16,5.19.74,4.27,2.92,9.28l2.16,4.78a23.42,23.42,0,0,0,3,4.91c.27.44,1.52-.81,1.34-1.12a106.77,106.77,0,0,1-8.3-18.25C471.58,229.78,470.53,230.4,470.63,230.85Z" transform="translate(-406.22 -214.3)"/><path class="cls-2" d="M471.44,236l.54,4.68a26.9,26.9,0,0,0,2.46,7.21c1.76,3.93,1,2.25,4,7.15.39.61,2.36-3,2-3.59a30.86,30.86,0,0,1-5.3-11.51,22,22,0,0,1-1.07-6.69c-.08-.7-1,.37-1,.42C472.68,234.14,471.36,235.36,471.44,236Z" transform="translate(-406.22 -214.3)"/><path class="cls-2" d="M473.8,232.05a30,30,0,0,0,1.7,9.52,38.42,38.42,0,0,0,4.83,9.34,2.53,2.53,0,0,0,1-1.22q1.48-2.52,2.87-5.1t2.73-5.17a2.53,2.53,0,0,0,.48-1.5,29.88,29.88,0,0,1-2.94-8.16,30.75,30.75,0,0,1-.71-8.6,2.51,2.51,0,0,0-1.26.94q-2,2.09-4,4.25t-3.88,4.36A2.51,2.51,0,0,0,473.8,232.05Z" transform="translate(-406.22 -214.3)"/><path class="cls-2" d="M474.42,230.15a29.59,29.59,0,0,0,1.67,9.45,37.93,37.93,0,0,0,4.75,9.25c.12.19,3.73-5.42,3.65-5.29q1.33-2.16,2.56-4.38a2,2,0,0,0,.44-1.3,29.48,29.48,0,0,1-2.93-8.1,30.21,30.21,0,0,1-.74-8.52,2,2,0,0,0-1.19.72q-1.92,1.69-3.77,3.46T475.2,229A2,2,0,0,0,474.42,230.15Z" transform="translate(-406.22 -214.3)"/><path class="cls-2" d="M472.45,233.92a29.36,29.36,0,0,0,1.81,9.46,38.6,38.6,0,0,0,5,9.45c.16.26,2.38-3.91,2.32-3.79.28-.56,2.09-3.28,1.65-4.12a35.31,35.31,0,0,1-3.83-8.8,30.31,30.31,0,0,1-1.07-8.81,1.07,1.07,0,0,0-.84.5q-1.22,1.24-2.37,2.56C474.57,231,472.34,232.88,472.45,233.92Z" transform="translate(-406.22 -214.3)"/><path class="cls-2" d="M472.17,231.85l.68,4.73a30.81,30.81,0,0,0,2.6,7.27c1.81,4,.92,2.18,4.07,7.2.47.74,1.84-1.19,1.62-1.55a39.83,39.83,0,0,1-5.67-11.84,24.85,24.85,0,0,1-1.53-7C473.81,229.89,472.1,231.37,472.17,231.85Z" transform="translate(-406.22 -214.3)"/><path class="cls-2" d="M473.47,233.81a29.85,29.85,0,0,0,1.72,9.52,38.52,38.52,0,0,0,4.89,9.44,1.8,1.8,0,0,0,.8-1q1.09-2.15,2.08-4.35T484.9,243a1.8,1.8,0,0,0,.26-1.29,32.52,32.52,0,0,1-3.37-8.48,30.31,30.31,0,0,1-.86-8.69,1.74,1.74,0,0,0-1,.79q-1.55,1.78-3,3.63T474,232.65A1.74,1.74,0,0,0,473.47,233.81Z" transform="translate(-406.22 -214.3)"/><path class="cls-2" d="M473.95,231.09a29.72,29.72,0,0,0,1.69,9.48,38.16,38.16,0,0,0,4.8,9.29,2.27,2.27,0,0,0,1-1.11q1.48-2.33,2.86-4.71t2.72-4.79a2.27,2.27,0,0,0,.48-1.41,29.61,29.61,0,0,1-2.93-8.12,30.45,30.45,0,0,1-.72-8.55,2.3,2.3,0,0,0-1.25.83q-2,1.89-4,3.86t-3.86,4A2.3,2.3,0,0,0,473.95,231.09Z" transform="translate(-406.22 -214.3)"/><path class="cls-2" d="M473.94,232.89a29.69,29.69,0,0,0,1.72,9.48,38.45,38.45,0,0,0,4.87,9.41,1.4,1.4,0,0,0,.73-.87q.94-1.84,1.78-3.73t1.64-3.79a1.4,1.4,0,0,0,.18-1.12,33.11,33.11,0,0,1-3.48-8.55,30.17,30.17,0,0,1-.92-8.69,1.35,1.35,0,0,0-.91.63q-1.36,1.49-2.64,3.06t-2.51,3.16A1.35,1.35,0,0,0,473.94,232.89Z" transform="translate(-406.22 -214.3)"/><path class="cls-2" d="M471.88,236.72l.58,4.78a26.56,26.56,0,0,0,2.52,7.31c1.78,3.91,1,2.25,4.09,7.13.44.69,2.13-2.34,1.83-2.83a31.25,31.25,0,0,1-5.62-11.54,24.33,24.33,0,0,1-1.33-7.07C473.86,233.85,471.8,236.06,471.88,236.72Z" transform="translate(-406.22 -214.3)"/></g><g class="cls-1"><path class="cls-2" d="M520.1,237.89a34.3,34.3,0,0,1,.18,11.42l.06-.35a36.5,36.5,0,0,1-2.79,9.21q-1.79,4-3.49,8c-1.49,4-3.09,8.41-2.53,12.7.26,1.95,1.1,4.46,2.71,5.73a14.38,14.38,0,0,0,5,1.71,11.55,11.55,0,0,0,6.19-.71c.59-.15-.73-5.2-.73-5.22q-.42-2-.95-4.05a1.41,1.41,0,0,0-.52-1q-1.51,2.44-1.62,0a3.64,3.64,0,0,1-.42-2.33,73.19,73.19,0,0,1,2-12c1.26-5.12,2.65-10.12,3.62-15.31q.53-2.74,1-5.48a43.14,43.14,0,0,0-.4-11.43,1.7,1.7,0,0,0-1,.78q-1.52,1.76-3,3.59t-2.84,3.69A1.7,1.7,0,0,0,520.1,237.89Z" transform="translate(-406.22 -214.3)"/><path class="cls-2" d="M520.33,239.84l.57,5.77,0-.36a33.35,33.35,0,0,1-1.67,11q-1.42,3.83-3.17,7.52c-1.75,3.95-3.51,8-4.09,12.31-.45,3.35-.47,7.93,2.47,10.39a13.89,13.89,0,0,0,5,1.9,11.48,11.48,0,0,0,6.44-.66c.54-.13-1.24-5.4-1.23-5.36s-1.76-5.34-1.95-5.14c-.85.87-1.21,1.18-2.08.25l.06.33c-.18-1.6-.79-2.88-.54-4.52a36.29,36.29,0,0,0,.47-5q.82-4.29,2-8.48l-.1.34a140.21,140.21,0,0,0,3.86-15.74,13.5,13.5,0,0,0,.54-3.14,43.13,43.13,0,0,0-.37-11.51,1.72,1.72,0,0,0-.91.9q-1.32,1.94-2.55,3.93t-2.42,4A1.72,1.72,0,0,0,520.33,239.84Z" transform="translate(-406.22 -214.3)"/><path class="cls-2" d="M517,239.79l-.43,15.92-1.67,3.58c-1.2,2.46-2.56,4.81-3.63,7.34a32.09,32.09,0,0,0-2,6.09,13.26,13.26,0,0,0-.53,4.41,6.34,6.34,0,0,0-.06,2.46c.4,2.31,1.55,5.1,3.41,6.59a13.52,13.52,0,0,0,4.66,2,8.45,8.45,0,0,0,3.68.61,10.34,10.34,0,0,0,5.72-.77c.5-.12.45-1.06-.09-1q-12.46,2.28-15-6.35l-.28-6.41c.27-4.76,2.66-9.48,4.75-13.66,1.76-3.51,3.48-7,3.81-11,.31-3.84-.57-6.53-1.4-10.23C517.86,238.8,516.93,239.43,517,239.79Z" transform="translate(-406.22 -214.3)"/><path class="cls-2" d="M517.71,244.86a31.87,31.87,0,0,1-1.09,16.21q-1.61,3.75-3.54,7.34a56.1,56.1,0,0,0-3.39,7.92,25.22,25.22,0,0,0-1.1,8.74,10.89,10.89,0,0,0,3.25,6.57,15.78,15.78,0,0,0,6.23,2.66,13.45,13.45,0,0,0,7.85-.7c.62-.15.31-2.8-.27-2.74a13.09,13.09,0,0,1-6.45-.14,16,16,0,0,1-5.42-2.58,11.18,11.18,0,0,1-2.23-9.91,22.88,22.88,0,0,1,2.43-8c1.64-4,3.79-7.91,5.06-12q.72-2.74,1.2-5.54a35.63,35.63,0,0,0-.2-11.09c-.07-.77-1,.7-1,.62C518.65,242.78,517.63,244.05,517.71,244.86Z" transform="translate(-406.22 -214.3)"/><path class="cls-2" d="M519.65,240.62a34.2,34.2,0,0,1,.2,11.42l.07-.42a33.22,33.22,0,0,1-2.78,9.12q-1.72,3.74-3.34,7.52a32.55,32.55,0,0,0-2.58,10.82c-.12,2.84.19,6.24,2.66,8.2a15.59,15.59,0,0,0,5.24,1.75,12,12,0,0,0,6.5-.75c.62-.16-.86-6.63-.86-6.62q-.47-2.59-1-5.16a2.1,2.1,0,0,0-.55-1.32c-.44.72-.81,1.52-1.45.66l0,.4a3,3,0,0,0-.26-2.36,6.86,6.86,0,0,1,.27-2.6l.36-4.3q.84-4.31,1.94-8.56c1.15-4.43,2.22-8.68,3-13.18q.53-2.79,1-5.6a44.13,44.13,0,0,0-.39-11.54,2.55,2.55,0,0,0-1.09,1.15q-1.67,2.42-3.24,4.9t-3.11,5A2.55,2.55,0,0,0,519.65,240.62Z" transform="translate(-406.22 -214.3)"/><path class="cls-2" d="M520.23,238.59a34.34,34.34,0,0,1,.19,11.43l.06-.38a35.77,35.77,0,0,1-2.77,9.19q-1.71,3.79-3.33,7.61a32.71,32.71,0,0,0-2.57,10.8c-.12,2.8.16,6.1,2.6,8a14.79,14.79,0,0,0,5,1.71,11.86,11.86,0,0,0,6.27-.68c.59-.14-.83-5.81-.83-5.81q-.46-2.27-1-4.51a1.69,1.69,0,0,0-.54-1.14l-.73,1.26.18-.29q-.61.57-.92-.13l0,.35a2.82,2.82,0,0,0-.28-2.24,6.61,6.61,0,0,1,.25-2.56l.36-4.3q.84-4.32,1.93-8.57c1.15-4.43,2.2-8.69,3-13.2q.55-2.76,1-5.54a43.72,43.72,0,0,0-.4-11.48,2,2,0,0,0-1,.92q-1.56,2-3,4.07t-2.91,4.16A2,2,0,0,0,520.23,238.59Z" transform="translate(-406.22 -214.3)"/><path class="cls-2" d="M518.55,242.58A32.43,32.43,0,0,1,517.38,259q-1.5,3.77-3.32,7.4c-1.83,3.92-3.59,7.8-4.15,12.14-.47,3.65-.4,7.9,2.62,10.56a13.72,13.72,0,0,0,5.45,2.35,11.1,11.1,0,0,0,6.88-.73c.38-.1-1.46-6.79-2.34-6.65a4.28,4.28,0,0,1-3.45-.18,5.33,5.33,0,0,1-2.49-2.54,5.83,5.83,0,0,1-.82-4.42,32.2,32.2,0,0,1,1.91-10.26c1.57-4.84,3.53-9.52,4.77-14.48A37.32,37.32,0,0,0,523.86,241q-.26-3-.54-6a1.1,1.1,0,0,0-.75.63q-1,1.44-2,2.95C520.06,239.47,518.42,241.37,518.55,242.58Z" transform="translate(-406.22 -214.3)"/><path class="cls-2" d="M518.46,240.79l-1,16.33-1.68,3.59c-1.21,2.42-2.54,4.77-3.6,7.27a31.45,31.45,0,0,0-2.45,8.34,15.61,15.61,0,0,0,.14,5.78,11.15,11.15,0,0,0,2.13,4.31,3.69,3.69,0,0,0,2.29,1.85,8.23,8.23,0,0,0,3.15,1.26,9.37,9.37,0,0,0,3.73.62c3.08.18,1.63.17,5.81-.8.56-.13.24-1.71-.33-1.61a15.48,15.48,0,0,1-12.23-1.94,11,11,0,0,1-2.24-4.05l-.28-6.37a33.27,33.27,0,0,1,3.85-11.9c2-4.39,4.11-8,4.76-12.91.58-4.41,0-6.87-.52-11.24C519.85,238.64,518.4,240.26,518.46,240.79Z" transform="translate(-406.22 -214.3)"/><path class="cls-2" d="M519.42,242.5l.58,5.75v-.37a32.63,32.63,0,0,1-1.69,11q-1.46,3.77-3.24,7.4c-1.8,3.93-3.54,7.9-4.12,12.23-.47,3.51-.44,8,2.55,10.57a13.46,13.46,0,0,0,5.24,2.12,10.94,10.94,0,0,0,6.69-.82c.7-.2-3.29-10.43-3.63-10.25-1.26.7-1.63.63-2.58-.45l.08.33c-.29-1.33-1-2.77-.91-4.16a65.36,65.36,0,0,1,1.51-9.92l-.08.34c1.65-5.67,3.61-11.21,4.85-17A39.05,39.05,0,0,0,526,237.92a28.9,28.9,0,0,0-.54-6.08,1.82,1.82,0,0,0-.89,1q-1.28,2.06-2.46,4.17t-2.32,4.25A1.82,1.82,0,0,0,519.42,242.5Z" transform="translate(-406.22 -214.3)"/><path class="cls-2" d="M519.79,239.58A34.24,34.24,0,0,1,520,251l.07-.4a34.45,34.45,0,0,1-2.79,9.17q-1.72,3.77-3.34,7.57a32.48,32.48,0,0,0-2.58,10.82c-.12,2.82.18,6.18,2.65,8.11a15.41,15.41,0,0,0,5.17,1.71,12,12,0,0,0,6.38-.73c.62-.15-.76-6.22-.76-6.23q-.43-2.44-1-4.85a1.89,1.89,0,0,0-.53-1.24l-.73,1.26.19-.31q-.63.55-.91-.17l0,.38a2.86,2.86,0,0,0-.26-2.29,6.71,6.71,0,0,1,.27-2.57l.36-4.3q.84-4.31,1.93-8.57c1.15-4.43,2.21-8.69,3-13.2q.5-2.78,1-5.57a43.93,43.93,0,0,0-.39-11.5,2.29,2.29,0,0,0-1.08,1q-1.65,2.22-3.22,4.5t-3.09,4.59A2.29,2.29,0,0,0,519.79,239.58Z" transform="translate(-406.22 -214.3)"/><path class="cls-2" d="M519.9,241.54a32.61,32.61,0,0,1-1.13,16.37q-1.46,3.79-3.24,7.45c-1.79,3.94-3.54,7.87-4.11,12.21-.46,3.52-.45,7.89,2.51,10.48a13.19,13.19,0,0,0,5.11,2.17,11,11,0,0,0,6.64-.67c.33-.08-3.06-9.12-3.8-8.78a1.78,1.78,0,0,1-2.12.24,17.11,17.11,0,0,1-1.71-3.38l0-2.85a45.94,45.94,0,0,1,2.5-12.35c1.36-4.25,2.77-8.34,3.75-12.71a38.4,38.4,0,0,0,1.33-11.25q-.15-3-.56-6a1.4,1.4,0,0,0-.8.8q-1.11,1.75-2.13,3.55C521.58,237.85,519.76,240.15,519.9,241.54Z" transform="translate(-406.22 -214.3)"/><path class="cls-2" d="M518.18,245.62a28.24,28.24,0,0,1-2.87,20q-2,3.56-3.63,7.26c-1.66,3.88-3.28,8.67-2.6,12.93a11.31,11.31,0,0,0,3.38,6.66,15.62,15.62,0,0,0,6.26,2.57,13.64,13.64,0,0,0,7.93-.83c.62-.16.37-2.61-.18-2.52a13.78,13.78,0,0,1-6.66.26,16.32,16.32,0,0,1-5.6-2.2,11,11,0,0,1-2.89-5.8,18.53,18.53,0,0,1,1.28-8.48,29,29,0,0,1,2.82-7.87q1.94-3.67,3.53-7.52a22,22,0,0,0,1.4-5.9,36.45,36.45,0,0,0-.34-11.3c-.08-.7-.89.55-.86.49A4.43,4.43,0,0,0,518.18,245.62Z" transform="translate(-406.22 -214.3)"/></g><g class="cls-1"><path class="cls-2" d="M479.16,308.58l18.17,5.62,18.36,5.61a3.05,3.05,0,0,0,3.3-1.46c3.18-4.2,3.09-9.7,2.64-14.69L514,308c7.52-3.55,15.52-6.72,22.1-12a36.9,36.9,0,0,0,4.46-4,51.31,51.31,0,0,0,7.08-8.78,2,2,0,0,0-1.38,0q-2.5.4-5,.9t-5,1.06a2,2,0,0,0-1.26.55,133.9,133.9,0,0,1-23.88,23.07l-.2.3a1.56,1.56,0,0,1-.26,1.91l1.16-.29-2,.27.34.09-.83-.24.33.13a1.71,1.71,0,0,0-.84-.6q-17.93-5.5-35.65-11.65a1.65,1.65,0,0,0,.37,1.19q1.1,2,2.3,3.94t2.43,3.86A1.65,1.65,0,0,0,479.16,308.58Z" transform="translate(-406.22 -214.3)"/><path class="cls-2" d="M480.17,310.81l18.23,5.62L516.78,322a3.1,3.1,0,0,0,3.39-1.62c3.08-4.43,2.88-10.11,2.26-15.23l-2.63,1.43a62.08,62.08,0,0,0,12.7-6.06q1.3-.86,2.57-1.76a33.81,33.81,0,0,0,6.47-5.3,50.05,50.05,0,0,0,7-8.76,1.83,1.83,0,0,0-1.31-.21q-2.43.07-4.85.26t-4.84.42a1.83,1.83,0,0,0-1.26.39l-3.19,4.06q-2.73,2.94-5.57,5.76a32,32,0,0,1-4.14,3.82,59.66,59.66,0,0,0-6.59,6.18l.25-.23a13.67,13.67,0,0,0-5,4.12,2.48,2.48,0,0,1-.38,2.46l.3-.15a1.84,1.84,0,0,1-2,.37l.34.16a2.27,2.27,0,0,0-.85-.64q-18-5.45-35.72-11.63a1.92,1.92,0,0,0,.4,1.3q1.16,2.21,2.42,4.37t2.56,4.29A1.92,1.92,0,0,0,480.17,310.81Z" transform="translate(-406.22 -214.3)"/><path class="cls-2" d="M481.17,311.26q18.3,4.34,36.19,10.14a5.52,5.52,0,0,0,1.35.17,4.35,4.35,0,0,0,1.85-.74c1.39-.89,2.86-3.93,3.38-5.28,1.87-5,1.5-10.45,1-15.57l-.87.51c1.86-.35,3.87-.59,5.7-1.1l5-1.77a10.69,10.69,0,0,0,2.54-1.73,46.21,46.21,0,0,0,6.44-5.4,66,66,0,0,0,7-9.12c.38-.55-2.15-.29-2.49.21a34.71,34.71,0,0,1-6.85,8.55q-6.32,8.32-17.48,9.62c-.29.06-.9.07-.87.51q1.83,10.51-5,19.8a376.42,376.42,0,0,0-36.87-9.78C480.56,310.11,480.68,311.13,481.17,311.26Z" transform="translate(-406.22 -214.3)"/><path class="cls-2" d="M480.43,316l18.13,5.42A63,63,0,0,0,517.61,327a2.61,2.61,0,0,0,2.58-.62l2.07-2.44,1.55-3.12c2-4.64,1.66-10.54,1.39-15.41l-.29.39a32,32,0,0,0,9.94-2.69q1.22-.8,2.41-1.66a33.51,33.51,0,0,0,6.41-5.29,51.76,51.76,0,0,0,7-9c.48-.69-1.54-1.06-1.79-.71A63.39,63.39,0,0,1,540,297.27a15.59,15.59,0,0,1-6.44,4.27,16.38,16.38,0,0,1-9.27,3.33.42.42,0,0,0-.29.39,34.5,34.5,0,0,1-2.45,14.64,7.06,7.06,0,0,1-2.65,2.6,3.28,3.28,0,0,1-3.5.71q-18.07-5.39-36.1-10.92c-.65-.2-.16,1-.11,1.11C479.32,313.89,479.83,315.8,480.43,316Z" transform="translate(-406.22 -214.3)"/><path class="cls-2" d="M479.57,311.39,497.79,317l18.38,5.59c1.64.21,2.49-.35,3.39-1.74,3-4.57,2.56-10.09,1.77-15.24l-1.14.64a47.24,47.24,0,0,0,11.22-5.09,15.28,15.28,0,0,0,2.61-1.76,34.16,34.16,0,0,0,6.48-5.33,50.15,50.15,0,0,0,7-8.73,2.08,2.08,0,0,0-1.39-.27q-2.62,0-5.24,0t-5.23.19a2.08,2.08,0,0,0-1.38.33,129.61,129.61,0,0,1-24.38,23.08l-.26.26q.9.72.12,1.19-.28.59-.78.17l.36.23a3.39,3.39,0,0,0-.84-.71q-17.88-5.47-35.52-11.68a2.53,2.53,0,0,0,.42,1.52q1.22,2.66,2.53,5.28t2.68,5.21A2.53,2.53,0,0,0,479.57,311.39Z" transform="translate(-406.22 -214.3)"/><path class="cls-2" d="M479.46,309.37,497.65,315l18.37,5.6a3.09,3.09,0,0,0,3.35-1.54c3.14-4.31,2.93-9.79,2.37-14.84L516.09,307c7.1-3,14.47-5.58,20.48-10.57l4.18-3.76a51,51,0,0,0,7.07-8.76,2.16,2.16,0,0,0-1.45-.1q-2.66.27-5.31.66t-5.29.82a2.16,2.16,0,0,0-1.36.49,130,130,0,0,1-24,23l-.24.29a1.21,1.21,0,0,1,0,1.68l1.27-.2a3.74,3.74,0,0,1-2.39-.16l.35.16a2.08,2.08,0,0,0-.85-.65q-17.92-5.5-35.62-11.69a2,2,0,0,0,.43,1.32q1.22,2.26,2.53,4.46t2.67,4.38A2,2,0,0,0,479.46,309.37Z" transform="translate(-406.22 -214.3)"/><path class="cls-2" d="M479.86,313.45,498,318.94l18.41,5.57c1.59.25,2.42-.36,3.33-1.67a20.23,20.23,0,0,0,2.41-6,16.25,16.25,0,0,0,1-4.3,19.93,19.93,0,0,0,.3-6.41l-1.07.77,6.07-2.49a71.93,71.93,0,0,0,9.27-5.7c4.63-3.54,7.93-7.85,11.26-12.61.22-.32-3.08-.39-3-.39-.6,0-2.48-.28-3,.36a52.55,52.55,0,0,1-10.53,11.66,102.69,102.69,0,0,0-8.73,6.71c-4.46,3.21-4.37,1.38-5.18,4.91a14.22,14.22,0,0,1-1.78,4.83q-.71,3.25-3.54,3.32-.53-.27-1.09-.49-18-5.32-35.8-11.38a1,1,0,0,0,.09.94q.6,1.58,1.3,3.11C478.08,310.37,478.9,313.16,479.86,313.45Z" transform="translate(-406.22 -214.3)"/><path class="cls-2" d="M481.64,311.87q13.78,3.88,27.47,8.09a29.53,29.53,0,0,0,10.38,2.93,3.77,3.77,0,0,0,1.8-.7c1.58-1.15,2.95-3.88,3.48-5.54l1.12-4.9a31.39,31.39,0,0,0-.12-10l-.58.47,5.46-1.33a20.14,20.14,0,0,0,7.14-3.58,32.63,32.63,0,0,0,6.47-5.22,50.61,50.61,0,0,0,6.91-9c.39-.57-1-.34-1-.33-.58.08-2.23.19-2.61.74A56.18,56.18,0,0,1,539,293.92a17.16,17.16,0,0,1-6.26,4.17,19,19,0,0,1-8.8,3.6c-.24.06-.6.15-.58.47a26.89,26.89,0,0,1,0,7.24,20.61,20.61,0,0,1-2.47,9.24l-3.78,1.78q-18.14-5.76-36.52-10.7C480,309.53,481.08,311.71,481.64,311.87Z" transform="translate(-406.22 -214.3)"/><path class="cls-2" d="M480.21,313.42l18.2,5.57,18.39,5.58,1.06.13a2.83,2.83,0,0,0,2.32-1.92c2.89-4.55,2.91-10.57,2.48-15.74l-.76.59a48.86,48.86,0,0,0,10.73-5.47,29,29,0,0,0,2.54-1.7,32.59,32.59,0,0,0,6.45-5.22,49,49,0,0,0,7-8.77c.15-.21-5-.6-4.89-.59-.62,0-4.32-.62-4.93.16A84.22,84.22,0,0,1,532,294l-4,3.81a70.43,70.43,0,0,0-8.85,7.68c-3.34,3.14-4.36,2.56-4.83,5.35a2.13,2.13,0,0,1-1.57,2.12q-.7,1.69-1.93,1.13l.33.18a2.09,2.09,0,0,0-.77-.67Q492.48,308.2,474.84,302a1.91,1.91,0,0,0,.29,1.32q1,2.29,2,4.54t2.19,4.48A1.91,1.91,0,0,0,480.21,313.42Z" transform="translate(-406.22 -214.3)"/><path class="cls-2" d="M479.35,310.3l18.2,5.6,18.37,5.6a3.07,3.07,0,0,0,3.36-1.63c3-4.42,2.73-9.88,2.05-15l-1.11.71a49.61,49.61,0,0,0,11.14-5.14q1.33-.85,2.59-1.79a34.41,34.41,0,0,0,6.46-5.35,50.63,50.63,0,0,0,7-8.74,2.08,2.08,0,0,0-1.41-.18q-2.61.12-5.22.35t-5.21.5a2.08,2.08,0,0,0-1.36.41l-3.21,4-5.61,5.79c-3.4,3.51-7.21,6.63-10.86,9.88l.28-.24L510,308.7l-.24.27a1.19,1.19,0,0,1,.12,1.66l1.29-.12a3.84,3.84,0,0,1-2.24-.25l.35.2a2.63,2.63,0,0,0-.84-.68q-17.89-5.48-35.54-11.68a2.23,2.23,0,0,0,.41,1.42q1.19,2.46,2.47,4.86t2.61,4.79A2.23,2.23,0,0,0,479.35,310.3Z" transform="translate(-406.22 -214.3)"/><path class="cls-2" d="M480.59,312.5l18.19,5.57,18.4,5.58c1.61.24,2.46-.34,3.37-1.69a16.85,16.85,0,0,0,2.24-5.94,14.91,14.91,0,0,0,.64-4,18.66,18.66,0,0,0-.08-5.86l-2,1.23c5.76-2.58,11.7-5.26,16.67-9.28l4.17-3.67a49.26,49.26,0,0,0,7-8.79,1.26,1.26,0,0,0-1-.28q-1.94-.06-3.88,0c-.7,0-4.26-.37-4.9.46a83.05,83.05,0,0,1-8.72,9.86,29.37,29.37,0,0,1-4.12,3.57,31.84,31.84,0,0,0-6.31,6c-.87.8-4.35,3.19-4.82,4.26a3.48,3.48,0,0,1-1.92,3.5q-.68,2-2.1,1.46l.32.14a1.64,1.64,0,0,0-.78-.62q-18-5.37-35.66-11.54a1.6,1.6,0,0,0,.29,1.19q1,2,2,4t2.17,3.91A1.6,1.6,0,0,0,480.59,312.5Z" transform="translate(-406.22 -214.3)"/><path class="cls-2" d="M481.07,316.59q13.74,4.07,27.45,8.23a32.88,32.88,0,0,0,10.42,2.94c1.63-.06,2.11-.87,3-2,4.46-5.41,4.22-13.32,3.78-19.87l-.3.38a32.18,32.18,0,0,0,10-2.68q1.22-.79,2.4-1.65a33.1,33.1,0,0,0,6.4-5.27,51.59,51.59,0,0,0,7-9c.47-.69-1.46-1.09-1.7-.74a62,62,0,0,1-8.85,10.83,15.47,15.47,0,0,1-6.45,4.26,16.55,16.55,0,0,1-9.35,3.33.43.43,0,0,0-.3.38,32.72,32.72,0,0,1-.77,9.8,10.37,10.37,0,0,1-3.12,6.88,4.23,4.23,0,0,1-4.5,1.54l-36.34-11c-.65-.2-.14,1-.09,1.1C479.94,314.57,480.46,316.41,481.07,316.59Z" transform="translate(-406.22 -214.3)"/></g><g class="cls-1"><path class="cls-2" d="M509.58,233.26c-5.53-1.14-11.14-1.07-15.11,3.64-2.37,2.81-3.18,6.37-4.07,9.87q-.62,2.48-1.3,4.94a8.49,8.49,0,0,1-2.75,4.5l.31-.22-2,.93,11.22-.66-31.54-3.92,10.7,8.72-10.43-13.75-.33-.26a8.58,8.58,0,0,0,1,2.55c.92,1.87,1.88,3.72,2.85,5.56q.66,1.28,1.36,2.53,3.43,6-5.87-6.93a2.43,2.43,0,0,0,.85,1.29q1.94,2.1,4,4.12t4.08,4a2.43,2.43,0,0,0,1.28.87c3.4.4,3.95.69,6.7.45l10.28-1.62a3.08,3.08,0,0,0,1.41-.5,20.66,20.66,0,0,0,9.63-8c.81-1.31,1.33-2.8,2.22-4a3.78,3.78,0,0,1,1.87-1.64l.73,0a4.32,4.32,0,0,1,2.27-.49,6.45,6.45,0,0,1,2.57.27A38.63,38.63,0,0,1,517,246.8a2.73,2.73,0,0,0-.52-1.56q-1.38-2.72-2.86-5.39t-3-5.31A2.73,2.73,0,0,0,509.58,233.26Z" transform="translate(-406.22 -214.3)"/><path class="cls-2" d="M510.5,235.49c-5.41-1.17-10.93-1.23-15,3.21-2.43,2.66-3.44,6.05-4.43,9.44q-.72,2.47-1.47,4.93a9.37,9.37,0,0,1-2.83,4.58l.23-.24-1.9.93,9.35-1.83L480.92,258l9.59.54a179.56,179.56,0,0,0-21.32-1.4l7.36,2.54-7.78-3.11,7.77,3.74-10.15-5.67,7,5.16a59.58,59.58,0,0,0-8.51-7q-.55-.27-.24.26a12.64,12.64,0,0,0,1.85,2q4.82,4.61-1.95-2.28a1.55,1.55,0,0,0,.66,1q1.55,1.56,3.18,3t3.29,2.92a1.55,1.55,0,0,0,1.06.57c7.84-.19,16.2,1.75,22.68-3.41a22,22,0,0,0,5.32-6.72c.72-1.36,1.31-3.15,2.45-4.22l1.55-1.18a4.18,4.18,0,0,0,1.65-.37c3-1,7,.3,9.92,1.2a1.66,1.66,0,0,0-.35-1.2q-1.06-2-2.22-4t-2.36-3.94A1.66,1.66,0,0,0,510.5,235.49Z" transform="translate(-406.22 -214.3)"/><path class="cls-2" d="M508.42,229.87c-5.8-1.12-11.34-.71-15.67,3.84-3,3.16-4.39,7.3-5.75,11.37a49.44,49.44,0,0,0-1.62,5.51,26.51,26.51,0,0,1-19.7,2.16l2.5,1.19-3.83-2.78,2.09,1.84a5.17,5.17,0,0,1-2.2-4.84,10.79,10.79,0,0,0-.9-3.5c-.06-.15-.43-1.27-.7-.66a5.43,5.43,0,0,0-.94,3.88l.55,1.65a8.74,8.74,0,0,0,2.55,3,12.51,12.51,0,0,0,2.63,1.84c3.77,1.95,8.4.65,12.48,1.55l-2.11-.65a12,12,0,0,0,5.16,1.35c1.9-.07,2.72-1,3.7-2.72a37.78,37.78,0,0,0,2.17-5.45,44.13,44.13,0,0,1,3.05-5.78,24.66,24.66,0,0,1,3.81-5.29c4.72-3.58,9.93-3.51,15.42-2.12.32.08-1.07-3-1-2.85C509.82,231.82,509.21,230,508.42,229.87Z" transform="translate(-406.22 -214.3)"/><path class="cls-2" d="M507.59,234.29a30.65,30.65,0,0,0-6.24.52c-2.93.55-6,1.21-8.33,3.25-2.71,2.36-4,5.22-5.09,8.62-.83,2.62-1.39,5.3-2.14,7.94a14.49,14.49,0,0,1-1,3,7.47,7.47,0,0,1-2.11,3.4l1-.46a6.39,6.39,0,0,1-4.22-.22,21.92,21.92,0,0,1-3.2-1.18c-3.41-.75-8.82-.7-10.77-.83l1.14.27c-2.9-2.71-4.79-4.47-3.36-9.28.1-.35-.68-1.1-.92-.53-.92,2.2-1.56,3.75-.55,6a6.25,6.25,0,0,0,1,1.65,29.56,29.56,0,0,0,2.27,2.52,2.5,2.5,0,0,0,.71.21q5.48.74,11,1.56c1.63.59,3.12,1.48,4.92,1.17a10.22,10.22,0,0,0,3.1-.86,10.54,10.54,0,0,0,1.57-2.18,29.17,29.17,0,0,0,1.87-5.71,53.75,53.75,0,0,1,2.08-8.06q2.74-6.86,9.12-8.32a23,23,0,0,0,4.7-1,21.45,21.45,0,0,1,3.51-.46A.48.48,0,0,0,507.59,234.29Z" transform="translate(-406.22 -214.3)"/><path class="cls-2" d="M510.13,236.36c-5.4-1.15-10.94-1.25-15,3.13-2.44,2.62-3.45,6-4.48,9.38l-1.5,4.92a9.24,9.24,0,0,1-2.84,4.54l.29-.27-1.9.9,12.45-2.66-28.28,1.45,11.94,3.58a34.82,34.82,0,0,0-16.37-7.89q-.41-.16,0,.31l.72.72q1.37,1.16,2.78,2.26c1.71,1.36,3.4,2.78,5.22,4a4.7,4.7,0,0,0,4.22.73,31.47,31.47,0,0,0,13.86-1.52,32.83,32.83,0,0,0,4.17-2.21,15.71,15.71,0,0,0,3.87-3.19,20.75,20.75,0,0,0,3.86-5.11l.66-1.37a4.82,4.82,0,0,1,2.39-2.13l-.39,0a4.74,4.74,0,0,0,2.64-.43,6.41,6.41,0,0,1,2.52.14,51.66,51.66,0,0,1,6.46,1.55,2,2,0,0,0-.51-1.3q-1.35-2.2-2.8-4.33t-2.93-4.25A2,2,0,0,0,510.13,236.36Z" transform="translate(-406.22 -214.3)"/><path class="cls-2" d="M510,234.38c-5.47-1.13-11-1.13-15,3.46-2.38,2.73-3.25,6.22-4.17,9.65q-.65,2.46-1.36,4.9a8.66,8.66,0,0,1-2.77,4.48l.31-.23-1.93.93,11.34-1.24q-13.74.42-27.48,0l10.95,4.55-14.58-7.52,9.53,7.28-9.43-8.11a2,2,0,0,0-1.08-.74q-.33-.19-.12.13a2,2,0,0,0,.79,1c1.25,1.36,2.63,2.61,4,3.88q1.58,1.53,3.23,3,5.92,5.39-8.06-8.12a2.3,2.3,0,0,0,.86,1.23q1.94,2,4,3.88t4.08,3.77a2.3,2.3,0,0,0,1.27.8c3.56.35,3.95.6,6.77.3l10.27-1.74a3.38,3.38,0,0,0,1.4-.55,22.1,22.1,0,0,0,9.57-8c.8-1.25,1.3-2.67,2.17-3.85a3.47,3.47,0,0,1,1.82-1.53H507a4.18,4.18,0,0,1,2.23-.45,6.36,6.36,0,0,1,2.54.3,39.81,39.81,0,0,1,5.52,1.39,2.53,2.53,0,0,0-.5-1.5q-1.35-2.59-2.8-5.14T511,235.58A2.53,2.53,0,0,0,510,234.38Z" transform="translate(-406.22 -214.3)"/><path class="cls-2" d="M509,235.57c-4.62-1-9-1.28-13.16,1.38-3.11,2-4.77,4.92-6.09,8.29a42.84,42.84,0,0,0-1.93,5.68,13.41,13.41,0,0,1-4.95,8.73l5.3-1.59-7.29,1.62,5.34-.78-7.33.35,5.28.12q-8.47-1-17-1.47l4.8,1.2-7.72-5.73,1.41,2.14-.58-1.76a18.16,18.16,0,0,0-1.41-3.42c-.1-.17-.57-1.2-.79-.57-.66,1.91-1.06,3.27.15,5.16a10.64,10.64,0,0,0,4,3.56,21.75,21.75,0,0,0,4.8,1.2c5.16.91,8.71,1.3,13.1,0a16.85,16.85,0,0,0,3.9-1.37c2.37-1.39,3.39-4.1,4.27-6.53,1.53-4.23,2.69-8.86,6.89-11.35,4-2.39,8-1.45,12-.32.85.24-.48-1.54-.4-1.43q-.77-1.1-1.6-2.15A3.5,3.5,0,0,0,509,235.57Z" transform="translate(-406.22 -214.3)"/><path class="cls-2" d="M509.43,231.38c-4.65-.85-9.22-.89-13.39,1.76s-6,6.85-7.57,11.4q-1.25,3.74-2.21,7.56a6.37,6.37,0,0,1-4.21,5.05l1.69,0a30.57,30.57,0,0,1-7-2,25,25,0,0,0-10-.94l2.34,1.12-4.33-6.7a7.22,7.22,0,0,0-.67-2.76c-.06-.12-.42-1-.65-.5a7.42,7.42,0,0,0-.92,4,6.85,6.85,0,0,0,.56,1.64,10.43,10.43,0,0,0,3.41,3.76,8.91,8.91,0,0,0,2.34,1.12l9.16.59,2,.87a12,12,0,0,0,1.77.35,6.33,6.33,0,0,0,3.18-.12c1.24-.39.9-.18,1.73-1.4A19.79,19.79,0,0,0,489,251a51.05,51.05,0,0,1,3.06-7.24c1.18-2.33,2.46-4.7,4.61-6.22a13.9,13.9,0,0,1,4.95-2.3,9,9,0,0,1,4.42-.26,13.18,13.18,0,0,1,5,.43c.7.15,0-1.08,0-1.23C510.83,233.71,510.07,231.5,509.43,231.38Z" transform="translate(-406.22 -214.3)"/><path class="cls-2" d="M509.87,236.69c-4.58-.91-10.07-1.25-13.86,2.07-2.69,2.36-4.23,5.54-5.41,8.87l-1.2,3.62a13.74,13.74,0,0,1-4.8,8.43l7.17-2.43-9.14,2.55,7.25-1.44-9.25,1.11,7.26-.35q-9.81-.12-19.6-.56l7.4,1.57-6.62-2,5,1.75-6.3-2.54,4.7,2.2-5.86-3.17L471,259l-5.23-3.88,4,3.14-5.2-5.31,4.33,5.13-3.19-5.74c.39.7-1.14-2-1.27-1.62-2.11,6.1,2.37,7.88,5.81,8.78a38.58,38.58,0,0,0,5.34,1.16c5.88.68,10.42-.61,15.67-2.62,3.28-1.25,5.09-5.06,6.34-8.11a24.25,24.25,0,0,1,1.57-3.34,5.33,5.33,0,0,1,2.8-2.92,8.27,8.27,0,0,1,3.16-1.59,21.62,21.62,0,0,1,9.18,1c.23.06.33.09.28-.2a7,7,0,0,0-1.52-2.43c-.66-.94-1.33-1.87-2-2.77C510.71,237.33,510.37,236.79,509.87,236.69Z" transform="translate(-406.22 -214.3)"/><path class="cls-2" d="M509.91,235.37c-5.44-1.14-11-1.19-15.06,3.29-2.42,2.68-3.35,6.12-4.33,9.52q-.7,2.46-1.43,4.91a8.93,8.93,0,0,1-2.81,4.51l11.72-3A97.37,97.37,0,0,1,468.69,257l11.18,3.89-14.73-6.8,9.7,6.59-9.57-7.44-.89-.6c-.69-.05-.21.22.14.66a24.8,24.8,0,0,0,3.21,2.91q1.19,1,2.41,2.06,5.61,4.77-6.15-5.73a2.18,2.18,0,0,0,.89,1.15q2,1.82,4,3.55t4.15,3.43a2.18,2.18,0,0,0,1.28.7c8.29-.7,18,.73,24.21-5.89a29.39,29.39,0,0,0,4.16-5.06,11.6,11.6,0,0,0,1.18-2.3,4.65,4.65,0,0,1,2.33-2.13h-.4a4.33,4.33,0,0,0,2.6-.41,6.3,6.3,0,0,1,2.5.14,50.69,50.69,0,0,1,6.43,1.56,2.31,2.31,0,0,0-.53-1.41q-1.39-2.41-2.88-4.76t-3-4.67A2.31,2.31,0,0,0,509.91,235.37Z" transform="translate(-406.22 -214.3)"/><path class="cls-2" d="M510.15,235.79c-4.59-.91-10.1-1.23-13.88,2.13-2.67,2.38-4.2,5.59-5.38,8.91-1.53,4.34-2,9.94-6.67,12.42l7.1-2.18-8.46,2,6.58-.93-8.57.61,6.59.12q-9.45-.87-18.93-1.11l6.75,1.9L467.92,257l5.77,2.41-7-3.32,5.45,3L465.62,255l5.09,3.51-4.85-4.09,4,3.82-4.63-7.79c-.1-.18-.58-1-.68-.35l3.7,7.77c.53.82,2,1,2.86,1.24,1.37.43,3.14,1.31,4.62,1.19,3.21-.27,7.22-.22,10.6-1.11,1.28-.34,2.55-.71,3.82-1.1a5.74,5.74,0,0,0,3.65-2.48,18.21,18.21,0,0,0,2.2-3.42,64.15,64.15,0,0,1,2.79-5.9l1.45-2.07a10.12,10.12,0,0,1,3.84-2.3c3.23-1.22,7.18-.19,10.36.71a.94.94,0,0,0-.2-.88q-.77-1.4-1.63-2.74C512.2,238.35,511.14,236,510.15,235.79Z" transform="translate(-406.22 -214.3)"/><path class="cls-2" d="M508.09,234.6a43.74,43.74,0,0,0-8.92,1.16,14.62,14.62,0,0,0-5.73,2.73,13.2,13.2,0,0,0-3.32,4.54,22.11,22.11,0,0,0-2.34,6.2l-1,4.08a6,6,0,0,1-3.59,5.61q-1.88,3.54-4.81,1.49l-2.08-.88-.22-.07q-5.09-.5-10.2-.73l.8.18c-2.85-2.79-4.83-4.68-3.09-9.48.17-.48-.62-.56-.79-.13-.59,1.48-1.25,2.59-1,4.24a8,8,0,0,0,1.54,3.26,29.77,29.77,0,0,0,2.26,2.55c3.24,1.42,12.93,2.24,11.66,1.78,1.65.61,3,1.36,4.75,1.22a7.16,7.16,0,0,0,2.79-.81,11.44,11.44,0,0,0,1.52-2.17,26.56,26.56,0,0,0,1.78-5.65q.52-2.15,1-4.31,1.92-10.68,10.53-12.62a22,22,0,0,0,4.79-1,20.36,20.36,0,0,1,3.57-.41C508.35,235.34,508.6,234.6,508.09,234.6Z" transform="translate(-406.22 -214.3)"/></g><g class="cls-1"><path class="cls-3" d="M493.85,268.27a95.33,95.33,0,0,0-6.69,13.44,102.34,102.34,0,0,0-4.59,15l.38.06,4.79.24a4.11,4.11,0,0,0,2.53-.62,7.53,7.53,0,0,0,4-1.83,6,6,0,0,0,2-1.35,15.83,15.83,0,0,0,2.86-3.08l3.26-5.54a13.78,13.78,0,0,1-.52-10.17,7.93,7.93,0,0,0,.37-3.83,3.92,3.92,0,0,0-1.45-2.87l-2.43-.24a9.93,9.93,0,0,0-4.82,1.85,5.31,5.31,0,0,0-2.31,3,3.9,3.9,0,0,0-.16,4c0,.36.49.64.74.84a52.11,52.11,0,0,0,4.38,2.93,16.88,16.88,0,0,0,2.82,1.68s1.18.46.56-.13l1.2-13.95-2.25,2.75-6.06,8.65,2.28-1.59-3.3,2.12-.2.28,9.51,4.29-3.77-2,3.72,5.27-.06-4.58-7.4,11.23,3.59-3.48-5.41,3.49,3.85-2.23-6.78,2.33,6.22-1.75a101.4,101.4,0,0,1,5-14,100.06,100.06,0,0,1,6.95-11.91,2,2,0,0,0-1.39-.11q-2.56.25-5.11.61t-5.09.76A2,2,0,0,0,493.85,268.27Z" transform="translate(-406.22 -214.3)"/><path class="cls-3" d="M494.32,269.81a93.38,93.38,0,0,0-6.75,13.48,103.51,103.51,0,0,0-4.63,15l.35,0c5,.1,3.43.55,6.83-.66q1.13-.38,2.24-.8l3.23-2.49a31.27,31.27,0,0,0,3.84-4.35A4.19,4.19,0,0,0,501,287.1a38,38,0,0,0,1.54-10,15,15,0,0,0,.76-3.9,3.52,3.52,0,0,0-1.09-2.8,1.52,1.52,0,0,0-1.87-1,8.27,8.27,0,0,0-5.91,1.48l-1.78,1.65a4.88,4.88,0,0,0-.93,5.1c0,.29.51.49.71.6a34.78,34.78,0,0,0,4,1.64,10.32,10.32,0,0,0,2.53.86c.07,0,1,.15.46-.26l2.12-10.56-6.28,8.55c.27.64-.81,1.33-1.19,1.66-1,.89-.7.91-1.18,2.77l.17.24,7.3,5.45-4.62-5.69a14.78,14.78,0,0,1-2.15,9.75l.74-1.32-3.85,3.95,2.87-2.65-7.74,4,7.77-3.46a103,103,0,0,1,5-14.16,95.19,95.19,0,0,1,7-12.2,1.63,1.63,0,0,0-1.24,0q-2.21.51-4.39,1.13t-4.35,1.28A1.63,1.63,0,0,0,494.32,269.81Z" transform="translate(-406.22 -214.3)"/><path class="cls-3" d="M490.34,267.17a144.74,144.74,0,0,0-7.72,17.62c-2,5.93-1.17,3.33-3.26,11.5-.05.21,0,.42.26.44a11.84,11.84,0,0,0,8-.15,15.56,15.56,0,0,0,7.15-3.18,33.61,33.61,0,0,0,8.52-7.39,11.39,11.39,0,0,0,1.24-1.77,53.8,53.8,0,0,1,.72-13.84,8.3,8.3,0,0,0,.1-2.42,6.64,6.64,0,0,0-1.48-3.46,9.67,9.67,0,0,0-.91-1.14l-2.93-.71a9.34,9.34,0,0,0-4.94,1,9.1,9.1,0,0,0-4.15,2.67l-1.55,2.75a13.82,13.82,0,0,0,.18,3.18c0,.53,1.64.29,1.69-.07a4.29,4.29,0,0,1,1.64-4l2-1.29c3.18-1.68,8.2-1.29,8.61,3.42a8.65,8.65,0,0,1-.06,2.82q3,10-3.38,15.27a26.06,26.06,0,0,1-10.29,6.75,14.52,14.52,0,0,1-8.21.62l.26.44a82.46,82.46,0,0,1,6.23-18.64q2.26-5.17,4.72-10.26C493.15,266.65,490.55,266.74,490.34,267.17Z" transform="translate(-406.22 -214.3)"/><path class="cls-3" d="M490.22,273.17A114.84,114.84,0,0,0,483.7,287a103.92,103.92,0,0,0-4.53,15.24.23.23,0,0,0,.16.31,17.3,17.3,0,0,0,11-1L495,299a37,37,0,0,0,7.3-6.31q6.31-6.65,2.8-16.75l.09-2.38a6.52,6.52,0,0,0-2.12-4.47c-2.1-1.52-5.49-.64-7.62.15a10.37,10.37,0,0,0-5.19,3.71c-1.53,2.12-1,1.17-1.33,4.57-.08.83,1.14.31,1.17-.16l14.13-3.77,0,2.23a9.93,9.93,0,0,0-.32,2.47l-.07,11.36a21.15,21.15,0,0,1-5.42,5.77,22.16,22.16,0,0,1-6.08,3.74,14.8,14.8,0,0,1-6.5,2,14,14,0,0,1,.69-15q2.84-7,6.36-13.67c.27-.55-.8-.23-.86-.21C491.53,272.33,490.48,272.66,490.22,273.17Z" transform="translate(-406.22 -214.3)"/><path class="cls-3" d="M493.67,270.44A97.78,97.78,0,0,0,486.95,284l-2.59,7.38c-2.37,7.33-4.64,9.23,3.52,7.49a16.59,16.59,0,0,0,7.79-4.25c2.45-2.13,3-3.42,4.44-6.12q3.66-5,1.14-11.48a8.47,8.47,0,0,0,.49-2.72,4.41,4.41,0,0,0-.37-2.62,2.26,2.26,0,0,0-2.45-1.82A7.47,7.47,0,0,0,492.3,272a5.27,5.27,0,0,0-2,3.2q.11,1.45.32,2.89c0,.32.39.56.62.74a37.69,37.69,0,0,0,3.75,2.43,11.07,11.07,0,0,0,2.43,1.37s1,.35.51-.17l-5.84-5.86,3.93,4.76,4-11-8.15,8.12,8.85,6.63-6.25-5.85,5.89,9.31-2.59-8.68-1.27,8.89.56-1.85L492.88,295,496,289.6l-13.44,9,12.53-6.34a101.1,101.1,0,0,1,5.07-14,100.47,100.47,0,0,1,7.13-12.11,2.37,2.37,0,0,0-1.52.16q-2.72.75-5.41,1.61T495,269.71A2.37,2.37,0,0,0,493.67,270.44Z" transform="translate(-406.22 -214.3)"/><path class="cls-3" d="M494.14,268.91a97.21,97.21,0,0,0-6.7,13.45,102.56,102.56,0,0,0-4.61,15l.39,0a30.12,30.12,0,0,0,5,.08l4.4-1.46,3.56-2.54,6.16-8.84-.76-9c.35-1.59.88-2.91.55-4.59a2.38,2.38,0,0,0-.82-1.81,1.44,1.44,0,0,0-1.86-1,8,8,0,0,0-4.9,1,7.25,7.25,0,0,0-3.44,3.56c-.86,1.92-.53,1.37-.15,4a1.7,1.7,0,0,0,.63.87,47.82,47.82,0,0,0,3.93,3.16,13.69,13.69,0,0,0,2.56,1.83s1.11.53.56-.09l-7.2-8,5.21,6.89,3.94-12.7-8.31,9.83,9.17,5.72-5.73-4.79,5,8.11-1.13-7-2.81,9.61,1.31-3-4.78,6.94,3.44-4.4L484,296.53l11.22-4.23a100.58,100.58,0,0,1,5.06-14,102.31,102.31,0,0,1,7-11.94,2.13,2.13,0,0,0-1.44,0q-2.62.41-5.22.93t-5.19,1.09A2.13,2.13,0,0,0,494.14,268.91Z" transform="translate(-406.22 -214.3)"/><path class="cls-3" d="M491.84,271.66c-1.79,3.33-3.51,6.57-5,10a120.73,120.73,0,0,0-6.17,18.63l.27,0c4,.18,6.2.83,9.91-1.09a25,25,0,0,0,7.74-6.52,30.08,30.08,0,0,0,3-4.1q1-5.85,2.48-11.6a9,9,0,0,0,.41-3.27,5.77,5.77,0,0,0-1.36-3.23,3.38,3.38,0,0,0-3.09-1.75l-2.66.09a8.46,8.46,0,0,0-4.43,2.29c-1.93,2.05-1.46,2.85-1.37,5.48,0,.44,5.17-1.08,4.84-1.69q-2.14-3,2.29-.14,3.83-.15,2.89,2.75A37.66,37.66,0,0,1,497,290a5.83,5.83,0,0,0-1.65,2.34,7.06,7.06,0,0,1-3.86,3.75l-3.8.06a89.46,89.46,0,0,1,11.57-26.94c.12-.2.18-.3-.12-.33a7.48,7.48,0,0,0-2.78.79c-1.09.38-2.18.77-3.25,1.21C492.69,271,492.09,271.2,491.84,271.66Z" transform="translate(-406.22 -214.3)"/><path class="cls-3" d="M491.18,268.72q-3.49,6.77-6.4,13.81a105.55,105.55,0,0,0-4.57,15.26c-.06.24.06.39.32.41,4.59.41,5.69,1.08,10.06-.85a35.66,35.66,0,0,0,8-5.08,26.87,26.87,0,0,0,5.81-6.41l1.16-11.73a9.3,9.3,0,0,0,.54-3.41,7.21,7.21,0,0,0-.66-3.53l-1.69-2a6.67,6.67,0,0,0-4.53-.48,9.32,9.32,0,0,0-4.72,1.45L492,268.07l-1.54,2.65a26.19,26.19,0,0,0,.13,3.11c0,.52,1.73.11,1.76-.24a3,3,0,0,1,.81-3,4.62,4.62,0,0,1,2.58-2.09c1.43-.66,5.1-1.41,6.58-.23l1.84,4.52a48.63,48.63,0,0,1-3.27,15.88c-4.69,5.34-10.57,9.21-18.45,8.47l.32.41a107.84,107.84,0,0,1,4.67-15.14q3.06-6.85,6.19-13.67C493.95,268,491.41,268.27,491.18,268.72Z" transform="translate(-406.22 -214.3)"/><path class="cls-3" d="M493.17,271.77a96.8,96.8,0,0,0-6.69,13.52l-2.59,7.4q-6.34,8.79.5,7.73a6.87,6.87,0,0,0,2.81,0,14.56,14.56,0,0,0,7.64-3.88q.71-.73,1.41-1.49a36.25,36.25,0,0,0,3.52-4.14l.48-2.47q1.61-5.85,3.21-11.7c.27-1.83.35-4.64-1.66-5.65a7,7,0,0,0-5.57,0,5.34,5.34,0,0,0-2.8,1.89,5.62,5.62,0,0,0-1.15,5.18c0,.54,4.48-.26,4.52-.27.23,0,3.24-.44,2.52-.91l-1.65-2.24-.29.2.52.2-.36-.43a9.27,9.27,0,0,1,0,5.16l-.74,1.15q-6.11,4.71-2.18,9.32l-.07-.59a7.06,7.06,0,0,1-2,4.13q-3.51,1.85-.38-3.12A77.62,77.62,0,0,1,496,280.11a86.43,86.43,0,0,1,7-12.36,1.45,1.45,0,0,0-1.15.14q-2,.71-3.93,1.52t-3.87,1.66A1.45,1.45,0,0,0,493.17,271.77Z" transform="translate(-406.22 -214.3)"/><path class="cls-3" d="M493.71,269.67a97.52,97.52,0,0,0-6.71,13.5,103,103,0,0,0-4.62,15h.41a39.74,39.74,0,0,0,5.16,0c3.74-.51,7-3.05,9.43-5.75a12,12,0,0,0,3-4.43,6.61,6.61,0,0,0,1.23-7.34,8.09,8.09,0,0,1-.16-5.33,8.24,8.24,0,0,0,.38-2.67l-.39-1.77-1.27-1.69-2.36-.36-2.49.45a7.7,7.7,0,0,0-4.55,4.06c-.9,1.93-.55,1.36-.2,4.08,0,.35.37.6.61.82a43.06,43.06,0,0,0,3.81,2.89,12.46,12.46,0,0,0,2.48,1.66s1.07.47.54-.11l-7-7.6,5,6.46,4-12-8.34,8.83,10,6.64-6.2-6.09,5,9.11-1.47-8.06-2.51,10.33,1.26-3.39-4.7,7.63,3.44-5-12.95,7.74,11.63-5a100.84,100.84,0,0,1,5.07-14,100.78,100.78,0,0,1,7.08-12,2.32,2.32,0,0,0-1.5.07q-2.72.58-5.42,1.27T495.07,269A2.32,2.32,0,0,0,493.71,269.67Z" transform="translate(-406.22 -214.3)"/><path class="cls-3" d="M493.49,271a108.93,108.93,0,0,0-6.58,13.44,104.07,104.07,0,0,0-4.63,15.06l.31,0c5,.26,3.41.67,6.87-.42q1.13-.3,2.23-.71l3.23-2.26,2.69-2.76a5.64,5.64,0,0,0,2.67-4c1.1-4.37,3-8.69,3.81-13.12a12.4,12.4,0,0,0,.24-2.29,3.61,3.61,0,0,0-1.19-2.88,1.76,1.76,0,0,0-1.87-1.15,7.88,7.88,0,0,0-5.81.93l-1.79,1.53a5.3,5.3,0,0,0-1,5.12c0,.61,3.93.11,4,.1s3-.17,2.29-.69l-1.18-2.46-.3.18c1.5.31,1.1,4.55.9,5l-.68,1.23a22.53,22.53,0,0,0-4.84,10.68q.7,3.08-1.51,3-4.76,1,1.35-7.17l2.72-7.07a92.54,92.54,0,0,1,6.88-12.34,1.18,1.18,0,0,0-1,0q-1.77.53-3.51,1.16C496.9,269.39,494,270,493.49,271Z" transform="translate(-406.22 -214.3)"/><path class="cls-3" d="M490.11,273.83q-2.88,6.84-5.86,13.62a106.65,106.65,0,0,0-4.5,15.23.26.26,0,0,0,.18.3,17.27,17.27,0,0,0,10.9-1,33.44,33.44,0,0,0,8.73-5.59,19.87,19.87,0,0,0,5.58-6.52q.38-8,.62-15.92-.27-1.16-.56-2.32a5.15,5.15,0,0,0-1.7-2.29c-1.58-1-4.57-.62-6.19-.2a14.33,14.33,0,0,0-5.54,2.89c-2.45,2.29-2,2.82-2.42,5.94-.07.59.9.51.92,0q16.37-9.26,14.55-.67a7.79,7.79,0,0,0-.18,1.35L502.3,293a26.34,26.34,0,0,1-9.47,6.75,10.1,10.1,0,0,1-4.47,1.52q-5.86,2.4-4.34-7.23l2.49-7.39a70.28,70.28,0,0,0,5.09-13.06C491.81,273,490.24,273.52,490.11,273.83Z" transform="translate(-406.22 -214.3)"/></g><g class="cls-4"><path class="cls-5" d="M408.49,345.58a500.14,500.14,0,0,0,59.93-35.84c1.57-1.1.07-3.7-1.51-2.59A500.14,500.14,0,0,1,407,343c-1.72.87-.21,3.46,1.51,2.59Z" transform="translate(-406.22 -214.3)"/></g><path class="cls-6" d="M508.42,238.43s.27-3.79-1.08-3.79-3-2.7-3-2.7L503,226.53s-2.16,3.52-2.16,4.87a14.09,14.09,0,0,1-.54,3.79c-.27.81-1.08,2.16-1.35,3.24s-3.79,7-3.79,8.11-4.6,4.87-5.68,7a16.38,16.38,0,0,1-2.7,3.79s-3-3.79-.81-5.14,2.7-4.6,2.7-4.6l.81-7.57-3-6.22.81-2.7L485,232.79s-2.55-11.6-2.55-12.17-1-5.09-1-5.09-1.56,7.93-2,9.91-1.7,5.09-2.55,5.24-1.7-.57-2,.57a20.87,20.87,0,0,1-1.7,3.54s-1.84,1.27-2.55-.14-1,1.27-1,2a19.75,19.75,0,0,1-1.56,5c-.57,1-1.42,1.84-1.84.42s-.71-2.69-.71-2.69-1.13.85-1.27.28-1-3.11-1-3.11-3.54,13.3-3.54,15.43V254c0,1.13-.14-.42-1.13.85s-1.13,6.51-1.56,8.35-6.23-2.26-7.08-2.41-1.56.85-1.56.85-2.69-2.83-3.26-2.83-1.42.14-2.12.14-3.54-2.41-5-2.41,4,4.39,4,5.38-1.42.85-.57,2.69a17.62,17.62,0,0,0,3,4s-1.42.85-1.27,2,1.42,3.11,1.56,4,2.83,3.26,3,3.68-2.41,0-2.12,1.84,5.66,5.24,5.66,5.24-3.82.28.28,2.69-.57,2-.28,2.83a36.86,36.86,0,0,1,1.42,3.54,5.33,5.33,0,0,0,3.82,3.68c2.69.85,10.19,4.81,11.6,7.22s6.51,5.52,7.78,6.37,10.33,4.25,10.76,4.1.14,2.12.85,2.69a21.51,21.51,0,0,0,2.83,1.56s.71-3.11,2.12-2.12,5.38,3.26,6.23,3,2,1.27,3.11,1.42,1.84.42,1.84-.14,4.67,1.27,6.79,2.12,4.25,1.42,5.66,1.84l7.93,2.41a33.1,33.1,0,0,0-3.54-3.82c-2.26-2.12-3.4-3.68-4.39-4.39s-4.25-3.11-4.25-3.11,1.27.28,1.84-.57-2-2.41-2.69-3,.71-.85,2.41-.71,6.65.85,6.93-.14-1.13-2.41-1.13-2.41a21.35,21.35,0,0,1,4,.71,6.12,6.12,0,0,0,3.11.28,20.06,20.06,0,0,1,3.26.14c1.27-.57,3.11.14,4.81.57a1.63,1.63,0,0,0,2.12-1s5.52,1,6.23,1.13-2.41-2.83-3-3.11-3.11-2.12-3.82-2.41.71-2,.71-2l-4.39-4.81a53.63,53.63,0,0,0,5.38-2c.57-.42-3.82-.14-1.7-1a15.76,15.76,0,0,1,5-.85s-1-1.13.28-1.42,2.83-.14,3.4-.42-.71-1.84-1.56-2.83-.14-1.7.57-2,5.52-3.26,5.52-3.26L547.28,285s11.32-8.21,11.46-9.06-3.26,1.42-5.24,1.7-6.37,1.27-6.51.71,0-2.12-1.56-1a5,5,0,0,1-3.11,1.27c-.71,0-.14-2.83-.14-2.83a5.84,5.84,0,0,0-3.11.71,5.83,5.83,0,0,1-3.54,1c-.71-.14.14-1.84-1.84-1.42s-5,1.13-5,1.13,2.26-2.41,2.26-4.1a6.21,6.21,0,0,1,.42-2.55c.14-.57-2.55.42-3.4,1.27s-3.11.85-3.26,1.42-2.12,1.13-2.69,1.13-3.4,3.4-5.09,3.54,2.69-4,3.26-5,1.27-2.26,2.12-3.68.71-4,1-5,2.55-.42,4.39-4.25,4.53-4.81,5.09-6.51,2-6.93,2-6.93-.57,2.69-2.55,3.26-3.11,1-3.54.28,1.42-1.7,1.13-3a11.45,11.45,0,0,0-.71-2.12c-.14-.42,2.12-3,2.12-3s.14.28.14-1.27,1.92-3.5,1.42-3.54c-2.12-.14-3.11.14-3.82-.14s1.42-5.09,1.7-5.94-.42-.57-.57-1,1.27-4.25.57-5-.57-2-2-.57a36.61,36.61,0,0,0-3.54,3.68c-.28.57-1.56.85-2.55,2.26s-2.41,3.11-3.26,3.11-3.26.28-4.39,1.27-4.25,1.56-5.52,2.83S508.42,238.43,508.42,238.43Z" transform="translate(-406.22 -214.3)"/><path class="cls-6" d="M548,282.07c-1.33,1.33-32,11.27-41.11,13.26s-19,5.3-24.75,8.4-14,1.53-14,1.53,9.57-15.9,16.2-20.32,12.6-10.17,14.81-13.26,24.75-38,26.3-40" transform="translate(-406.22 -214.3)"/><path class="cls-6" d="M468.68,303.28s9.28-49.73,9.06-52.82.88-17.68,2.21-20.11" transform="translate(-406.22 -214.3)"/><path class="cls-6" d="M446.58,264.6c2.21,3.32,5.08,7.51,8.84,10.39s12.82,25,12.82,25-9.95-7.74-12.16-8" transform="translate(-406.22 -214.3)"/><path class="cls-6" d="M474.42,271.24s-6.85-10.83-8.4-15.69a56.45,56.45,0,0,1-2-11.05" transform="translate(-406.22 -214.3)"/><path class="cls-6" d="M502.49,265.71c-.22-1.33-1.55-26.3-.44-29.62a20.09,20.09,0,0,0,1.11-5.75" transform="translate(-406.22 -214.3)"/><path class="cls-6" d="M501.61,268.58s15.47-6.85,21.22-10.39,7.51-4.86,8.18-5.3" transform="translate(-406.22 -214.3)"/><path class="cls-6" d="M513.32,293.34s6.41-9.5,9.28-12.38,5.3-4.64,6-6.63" transform="translate(-406.22 -214.3)"/><path class="cls-6" d="M501.39,297.32s18.12,4.42,24.09,7.07,11.27,5.08,11.27,5.08" transform="translate(-406.22 -214.3)"/><path class="cls-6" d="M492.11,300.63s14.15,3.76,20.11,7.51" transform="translate(-406.22 -214.3)"/><path class="cls-6" d="M471.11,307.92s16.13-.66,22.32,1.77,11.49,7.29,16.36,9.72,6.41,3.54,7.07,3.76" transform="translate(-406.22 -214.3)"/><path class="cls-6" d="M476.41,257.31a6.89,6.89,0,0,1-3.32-4.64,12.77,12.77,0,0,0-2.65-5.53" transform="translate(-406.22 -214.3)"/><path class="cls-6" d="M474,255.1s-1.11,1.55-3.32.22" transform="translate(-406.22 -214.3)"/><path class="cls-6" d="M472.21,240.51c0,1.55,5.53,9.95,5.53,9.95s8-6.41,8-10.17" transform="translate(-406.22 -214.3)"/><path class="cls-6" d="M477.52,242.72s7.29-5.75,7.74-6.85" transform="translate(-406.22 -214.3)"/><path class="cls-6" d="M511.33,252.23s9.95,0,11.93-2.21" transform="translate(-406.22 -214.3)"/><path class="cls-6" d="M515.75,245.16s11.05-3.32,12.82-4.86" transform="translate(-406.22 -214.3)"/><path class="cls-6" d="M472,280.52c0-.66-6.41-9.28-8-12.16a15.42,15.42,0,0,1-1.55-6.41" transform="translate(-406.22 -214.3)"/><path class="cls-6" d="M539.18,292.23c-2.87.66-10.83-3.32-10.83-3.32s-2.21-3.32,1.33-6.63" transform="translate(-406.22 -214.3)"/><path class="cls-6" d="M535.65,286.71s1.33-6.41,2.65-6.85" transform="translate(-406.22 -214.3)"/><path class="cls-6" d="M468.46,306.82s-54.15,39.12-60.34,36.69" transform="translate(-406.22 -214.3)"/><path class="cls-6" d="M474.25,274.1c3.8-1.17,6.57-3.51,7.3-4.82s3.51-2.78,4.09-2.92" transform="translate(-406.22 -214.3)"/><path class="cls-6" d="M493.1,277.75s-1.17-.29-1.31-3.94-.15-7.6.15-8.18.88-8.18.88-8.62" transform="translate(-406.22 -214.3)"/><path class="cls-6" d="M497.92,272.93a21.52,21.52,0,0,0,6.28-2c3.07-1.61,3.51-1.9,4.67-2.19a22.81,22.81,0,0,1,4.24-.15" transform="translate(-406.22 -214.3)"/><path class="cls-6" d="M506.1,270.45s1.9,2.19,3.8,2.19a37.52,37.52,0,0,0,4.09,0" transform="translate(-406.22 -214.3)"/><path class="cls-6" d="M518.81,284.76s1.61-4.24,1.9-5.26a27.35,27.35,0,0,1,2.19-3.94" transform="translate(-406.22 -214.3)"/><path class="cls-6" d="M528,285.2c.44-.29,5-2.63,5-2.63" transform="translate(-406.22 -214.3)"/><path class="cls-6" d="M478.63,290.08s8.71-.56,13.52-3.52,10-5.19,13.34-5.74a31.67,31.67,0,0,0,7.78-3" transform="translate(-406.22 -214.3)"/><path class="cls-6" d="M483.26,289a51.54,51.54,0,0,1,10,.37,20.9,20.9,0,0,0,8.52-.56" transform="translate(-406.22 -214.3)"/><path class="cls-6" d="M497.53,283.41a35.92,35.92,0,0,0,2.59-3.7,13.82,13.82,0,0,1,2.41-2.78" transform="translate(-406.22 -214.3)"/><path class="cls-6" d="M469.92,293.78s2.22-3.33,3.7-5.74,1.85-5.74,2.59-6.48" transform="translate(-406.22 -214.3)"/><path class="cls-6" d="M473.26,298.78s3.89,3.33,6.48.37,5.56-6.3,8.52-5.93" transform="translate(-406.22 -214.3)"/><path class="cls-6" d="M509.79,319.42a13,13,0,0,0,3.46,3.68" transform="translate(-406.22 -214.3)"/><path class="cls-6" d="M504.91,317.14s2.25-1.79,4.62-.89" transform="translate(-406.22 -214.3)"/><path class="cls-6" d="M501.18,314.61s2.53,4.77,3.58,5.36,3.58,1.79,3.58,1.79" transform="translate(-406.22 -214.3)"/><path class="cls-6" d="M527.11,305.37s2.83,4,3.87,4.47" transform="translate(-406.22 -214.3)"/><path class="cls-6" d="M531.43,306.86a9.5,9.5,0,0,1,3.28-1.64" transform="translate(-406.22 -214.3)"/><path class="cls-6" d="M519.36,302.39s1.49,4.32,3.13,4.77" transform="translate(-406.22 -214.3)"/><path class="cls-6" d="M522.64,303s.15-2.09,3-2.23a21.1,21.1,0,0,1,5.66.6" transform="translate(-406.22 -214.3)"/><path class="cls-6" d="M510.12,300.61a9.87,9.87,0,0,1,2.23-2.38,14.4,14.4,0,0,1,4.77-1.34" transform="translate(-406.22 -214.3)"/><path class="cls-6" d="M511.61,300.46a3.29,3.29,0,0,0,1.94,2.38c1.79.89,3,.89,3.87,1.64" transform="translate(-406.22 -214.3)"/><path class="cls-6" d="M499.7,303.74s2.53,2.38,3.43,3a17.26,17.26,0,0,0,3.87,1.19" transform="translate(-406.22 -214.3)"/><path class="cls-6" d="M506.4,304.78a25.77,25.77,0,0,1,5.81.15" transform="translate(-406.22 -214.3)"/><g class="cls-7"><path class="cls-8" d="M450.89,303l4.69.57-.35-.08a33.06,33.06,0,0,1,8.6,3.1A35.36,35.36,0,0,1,479,322.66l-1.92-5q1.19,3.93,2.63,7.77a9.13,9.13,0,0,0,1.75,3.38,9.73,9.73,0,0,0,5,3,59.51,59.51,0,0,0,9.24,1.31,96.48,96.48,0,0,0,14.14.77c7.7-.3,15.43-2.61,21.07-8.12,2.67-2.61,5.35-5.78,6.73-9.28l1.18-3.68a24.88,24.88,0,0,0,.59-8.16c0-.3-6.2,2.23-6.05,2.17q-2.34,1-4.64,2.06a2,2,0,0,0-1.12.8,9.85,9.85,0,0,1-1.59,5.45,19.14,19.14,0,0,1-3.89,4.64,24.32,24.32,0,0,1-13.24,5c-6.1.46-12.15-.52-18.08-1.88a27.46,27.46,0,0,1-6.85-2.18c-2.13-1.14-3.58-3-5.23-4.69l.22.26a68.58,68.58,0,0,0-6.24-7.57,46.26,46.26,0,0,0-9.81-7.26,51.17,51.17,0,0,0-11.19-4.72,63.11,63.11,0,0,0-9.55-1.78,1.71,1.71,0,0,0,.72,1.05q1.66,1.64,3.4,3.2t3.51,3.09A1.71,1.71,0,0,0,450.89,303Z" transform="translate(-406.22 -214.3)"/><path class="cls-8" d="M452.06,305.06a29.1,29.1,0,0,1,9.14,1.86l-.36-.12a31.88,31.88,0,0,1,8,4.3,33.77,33.77,0,0,1,11.1,13.82l-3-8.15q1.67,5.48,3.57,10.88a9.17,9.17,0,0,0,1.7,3.44,9.53,9.53,0,0,0,5,3.08,61,61,0,0,0,9.4,1.25,97.94,97.94,0,0,0,14.29.68,38.37,38.37,0,0,0,11.8-2.24,29.49,29.49,0,0,0,9.4-6.23c2.64-2.69,5.31-6,6.62-9.52l1.1-3.77a24.73,24.73,0,0,0,.38-8.17c0-.43-6,1.33-5.84,1.29-.25.07-5.58,1.19-5.63,2a11.26,11.26,0,0,1-1.53,5.89,19.55,19.55,0,0,1-4,5,24.49,24.49,0,0,1-13.53,5.55c-6.2.57-12.36-.33-18.42-1.59a28,28,0,0,1-7-2.08c-2.19-1.11-3.58-2.92-5.2-4.71l.23.28a72.94,72.94,0,0,0-6-7.72,43.24,43.24,0,0,0-11.75-8.68,53.73,53.73,0,0,0-9-3.62,52.53,52.53,0,0,0-9.53-1.87,2,2,0,0,0,.72,1.16q1.7,1.87,3.48,3.66t3.59,3.55A2,2,0,0,0,452.06,305.06Z" transform="translate(-406.22 -214.3)"/><path class="cls-8" d="M453.91,304.84a24.06,24.06,0,0,1,8.18,1.16q15.49,8.28,18.52,23a6.66,6.66,0,0,0,3,4c2.94,1.8,7.78,1.64,11,1.86,6.52.46,13,1.26,19.58.44a31.82,31.82,0,0,0,16.61-6.71,34.28,34.28,0,0,0,5.85-5.94,32.4,32.4,0,0,0,4.24-7.36,17.7,17.7,0,0,0,1.22-4.35,27.34,27.34,0,0,0,.22-9.14c0-.44-2.55.17-2.5.89a26.58,26.58,0,0,1-.1,8.35q-4.47,14.53-16.65,20.43c-4.43,2-9.45,2.5-14.24,2.7a80.16,80.16,0,0,1-9.51-.35q-4.26-.44-8.54-.66a14,14,0,0,1-8.72-3.14q-.87-2.86-1.73-5.72a34.53,34.53,0,0,0-7.36-11.79,31.71,31.71,0,0,0-7.31-5.75,25.43,25.43,0,0,0-4.39-2.18,22.44,22.44,0,0,0-7.78-.77C452.84,303.8,453.42,304.81,453.91,304.84Z" transform="translate(-406.22 -214.3)"/><path class="cls-8" d="M453,310a20.27,20.27,0,0,1,6.71,1.1,24.76,24.76,0,0,1,12.9,7.8l2.85,3.4a32.42,32.42,0,0,1,4.19,7.82l-.67-2.54c.74,3.83.93,8.49,4.59,10.83,3.06,2,7.34,1.84,10.79,2.1a144,144,0,0,0,14.78.79c4.83-.12,10.3-.77,14.78-2.7a35.12,35.12,0,0,0,10.1-7A31.55,31.55,0,0,0,541,321c1.81-4.38,1.65-8.82,1.4-13.39,0-.58-1.66-.72-1.65-.16a26.64,26.64,0,0,1-.56,8.51,19.67,19.67,0,0,1-3.11,7.44A30.25,30.25,0,0,1,525.52,334c-5.54,3-11.87,3.8-18.09,3.77A100.51,100.51,0,0,1,489.65,336a13.47,13.47,0,0,1-7.93-3.57,11.61,11.61,0,0,1-1.79-4.16c-.84-3.42-3-6.6-5.18-9.29a35.51,35.51,0,0,0-6.81-6.36,34.71,34.71,0,0,0-8.07-4.12,28.43,28.43,0,0,0-8.5-1.46C450.67,307,452.33,309.88,453,310Z" transform="translate(-406.22 -214.3)"/><path class="cls-8" d="M451.38,305.57a21.75,21.75,0,0,1,6.92,1.21,23.57,23.57,0,0,1,6.37,2.54l-.38-.2a42.46,42.46,0,0,1,8.83,7,40.52,40.52,0,0,1,6.19,9.35l-2.1-6.62c.48,1.68,2,8.07,3.24,10.89a8.77,8.77,0,0,0,6.27,5.08A63,63,0,0,0,496.1,336a98.6,98.6,0,0,0,14.23.62,37.63,37.63,0,0,0,11.73-2.29,25.61,25.61,0,0,0,4.79-2.76,26.87,26.87,0,0,0,4.48-3.52c2.57-2.67,5.2-6,6.44-9.48l1-3.74a24.9,24.9,0,0,0,.32-8c0-.46-6.46,1.08-6.34,1.05-.17,0-6.14,1-6.17,1.79a10,10,0,0,1-.78,4.28,19.62,19.62,0,0,1-2.6,3.8,16.54,16.54,0,0,1-3.84,3,20.31,20.31,0,0,1-4.5,2.3,35.77,35.77,0,0,1-14.32,1.15,72.51,72.51,0,0,1-8-1.3,42.78,42.78,0,0,1-7.54-2.08c-5.55-2.28-8.51-8.5-12.66-12.56a44.32,44.32,0,0,0-10.15-7.35A54.16,54.16,0,0,0,453.3,297a36.31,36.31,0,0,0-4.59-1.32,28.83,28.83,0,0,0-6.88-1.16,2.47,2.47,0,0,0,.77,1.36q1.81,2.25,3.71,4.43t3.83,4.33A2.47,2.47,0,0,0,451.38,305.57Z" transform="translate(-406.22 -214.3)"/><path class="cls-8" d="M451.23,303.74a29.26,29.26,0,0,1,9.12,1.83l-.37-.12a32.18,32.18,0,0,1,8,4.25,34.13,34.13,0,0,1,11.3,13.71L476.23,315q1.72,5.62,3.73,11.14a9.12,9.12,0,0,0,1.75,3.44,9.58,9.58,0,0,0,5,3.07,60.4,60.4,0,0,0,9.28,1.29,97,97,0,0,0,14.17.74c7.71-.31,15.47-2.65,21.08-8.22,2.64-2.62,5.33-5.83,6.66-9.33l1.13-3.69a24.94,24.94,0,0,0,.51-8.11c0-.35-6.6,1.93-6.45,1.88q-2.5.87-5,1.84a2.12,2.12,0,0,0-1.23.75,7.76,7.76,0,0,1-.88,4.29q-1.29,1.94-2.68,3.8a13.94,13.94,0,0,1-3.91,3,16.44,16.44,0,0,1-4.53,2.27,35.8,35.8,0,0,1-14.36,1.09,61.19,61.19,0,0,1-14.33-3c-3.24-1.16-5.39-3.16-7.61-5.69q-1.47-1.8-2.85-3.65a42.63,42.63,0,0,0-7-6.86,50.87,50.87,0,0,0-13.16-7.28,59.13,59.13,0,0,0-13.85-3.2,2.06,2.06,0,0,0,.79,1.17q1.81,1.88,3.7,3.67T450,303A2.06,2.06,0,0,0,451.23,303.74Z" transform="translate(-406.22 -214.3)"/><path class="cls-8" d="M452,307.43l8.73,1.74a23.55,23.55,0,0,1,6,3.14c5.92,3.87,9.28,8.45,12.66,15.34l-1.11-3.84c.57,2.49,1.19,7.81,3.18,10.14a9.46,9.46,0,0,0,5.06,3,61,61,0,0,0,9.61,1.16,101.28,101.28,0,0,0,14.49.52,39.25,39.25,0,0,0,11.94-2.39,30.38,30.38,0,0,0,9.62-6.46,29.78,29.78,0,0,0,6.85-9.85l1.23-4a25.07,25.07,0,0,0,.5-8.5c0-.18-5,.57-5.15,1.59a18.33,18.33,0,0,1-1.33,6.68,23.17,23.17,0,0,1-3.4,5.76,26.9,26.9,0,0,1-10.53,7.8,34.85,34.85,0,0,1-11.82,2.35A76.16,76.16,0,0,1,490.68,330c-4.23-.86-8.29-2.13-10.67-6.07l-1.1-2a24.29,24.29,0,0,0-3.66-5.94,38.86,38.86,0,0,0-14.67-11.41A46.76,46.76,0,0,0,447,301a1,1,0,0,0,.29.86q.91,1.33,1.91,2.58C449.7,305.09,451,307.31,452,307.43Z" transform="translate(-406.22 -214.3)"/><path class="cls-8" d="M454.16,305.62a20.47,20.47,0,0,1,10.59,2.61q11,4.89,15.81,17.63l-.48-1.41c.5,2.42.74,6,2.43,8.08,1.42,1.75,3.11,2.4,5.34,2.93a32.36,32.36,0,0,0,5.81.65c5.52.3,11,1,16.55.88,7.81-.23,15.36-2,21.47-7a33.93,33.93,0,0,0,8-9.33,24.25,24.25,0,0,0,3-7.88,26.19,26.19,0,0,0,.25-8.93c0-.27-3.41.57-3.38,1.45a31.63,31.63,0,0,1-.35,7.82,23.72,23.72,0,0,1-2.72,7,29.69,29.69,0,0,1-4.49,5.88l-2.84,2.49-10.61,5.21c-6,1.6-12.58,1.27-18.75.75l-4.68-.44-10.72-1.83-3.12-6.1a2.88,2.88,0,0,0-.18-.64,31.79,31.79,0,0,0-6.43-10.65,34,34,0,0,0-11.28-8.5c-3.61-1.7-7-2.15-11-2.51-.6-.05.14.82.15.83A3.15,3.15,0,0,0,454.16,305.62Z" transform="translate(-406.22 -214.3)"/><path class="cls-8" d="M452.2,307.44a28.15,28.15,0,0,1,9.08,1.86l-.34-.14,4.47,2.06-.33-.16a34.52,34.52,0,0,1,7.22,5.39,33.5,33.5,0,0,1,7.5,11.12l-2.49-8.43q1.29,5.67,3,11.2a8.56,8.56,0,0,0,1.62,3.51,9.09,9.09,0,0,0,5.09,3.09,62.88,62.88,0,0,0,9.53,1.13,98.88,98.88,0,0,0,14.39.55,38.15,38.15,0,0,0,11.84-2.39,29.7,29.7,0,0,0,9.41-6.46c2.65-2.76,5.29-6.1,6.57-9.73l1.08-3.86a25,25,0,0,0,.3-8.22c0-.51-4.6.59-4.54.57-.26.05-4.32.57-4.39,1.31a14.54,14.54,0,0,1-1.87,6.62A21.29,21.29,0,0,1,525,322a26.05,26.05,0,0,1-14.28,6c-6.37.65-12.71-.2-19-1.39a28.8,28.8,0,0,1-7.3-2.06l-2.34-1.44q-1.34-1.64-2.71-3.25l.22.3a76.42,76.42,0,0,0-5.56-7.82,38.27,38.27,0,0,0-9.45-7.71,45.81,45.81,0,0,0-6.37-3.34,51.84,51.84,0,0,0-13.65-3.43,1.82,1.82,0,0,0,.56,1.19q1.43,2,2.94,3.84t3.07,3.74A1.82,1.82,0,0,0,452.2,307.44Z" transform="translate(-406.22 -214.3)"/><path class="cls-8" d="M451.12,304.58a29.07,29.07,0,0,1,9.13,1.84l-.37-.15,4.53,2-.37-.17a36.57,36.57,0,0,1,7.32,5.28,34.16,34.16,0,0,1,7.79,11l-2.05-6.12a104.62,104.62,0,0,0,3.24,10.38,8.54,8.54,0,0,0,3.27,3.84c2.77,1.74,6.78,1.87,9.9,2.18a120.36,120.36,0,0,0,14.22,1c4.66-.09,9.76-.38,14.06-2.32a31.08,31.08,0,0,0,9.29-6.16,32.7,32.7,0,0,0,5.63-7.66,14.3,14.3,0,0,0,2-5.41,24.8,24.8,0,0,0,.42-8c0-.41-6.48,1.5-6.33,1.46-.24.07-6.08,1.33-6.12,2.19a9.7,9.7,0,0,1-2.12,6.16,17.35,17.35,0,0,1-3.1,3.52c-4.15,3.45-9.67,4.78-14.95,4.92a62.6,62.6,0,0,1-19.08-2.77,14.74,14.74,0,0,1-5.76-2.8,44.63,44.63,0,0,1-4.62-5.17l.25.31a46.24,46.24,0,0,0-12.74-11.77,58.42,58.42,0,0,0-6.77-3.44,33.26,33.26,0,0,0-6.86-2.49,38.61,38.61,0,0,0-9.17-1.72,2.23,2.23,0,0,0,.76,1.26q1.78,2.06,3.65,4t3.76,3.94A2.23,2.23,0,0,0,451.12,304.58Z" transform="translate(-406.22 -214.3)"/><path class="cls-8" d="M452.6,306.59a28.33,28.33,0,0,1,9.07,1.84l-.33-.1a31.57,31.57,0,0,1,7.93,4.35,33.44,33.44,0,0,1,10.91,14l-2.51-7.36q1.38,5.13,3,10.17a8.92,8.92,0,0,0,1.63,3.42,9.47,9.47,0,0,0,5.06,3.06,61.21,61.21,0,0,0,9.51,1.2,98.64,98.64,0,0,0,14.4.6,38.65,38.65,0,0,0,11.87-2.33,29.69,29.69,0,0,0,9.48-6.39c2.68-2.76,5.34-6.07,6.66-9.72l1.12-3.86a24.81,24.81,0,0,0,.34-8.28c0-.48-4.63.87-4.55.85-.3.08-4.28.81-4.35,1.58a18.84,18.84,0,0,1-1.11,5.55,19.48,19.48,0,0,1-4.06,5.91,24,24,0,0,1-11.29,6.55,46.65,46.65,0,0,1-16.88.61,77.48,77.48,0,0,1-9.85-1.76,22.31,22.31,0,0,1-6.33-2.75l.23.26q-1.37-1.61-2.69-3.26-1.32-2-2.52-4.1a40,40,0,0,0-10-10.23,49,49,0,0,0-8.71-4.8,49.88,49.88,0,0,0-13.51-3.38,1.58,1.58,0,0,0,.56,1.08q1.41,1.72,2.9,3.37t3,3.27A1.58,1.58,0,0,0,452.6,306.59Z" transform="translate(-406.22 -214.3)"/><path class="cls-8" d="M453.64,310.53l4.63.51a17.28,17.28,0,0,1,9.68,4.86,15.64,15.64,0,0,1,6.78,5.34,27,27,0,0,1,5.59,9.58l-.68-2.38c.76,3.91.93,8.44,4.7,10.73,3.13,1.9,7.24,1.73,10.77,2,5.76.39,11.44,1,17.23.6,4.87-.32,9.74-1.19,14.06-3.54a33,33,0,0,0,9.6-7.69,28.54,28.54,0,0,0,6.15-11.16,22.06,22.06,0,0,0,1-6.63,40.3,40.3,0,0,0-.27-4.64c0-.57-1.57-.76-1.57-.2l-.56,8.55-1.21,4a27.84,27.84,0,0,1-5.63,8.2,29.47,29.47,0,0,1-15.95,9,67.08,67.08,0,0,1-19.2.35c-3.37-.34-6.79-.64-10.11-1.29a6.84,6.84,0,0,1-4.09-1.69,5.4,5.4,0,0,1-3.94-5.08l.44,2.42a21.73,21.73,0,0,0-.78-4,29,29,0,0,0-6.42-10.1,32.91,32.91,0,0,0-5.23-4.76,33.84,33.84,0,0,0-7.92-4.22,29.87,29.87,0,0,0-8.76-1.48C451.3,307.63,453,310.46,453.64,310.53Z" transform="translate(-406.22 -214.3)"/></g></svg>